<?xml version="1.0" encoding="UTF-8"?>
<svg id="Layer_1" xmlns="http://www.w3.org/2000/svg" version="1.1" viewBox="0 0 785.94 529.69">
  <!-- Generator: Adobe Illustrator 29.1.0, SVG Export Plug-In . SVG Version: 2.1.0 Build 142)  -->
  <defs>
    <style>
      .st0 {
        fill: #fae2d4;
      }

      .st1 {
        fill: #f8b582;
      }

      .st2 {
        fill: #a94c29;
      }

      .st3 {
        fill: #fddecd;
      }

      .st4 {
        fill: #212332;
      }

      .st5 {
        fill: #fff;
      }

      .st6 {
        fill: #6a2e19;
      }

      .st7 {
        fill: #0078fc;
      }

      .st8 {
        fill: #005047;
      }

      .st9 {
        fill: #9ad3fc;
      }

      .st10 {
        fill: #f3ac4c;
      }
    </style>
  </defs>
  <path class="st0" d="M97.84,320.13c34.33,39.1,75.05,72.11,118.79,100.12,104.22,66.75,229.82,98.94,352.95,79.56,49.98-7.87,103.13-20,138.1-59.42,32.48-36.62,41.29-87.06,31.31-134.1C700.83,126.45,488.59,52.03,326.06,42.82c-37.41-2.12-74.97-3.19-112.45-2.52-43.79.78-88.89,8.64-125.35,32.92-94.55,62.98-51.87,176.93,9.57,246.91Z"/>
  <path class="st1" d="M674.31,311.87c-14.67-8.31-30.28-14.77-45.51-21.94-32.1-15.1-63.19-32.36-92.99-51.61-30.1-19.44-58.68-40.98-86-64.14-13.9-11.78-27.83-23.48-43.29-33.19-14.68-9.23-30.26-16.96-45.99-24.23-25.87-11.96-52.44-22.82-77.05-37.25-6.63,4.21-13.25,8.43-19.85,12.68-1.47.94-2.93,1.88-4.39,2.82-1.39.9-2.78,1.8-4.18,2.71-6.82,4.41-13.61,8.85-20.39,13.31-15.96,10.49-31.83,21.11-47.61,31.87-2.82,1.92-5.64,3.85-8.46,5.79-7.84,5.37-15.65,10.78-23.45,16.22-2.75,1.92-5.49,3.83-8.23,5.76-5.12,3.59-10.23,7.2-15.33,10.83,1.72,1.24,3.45,2.49,5.18,3.73,37,26.6,74.26,52.96,113.2,76.68,19.7,12,39.84,23.19,60.43,33.61,20.02,10.13,40.28,19.84,59.73,31.06,19.88,11.46,38.35,24.96,56.78,38.58,18.53,13.69,37.34,26.94,56.89,39.15,9.59,5.99,19.3,11.77,29.15,17.33,5.17,2.92,10.38,5.78,15.63,8.58,1.45.77,2.9,1.54,4.35,2.3,1.6.84,2.06,1.37,3.5.21,1.82-1.48,3.43-3.28,5.2-4.83,2.3-2.01,4.67-3.93,7.09-5.79,2.66-2.06,5.38-4.03,8.13-5.97,3.49-2.46,7.02-4.87,10.54-7.27,4.09-2.8,8.15-5.65,12.16-8.57,4.85-3.52,9.64-7.13,14.34-10.85,11.76-9.29,23.07-19.14,34.06-29.31,5.08-4.7,10.1-9.47,15.06-14.29,1.14-1.11,2.28-2.22,3.41-3.33,2.27-2.23,4.54-4.47,6.79-6.72,4.33-4.32,8.63-8.67,12.92-13.03,3.25-3.32,6.49-6.65,9.73-9.98-.52-.3-1.03-.6-1.55-.89Z"/>
  <g>
    <path class="st2" d="M286.05,177.77c-2.39-1.8-4.99-3.59-7.81-4.49-5.44-1.72-10.4,1.24-14.64,4.91-4.23,3.66-7.71,8.3-10.48,13.33-3.22,5.85-5.54,12.21-7.29,18.73-1.75,6.54-3.27,13.83-8.39,18.34-.14.12-.22.26-.25.41-.33,0-.63.22-.64.69-.08,4.96,3.06,9.27,7.31,10.77,5.06,1.78,10.6-.34,14.75-3.75,4.81-3.95,8.45-9.6,11.91-14.89,3.76-5.75,7.2-11.74,10.29-17.94,3.12-6.23,5.88-12.75,7.28-19.69.58-2.9.2-4.74-2.05-6.43Z"/>
    <path class="st2" d="M606.73,301.59c-5.48.75-28.47,6.17-53.75,11.35-1.5.31-3.01.62-4.52.92-23.48,4.73-48.14,9.01-62.05,9-.62.1-1.26.15-1.9.17-2.44.08-4.92-.1-7.38-.3-3.86-.13-7.73-.38-11.57-.8-.33-.04-.66-.07-1-.11-.37-.04-.73-.09-1.1-.13-.37-.05-.75-.1-1.12-.15-.49-.06-.98-.13-1.47-.2-3.52-.39-7.03-.85-10.51-1.43-13.17-2.2-26.25-6.12-37.45-13.59-11.84-7.91-21.59-18.99-30.49-29.92-4.6-5.66-6.97-12.25-10.39-18.71-3.49-6.57-2.44-7.55-6.63-13.72-6.82-10.02-15.94-18.12-24.15-26.98-.32.39-.65.78-.97,1.18-.64.8-1.92-.14-1.28-.94.38-.48.78-.95,1.17-1.42-.73-.81-1.46-1.62-2.17-2.44-.67-.78.56-1.77,1.23-1,.65.75,1.31,1.48,1.97,2.22,1.73-2.02,3.55-3.96,5.46-5.81,2.3-2.23,5.04-5.36,8.12-6.49,3.26-1.19,6.99,1.24,9.89,2.45,3.86,1.62,2.54-2.43,6.43-.86,25.56,10.34,51.96,20.78,72.65,39.61,9.38,8.54,16.43,18.63,23.05,29.36,1.6,2.59,3.2,5.2,4.86,7.78,3.22,1.49,6.6,2.66,10.07,3.45,6.97,1.59,13.83,1.33,20.7.37.53-.08,1.06-.15,1.6-.23,2.25-.35,4.5-.76,6.76-1.21,5.34-1.05,10.69-2.04,16.14-2.34,5.22-.28,10.45-.1,15.67.15,20.72,1.01,41.43,2.08,62.14,3.14,1.49,8.1,1.22,9.44,2,17.64Z"/>
    <path class="st2" d="M296.7,112.42c5.95-3.04,11.81-6.23,17.59-9.58,4.24,13.83,8.48,27.66,12.73,41.49.03.1.08.19.14.26-6.2,2.2-12.7,3.32-19.04,5.03-3.8-12.4-7.61-24.8-11.41-37.2Z"/>
    <path class="st2" d="M599.29,333.89c-1.14.35-61.93,18.96-76.58,19.4-17.22.52-23.01,1.95-28.81-1.64-17.49-10.81-27.96-27.92-38.49-45.47l-.26-.03c-.68-.08-1.35-.16-2.03-.26-1.72-.22-3.44-.45-5.15-.7-10.24-1.48-20.46-3.51-30.21-7.01-9.45-3.39-18.55-8.31-26.71-14.16-6.57-4.7-11.86-10.34-15.55-17.34-.62-1.18-1.2-2.4-1.73-3.65-.17-.41-.39-.88-.64-1.4-1.41-2.94,2.14-9.04-5.88-12.83-.3-.14-1.13.27-2.15-.52-7.67-5.99-37.41-24.78-54.12-34.67-4.62-2.73-8.25-4.79-10.14-5.7-4.29-2.09-8.51-4.54-11.92-7.93-2.88-2.86-9.73-9.09-12.65-12.04-.53-.53-.93-.95-1.15-1.23-1.32,5.51-12.2,45.4-15.18,44.62-2.78-.72-5.48-2.03-7-4.59-1.48-2.51-1.56-5.56-1.39-8.38.47-8.22,1.43-16.43,2.16-24.63.74-8.4,1.49-16.81,2.24-25.21,1.18-13.29,3.76-29.94,18.58-34.53,7.02-2.18,13.63.05,20.38,2.09,3.84,1.16,3.8,1.74,7.83,1.29,3.36-.37,6.52-1.59,9.31-3.45.04-.22.16-.42.39-.56,2.86-1.72,6.52-1.42,9.01.84,1.74,1.57,1.76,2.39,4.13,3.08,2.29.66,8.03-2.47,10.32-2.97,8.44-1.84,6.35-2.21,15.22-3.03,34.23-3.16,28.8,32.24,30.26,35.56,3.78,8.58,7.83,17.98,10.59,24.92,1.77,4.44,12.01,5.23,17.05,6.18.87.16,1.63.3,2.24.41,3.64.66,6.68,1.13,9.46,1.54,1.32.2,2.57.38,3.8.56,1.92.28,3.79.57,5.73.92.24.04.48.09.73.13.31.06.63.11.95.18.18.03.36.07.54.11.42.08.85.17,1.28.26.6.12,1.21.26,1.84.4.27.06.54.12.82.19,4.01.93,7.76,2.19,11.26,3.76,19.37,8.65,31.3,26.43,39.64,46.38,2.48,5.5,4.72,11.12,7.2,16.62,3.15,6.99,6.48,13.9,9.98,20.72,2.17,4.23,4.42,8.42,6.73,12.57,3.22,4.02,7.59,8.61,11.72,9.76,5.79,1.61,16.27,1.22,22.2,1.84,6.34.66,22.55,2.34,29.61,2.94,6.98.59,14.62,1.92,21.62,1.73.15,4.28,2.18,10.77,2.93,14.96Z"/>
    <path class="st6" d="M464.57,321.81c-.37-.04-.73-.09-1.1-.13-.37-.05-.75-.1-1.12-.15-2.53-3.36-5.03-6.74-7.48-10.16-4.55-6.36-8.47-13.07-12.65-19.67-2.14-3.38-4.43-6.68-7.08-9.69-2.44-2.77-5.2-5.21-7.83-7.78-4.97-4.86-8.59-10.26-9.81-17.2-1.22-6.96-.36-14.11.55-21.05.13-1.01,1.72-.89,1.59.12-1.02,7.8-2.06,16.02.13,23.72,2.04,7.16,7.28,11.94,12.48,16.92,5.23,5.01,9.3,10.78,13.07,16.93,4.19,6.83,8.45,13.56,13.2,20.02,1.99,2.71,4.01,5.41,6.04,8.1Z"/>
    <path class="st4" d="M303.33,127.05c-1.62-3.42-4.3-6.54-6.95-9.2-1.52-1.53-3.19-2.89-5.08-3.94-2.03-1.13-4.23-1.92-6.43-2.66-4.86-1.64-9.75-3.22-14.65-4.74-.1-.25-.19-.5-.3-.74-.1-.23-.47-.07-.36.16.08.18.14.36.22.54-.11.09-.13.28.04.33.04.01.07.02.11.03,2.81,7.13,2.34,14.98,3.35,22.48.26,1.95.62,3.89,1.17,5.79.47,1.63,1.03,3.32,2.09,4.68,2.05,2.64,5.79,3.94,8.99,4.39,6.43.9,14.41-1.13,18.04-6.71,2.01-3.09,1.33-7.12-.22-10.4Z"/>
    <path class="st2" d="M254.95,149.59c-4.22,13.04-8.09,26.2-11.48,39.52-2.17,8.52-4.17,17.09-5.88,25.73-1.44,7.25-2.45,15.57,1.86,21.73,3.53,5.05,9.31,6.39,14.22,2.59,2.55-1.98,4.52-4.8,6.26-7.64,2.05-3.37,3.86-6.92,5.46-10.57,6.65-15.17,10.15-32.04,13.86-48.28.89-3.89,1.73-7.79,2.48-11.71-9.14-3.25-17.78-7.72-26.77-11.37Z"/>
    <path class="st9" d="M405.19,196.98c-3.92-.27-12.66-3.48-14.35-8-2.76-6.94-5.71-13.55-9.48-22.13-1.3,1.19-2.64,2.35-4.02,3.45-5.92,4.76-12.63,8.66-20.04,10.53-7.2,1.81-21.33,4.4-36.02-12.93-4.32-5.1-7.07-10.69-9.12-16.68-.4-1.18-.39-2.47.11-3.61,2.29-5.22,7.26-9.36,12.93-10.29,1.01-.16.76-1.74-.26-1.57-6.34,1.03-11.74,5.64-14.19,11.44-.1-.82-.24-1.64-.47-2.45-1-3.62-3.47-6.12-6.2-8.56-.76-.68-1.7.6-.94,1.28,2.79,2.49,5.13,5.01,5.87,8.8.24,1.26.32,2.52.3,3.79-5.6,11.06-16.26,17.76-28,21.93.02-.64-.93-1.15-1.46-.5-.36.44-.72.88-1.06,1.32-.5.15-1,.29-1.51.42-.91.23-.76,1.61.06,1.59-1.9,2.91-3.05,6.07-2.14,9.82.27,1.12.63,2.22,1.06,3.32,2.92,2.95,9.76,9.18,12.65,12.04,3.41,3.39,7.63,5.84,11.92,7.93,9.61,4.66,64.36,38.9,66.06,42.03.83,1.54,1.71,3.14,2.56,4.7.49.9.96,1.77,1.42,2.62.02.04.04.07.06.11.13.23.25.46.37.69.03.06.07.12.1.18.1.19.19.37.29.55.05.1.1.19.15.29.06.11.11.22.17.33.42.81.8,1.56,1.12,2.23.25.52.47,1,.64,1.4.53,1.26,1.1,2.47,1.73,3.65.84-.11,16.98-4.88,40.93-1.1,2.91.46,4.84-1.52,4.3-4.41-2.17-11.48-3.8-19.13,3.75-34.96,5.6-11.73,16.78-19.21,23.17-19.84-1.73.17-8.19-7.02-42.45-9.41Z"/>
    <path class="st6" d="M552.98,312.93c-1.5.31-3.01.62-4.52.92-.8-.11-1.61-.2-2.43-.29-6.88-.73-13.8-.93-20.72-1.17-3.11-.11-6.63.17-9.63-.81-2.37-.78-3.93-2.69-5.02-4.86-1.42-2.82-2.34-5.92-3.43-8.88-1.25-3.41-2.48-6.83-3.7-10.26-.38-1.06-.75-2.11-1.12-3.17.53-.08,1.06-.15,1.6-.23.54,1.53,1.08,3.06,1.63,4.59,1.14,3.18,2.29,6.36,3.45,9.52,1.04,2.84,1.9,5.94,3.44,8.57,2.09,3.55,5.54,3.65,9.25,3.81,3.21.13,6.42.22,9.63.35,7.2.28,14.46.71,21.56,1.91Z"/>
    <path class="st3" d="M293.45,143.83c-.25-1.96-1.05-3.98-1.87-5.77-.42-.92-.9-1.82-1.43-2.69-.18-.3-.37-.61-.57-.9-.18-.27-.53-1.02-.81-1.15-.56-.26-1.74.02-2.31.11-1.09.18-2.16.5-3.22.83-9.06,2.88-17.72,6.98-25.77,12.04-.06-.44-.11-.88-.17-1.31-.38-2.64-1.17-5.1-2.62-7.34-1.34-2.08-3.11-3.87-5.08-5.36-.98-.74-2.02-1.4-3.1-1.99-1.07-.59-2.21-1.18-3.47-1.07-1.44.12-2.84.94-4.05,1.68-1.22.74-2.34,1.62-3.39,2.6-.06,0-.11.04-.14.12,0,0,0,.01,0,.02-.05.05-.1.09-.15.14-.12.12-.05.29.06.34-.02,1.25,1.64,2.21,2.45,2.95,1.6,1.46,3.07,3.09,4.26,4.9,2.32,3.51,3.61,7.58,5.85,11.14,1.85,2.94,4.56,5.72,8.02,6.59,3.99,1,7.79-1.1,11.23-2.86,7.75-3.94,15.32-8.46,23.74-10.86,1.32-.38,2.75-.44,2.53-2.14Z"/>
    <polygon class="st7" points="300.28 187.3 263.97 197.26 258.74 147.06 295.05 137.11 300.28 187.3"/>
    <polygon class="st7" points="264.01 197.32 239.38 181.48 234.15 131.28 258.77 147.12 264.01 197.32"/>
    <path class="st4" d="M258.33,151.94l3.89,38.84c.11,1.09,1.8.92,1.69-.17l-3.89-38.84c-.11-1.09-1.8-.92-1.69.17Z"/>
    <path class="st2" d="M365.88,247.69c-.26.22-.52.42-.79.61-5.14,3.7-11.75,3.07-17.07-.28-6.87-4.33-11.53-6.66-16.44-10.98-5.13-4.52-9.77-9.51-14.02-14.75-2.29-2.82-4.48-5.71-6.59-8.65-4.93-6.87-9.42-14.01-13.83-21.18,4.24-4.33,6.19-5.5,10.88-9.42,10.81,10.34,24.07,18.57,36.83,26.3.86.52,1.73,1.04,2.59,1.56.72.43,1.43.86,2.14,1.3.02-.14.04-.31.06-.5.05-.43.09-.99.13-1.65.71-11.81.63-58.18.65-58.29.78-.17,20.78-4.58,23.77,2.13,0,0,5.24,3.35,5.24,3.36,6.69,36.04-9.13,86.78-13.55,90.45Z"/>
    <path class="st2" d="M309.48,181.42c-.29-.92-.65-1.8-1.08-2.63-.7-1.73-1.51-3.39-2.96-4.64-1.79-1.53-4.11-2.24-6.29-3.03-2.51-.91-7.64-2.73-10.01-3.96-2.52-1.3-6.3-2.88-6.89.68-.14.82-.16,1.59.08,2.34-.63-.3-2.57-.96-3.19-1.21-6.77-2.7-6.98-4.76-11.09-5.77-1.93-.48-2.89.21-3.52,1.27-.69,1.16-.01,2.5.64,3.55-1.89-.36-3.86.14-4.34,2.42-.32,1.51.68,2.74,1.7,3.71.19.18.39.35.58.52-2.07,1.91-.88,4.54,1.13,6.85-1.03,1.13-1.14,2.89-.43,4.37,1.16,2.44,3.86,4.42,6.04,5.87,3.29,2.19,11.49,6.08,15.39,7.06.11.03.23.06.35.1,1.89.53,11.82,1.05,18.48,2.29.55.1,2.72-.31,2.7-.81-.1-2.7.34-5.4,1.41-8.01.63-1.54,1.65-2.92,2.02-4.47.44.01,1.43,1.15,1.39.58-.13-1.94-1.36-5.26-2.12-7.08Z"/>
    <path class="st6" d="M351.04,179.5c-.25-6.18-.62-12.35-1.11-18.51-.08-1.02-1.65-.76-1.57.26.49,6.16.86,12.33,1.11,18.51.04,1.02,1.61.76,1.57-.26Z"/>
    <path class="st6" d="M278.91,175.64c-4.71-1.17-8.53-4.08-12.28-7.04-.81-.64-1.75.65-.94,1.28,3.85,3.03,7.8,6.03,12.64,7.24.98.24,1.57-1.23.58-1.48Z"/>
    <path class="st6" d="M277.64,181.3c-4.71-1.17-8.53-4.08-12.28-7.04-.81-.64-1.75.65-.94,1.28,3.85,3.03,7.8,6.03,12.64,7.24.98.24,1.57-1.23.58-1.48Z"/>
    <path class="st6" d="M277.49,187.68c-4.71-1.17-7.54-3.35-11.29-6.3-.81-.64-1.75.65-.94,1.28,3.85,3.03,6.81,5.3,11.65,6.5.98.24,1.57-1.23.58-1.48Z"/>
    <path class="st6" d="M292.9,175.76c-2.94-2.16-6.04-4.06-9.29-5.72-.91-.47-1.49,1.02-.58,1.48,3.13,1.6,6.09,3.44,8.93,5.52.83.61,1.77-.68.94-1.28Z"/>
    <path class="st2" d="M319.72,92.19c-.9-5.31-4.66-9.83-9.64-12.57-1.55-.85-3.18-1.51-4.86-1.99-3.78-1.09-6.12-.92-12.2.65-5.17,1.34-8.33,2.94-10.96,7.96-2.86,5.45-3.59,13.67-3.41,19.69.03,1.06.07,2.14.11,3.24.24,5.34.76,10.98,2.7,15.91,2.28,5.82,8.74,7.91,14.97,7.15,5.66-.7,10.88-3.61,14.57-7.52,4.08-4.32,6.39-9.88,7.61-15.47.08-.36.16-.73.23-1.1,1.06-5.12,1.74-10.81.88-15.95Z"/>
    <path class="st4" d="M352.36,131.18s-1.66-7.68-10.39-12.7c-4.92-2.83-7.66-4.2-11.56-8.47-2.09-2.28-2.59-8.65-3.5-11.57-.44-1.43-4.19-.29-4.64-1.72-.3-.92-.59-2.78-1.58-3.24-.39-.18-.8-.09-1.18.07-.86.35-1.68.91-2.49,1.38-1.5.87-2.99,1.76-4.46,2.69-2.95,1.86-5.82,3.84-8.61,5.91,0-.26-.02-.51-.03-.77,0-.25-.4-.19-.39.06,0,.33.03.66.04.99-.18.14-.36.27-.54.4-.2.15.05.46.25.31.1-.08.21-.15.31-.23.19,4.14.67,8.33,1.75,12.32.47,1.75,1.12,3.48,2.15,4.98,1.12,1.65,2.67,2.73,4.3,3.82,1.87,1.26,3.29,2.66,4.38,4.64.87,1.59,1.58,3.28,2.68,4.73,2.31,3.04,6.23,3.94,9.87,3.38,2.39-.37,4.7-1.18,6.84-2.28,9.06-4.64,16.81-4.71,16.81-4.71Z"/>
    <g>
      <path class="st10" d="M335.88,94.69c.29-5.57-1.86-11.14-6.44-15.08-3.28-2.82-7.38-4.59-11.69-5.71-.53-.14-1.05-.26-1.58-.38-.07-.02-.14-.04-.21-.05-.04-1.99-.15-3.97-.56-5.94-.96-4.66-3.74-8.57-8.51-10.79-5.35-2.49-11.61-2.3-17.26-1.16-5.27,1.06-9.06,3.42-11.02,8.04-.97,2.28-1.51,6.25-1.85,8.69-.02,0-.04,0-.05.01-.56.15-1.11.31-1.65.47-9.91,3-16.99,8.72-20.45,17.62-1.83,4.69-2.6,12.09.52,16.66,3.34,4.9,10.19,7.16,16.12,8.11,1.79.29,3.59.46,5.39.56,5.56.3,11.15-.14,16.7-.34,7.18-.26,14.64,1.04,21.69-.31.57-.11,1.13-.24,1.69-.37,10.26-2.55,18.65-10.07,19.18-20.04Z"/>
      <path class="st4" d="M275.21,86.89c-.52-.33-1.02-.7-1.49-1.1.06-.63.12-1.25.18-1.88.36-3.71.74-7.41,1.15-11.11.54-.17,1.09-.32,1.65-.47-.48,4.25-.92,8.5-1.32,12.75-.06.6-.11,1.2-.17,1.81Z"/>
      <path class="st4" d="M317.75,84.56c-.48.5-1.01.94-1.59,1.34,0-.69.01-1.38.02-2.07.01-1.52.02-3.03.02-4.55,0-.64,0-1.28,0-1.92,0-1.28-.01-2.55-.02-3.83.53.11,1.06.24,1.58.37,0,.65,0,1.3,0,1.95,0,.77,0,1.53.01,2.3,0,1.49,0,2.98-.01,4.47,0,.65,0,1.29-.01,1.93Z"/>
      <path class="st4" d="M317.75,84.56c-.48.49-1.01.94-1.59,1.34-2.43,1.7-5.6,2.72-8.31,3.52-3.89,1.15-7.92,1.77-11.99,1.87-4.36.11-8.71-.37-12.94-1.39-2.74-.66-5.4-1.52-7.7-3.01-.52-.33-1.02-.7-1.49-1.1.06-.63.12-1.25.18-1.88.13.04.25.11.36.21.36.34.73.66,1.13.96,2.75,2.07,6.34,3,9.7,3.68,3.52.71,7.13,1.04,10.73.95,3.58-.09,7.15-.59,10.59-1.53,3.14-.85,7.28-2.06,9.78-4.35.31-.28.6-.58.85-.91.2-.26.48-.34.74-.3,0,.64,0,1.29-.01,1.93Z"/>
      <path class="st4" d="M317.77,78.15c-.27.23-.56.45-.86.66-.24.16-.47.32-.72.47-2.32,1.43-5.14,2.33-7.59,3.05-3.89,1.15-7.92,1.77-11.99,1.87-4.36.1-8.71-.37-12.94-1.39-2.74-.66-5.4-1.52-7.7-3.01-.52-.33-1.02-.7-1.5-1.1.06-.63.12-1.25.18-1.88.13.04.25.1.36.21.35.34.73.66,1.13.95,2.75,2.07,6.33,3,9.69,3.68,3.52.71,7.13,1.04,10.73.95,3.58-.09,7.15-.59,10.59-1.52,2.86-.77,6.52-1.84,9.04-3.74.26-.2.51-.4.74-.61.31-.28.59-.57.84-.89,0,.77,0,1.53.01,2.3Z"/>
    </g>
    <path class="st2" d="M244.82,157.78c.48-1.15-.18-2.55-.73-3.57-1.42-2.63-3.92-4.56-6.51-6.06-1.06-.61-2.51-1.6-3.8-1.16-.73.25-1.15.86-1.41,1.54-.14.22-.26.46-.33.71-.28.93-.18,1.88.11,2.81-.06,0-.11.01-.17.03-1.06.3-1.41,1.52-1.43,2.47-.02,1.16.39,2.29,1,3.29-.9.7-1.29,1.93-1.15,3.15.11,1.01.49,1.96.99,2.86-1.3.91-.84,4.12-.4,5.2.53,1.32,1.66,2.86,2.73,3.82,2.65,2.38,7.1,4.42,8.86,2.5,1.29-1.42.28-3.46-1.14-4.47.91-.17,1.69-.72,2.04-1.8.47-1.43-.08-2.83-1.01-3.96,1.05-.29,1.81-1.2,1.98-2.31.22-1.44-.44-2.75-1.28-3.91.71-.09,1.37-.46,1.66-1.15Z"/>
    <path class="st6" d="M240.64,157.28c-2.24-1.79-4.56-3.46-6.95-5.03-.86-.56-1.8.72-.94,1.28,2.4,1.56,4.72,3.24,6.95,5.03.8.64,1.74-.64.94-1.28Z"/>
    <path class="st6" d="M240.72,162.88c-2.12-1.65-4.34-3.13-6.68-4.46-.88-.5-1.83.77-.94,1.28,2.33,1.33,4.56,2.81,6.68,4.46.81.63,1.75-.65.94-1.28Z"/>
    <path class="st6" d="M241.09,170.1c-2.46-2.23-5.16-4.1-8.1-5.66-.9-.48-1.48,1.01-.58,1.48,2.81,1.49,5.38,3.32,7.74,5.46.76.69,1.7-.6.94-1.28Z"/>
    <path class="st2" d="M652.69,339.3c-3.96-5.83-10.6-9.01-17.05-12.4-4.98-2.62-12.23-11.07-12.39-11.21-6.18-5.16-9.89-5.38-15.13-2.97-3.8,1.74-4.92,3.17-8.85,5.4-3.03,1.72-7.57.54-11.03.89-5.24.53-8.88,1.66-13.91,1.24.23,4.76,1.41,7.31,2.32,11.96.48,2.44.99,4.86,1.55,7.28,5.19-.68,10.42-1.72,15.56-1.9,6.63-.22,12.83,1.18,18.51,3.24,10.91,3.97,19.08,9.63,29.14,17.09,1.69,1.25,4.16,1.37,6.56.45,2.06-.79,4.47-3.12,5.87-7.51,2.05-6.42.97-8.46-1.15-11.57Z"/>
    <path class="st2" d="M655.65,295.8c-4.72-5.13-11.74-7.32-18.6-9.74-5.29-1.87-13.64-9.11-13.81-9.21-6.83-4.18-10.08-3.02-15.4-.82-3.21,1.32-4.45,2.74-8.03,5.46-2.76,2.09-5.77,3.57-9.15,4.38-5.12,1.23-10.21,1.84-15.25,2.12.88,4.6,2.41,6.92,3.95,11.32.81,2.31-1.9,5.13-1.01,7.41,5.05-1.37,15.41-2.93,20.48-3.8,6.54-1.12,11.09-1.31,17.01-.08,11.35,2.37,21.31,7.42,32.8,9.52,2.07.38,4.31.77,6.56-.46,1.93-1.05,3.35-2.96,3.96-4.84,1.42-4.36-.97-8.51-3.5-11.25Z"/>
    <path class="st6" d="M517.48,324.5c-1.87-8.28-4.45-16.37-7.72-24.2-.4-.94-1.85-.29-1.45.65,3.22,7.71,5.76,15.66,7.6,23.8.22.99,1.8.74,1.57-.26Z"/>
    <path class="st6" d="M510.9,347.93c-3.99,1.04-7.96.67-11.69-1.09-.93-.44-1.5,1.04-.58,1.48,3.95,1.87,8.3,2.29,12.53,1.18.98-.26.74-1.83-.26-1.57Z"/>
    <path class="st6" d="M613.74,288.2c-1.11-2-2.77-4.4-5.17-4.91-1.24-.26-2.52,0-3.75.19-1.77.27-3.53.55-5.3.82-1.01.16-.76,1.73.26,1.57,2.23-.34,4.46-.78,6.7-1.03,2.85-.32,4.53,1.7,5.81,4.01.49.89,1.95.25,1.45-.65Z"/>
    <path class="st6" d="M612.29,324.85c-1.39-1.9-2.91-3.85-5.25-4.57-2.58-.8-5.39.05-7.94.57-1,.2-.75,1.77.26,1.57,2.17-.44,4.64-1.24,6.84-.69,2.22.55,3.56,2.36,4.85,4.13.61.83,1.84-.17,1.24-1Z"/>
    <path class="st6" d="M267.31,198c-.13-1.02-1.7-.76-1.57.26.83,6.46,1.07,12.95.7,19.46-.06,1.02,1.52,1.19,1.58.17.38-6.64.14-13.28-.71-19.88Z"/>
    <path class="st6" d="M364.25,218.17c-4.74-2.46-9.61-4.63-14.61-6.49.05-.43.09-.99.13-1.65,5.16,1.9,10.18,4.12,15.07,6.66.9.47.32,1.95-.59,1.48Z"/>
    <path class="st6" d="M282.89,197.05c-2.55-1.01-5.03-2.15-7.46-3.43-.97-.51-1.58,1.08-.62,1.58,2.43,1.27,4.91,2.41,7.46,3.43,1.02.41,1.64-1.18.62-1.58Z"/>
  </g>
  <g>
    <path class="st2" d="M349,265.15c-5-4.48-11.93-7.39-19.51-8.2s-14.97.58-20.8,3.91c-1.08.61-2.08,1.28-3.01,2-4.34,3.35-6.96,7.74-7.48,12.65-.48,4.49.85,8.93,3.77,12.86.33.45.69.89,1.07,1.32.7.81,1.48,1.6,2.32,2.36,3.41,3.05,7.71,5.38,12.51,6.81.54.16,1.09.31,1.65.45,1.73.43,3.53.75,5.35.95,7.58.81,14.96-.58,20.8-3.91,2.39-1.36,4.41-2.98,6.02-4.8,2.54-2.86,4.08-6.21,4.46-9.85.64-5.96-1.91-11.83-7.16-16.53ZM325.46,294.74c-1.41-.15-2.78-.38-4.1-.69-.56-.13-1.11-.27-1.65-.43-4.97-1.43-9.16-3.92-12.01-6.99-.39-.42-.76-.86-1.1-1.3-2.15-2.8-3.24-5.98-2.89-9.24.49-4.63,3.79-8.51,8.67-10.98,4.49-2.27,10.32-3.33,16.54-2.67,12.95,1.38,22.71,9.75,21.76,18.65-.25,2.33-1.2,4.46-2.71,6.33-4.26,5.26-12.93,8.34-22.49,7.32Z"/>
    <path class="st8" d="M373.83,341.32c-11.18,5.22-59.21,26.26-66.6,28.13-3.67.93-7.46,1.56-11.26,1.35-.34-.02-1-.26-1.91-.7-.45-.22-.97-.48-1.54-.78-11.5-6.11-45.73-29.17-48.13-31.1-.6-.48-1.1-.98-1.51-1.5-.4-.51-.72-1.04-.97-1.59-.82-1.8-.89-3.83-.64-6.17.85-8.07,1.89-16.12,2.84-24.18,1.8-15.25,3.59-30.5,5.38-45.75.31-2.63,2.63-4.55,5.27-4.37,3.82.27,7.65.57,11.47.93.56.06,1.13.11,1.7.16,6.43.65,12.83,1.48,19.18,2.62.56.1,1.12.2,1.68.31,5.7,1.08,11.34,2.43,16.89,4.15,2.25.69,4.48,1.44,6.69,2.27-4.87,2.46-8.17,6.34-8.67,10.98-.35,3.26.74,6.44,2.89,9.24.34.44.71.88,1.1,1.3,2.86,3.07,7.05,5.56,12.01,6.99.54.16,1.09.3,1.65.43,1.32.31,2.69.54,4.1.69,9.56,1.02,18.23-2.06,22.49-7.32,1.29,1.33,2.54,2.7,3.75,4.11,3.84,4.45,7.33,9.22,10.67,14.05.12.16.23.33.35.49.23.33.45.66.67.98,3.22,4.69,6.24,9.51,9.08,14.44.29.5.57.99.86,1.49,1.43,2.52,2.81,5.07,4.14,7.64,2.05,3.95.41,8.81-3.63,10.69Z"/>
    <path class="st5" d="M307.69,286.63c-1.55,1.01-3.1,2.03-4.65,3.05-11.44,7.58-22.66,15.47-33.65,23.68-6.35,4.74-12.85,9.44-18.74,14.75-2.89,2.61-5.58,5.45-7.77,8.61-.4-.51-.72-1.04-.97-1.59,1.34-1.86,2.84-3.61,4.45-5.26,4.12-4.24,8.85-7.84,13.52-11.44,5.49-4.22,11.03-8.37,16.63-12.43,8.36-6.06,16.85-11.94,25.46-17.64,1.54-1.02,3.07-2.03,4.62-3.03.34.44.71.88,1.1,1.3Z"/>
    <path class="st5" d="M321.35,294.05c-.61,1.75-1.22,3.49-1.84,5.24-4.89,13.93-9.77,27.86-14.66,41.78-2.78,7.93-5.36,15.98-8.45,23.8-.71,1.79-1.49,3.54-2.35,5.23-.45-.22-.97-.48-1.54-.78,1.19-2.34,2.23-4.78,3.16-7.3,2.84-7.67,5.44-15.44,8.15-23.15,4.68-13.34,9.36-26.68,14.04-40.02.61-1.74,1.22-3.48,1.83-5.22.54.16,1.09.3,1.65.43Z"/>
    <path class="st5" d="M363.38,307.06c-2.47.65-4.95,1.28-7.43,1.89-10.39,2.56-20.94,5.17-31.56,6.62-4.72.64-9.42.93-13.93-.85-4.75-1.88-9.1-4.93-13.47-7.53-2.4-1.43-4.8-2.86-7.19-4.29-1.75-1.04-3.86-2-5.16-3.63-2.58-3.23-.91-8.81-.53-12.49,1-9.47,2-18.93,3-28.39.56.1,1.12.2,1.68.31-1.05,9.98-2.11,19.96-3.16,29.94-.24,2.3-.81,4.81-.55,7.13.28,2.6,2.27,3.7,4.3,4.9,4.43,2.65,8.87,5.29,13.31,7.93,4.4,2.62,8.81,5.5,14.08,5.78,4.74.25,9.63-.77,14.26-1.67,10.52-2.04,20.97-4.42,31.34-7.13.12.16.23.33.35.49.23.33.45.66.67.98Z"/>
    <path class="st5" d="M373.31,322.99c-3.75,1.22-7.51,2.41-11.29,3.56-14.39,4.39-28.92,8.28-43.57,11.66-3.39.78-6.81,1.6-10.31,1.63-3.42.03-6.72-.85-9.83-2.23-6.79-3.01-13.05-7.45-19.38-11.29-3.33-2.02-6.66-4.04-9.99-6.06-2.38-1.44-5.31-2.82-6.73-5.35-1.52-2.72-.81-6.27-.61-9.21.27-4.06.56-8.11.88-12.16,1-12.67,2.25-25.31,3.76-37.93.56.06,1.13.11,1.7.16-1.53,12.76-2.8,25.55-3.8,38.36-.27,3.49-.53,6.99-.76,10.49-.23,3.46-1.35,8.1,1.39,10.79,2.23,2.18,5.4,3.61,8.04,5.22,2.98,1.81,5.95,3.61,8.93,5.41,5.92,3.59,11.82,7.85,18.26,10.44,6.81,2.75,13.29,1.19,20.16-.41,13.36-3.12,26.61-6.67,39.74-10.64,4.2-1.27,8.4-2.58,12.57-3.94.29.5.57.99.86,1.49Z"/>
  </g>
</svg>