<?xml version="1.0" encoding="UTF-8"?>
<svg id="Layer_1" xmlns="http://www.w3.org/2000/svg" version="1.1" viewBox="0 0 490.62 417.19">
  <!-- Generator: Adobe Illustrator 29.1.0, SVG Export Plug-In . SVG Version: 2.1.0 Build 142)  -->
  <defs>
    <style>
      .st0 {
        fill: #abfde6;
      }

      .st1 {
        fill: #0078fc;
      }

      .st2 {
        fill: #005047;
      }
    </style>
  </defs>
  <path class="st0" d="M147.49,131.33c-56.95,45.71-81.42,158.26-12.5,203.67,57.84,38.1,134.52.12,187.02-28.72,57.14-31.39,113.98-73.26,106.45-143.39-1.7-15.87-9.74-30.65-22.82-40.71-15.95-12.27-42.5-20.38-83.83-.77-11.44,5.43-24.3,7.56-36.99,6.05-24.32-2.9-64.26-7.57-89.54-10.01-17.26-1.66-34.56,3.26-47.79,13.88Z"/>
  <g id="pu5d9U.tif">
    <g>
      <path class="st1" d="M172.23,203.17c-.3,1.18.49,1.36,1.01,2.04,4.51,5.89,14.36,13.65,20.05,19.33,18.73,18.7,37.43,37.7,56.36,56.34,4.43,4.36,9.7,11.45,14.22,14.97,2.79,2.17,4.57,3.17,7.83,1l105.92-105.89c41.13-45.95,7.48-117.75-55.03-113.41-23.11,1.6-39.25,15.9-54.29,31.92-8.74-8.57-16.75-17.96-27.72-23.86-21.48-11.57-49-10.79-69.39,2.81-34.7,23.15-40.57,71.79-11.85,102.17l47.4.24,23.06-47.88c2.42-4.86,9.21-5.63,11.59-.46l20.46,53.21c1-.07,1.04-1.05,1.36-1.68,4.57-8.83,8.2-20.03,13.02-28.41,2.9-5.04,7.81-5.45,11.29-.68l12.33,25.69c2,1.21,13.72-.22,17.28.37,5.55.92,6.17,10.28,1.09,11.88-2.17.68-22.18.71-24.67.16-1.16-.26-1.71-.75-2.43-1.65-2.78-3.49-5.46-12.06-7.92-16.56-.28-.51-.2-1.92-1.34-1.33-1.57.8-12.6,28.28-14.97,31.87-2.6,2.78-6.71,3.66-9.52.75l-22.7-55.02-20.1,40.66c-.41.39-1.62,1.42-1.97,1.42h-40.4Z"/>
      <path class="st2" d="M172.23,203.17h40.4c.35,0,1.57-1.04,1.97-1.42l20.1-40.66,22.7,55.02c2.8,2.91,6.91,2.04,9.52-.75,2.37-3.59,13.41-31.07,14.97-31.87,1.14-.58,1.06.83,1.34,1.33,2.46,4.49,5.14,13.06,7.92,16.56.72.9,1.27,1.39,2.43,1.65,2.5.56,22.5.52,24.67-.16,5.08-1.59,4.46-10.96-1.09-11.88-3.57-.59-15.29.84-17.28-.37l-12.33-25.69c-3.48-4.77-8.4-4.36-11.29.68-4.82,8.38-8.45,19.58-13.02,28.41-.33.63-.37,1.62-1.36,1.68l-20.46-53.21c-2.38-5.17-9.17-4.4-11.59.46l-23.06,47.88-47.4-.24c-28.72-30.38-22.85-79.02,11.85-102.17,20.39-13.6,47.91-14.38,69.39-2.81,10.97,5.91,18.98,15.29,27.72,23.86,15.04-16.02,31.18-30.32,54.29-31.92,62.52-4.34,96.17,67.46,55.03,113.41l-105.92,105.89c-3.26,2.16-5.04,1.17-7.83-1-4.52-3.52-9.79-10.61-14.22-14.97-18.93-18.65-37.62-37.64-56.36-56.34-5.69-5.68-15.54-13.44-20.05-19.33-.52-.68-1.31-.86-1.01-2.04Z"/>
    </g>
  </g>
</svg>