<?xml version="1.0" encoding="UTF-8"?>
<svg id="Layer_1" xmlns="http://www.w3.org/2000/svg" version="1.1" viewBox="0 0 490.62 417.19">
  <!-- Generator: Adobe Illustrator 29.1.0, SVG Export Plug-In . SVG Version: 2.1.0 Build 142)  -->
  <defs>
    <style>
      .st0 {
        fill: #007fa3;
      }

      .st1 {
        fill: #0078fc;
      }

      .st2 {
        fill: #9ad3fc;
        opacity: .47;
      }
    </style>
  </defs>
  <path class="st2" d="M248.22,133.96c-69.05-14.53-172.54,36.1-168.98,115.32,2.99,66.49,77.25,100.47,130.35,122,57.79,23.43,123.74,40.23,175.12-8.32,11.63-10.99,18.74-26.03,19.22-41.94.57-19.42-8.25-44.2-47.59-63.03-10.89-5.21-19.98-13.51-26.08-23.91-11.68-19.92-30.94-52.59-43.53-72.95-8.6-13.9-22.46-23.79-38.51-27.17Z"/>
  <g id="hMzgKn.tif">
    <g>
      <path class="st0" d="M300.85,33.54c1.19,1.14,2.31,3.63,2.51,5.33.54,4.45.49,26.5-.84,29.81-.87,2.17-3.29,3.47-3.64,5.32l-.02,33.21c19.45-1.78,37.16,6.74,40.23,27.33l.11,151.51c-1.19,15.02-11.59,26.51-26.53,28.71-38.58-2.47-81.34,3.31-119.44.03-14.62-1.26-25.96-13.64-27.2-28.04v-151.54c2.6-20.83,20.65-29.91,40.3-28.01l-.02-33.21c-1.65-3.1-4.01-4.33-4.48-8.21-.5-4.17-.6-25.46.36-28.79,1.04-3.61,5.32-6.01,8.96-5.97,26.65,1.92,56.66-2.46,82.9,0,2.35.22,5.06.85,6.81,2.52ZM289.16,107.2v-34.72c0-.35-3.24-2.95-3.97-5.74-1.98-7.6,3.42-16.2-6.83-17.06-13.68-1.15-37-.96-50.81,0-11,.76-5.88,7.83-7.24,15.9-.6,3.58-4.3,6.48-4.3,6.9v34.72h73.14ZM198.66,161.85c-.88.08-3.09.97-3.62,1.66l-.72,112.85c.84,6.54,10.44,4.94,9.78-1.5l-.02-107.56c-.07-2.89-2.49-5.7-5.43-5.44ZM238.21,279.47c.94-.88,1.73-3.96,1.72-5.36l-.02-106.82c0-2.84-2.61-5.76-5.56-5.57-3.52.61-4.54,3.1-4.91,6.34,2.13,34.09-2.83,71.62-.03,105.3.13,1.5.83,5.61,2.01,6.38,1.52.98,5.43,1.01,6.78-.26ZM274.04,279.47c.94-.88,1.73-3.96,1.72-5.37-2.4-33.9,3.05-71.92-.01-105.34-.88-9.57-9.64-8.82-10.49-1.48l.69,110.59c.78,2.91,6.24,3.33,8.09,1.6ZM305.36,161.84c-2.29.35-4.32,3.15-4.28,5.45l-.02,107.56c-.67,6.44,8.94,8.04,9.78,1.5v-109.08c.38-3.26-2.21-5.93-5.48-5.43Z"/>
      <path class="st1" d="M312.29,312.68v14.56c0,5.76-18.66,5.76-18.66,0v-13.44l1.12-1.12h17.54Z"/>
      <path class="st1" d="M192.87,312.68h17.54l1.12,1.12v13.44c0,5.76-18.66,5.76-18.66,0v-14.56Z"/>
    </g>
  </g>
</svg>