<?xml version="1.0" encoding="UTF-8"?>
<svg id="Layer_1" xmlns="http://www.w3.org/2000/svg" version="1.1" viewBox="0 0 828.12 529.69">
  <!-- Generator: Adobe Illustrator 29.1.0, SVG Export Plug-In . SVG Version: 2.1.0 Build 142)  -->
  <defs>
    <style>
      .st0 {
        fill: #733e40;
      }

      .st1 {
        fill: #fae2d4;
      }

      .st2 {
        fill: #d8df9a;
      }

      .st3 {
        fill: #ad4728;
      }

      .st4 {
        fill: #ca6447;
      }

      .st5 {
        fill: #5c3233;
      }

      .st6 {
        fill: #00c359;
      }

      .st7 {
        fill: #c8ebff;
      }

      .st8 {
        fill: #b1bb4d;
      }

      .st9 {
        fill: #ac5034;
      }

      .st10 {
        fill: #ec944c;
      }

      .st11 {
        fill: #843d27;
      }

      .st12 {
        fill: #fff;
      }

      .st13 {
        fill: #fc9971;
      }

      .st14 {
        fill: #cdc1bc;
      }

      .st15 {
        fill: #fc5342;
      }

      .st16 {
        fill: #9c6f5f;
      }

      .st17 {
        fill: #241712;
      }

      .st18 {
        fill: #c4d8fb;
      }

      .st19 {
        fill: #0078fc;
      }

      .st20 {
        fill: #005047;
      }

      .st21 {
        fill: #fbded6;
      }

      .st22 {
        fill: #fdcca4;
      }

      .st23 {
        fill: #9ad3fc;
      }
    </style>
  </defs>
  <path class="st7" d="M522.23,30.57c-44.34-1.58-86.04,4.23-124.77,14.75-92.27,25.05-164.13,82.96-193.05,168.97-11.74,34.91-21.15,74.2-1.72,118.1,18.05,40.78,55.98,75.1,97.95,96.05,160.46,80.06,298.22-6.28,364.76-99.83,15.32-21.53,29.83-43.76,42.9-66.94,15.27-27.08,25.24-59.02,18.69-95.13-17-93.67-125.4-133.14-204.76-135.96Z"/>
  <g>
    <g>
      <path class="st20" d="M388.08,196.19c-.31-5.11-.55-10.23-.94-15.33-.38-5,.46-10,1.82-14.8,1.3-4.6,3.18-9.86,7.1-12.91,3.64-2.82,8.96-2.62,12.3.58,3.26,3.14,6.07,6.62,8.39,10.49,2.58,4.31,4.23,9.03,5.54,13.85,1.08,3.97,1.76,8.03,2.23,12.12.17,1.48.53,2.94.75,4.42.25,1.73.52,3.46.63,5.2.39,6.11.68,12.22,1.09,18.33.29,4.27-.37,8.46-.93,12.66-1.05,7.79-2.73,15.45-5.04,22.98-1.47,4.8-3.46,9.35-5.94,13.7-1.14,1.99-2.67,3.6-4.61,4.82-3.46,2.15-6.75,1.72-9.4-1.29-2.61-2.96-4.36-6.41-5.15-10.26-.67-3.29-1.18-6.62-1.63-9.96-.68-4.95-.88-9.95-1.66-14.87-.51-3.21-.75-6.44-1.19-9.64-.35-2.59-.72-5.2-1.37-7.72-.7-2.69-.87-5.42-1.08-8.15-.37-4.73-.6-9.47-.89-14.21Z"/>
      <path class="st17" d="M215.19,262.13c1.51-2.01,2.69-4.04,3.68-6.18.89-1.92,1.87-3.8,3.19-5.47.12-.15.58-.27.65-.19.24.24.48.59.5.91.02.34-.18.72-.35,1.04-2.2,4.19-4.37,8.39-6.63,12.55-.73,1.35-1.08,2.69-1.11,4.25-.07,3.48-.41,6.95-.55,10.43-.1,2.49.02,4.98-.44,7.45-.07.35-.22.7-.37,1.03-.03.07-.21.08-.32.12-.29.13-.52.07-.62-.22-.12-.34-.29-.7-.29-1.05.02-1.74.08-3.48.15-5.22.03-.62.15-1.24.18-1.85.2-4.6.51-9.19.54-13.79.02-2.85-.03-5.73-.72-8.55-.23-.96-.33-1.96-.42-2.95-.36-3.85-1.01-7.64-2.13-11.35-.21-.7-.22-1.47-.26-2.21,0-.16.25-.44.43-.49.19-.05.57.05.64.19.41.9.88,1.8,1.1,2.75.51,2.18.89,4.39,1.33,6.58.81,4.02,1.3,8.09,1.82,12.22Z"/>
      <g>
        <path class="st20" d="M210.83,291.26c-1.24.53-1.3,1.87-2.33,2.12-.92-.06-.72-.96-1.23-1.42-.56.79-1.06,1.61-1.67,2.33-.48.56-1.05,1.09-1.68,1.47-1.73,1.08-3.83.62-4.93-1.07-.4-.62-.75-1.31-.95-2.02-.4-1.44-.73-2.9-.98-4.38-.53-3.2-.9-6.43-1.51-9.61-.75-3.92-1.9-7.74-3.41-11.45-2.49-6.12-4.75-12.33-6.83-18.61-1.37-4.15-2.4-8.39-3.44-12.62-1.35-5.46-2.9-10.85-4.93-16.08-2.35-6.05-4.3-12.23-6.02-18.48-.99-3.6-1.8-7.27-1.72-11.07.02-1.13.08-2.23.54-3.3.6-1.4,2-1.99,3.38-1.27,1.81.94,3.24,2.32,4.36,4.01,1.46,2.2,2.58,4.56,3.31,7.1.97,3.35,1.89,6.72,2.86,10.07,3.13,10.77,6.43,21.49,10.04,32.12,1.69,4.98,3.86,9.74,6.05,14.5,3.25,7.09,5.32,14.5,6.21,22.24.25,2.19.82,4.3,1.41,7.2,1.71-6.59,2.66-12.41,1.16-18.43-.57-2.29-.81-4.66-1.26-6.99-1.11-5.77-2.73-11.39-4.64-16.93-2.64-7.66-5.27-15.33-7.41-23.15-1.02-3.72-1.81-7.51-2.56-11.3-2.07-10.54-4.9-20.86-8.79-30.88-2.26-5.82-4.26-11.71-5.66-17.8-.84-3.68-1.08-7.4-1.13-11.15-.01-1.03.3-1.97.71-2.89.66-1.45,2.5-1.92,3.78-.92.68.53,1.32,1.16,1.85,1.84,1.22,1.59,2.22,3.3,3.04,5.14,2.4,5.36,4.22,10.93,5.96,16.53,2.03,6.55,3.68,13.2,5.12,19.91,1.5,6.95,3.53,13.76,5.75,20.51,1.72,5.22,3.07,10.52,3.97,15.95.79,4.78,1.7,9.55,2.57,14.39.7-.62.42-1.37.37-2-.23-3.23-.2-6.5-1.11-9.65-.1-.36-.1-.74-.15-1.11-.58-4.2-1.07-8.42-1.76-12.6-.89-5.41-1.94-10.79-2.92-16.18-.04-.25-.08-.49-.1-.74-.96-8.68-2.35-17.34-2.28-26.1.06-6.61-.3-13.22.24-19.82.43-5.22,1.22-10.4,2.31-15.52.47-2.19.9-4.4,1.54-6.55.49-1.67,1.18-3.29,1.96-4.85.49-.98,1.21-1.91,2-2.68,1.25-1.22,3.25-.9,4.19.58,1.09,1.7,1.75,3.58,2.14,5.56.72,3.68,1.27,7.37,1.42,11.13.17,4.5.73,8.99.64,13.48-.16,7.76.53,15.47.93,23.2.36,6.99,1.52,13.88,2.45,20.8.55,4.08.76,8.22.87,12.34.19,6.74.15,13.48.65,20.2.07.98-.11,2.01.53,3.09.68-3.15,1.14-6.17,1.61-9.2.75-4.8,1.83-9.54,2.67-14.33,1.63-9.37,4.25-18.47,7.23-27.47,1.5-4.51,3.46-8.83,5.48-13.13.96-2.04,2.18-3.94,3.78-5.56.35-.35.69-.75,1.11-.99,1.51-.86,3.46-.81,4.18,1.5.49,1.58.51,3.24.25,4.83-.91,5.53-1.63,11.1-3.22,16.5-1.65,5.62-3.09,11.31-4.75,16.93-1.81,6.12-2.88,12.38-3.72,18.68-1.38,10.4-3.24,20.69-6.39,30.72-.48,1.54-.93,3.12-1.2,4.71-1.44,8.48,10.44,48.56-1.19,40.03-1.13,1.48-11.51-14.49-12.55-12.94-.21.31-.3.68.02,1.05.52.1.8-.35,1.13-.65,1.64-1.53,3.26-3.1,4.91-4.62,2.95-2.71,6.17-5.07,9.52-7.25,3.25-2.12,6.22-4.6,8.99-7.32,4.4-4.31,9.35-7.86,14.81-10.72,2.49-1.3,5.07-2.07,7.88-2.02.5,0,1,0,1.49.07,2.31.37,3.51,1.89,3.21,4.22-.11.85-.36,1.72-.74,2.49-.88,1.8-1.95,3.48-3.22,5.04-3.17,3.89-6.63,7.49-10.5,10.67-3.86,3.17-7.64,6.41-11.91,9.06-5.99,3.71-12.47,6.24-19.09,8.51-.35.12-.73.17-1.09.29-2.01.67-4.03,1.32-6.02,2.03-1.92.68-3.96.37-5.61.69Z"/>
        <path class="st20" d="M233.66,291.33c1.51-2.01,2.69-4.04,3.68-6.18.89-1.92,1.87-3.8,3.19-5.47.12-.15.58-.27.65-.19.24.24.48.59.5.91.02.34-.18.72-.35,1.04-2.2,4.19-4.37,8.39-6.63,12.55-.73,1.35-1.08,2.69-1.11,4.25-.07,3.48-.41,6.95-.55,10.43-.1,2.49.02,4.98-.44,7.45-.07.35-.22.7-.37,1.03-.03.07-.21.08-.32.12-.29.13-.52.07-.62-.22-.12-.34-.29-.7-.29-1.05.02-1.74.08-3.48.15-5.22.03-.62.15-1.24.18-1.85.2-4.6.51-9.19.54-13.79.02-2.85-.03-5.73-.72-8.55-.23-.96-.33-1.96-.42-2.95-.36-3.85-1.01-7.64-2.13-11.35-.21-.7-.22-1.47-.26-2.21,0-.16.25-.44.43-.49.19-.05.57.05.64.19.41.9.88,1.8,1.1,2.75.51,2.18.89,4.39,1.33,6.58.81,4.02,1.3,8.09,1.82,12.22Z"/>
      </g>
      <path class="st20" d="M608.03,217.64c-.19-1.23-.36-1.95-.41-2.67-.41-5.67-.86-11.33-1.18-17-.12-2.09.04-4.2.18-6.29.26-3.71.16-7.41-.2-11.1-.55-5.72-2.3-11.12-4.66-16.31-1.23-2.71-2.85-5.19-5.28-7.03-2.26-1.72-3.57-1.47-5.11.99-1.01,1.61-1.48,3.41-1.72,5.25-.35,2.7-.4,5.41.07,8.12.69,4.01,1.17,8.07,2.4,11.98.41,1.28.54,2.66.73,4.01.59,4.16,1.15,8.32,1.72,12.48.41,3.07.29,6.16.29,9.23-.53.22-.74-.14-.83-.46-1.66-5.82-3.85-11.46-5.34-17.34-.82-3.22-1.87-6.41-3.11-9.49-1.05-2.62-2.4-5.14-3.8-7.6-2.61-4.61-5.28-9.2-8.04-13.72-1.94-3.17-4.31-6-7.4-8.15-.83-.57-1.69-1-2.71-1.09-1.35-.12-2.4.63-2.7,1.97-.69,3.05-.13,5.91,1.46,8.54,1.54,2.53,3.2,4.98,4.79,7.47,2.6,4.05,4.98,8.2,6.67,12.76,1.02,2.76,2.43,5.4,3.77,8.03,1.13,2.2,2.22,4.4,3.06,6.73.46,1.27,1.04,2.51,1.66,3.71,1.51,2.98,2.68,6.1,3.72,9.27.54,1.64.91,3.31,1.09,5.05.43,4.17,1.06,8.32,2.31,12.32-.49.23-.82.04-.98-.27-1.59-3.2-3.23-6.38-4.72-9.63-2.11-4.6-4.06-9.26-6.14-13.87-2.68-5.92-6.62-10.94-11.19-15.49-.7-.69-1.4-1.39-2.08-2.09-1.21-1.25-2.54-2.34-4.06-3.18-1.45-.81-3.06-.03-3.41,1.64-.49,2.37-.06,4.7.69,6.93.51,1.51,1.22,2.98,2.04,4.34,2.61,4.33,5.27,8.63,7.98,12.89,1.6,2.5,3.13,5.06,4.12,7.85,1.91,5.38,4.65,10.35,7.18,15.43,1.53,3.09,3.38,6.02,5.13,8.99,3.01,5.1,6.07,10.16,9.08,15.25,1.07,1.81,2.23,3.55,3.64,5.1,1.12,1.23,1.75,2.64,1.92,4.3.24,2.33.61,4.65.82,6.99.34,3.98,1.24,7.8,2.84,11.45.25.56.51,1.13.86,1.63.97,1.37,2.66,1.57,3.84.4,1.15-1.14,2.15-2.4,2.45-4.07.28-1.58.64-3.16.78-4.75.39-4.43.76-8.87.39-13.32-.07-.86-.02-1.73-.12-2.59-.3-2.63.2-5.15.95-7.66,3.33-11.29,5.53-22.8,6.88-34.48.5-4.29.8-8.61,1.24-12.91.2-1.96.51-3.92.82-5.87.77-4.89,1.3-9.8,1.57-14.74.1-1.88-.1-3.71-.6-5.5-.19-.7-.47-1.45-.92-1.99-1.6-1.94-2.99-1.7-4.22-.02-.96,1.31-1.69,2.7-2.09,4.3-1.21,4.93-2.25,9.87-2.11,15,.1,3.61-.46,7.15-1.58,10.58-.93,2.83-1.59,5.71-1.73,8.7,0,.19-.25.37-.71,1.03Z"/>
      <g>
        <path class="st6" d="M282.32,162.26c.33,5.49.74,10.97.97,16.47.17,4.11-.24,8.21-.43,12.32-.35,7.46-2.37,14.49-4.79,21.46-2.38,6.85-4.32,13.81-5.21,21.02-.31,2.47-.5,4.96-.74,7.44-.41,4.34-.58,8.7-1.42,13-.63,3.2-1.49,6.32-3,9.22-2.24,4.32-4.59,8.59-7.37,12.6-2.9,4.19-6.79,7.33-11.02,10-3.26,2.05-7.01,2.51-10.82,2.36-1.15-.05-2.17-.53-3.21-.95-1.04-.42-2.08-.85-3.1-1.29-.87-.38-1.62-.31-2.43.26-.55.39-1.18-.05-1.31-.79-.42-2.46-.82-4.91-1.23-7.37-.71-4.3-1.42-8.6-2.13-12.91-.06-.37-.13-.74-.17-1.11-.72-6.95-1.94-13.85-2.28-20.84-.3-6.24-.74-12.48-.91-18.72-.15-5.6-.07-11.21.21-16.82.19-3.86.13-7.73.25-11.59.16-5.24,0-10.48.04-15.71.04-4.76-.32-9.48-.44-14.22-.15-5.9.49-11.7,2.01-17.4.72-2.68,1.8-5.18,3.24-7.54,3.49-5.73,7.85-10.61,13.57-14.24,6.69-4.25,13.93-5.94,21.78-5.01,1.6.19,3.21.23,4.81.65,3.14.82,5.72,2.39,7.85,4.81,2.53,2.89,4.18,6.24,4.95,9.95.68,3.29,1.31,6.6,1.46,9.99.22,4.99.58,9.98.88,14.97,0,0,0,0,0,0Z"/>
        <path class="st2" d="M247.86,273.88c-.2-.27-.39-.61-.65-.86-4.16-4.02-7.49-8.69-10.74-13.44-2.62-3.82-4.96-7.78-7.06-11.91-1.58-3.11-3.43-6.09-5.14-9.14-.67-1.2-1.33-2.4-1.93-3.64-.28-.57-.33-1.2.12-1.76.56-.02.9.3,1.16.75,2.53,4.45,5.19,8.83,7.57,13.36,3.27,6.22,7.23,11.97,11.36,17.61,1.25,1.71,2.73,3.24,4.12,4.85.34.4.78.6,1.43.42.21-1.79.44-3.63.63-5.48.33-3.1.65-6.2.94-9.3.08-.87.05-1.75.08-2.62.04-1.15-.15-2.24-.82-3.21-.21-.31-.34-.67-.54-.98-4.9-7.91-8.23-16.5-11.11-25.3-1.55-4.74-3.19-9.45-4.93-14.13-2.62-7.03-5.9-13.76-9.88-20.13-.26-.42-.51-.86-.74-1.3-.22-.43-.02-1.24.32-1.3.41-.07.74.08.95.41,1.15,1.78,2.39,3.51,3.41,5.37,3.88,7.13,7.17,14.51,9.77,22.24,2.43,7.2,4.76,14.45,7.74,21.46,1.61,3.79,3.5,7.41,5.68,10.79.6-.02.88-.3.89-.68.1-3.61.5-7.21.44-10.84-.08-5.23.21-10.47.09-15.7-.06-2.48.04-4.95.22-7.39.17-2.38.06-4.74.15-7.11.07-1.87.17-3.73.26-5.6.06-1.15-.23-2.17-.79-3.21-2.56-4.85-5.14-9.7-7.5-14.66-1.87-3.94-3.5-8-5.09-12.06-2.22-5.69-4.57-11.34-6.28-17.22-1.15-3.95-2.27-7.9-3.34-11.88-.25-.93-.59-1.94-.04-2.91.05-.08.18-.14.28-.17.12-.02.31-.04.36.02.22.29.47.59.57.92,1.28,4.43,2.52,8.87,3.79,13.3.24.84.53,1.66.82,2.48,3.08,8.57,6.22,17.12,10.01,25.41,1.92,4.2,4.11,8.27,6.19,12.39.22.43.58.79.98,1.33.11-.51.25-.84.25-1.17.07-5.62.59-11.2,1.1-16.79.22-2.36.43-4.73.44-7.09.02-4.26.86-8.43,1.09-12.67.13-2.49.6-4.96.67-7.44.18-6.12.99-12.17,1.78-18.22.27-2.1.38-4.22.57-6.33.03-.37.08-.75.22-1.08.07-.17.38-.33.58-.32.19.01.48.21.53.39.42,1.47.28,2.99.16,4.47-.24,2.85-.59,5.7-.99,8.54-.43,3.09-.66,6.19-.86,9.3-.38,5.97-.99,11.92-1.5,17.88-.18,2.11-.4,4.22-.56,6.33-.04.48.09.97.16,1.6.45-.24.84-.33,1.02-.57.83-1.09,1.73-2.15,2.38-3.35,1.83-3.41,3.54-6.88,5.32-10.32,2-3.89,3.99-7.78,6.03-11.64,1.76-3.32,3.2-6.77,4.61-10.24.42-1.04.87-2.07,1.33-3.09.24-.53.86-.83,1.15-.59.46.38.43.88.24,1.36-1.16,2.9-2.28,5.81-3.53,8.67-1,2.29-2.13,4.52-3.26,6.75-3.05,6.01-6.14,12.01-9.18,18.02-1.13,2.24-2.4,4.38-4.06,6.27-.57.66-1.1,1.36-1.61,2.07-.66.93-.98,1.96-1.07,3.13-.29,4.1-.68,8.19-.82,12.31-.19,5.61-.49,11.21-.46,16.83,0,1.87-.18,3.73-.24,5.6-.02.48.12.96.25,1.94.98-1.66,1.71-2.91,2.46-4.14.77-1.29,1.63-2.52,2.31-3.85,2.29-4.48,5.53-8.31,8.55-12.28,3.03-3.98,5.82-8.1,8.33-12.43,2.25-3.9,4.41-7.83,6.15-11.99.19-.44.48-.89.84-1.19.46-.38.9-.15,1.31.48-1.7,3.63-3.12,7.49-5.27,11.01-1.63,2.66-3.17,5.38-4.77,8.06-2.83,4.73-6.51,8.85-9.68,13.33-.94,1.32-1.89,2.64-2.71,4.04-1.96,3.34-3.84,6.72-5.76,10.08-.25.43-.47.91-.82,1.25-1.25,1.24-1.5,2.73-1.49,4.43.04,4.87-.06,9.73-.02,14.6.04,4.6-.37,9.22-.78,13.81-.12,1.32.02,2.45.56,3.59.53,1.13,1.06,2.26,1.57,3.4.21.47.26.98-.04,1.42-.11.17-.51.35-.6.29-.58-.43-1.12-.93-1.67-1.41-.1.01-.23,0-.28.04-.08.08-.16.21-.17.33-.47,4.71-.96,9.42-1.39,14.14-.08.86.09,1.74.14,2.63,2.47,3.01,5.94,4.97,8.34,8-.73,1.07-1.08,1.23-1.68.73-.86-.72-1.69-1.49-2.54-2.22-1.13-.97-2.27-1.92-3.3-2.79-.84.27-.76.81-.73,1.26.17,3.12.37,6.24.57,9.36.07,1.14.08,2.26-.67,3.21-.13.16-.43.28-.64.26-.2-.01-.5-.19-.56-.36-.11-.34-.08-.73-.11-1.09-.32-5.23-.63-10.47-.95-15.75Z"/>
      </g>
      <g>
        <path class="st6" d="M64.52,180.01c-.08-8.34.18-16.67,2.33-24.81,1.79-6.79,4.64-13.07,9.55-18.23,6.28-6.6,14-9.19,23.04-8.5,7.11.54,12.92,3.52,18.1,8.23,11.38,10.34,21.42,21.79,29.53,34.88,2.16,3.5,4.62,6.76,7.16,9.98,9.38,11.87,18.36,24.04,27.28,36.25,2.69,3.69,5.2,7.52,7.58,11.41,1.47,2.41,2.59,5.03,3.76,7.61,4.39,9.76,8.72,19.55,13.09,29.32,1.48,3.31,2.89,6.64,4.5,9.88,2.27,4.57,3.63,9.44,4.18,14.44.4,3.57-.17,7.24-1.78,10.59-3.22,6.7-7.81,12.17-14.36,15.85-3.81,2.14-7.74,3.07-12.23,2.23-5.77-1.08-11.34-2.55-16.54-5.33-2.64-1.41-5.29-2.8-7.96-4.15-5.38-2.74-10.07-6.48-14.66-10.32-4.83-4.04-9.73-8.03-13.91-12.79-1.56-1.78-3.15-3.52-4.64-5.36-3.66-4.53-7.23-9.14-10.92-13.66-3-3.67-5.82-7.46-8.36-11.44-6.21-9.72-13.22-18.8-21.06-27.26-7.12-7.68-12.68-16.46-17.49-25.72-2.54-4.91-4.31-10.12-5.1-15.64-.36-2.49-1.23-4.9-1.11-7.46Z"/>
        <path class="st2" d="M133.46,220.74c-1.99-3.62-4.04-6.19-6.06-8.76-3.51-4.46-6.98-8.94-10.11-13.68-.52-.78-.95-1.65-1.85-2.1-.62-.31-.84-.9-1.02-1.51-.63-2.15-1.85-4-3.01-5.87-8.91-14.32-16.53-29.38-24.92-43.99-1.96-3.41-3.81-6.88-5.71-10.33-.4-.73-.53-1.45.14-2.13,1.24.22,1.81,1.22,2.36,2.15,1.44,2.44,2.83,4.92,4.21,7.39,2.08,3.71,4.15,7.42,6.2,11.14,3.04,5.52,6.02,11.07,9.1,16.57,2,3.56,3.9,7.18,6.33,10.45,1.05-.14.85-.93.71-1.36-1.51-4.53-1.31-9.34-2.41-13.94-.22-.91-.28-1.87-.36-2.81-.34-4.09-.73-8.17-.97-12.26-.34-5.84-1.39-11.55-3.06-17.15-.09-.3-.2-.6-.33-.89-.29-.66-.12-1.21.41-1.65.42-.35,1.21.02,1.45.74.55,1.64,1.11,3.28,1.57,4.94,1.27,4.58,1.57,9.3,2.01,14,.61,6.43,1.24,12.85,2.13,19.24.78,5.61,2.37,11.06,4.06,16.47.05.15.15.29.18.44.96,5.6,3.84,10.27,7.2,14.68,6.78,8.9,13.59,17.77,20.35,26.68,2.38,3.14,4.67,6.34,6.99,9.52.55.76,1.08,1.54,1.62,2.32.66-.55.43-1.15.26-1.69-1.7-5.26-2.62-10.69-3.4-16.13-1.63-11.39-4.02-22.59-7.15-33.66-1.54-5.44-2.95-10.93-4.25-16.43-.5-2.13-.54-4.38-.75-6.57-.24-2.5-.19-5.04-1.02-7.47-.22-.64.08-1.24.72-1.56.61-.3,1.48.33,1.63,1.24.16.93.23,1.87.34,2.81.32,2.81.74,5.62,1.08,8.41.81,6.61,2.83,12.9,4.53,19.27,1.86,6.99,3.83,13.94,5.04,21.09.99,5.89,1.9,11.8,2.86,17.7,1.09,6.69,3.04,13.17,4.98,19.65.3,1.01,1.05,1.92,1.7,2.79,2.28,3.02,4.55,6.04,6.94,8.97,2.19,2.68,4.51,5.26,6.82,7.84,1.68,1.88,3.48,3.65,5.17,5.52,3.07,3.4,6.27,6.64,9.84,9.52.98.79,1.92,1.64,2.8,2.54,3.41,3.52,7.07,6.72,11.17,9.44,1.69,1.12,3.1,2.66,4.6,4.05.33.31.44.92,0,1.23-.33.23-.93.4-1.25.25-.7-.31-1.35-.79-1.94-1.29-2.16-1.84-4.35-3.63-6.76-5.15-2.15-1.35-3.88-3.21-5.66-5-1.55-1.56-3.01-3.25-4.72-4.62-5.08-4.06-9.26-9-13.78-13.61-4.2-4.29-7.8-9.06-11.52-13.76-4.79-6.07-9.39-12.24-13.51-18.79-1.42-2.26-3.26-4.25-4.78-6.46-1.86-2.71-4.39-4.47-7.33-5.76-1.01-.44-2.04-.87-3.09-1.16-7.73-2.09-14.43-6.28-20.94-10.7-7.18-4.89-14.53-9.41-22.48-12.94-7.22-3.2-13.94-7.31-20.4-11.84-.89-.62-1.66-1.44-2.42-2.22-.13-.13-.05-.63.1-.84.16-.21.58-.43.78-.36.58.21,1.14.51,1.65.87,8.12,5.78,16.88,10.37,25.94,14.5,5.58,2.55,10.92,5.64,15.87,9.32,5.08,3.79,10.67,6.7,16.2,9.7,2.51,1.36,5.33,1.88,8.92,2.92Z"/>
      </g>
      <g>
        <path class="st6" d="M357.9,169.71c1.85-.07,3.32-.14,4.83.16,3.87.77,6.89,2.75,9.23,5.89,2.19,2.94,3.6,6.26,4.9,9.64,1.32,3.42,1.08,6.9.22,10.32-1.04,4.15-2.72,8.02-5.58,11.32-1.47,1.7-2.26,8.77-3.66,10.53-1.56,1.96-3.4,3.64-5.15,5.42-3.95,4-8.47,7.39-12.2,11.61-.99,1.12-2.18,2.05-3.25,3.1-4.46,4.37,6.19,12.99,2.08,17.7,5.37,13.91-36.1,65.16-31.62,29.36-.59.64-16.28,40.62-10.16,13.55-4.11,5.26,10.64-35.49,5.33-31.5-5.39,4.04-11.53,6.48-18.05,7.85-5.77,1.21-10.65-1.93-13.29-6.89-1.34-2.52-1.54-5.29-1.31-8.03.4-4.73,1.1-9.42,2.82-13.89.22-.58.39-1.19.67-1.75,2.66-5.23,4.97-10.63,8.2-15.56,1.71-2.61,3.38-5.25,5.06-7.88,1.48-2.32,3.18-4.48,4.93-6.6,1.11-1.34,2.04-2.83,3.06-4.24,1.1-1.51,2.14-3.08,3.35-4.5,6.7-7.93,14.02-15.27,21.78-22.15,3.55-3.15,7.42-5.9,11.52-8.32,4.76-2.81,12.29-5.03,16.3-5.13Z"/>
        <path class="st2" d="M322.29,191.13c-.02.3.02.68-.07,1.02-1.62,6.01-3.06,12.07-5.05,17.98-.56,1.65-1,3.34-1.39,5.04-.93,4.02-2.24,7.91-3.96,11.66-2.07,4.54-3.9,9.17-5.17,14.01-.28,1.07-.79,2.09-1.3,3.08-.11.21-.72.37-.96.25-.25-.12-.54-.67-.45-.91,1.27-3.64,2.03-7.45,3.59-11,.8-1.82,1.53-3.68,2.35-5.5,1.64-3.65,2.87-7.43,3.94-11.28,1.6-5.76,3.37-11.47,5.04-17.21.59-2.03,1.04-4.1,1.62-6.14.13-.45.48-.86.8-1.22.12-.14.46-.11.69-.09.09,0,.18.16.32.31Z"/>
        <path class="st2" d="M370.27,209.05c.22.36.55.65.54.94,0,.31-.23.75-.5.92-.63.39-1.32.69-2.02.96-4.64,1.83-9.18,3.89-13.64,6.13-4.12,2.07-8.42,3.76-12.8,5.23-4.61,1.54-9.22,3.1-13.58,5.28-.11.06-.24.08-.35.14-7.9,3.68-9.47,5.07-14.59,12.31-5.14,7.26-9.53,14.94-13.67,22.8-1.05,1.99-2.05,4-3.1,5.99-.23.42-.57.8-.93,1.13-.12.11-.5.08-.67-.03-.19-.12-.39-.41-.37-.6.13-1.26.75-2.36,1.33-3.46,1.93-3.64,3.85-7.29,5.86-10.88,3.6-6.44,7.41-12.76,11.9-18.61,3.8-4.95,7.62-9.9,12.11-14.28,1.79-1.75,3.45-3.61,5.19-5.41,1.22-1.26,5.47-9.01,5.93-10.69,2.19-8.04,6.03-15.32,10.19-22.45,2.84-4.85,5.98-9.52,8.49-14.56.11-.21.3-.43.5-.53.19-.1.51-.14.68-.04.18.1.37.41.34.6-.06.48-.14.99-.37,1.41-1.69,3.06-3.42,6.1-5.15,9.14-2.4,4.24-4.92,8.41-7.2,12.71-2.76,5.2-8.15,19.41-8.15,19.41,0,0,2.69-2.81,2.99-3.14,2.73-2.92,5.44-5.86,8.14-8.81,1.77-1.94,3.49-3.92,5.24-5.88,5.65-6.36,11.75-12.26,17.93-18.09.35-.33.8-.55,1.21-.79.08-.05.29-.02.35.05.14.18.35.43.32.61-.07.35-.22.73-.45.98-.93,1.01-1.89,2-2.88,2.94-4.98,4.73-9.81,9.61-14.36,14.77-2.56,2.91-5.16,5.78-7.72,8.68-3.73,4.21-7.74,8.14-11.75,12.09-3.38,3.33-6.62,6.8-9.92,10.21-.43.44-.8.94-1.17,1.37.38.7.87.56,1.29.34,5.77-3,11.92-5.06,18.03-7.24,3.98-1.42,7.9-3.12,11.68-5.01,3.69-1.84,7.44-3.51,11.26-5.05,1.26-.51,2.52-1.03,3.86-1.57Z"/>
      </g>
      <path class="st20" d="M427.68,215.47c-.2-3.24-.4-6.48-.59-9.72-.13-2.24-.36-4.46.13-6.71.21-.95.12-2,.01-2.98-.23-2.03.1-4.01.52-5.94,1.45-6.57,5.85-10.28,12.18-11.73,5.12-1.18,9.86-.12,14.15,3.05,2.14,1.58,4,3.37,5.44,5.6.81,1.26,1.64,2.51,2.41,3.79,1.42,2.36,2.98,4.6,5.04,6.47,1.6,1.45,2.62,3.29,3.42,5.3.81,2.03.94,4.06.64,6.23-.73,5.31-2.79,10.09-5.57,14.56-2.64,4.24-5.73,8.17-9.16,11.82-1.72,1.83-3.61,3.43-5.78,4.72-3.45,2.05-7.14,2.85-11.1,2.26-3.36-.5-6.12-2.02-8.03-4.92-1.82-2.76-3.01-5.71-3.17-9.06-.2-4.24-.5-8.47-.76-12.71.07,0,.14,0,.21-.01Z"/>
      <g>
        <path class="st20" d="M181.57,315.51c.53-.66.32-1.26.14-1.87-1.74-5.87-3.56-11.71-5.17-17.62-.78-2.87-1.27-5.84-1.67-8.79-.8-5.92-1.52-11.85-2.15-17.78-.34-3.28-.42-6.59-.61-9.89-.37-6.44-.73-12.89-1.12-19.33-.12-2.05-.25-4.08.46-6.07.54-1.5,1.23-2.88,2.29-4.09,1.72-1.97,3.38-2.09,5.26-.4,1.2,1.08,2.02,2.43,2.62,3.88,1.39,3.35,2.48,6.79,2.71,10.45.41,6.44.89,12.87.57,19.34-.04.77.11,1.56.24,2.32.73,4.34,1.07,8.72,1.94,13.05.77,3.83.75,7.82,1.04,11.74.3,4.08.22,8.23.94,12.23.75,4.2,1.13,8.41,1.61,12.62.11.94.16,1.88.19,2.82.08,2.38,0,4.73-1.67,6.87,1.95,2.94,3.85,5.79,5.72,8.6-.22.98-1.28,1.03-1.65,1.53-1.83,2.48-3.96,2.09-6.24.95-2.11-1.06-4.26-2.04-6.25-3.29-7.78-4.88-16.04-8.61-24.91-11.06-6.51-1.8-13-3.67-19.68-4.72-4.96-.78-9.96-1.27-14.92-2.09-9.29-1.54-18.53-3.39-27.65-5.78-4.55-1.19-9.2-2.04-13.79-3.09-2.76-.63-5.51-1.35-8.05-2.62-.97-.48-1.89-1.14-2.67-1.88-1.12-1.06-.77-2.94.62-3.55.85-.37,1.77-.71,2.68-.79,2.19-.18,4.41-.41,6.59-.25,5.63.42,11.26.94,16.85,1.8,4.03.62,8.07,1.16,12.12,1.67,2.99.38,5.83,1.25,8.57,2.47,6.09,2.7,12.45,4.23,19.1,4.8,3.89.34,7.82.67,11.64,1.68.58.15,1.24.3,1.83-.25-.46-1.13-1.57-1.35-2.53-1.68-7.63-2.61-14.66-6.46-21.78-10.15-5.86-3.04-11.83-5.88-17.83-8.63-6.74-3.09-13.86-5.06-21.11-6.56-4.46-.92-8.91-1.83-13.41-2.53-7.55-1.19-14.53-3.93-20.7-8.59-1.91-1.44-3.44-3.23-4.96-5.03-1.14-1.36-1.73-2.98-1.64-4.8.09-1.7,1.14-3.02,2.82-3.3,2.19-.37,4.36-.37,6.55.18,4.42,1.11,8.81,2.35,13.02,4.11,2.32.97,4.66,1.9,6.95,2.93,8.76,3.96,17.83,7.03,27.11,9.53,7.9,2.13,15.65,4.74,23.1,8.15,2.43,1.11,4.8,2.36,7.2,3.53.53.26,1.03.76,1.67.25.23-.51-.07-.87-.35-1.21-5.04-6.12-10.58-11.64-17.96-14.97-2.58-1.16-5.04-2.61-7.67-3.63-10.86-4.23-21.39-9.14-31.78-14.4-6.17-3.13-12.57-5.77-18.85-8.68-7.29-3.39-14.17-7.5-21.02-11.68-1.76-1.08-3.32-2.38-4.27-4.29-1.54-3.1-.54-6.5,2.39-8.15,1.32-.75,2.72-.79,4.13-.56,3.1.51,6.17,1.26,9.07,2.47,5.51,2.31,11.13,4.3,16.56,6.84,6.12,2.86,12.47,5.21,18.71,7.82,6.24,2.61,12.55,5.06,18.66,7.94,8.77,4.14,16.41,9.86,22.78,17.27,3.69,4.29,7.5,8.49,11.43,12.57,3.92,4.09,8.18,7.82,12.9,10.94.86-.58.44-1.1.04-1.51-6.51-6.52-11.13-14.39-16.06-22.08-6.12-9.56-12.94-18.61-21.76-25.93-4.97-4.13-10.28-7.8-15.75-11.22-4.28-2.67-8.32-5.67-12-9.13-2.19-2.06-4.04-4.41-5.72-6.89-.97-1.43-1.77-2.97-1.92-4.76-.13-1.53.8-2.84,2.27-3.12,2.08-.4,4.1-.2,5.95.83,2.34,1.3,4.7,2.57,6.9,4.08,2.72,1.87,5.39,3.84,7.89,5.99,8.12,6.98,16.51,13.61,25.22,19.84,2.3,1.65,4.36,3.59,6.19,5.79,2.92,3.51,5.81,7.05,8.24,10.92,3.43,5.46,7.15,10.73,10.3,16.37,1.53,2.74,3.37,5.31,5.14,7.91,4.26,6.25,8.18,12.69,11.11,19.69,1.83,4.37,4.64,8.21,6.85,12.37.36.68.93,1.27,1.46,1.85,2.97,3.24,5.96,6.46,8.95,9.7Z"/>
        <path class="st20" d="M170.3,313.55c-1.45-2.23-3.13-4.23-4.66-6.34-.25-.34-.75-.53-1.17-.71-5.77-2.52-11.16-5.7-16.5-9.02-3.05-1.9-6.35-3.44-9.3-5.53-.77-.54-1.54-1.1-2.2-1.76-.26-.26-.38-.87-.29-1.25.14-.59.79-.52,1.17-.34.85.4,1.62.94,2.43,1.42,6.49,3.83,12.97,7.66,19.47,11.46.79.46,1.69.74,2.49,1.09.49-.52.38-.92.05-1.32-2.88-3.53-5.75-7.06-8.63-10.59-.49-.6-1.15-1.1-1.18-1.96,0-.27.12-.64.32-.8.2-.16.65-.24.84-.12.53.32,1.06.71,1.44,1.18,4.29,5.4,9.06,10.43,12.72,16.33,1.99,3.21,4.43,6.09,6.92,8.92,2.38,2.7,4.66,5.49,6.94,8.27.12.14,0,.62-.17.81-.18.2-.53.34-.82.35-.29.01-.64-.1-.88-.27-.51-.36-1.14-.7-1.41-1.21-2.03-3.81-5.35-5.26-9.44-6.07-4.59-.92-9.04-2.55-13.53-3.94-1.03-.32-1.99-.89-2.94-1.41-.18-.1-.28-.6-.19-.83.1-.23.48-.49.73-.48.61.01,1.24.1,1.82.29,2.69.84,5.36,1.79,8.06,2.58,2.25.66,4.54,1.16,6.83,1.69.24.05.55-.21,1.07-.42Z"/>
        <path class="st20" d="M181.67,316.26c.16,0,.34-.05.46.01,2.23,1.19,3.93,2.99,5.55,4.88.12.14.02.62-.14.82-.17.21-.51.36-.79.37-.29.02-.63-.09-.87-.26-1.8-1.27-3.25-2.9-4.58-4.63-.14-.18,0-.59.06-.87.03-.13.21-.22.32-.33Z"/>
      </g>
      <g>
        <path class="st6" d="M659.64,245.37c1.42.38,2.36.04,3.32-.22,2.89-.78,5.79-1.51,8.67-2.29,1.5-.41,2.96-.34,4.42.17,2.54.89,3.6,3.12,2.68,5.7-.52,1.45-1.42,2.61-2.66,3.54-2.32,1.75-4.91,2.97-7.6,3.97-2.22.83-4.48,1.53-6.74,2.24-6.59,2.04-10.45,5.05-18.66,8.54-3.6,2.25-7.29,4.34-11.21,6-5.74,2.44-10.68,5.67-16.71,7.29-2.4.65-5.75.02-8.2.46-.48.08-1.02.08-1.48-.07-1.48-.48-2.68-.02-3.83.88-4.1,3.22-8.84,5.11-13.81,6.43-1.19.32-2.45.52-3.68.55-2.59.07-3.9-1.57-3.4-4.11.74-3.74,2.33-7.12,4.54-10.19,1.02-1.41,2.23-2.69,3.41-3.99.32-.35.78-.64,1.23-.8.29-.1.77-.02,1,.18.22.2.38.67.3.96-.12.46-.39.91-.7,1.29-.86,1.07-1.78,2.1-2.64,3.16-1.35,1.66-2.47,3.45-3.12,5.51.37.62.81.4,1.14.03,2.92-3.27,5.4-6.87,7.8-10.53,4.18-6.37,8.33-12.76,12.58-19.08,1.81-2.69,3.79-5.28,5.85-7.79,1.36-1.64,1.93-3.28,1.79-5.45-.21-3.23-.16-6.49.08-9.72.29-4.03,1.67-7.79,3.47-11.39,1.84-3.69,3.63-7.4,5.44-11.1,1.93-3.94,3.53-7.96,4.34-12.31.64-3.43,1.47-6.83,2.89-10.06.96-2.18,2.01-4.31,3.35-6.27,1.88-2.74,4.28-4.85,7.42-6.07,4.06-1.59,8.24.79,8.95,5.13.45,2.79-.05,5.48-.92,8.1-.98,2.97-2.24,5.84-3.74,8.58-2.67,4.88-4.17,10.1-4.79,15.58.6.55.99.06,1.28-.25,2.63-2.84,5.27-5.68,7.83-8.58,2.74-3.1,5.67-5.99,9.06-8.37,2.04-1.43,4.13-2.81,6.31-4.02,5.54-3.07,11.48-4.07,17.73-3.05,2.02.33,3.86,1.1,4.86,3.09.58,1.14.83,2.27.57,3.6-.4,2.01-1.15,3.82-2.39,5.43-.61.79-1.25,1.58-1.99,2.23-3.2,2.82-5.92,6.09-8.72,9.28-2.22,2.53-4.62,4.91-6.92,7.37-1.52,1.62-3.04,3.25-4.18,5.12.46.5.8.29,1.11.1,2.79-1.66,5.56-3.35,8.36-4.99,3.37-1.97,6.99-3.26,10.8-4.08,2.04-.44,4-.23,5.9.38,3.31,1.07,4.73,4.13,3.67,7.47-.92,2.9-2.72,5-5.43,6.37-2,1.02-3.97,2.09-5.97,3.12-2.8,1.45-5.22,3.42-7.42,5.66-4.4,4.49-9.41,8.15-15.21,11.25Z"/>
        <path class="st6" d="M624.42,246c-5.76,5.78-12.52,10.8-19.12,16.12,1.19-.27,2.38-.54,3.57-.82,5.59-1.31,11.27-2.06,16.95-2.86,4.31-.6,8.63-1.12,12.92-1.99,5.74-1.16,11.48-2.32,17.15-3.76,7.25-1.84,14.46-3.84,21.12-7.37.32-.17.7-.25,1.06-.27.21-.01.51.13.61.29.1.17.1.55-.03.68-.98.99-2.2,1.63-3.46,2.16-4.36,1.85-8.81,3.47-13.36,4.79-6.22,1.81-12.55,3.18-18.89,4.51-5.74,1.2-11.53,1.99-17.34,2.8-7.01.98-14.12,1.66-20.84,4.19-1.09.41-2.19.36-3.32-.34-3.06,2.13-5.88,4.57-8.71,7.01-1.7,1.46-3.37,2.98-5.07,4.44-.36.31-.81.55-1.26.73-.17.07-.52-.05-.65-.2-.13-.15-.21-.54-.11-.67.43-.6.88-1.21,1.42-1.72,4.84-4.52,9.86-8.83,15.33-12.58,6.08-4.17,12.04-8.49,17.5-13.46.27-.25.52-.53.7-.73.16-.81-.67-.7-.81-1.14-.12-.36-.14-.76.21-1,.73-.5,1.55-.81,2.45-.83,1.07-.03,1.9-.52,2.6-1.29.51-.55,1.01-1.11,1.56-1.61,1.47-1.32,2.14-2.85,2.22-4.92.14-3.6.72-7.18,1.07-10.78.21-2.11.41-4.22.47-6.34.28-10.05,2.31-19.79,5.28-29.35,2.04-6.57,4.92-12.81,8.07-18.92.06-.11.12-.23.21-.3.3-.24.66-.37,1-.12.19.14.44.42.41.59-.11.6-.24,1.22-.54,1.74-6.55,11.59-9.78,24.24-11.87,37.24-.53,3.31-.59,6.7-.88,10.05-.39,4.47-.81,8.93-1.19,13.4-.06.7-.31,1.47.49,2.16.43-.42.89-.82,1.29-1.28,2.05-2.35,4.13-4.69,6.12-7.09,2.55-3.08,5.02-6.22,7.53-9.33.55-.68,1.11-1.35,1.7-1.99,1.94-2.11,3.93-4.19,5.85-6.33,1.42-1.59,2.88-3.11,4.51-4.48,5.75-4.82,11.73-9.32,18.32-12.95,3.07-1.69,5.86-3.81,8.77-5.74.27-.18.7-.14,1.05-.16.1,0,.24.1.3.19.13.19.23.4.41.73-2.99,2.21-5.99,4.42-9.26,6.23-6.59,3.64-12.47,8.28-18.3,12.99-.58.47-1.14.98-1.64,1.54-4.81,5.41-10.09,10.43-14.46,16.21-3.7,4.89-7.81,9.41-11.78,14.07-1.19,1.4-1.87,2.85-1.62,4.61.54.45,1.06.39,1.53.27,3.98-1.01,7.96-2.03,11.77-3.64,8.72-3.7,17.55-7.17,25.95-11.59,3.53-1.86,6.94-3.95,10.34-6.04,3.72-2.29,7.36-4.7,11.03-7.07.64-.41,1.28-.79,2.06-.78.23,0,.47.12.69.22.26.12.16.71-.18.93-5.35,3.45-10.7,6.89-16.05,10.33-7.27,4.69-15.18,8.09-23.07,11.52-3.2,1.39-6.46,2.66-9.68,3.99-4.39,1.81-8.83,3.41-13.6,3.94-2.1.23-4.16.74-6.53,1.17Z"/>
      </g>
      <g>
        <path class="st20" d="M286.02,224.82c2.29-7.14,7.55-21.55,11.67-27.53,3.39-4.91,7.85-8.38,13.27-10.71,4.13-1.77,7.67.66,7.58,5.18-.01.59-.12,1.18-.22,1.77-.46,2.75-1.14,5.43-2.21,8.02-1.29,3.12-2.5,6.28-3.61,9.47-2.03,5.82-4.26,11.53-7,17.09-2.46,4.98-4.29,10.26-6.36,15.43-1.11,2.77-2.05,5.61-3.23,8.34-.87,2-1.87,3.97-3.06,5.79-2.5,3.81-5.62,6.76-10.67,6.28-1.24,1.85-1.25,3.89-1.6,5.79-.4,2.18-1.08,4.23-2.01,6.22-.6,1.29-1.46,2.37-2.58,3.24-1.41,1.09-3.6,1.06-4.98-.1-1.56-1.31-2.68-2.93-3.18-4.93-.53-2.12-1.07-4.23-1.51-6.37-2.05-9.96-2.96-20.05-3.43-30.19-.44-9.58.73-19.03,2.09-28.47,1-6.93,2.96-13.58,6.06-19.88,1.07-2.17,2.42-4.12,4.13-5.81,2.54-2.5,6.26-2.18,8.26.73.66.96,1.22,2.09,1.48,3.22,1.66,7.19,2.71,14.46,2.52,21.87-.04,1.38-.78,12.46-1.42,15.54Z"/>
        <path class="st20" d="M222.88,225.65c.58.17,1.75.4,2.82.87,3.54,1.54,6.36,4,8.53,7.18,8.2,12.03,14.81,24.81,18.13,39.1.13.57.6,1.22.45,1.68-.6,1.81-.17,4.16-2.28,5.23-2.06,1.05-3.83-.09-5.52-1.15-1.37-.87-2.31-2.17-3.1-3.56-1.18-2.06-2.28-4.17-3.39-6.28-2.78-5.27-6.07-10.19-9.84-14.83-5.06-6.21-8.63-13.23-10.83-20.96-.47-1.65-.25-3.12.32-4.63.71-1.9,2.06-2.78,4.71-2.67Z"/>
        <path class="st20" d="M285.37,225.42c.53-.03.86.74.81,1.5-.4,6.92-1.2,13.79-3.11,20.45-.06.22-.24.48-.41.56-.35.17-.76.4-1.07.29-.31-.1-.64-.53-.74-.93-.11-.44-.02-1.01.06-1.51.78-5.09,1.58-10.18,2.36-15.27.15-.96.37-1.93.65-2.86.18-.59.45-1.49.9-1.93.2-.2.39-.29.55-.3Z"/>
      </g>
      <g>
        <path class="st20" d="M381.34,264.67c-.66.26-.8.91-1.13,1.42-1.42,2.17-2.75,2.58-5.06,1.75-1.69-.61-3.08-1.65-4.31-2.9-3.51-3.56-6.89-7.23-9.71-11.37-1.61-2.37-3.21-4.75-5.08-6.94-1.39-1.62-2.87-3.13-4.54-4.44-3.24-2.54-6.51-5.03-10.14-7.03-3.99-2.2-6.73-5.52-8.18-9.83-.82-2.42-.95-4.89.11-7.31.72-1.64,1.98-2.55,3.77-2.61.86-.03,1.75.04,2.59.22,1.09.24,2.19.54,3.21.98,5.2,2.18,10.23,4.65,14.32,8.67.44.43.94.81,1.39,1.2.74-.32.47-.78.26-1.17-2.89-5.38-5.81-10.75-8.69-16.14-2-3.74-3.91-7.52-5.06-11.64-.55-1.96-.83-3.89-.23-5.89.84-2.78,3.08-4.33,5.94-4,1.25.14,2.41.58,3.51,1.21,3.3,1.87,6.08,4.31,8.53,7.2,5,5.91,8.19,12.76,10.67,20.01.91,2.67,1.97,5.3,3.09,8.04.22-.31.34-.41.35-.52.15-1.98.32-3.96.41-5.95.13-3.12.43-6.21,1-9.28.53-2.86,1.68-5.48,3.15-7.96.7-1.18,1.54-2.28,2.67-3.11,1.05-.76,2.42-.82,3.51-.12.96.62,1.71,1.44,2.25,2.45.95,1.78,1.65,3.63,1.79,5.66.18,2.62.4,5.23.49,7.85.21,5.99.4,11.98,1.05,17.95.7,6.5.29,12.94-.8,19.37-.27,1.6-.52,3.2-.71,4.8-.2,1.74-.05,3.48.17,5.23.23,1.86.41,3.73.43,5.59.01,1.88-1.25,2.94-3.18,2.68-1.02-.14-1.98-.03-2.97.03-1.09.06-1.9-.43-2.59-1.24-.79-.94-1.01-2.32-2.27-2.88ZM381.68,238.61c1.26,4.93,2.24,9.02,2.25,13.26,0,.99.22,2.03-.29,2.93-.41.72-1.01,1.34-1.5,1.97.33,1.79.62,3.5.98,5.19.39,1.84,1.5,3.09,3.29,3.71.53.18,1.04-.01,1.28-.47,1.18-2.23,1.48-4.71,1.82-7.16.03-.23-.05-.49-.12-.73-1.38-4.63-2.63-9.31-4.63-13.72-.7-1.56-1.31-3.21-3.08-4.99ZM376.3,254.02c.46-.59.21-1.17-.02-1.74-1.86-4.49-4.22-8.73-6.53-13-.13-.24-.13-.68-.62-.57.71,3.93,4.23,11.45,7.17,15.31ZM382.11,252.71c.31-2.59.18-5.1-1.25-7.64-.59,2.89.89,5.17,1.25,7.64Z"/>
        <path class="st20" d="M346.57,188.58c2.36,2.98,4.48,5.9,6.48,8.91,1.31,1.98,2.65,3.93,3.98,5.9.49.72,1.03,1.42,1.46,2.18,4.01,7.05,8.39,13.89,12.17,21.08,2.44,4.64,5.04,9.19,7.55,13.79.78,1.42,1.5,2.88,2.19,4.34.15.31.08.73.07,1.09,0,.1-.13.25-.23.28-.22.06-.54.17-.66.07-.37-.32-.75-.68-.98-1.1-3.52-6.47-7.02-12.95-10.52-19.43-.36-.66-.66-1.35-1.04-1.99-3.23-5.49-6.35-11.04-9.74-16.43-3.18-5.07-6.39-10.14-10.03-14.92-.53-.69-.99-1.44-1.4-2.21-.25-.46-.15-.95.69-1.57Z"/>
      </g>
      <g>
        <path class="st20" d="M605.68,279.34c-.81-.34-1.72-.72-2.68-1.12-1.56.19-2.99,1.16-4.68,1.06-.41-.02-.83.49-1.27.7-1,.48-2.13-.24-1.98-1.33.13-.98.35-1.97.69-2.89,1.29-3.52,3.01-6.85,4.83-10.12,4.26-7.67,9.28-14.78,15.41-21.09,3.05-3.15,6.42-5.91,10.09-8.3,1.05-.69,2.16-1.21,3.45-1.34,2.15-.22,3.63,1.17,3.42,3.37-.14,1.5-.56,2.93-1.21,4.3-1.59,3.39-3.29,6.72-5.27,9.9-1.45,2.33-2.87,4.67-4.28,7.02-.09.15-.02.51.11.63.14.13.49.19.65.1.98-.54,1.94-1.11,2.9-1.7,3.5-2.18,7.11-4.14,10.94-5.66,3.97-1.57,8.05-2.61,12.35-2.7,1.13-.02,2.23.05,3.3.5,1.53.65,2.04,2.31,1.05,3.69-.36.5-.78.98-1.22,1.41-1.6,1.58-3.29,3.05-5.21,4.25-5.08,3.18-10.31,6.07-15.82,8.44-8.23,3.55-16.48,7.08-24.72,10.61-.23.1-.47.16-.83.28Z"/>
        <path class="st20" d="M626.8,285.61c-2.84.54-5.68-.15-8.54-.2-.72-.01-1.51-.27-2.12-.64-.96-.59-1.8-1.29-3.03-.66-.13.07-.67-.36-.78-.65-.12-.28-.06-.8.14-1.01.5-.54,1.07-1.05,1.71-1.43,5.68-3.38,11.32-6.81,17.48-9.29,5.66-2.28,11.19-4.87,17.04-6.65,3.71-1.13,7.44-2.05,11.34-2.14,1.78-.04,3.47.24,5.06,1.06,2.07,1.08,2.57,3.15,1.15,4.99-.45.58-1.03,1.09-1.63,1.52-1.72,1.23-3.46,2.42-5.39,3.35-4.82,2.34-9.54,4.89-14.38,7.17-3.61,1.7-7.44,2.82-11.38,3.56-2.2.41-4.36,1.08-6.67,1.03Z"/>
        <path class="st20" d="M650.28,293.89c-.12,0-.25,0-.37.03-.55.19-1.04.76-1.7.32-.53-.35-.61-1.29-.16-2.04.32-.53.63-1.09,1.06-1.53,5.19-5.45,10.95-10.17,17.75-13.51,1.79-.88,3.64-1.64,5.7-1.57.37.01.75.03,1.11.11,1.34.29,2.21,1.87,1.8,3.18-.34,1.09-.91,2.05-1.6,2.94-3.87,4.99-8.59,9-14.02,12.18-1.85,1.08-3.91,1.6-6.04,1.8-1.99.18-2.15.1-3.53-1.91Z"/>
      </g>
    </g>
    <g>
      <path class="st1" d="M783.24,348.98c-.25,1.3-.92,1.53-1.59,1.76-8.89,2.94-17.81,5.77-26.66,8.83-11.8,4.07-23.51,8.36-35.29,12.47-7.77,2.7-15.58,5.29-23.4,7.84-11.46,3.74-22.97,7.35-34.43,11.11-20.35,6.68-40.68,13.42-61.02,20.14-13.34,4.4-26.7,8.73-40,13.23-18.54,6.27-37.09,12.53-55.53,19.07-18.18,6.44-36.38,12.81-54.66,18.98-17.2,5.81-34.44,11.51-51.66,17.26-.4.13-.79.31-1.19.45-3.19,1.14-6.23,1.3-9.44-.31-2.37-1.19-5.04-1.82-7.32-3.27-.69-.44-1.57-.62-2.35-.94-1.57-.64-3.15-1.26-4.7-1.94-4.27-1.88-8.48-3.9-12.79-5.68-13.99-5.79-27.83-11.91-41.42-18.52-9.4-4.57-18.78-9.16-28.37-13.36-8.94-3.91-17.91-7.74-26.91-11.52-8.08-3.4-16.25-6.62-24.3-10.09-5.06-2.18-9.99-4.65-14.95-7.04-7.13-3.44-14.45-6.46-21.73-9.57-10.54-4.5-20.98-9.19-31.52-13.69-11.18-4.78-22.42-9.44-33.64-14.13-13.84-5.78-27.71-11.5-41.35-17.68-10.56-4.78-21.11-9.58-31.62-14.46-6.92-3.22-13.75-6.61-20.63-9.91-4.59-2.19-9.16-4.42-13.98-6.13-.49-.18-.9-.56-1.33-.84.38-.84,1.02-1.11,1.73-1.28,3.87-.92,7.71-1.97,11.62-2.71,7.4-1.4,14.83-2.59,22.24-3.91,6.3-1.12,12.58-2.3,18.88-3.43,7.69-1.38,15.4-2.67,23.09-4.1,9.08-1.69,18.13-3.52,27.21-5.24,9.08-1.72,18.17-3.34,27.25-5.08,6.98-1.33,13.93-2.8,20.9-4.15,7.4-1.43,14.82-2.76,22.22-4.17,5.16-.99,10.31-2.06,15.47-3.07,5.72-1.12,11.44-2.21,17.17-3.3,5.58-1.07,11.17-2.12,16.75-3.17,6-1.13,12.01-2.27,18.02-3.39,5.73-1.07,11.45-2.16,17.19-3.19,6.43-1.16,12.87-2.29,19.31-3.41,4.06-.71,8.13-1.39,12.19-2.09,4.76-.83,9.51-1.68,14.27-2.5,5.18-.89,10.36-1.8,15.56-2.63,5.2-.83,10.41-1.54,15.61-2.35,5.05-.79,10.1-1.65,15.15-2.45,2.53-.4,5.06-.75,7.6-1.1,4.93-.68,9.86-1.38,14.8-2.01,2.41-.3,4.81-.37,7.23.18,1.65.37,3.38.46,5.07.7,10.72,1.48,21.17,4.15,31.71,6.45,2.36.52,4.73.89,7.12,1.24,2.8.41,5.53,1.25,8.29,1.9,18.94,4.48,37.62,9.83,56.18,15.55,12.87,3.97,25.9,7.42,38.99,10.65,8.54,2.11,17.03,4.41,25.55,6.61,9.76,2.51,19.52,4.99,29.27,7.51,8.24,2.13,16.47,4.32,24.71,6.47,12.22,3.19,24.43,6.38,36.66,9.56,11.53,3,23.07,5.98,34.61,8.97,11.81,3.06,23.66,6.01,35.42,9.23,7.8,2.13,15.47,4.69,23.21,7.01,4.07,1.22,8.18,2.35,12.27,3.55,1.07.32,2.12.73,3.3,1.14ZM121.06,304.93c.96.47,1.91.19,2.84.14.4-.02.49-.22.24-.39-1.01-.23-2.03-.13-3.07.25Z"/>
      <g>
        <path class="st12" d="M93.99,325.95c1.33-.35,2.8-.8,4.3-1.11,6.12-1.28,12.25-2.51,18.37-3.76,4.73-.97,9.46-1.95,14.19-2.92,5.71-1.17,11.41-2.34,17.12-3.52,6.4-1.31,12.8-2.62,19.2-3.95,6.81-1.42,13.62-2.89,20.44-4.28,6.68-1.37,13.37-2.67,20.07-3.98,6.14-1.2,12.28-2.37,18.42-3.56,7.39-1.44,14.77-2.92,22.17-4.31,7.54-1.42,15.1-2.75,22.65-4.16,7.68-1.43,15.35-2.92,23.03-4.36,7.12-1.33,14.26-2.61,21.38-3.94,7.82-1.46,15.63-2.99,23.45-4.45,7.4-1.38,14.82-2.68,22.22-4.07,5.59-1.05,11.16-2.19,16.73-3.29,6.97-1.38,13.94-2.74,20.89-4.16,2.23-.45,4.42-1.07,6.8-1.65,9.36,2.25,18.93,4.36,28.37,6.89,9.87,2.64,19.62,5.65,29.41,8.53,9.52,2.8,19.04,5.55,28.83,7.47,7.38,1.45,14.62,3.52,21.93,5.3,19.3,4.71,38.65,9.25,57.89,14.18,13.88,3.55,27.64,7.55,41.42,11.45,13.51,3.82,26.95,7.87,40.48,11.64,18.03,5.03,36.11,9.9,54.17,14.81,2.87.78,5.8,1.37,8.69,2.09.47.12.95.28,1.35.56.38.28.98.89.67,1.38-.41.63-1.29.9-1.99,1.08-6.18,1.61-12.37,3.19-18.54,4.85-2.19.59-4.33,1.36-6.49,2.06-9.7,3.17-19.39,6.4-29.11,9.52-6.75,2.16-13.56,4.16-20.34,6.23-9.36,2.86-18.74,5.68-28.08,8.6-8.12,2.54-16.19,5.25-24.32,7.77-7.59,2.35-15.21,4.59-22.84,6.8-7.22,2.1-14.48,4.08-21.71,6.15-8.87,2.54-17.75,5.04-26.58,7.69-11.82,3.55-23.63,7.16-35.39,10.89-11.9,3.77-23.73,7.73-35.6,11.6-13.89,4.53-27.79,9.04-41.68,13.56-3.24,1.05-6.49,2.06-9.69,3.21-1.88.68-3.51.86-5.27.07-.51-.23-1.17-.67-1.66-.92-4.39-2.25-8.74-4.59-13.17-6.77-6.72-3.29-13.45-6.56-20.26-9.67-5.65-2.58-11.43-4.91-17.16-7.33-2.73-1.16-5.49-2.27-8.23-3.41-3.79-1.57-7.53-3.25-11.36-4.71-10.33-3.94-20.15-8.94-30.33-13.21-5.48-2.29-10.87-4.78-16.33-7.11-6.11-2.61-12.21-5.25-18.39-7.72-12.08-4.83-24.19-9.62-36.33-14.31-15.71-6.08-31.45-12.06-47.19-18.06-10.32-3.93-20.51-8.16-30.59-12.62-2.97-1.31-6.06-2.37-9.1-3.53-2.11-.81-4.24-1.6-6.35-2.42-1.06-.41-2.06-.98-3.15-1.26-7.42-1.95-14.56-4.68-21.87-6.96-1.62-.5-3.29-.87-4.91-1.36-.57-.18-.89-.65-.6-1.52ZM715.12,348.25c-1.71-.37-3.65-.79-4.61-1.04-10.03-2.61-20.08-5.12-30.06-7.86-14.91-4.1-29.78-8.35-44.65-12.58-15.97-4.54-31.88-9.23-47.88-13.65-20.92-5.79-42.03-10.9-63.15-15.97-10.08-2.42-20.14-4.86-30.22-7.28-5.93-1.42-11.96-2.41-17.82-4.14-14.42-4.26-28.89-8.35-43.35-12.46-4.23-1.2-8.46-2.44-12.76-3.33-3.9-.8-7.82-1.5-11.63-2.61-2.28-.66-4.43-.63-6.72-.09-3.87.91-7.78,1.64-11.68,2.43-5.71,1.16-11.42,2.32-17.14,3.44-5.44,1.06-10.89,2.06-16.33,3.09-6.01,1.14-12.01,2.28-18.02,3.42-5.17.98-10.33,1.98-15.5,2.93-7.55,1.38-15.12,2.69-22.67,4.08-11.32,2.09-22.63,4.23-33.95,6.35-5.59,1.04-11.19,2.05-16.77,3.11-5.72,1.09-11.43,2.24-17.15,3.34-5.72,1.1-11.46,2.13-17.17,3.26-8.22,1.63-16.43,3.33-24.65,5-9.89,2-19.78,3.99-29.66,6.01-11.42,2.33-22.82,4.7-34.24,7.03-7.8,1.59-15.61,3.14-23.4,4.73-1.31.27-2.65.5-4.12,1.38,1.12.45,1.88.82,2.68,1.07,6.2,2.01,12.41,4,18.61,6.01,1.21.39,2.42.8,3.61,1.25,2.25.85,4.46,1.8,6.74,2.58,4.71,1.59,9.26,3.51,13.81,5.48,5.71,2.47,11.43,4.94,17.23,7.19,17.56,6.79,35.19,13.42,52.75,20.21,12.81,4.95,25.64,9.86,38.31,15.13,8.36,3.48,16.75,6.89,25.09,10.41,5.86,2.47,11.67,5.07,17.5,7.62.91.4,1.79.84,2.69,1.25,3.72,1.71,7.4,3.51,11.18,5.11,11.2,4.74,22.45,9.39,33.67,14.1,3.52,1.48,6.99,3.08,10.54,4.49,8.43,3.37,16.37,7.68,24.52,11.58,3.82,1.83,7.54,3.86,11.32,5.75,1.12.56,2.33.98,3.39,1.42,2.49-.72,4.82-1.33,7.11-2.07,9.04-2.95,18.05-5.94,27.08-8.91,9.97-3.28,19.94-6.55,29.93-9.81,21.31-6.95,42.64-13.83,64.21-20.02,10.64-3.05,21.24-6.23,31.88-9.3,10.23-2.95,20.51-5.72,30.69-8.8,12.09-3.65,24.1-7.55,36.14-11.33,2.71-.85,5.44-1.63,8.15-2.48,6.9-2.18,13.79-4.39,20.69-6.58,2.84-.9,5.66-1.87,8.55-2.61,7.3-1.88,14.43-4.29,21.53-6.72,10.61-3.63,21.29-6.98,32.19-9.68.66-.16,2.23-.31,3.53-.9Z"/>
        <path class="st12" d="M395.5,441.3c-1.21.08-2.33-.71-3.36-1.18-3.59-1.66-7.14-3.39-10.74-5.04-6.55-3.01-13.11-5.98-19.68-8.95-2.32-1.05-4.66-2.04-6.98-3.09-11.99-5.4-23.85-11.05-35.99-16.12-7.3-3.04-14.53-6.24-21.82-9.3-10.04-4.22-20.04-8.53-30.06-12.79-7.29-3.1-14.58-6.17-21.87-9.26-5.73-2.43-11.44-4.9-17.2-7.26-6.94-2.84-13.91-5.59-20.88-8.38-6.44-2.58-12.86-5.18-19.31-7.72-7.91-3.12-15.62-6.63-23.4-10.01-3.62-1.57-7.41-2.81-11.16-4.11-7.36-2.55-14.74-5.04-22.12-7.56-.13-.05-.3-.04-.41-.11-.86-.54-2.63-.31-2.4-1.75.19-1.2,1.69-1.27,2.81-1.48,2.79-.52,5.57-1.09,8.37-1.56,7.87-1.3,15.55-3.35,23.29-5.18,11.47-2.72,22.9-5.58,34.47-7.88,4.88-.97,9.73-2.04,14.61-3.01,4.18-.83,8.38-1.58,12.57-2.36,4.75-.88,9.5-1.78,14.25-2.63,5.88-1.04,11.75-2.1,17.64-3.05,8.99-1.44,17.89-3.31,26.79-5.15,10.16-2.09,20.24-4.5,30.49-6.18,4.91-.8,9.76-1.91,14.64-2.83,4.75-.9,9.51-1.72,14.25-2.62,3.63-.69,7.24-1.48,10.86-2.19,9.06-1.78,18.03-3.97,27.16-5.43,4.35-.7,8.61-1.84,12.94-2.63,4.75-.87,9.52-1.63,14.3-2.34,1.84-.27,3.77.04,5.45.67,5.73,2.16,11.78,3.17,17.66,4.77,7.11,1.94,14.3,3.65,21.41,5.59,11.63,3.17,23.22,6.48,34.85,9.65,10.81,2.95,21.62,5.92,32.49,8.66,7.01,1.77,14.11,3.2,21.25,4.45,9.94,1.74,19.77,3.98,29.46,6.72,5.87,1.66,11.69,3.48,17.6,4.98,10.05,2.55,20.02,5.33,29.95,8.26,7.48,2.21,14.94,4.47,22.41,6.71,6.38,1.92,12.74,3.91,19.14,5.76,10.34,3,20.71,5.91,31.06,8.87.4.11.78.29,1.17.45.24.1.25.95,0,1.09-.48.28-.94.63-1.46.78-6.81,1.99-13.61,4.01-20.45,5.91-4.78,1.33-9.65,2.37-14.43,3.72-7.24,2.05-14.44,4.23-21.64,6.39-13.04,3.93-26.09,7.85-39.11,11.86-10.71,3.3-21.4,6.67-32.07,10.11-12.42,4-24.77,8.23-37.22,12.15-13.12,4.13-26.29,8.15-39.52,11.96-11.33,3.27-22.46,7.08-33.58,10.92-3.22,1.11-6.38,2.35-9.79,2.85-1.11.16-2.17.67-3.24,1.02-11.87,3.88-23.64,8-35.38,12.23-2,.72-4.09,1.46-6.14,2.05-.68.19-1.3.44-1.99.57ZM395.36,439.38c2.77-.86,5.5-1.64,8.18-2.56,3.35-1.15,6.64-2.47,9.99-3.64,9.37-3.27,18.74-6.55,28.15-9.71,6.85-2.31,13.76-4.48,20.66-6.64,8.8-2.76,17.56-5.65,26.44-8.11,13.69-3.79,27.2-8.1,40.71-12.41,15.95-5.08,31.73-10.63,47.77-15.48,9.24-2.79,18.43-5.71,27.65-8.56,8.54-2.63,17.08-5.27,25.64-7.85,7.34-2.22,14.66-4.46,22.05-6.51,6.84-1.89,13.75-3.52,20.63-5.3,4.23-1.1,13.68-3.96,13.82-4.32.14-.36-1.91-.7-2.48-.86-6.68-1.9-13.36-3.81-20.06-5.69-2.18-.61-4.41-1.07-6.57-1.72-6.66-1.99-13.32-3.96-19.94-6.06-12.02-3.82-24.17-7.25-36.32-10.68-5.59-1.58-11.26-2.94-16.86-4.5-10.38-2.89-20.65-6.2-31.27-8.25-4.32-.84-8.57-1.97-12.91-2.73-7.13-1.25-14.25-2.68-21.28-4.37-8.14-1.96-16.19-4.27-24.26-6.47-18.48-5.04-36.93-10.14-55.42-15.13-9.18-2.48-18.43-4.69-27.6-7.19-2.44-.67-4.76-.61-7.17-.24-1.54.24-3.08.54-4.62.78-2.39.38-4.8.67-7.17,1.13-8.78,1.74-17.54,3.55-26.32,5.31-5.29,1.06-10.63,1.95-15.88,3.17-8.72,2.03-17.55,3.51-26.35,5.13-5.87,1.08-11.75,2.13-17.6,3.3-5.01,1-9.99,2.18-14.99,3.22-6.54,1.35-13.09,2.65-19.65,3.93-7.53,1.47-15.06,2.94-22.6,4.31-7.55,1.37-15.14,2.56-22.69,3.94-7.97,1.46-15.91,3.06-23.86,4.57-12.15,2.31-24.13,5.34-36.17,8.12-10.93,2.53-21.73,5.61-32.94,6.88-.4.05-.86.18-.81.79.32.91,1.32.88,2.04,1.12,5.91,1.98,11.88,3.8,17.76,5.87,4.94,1.74,9.86,3.53,14.67,5.62,8.29,3.62,16.64,7.12,25.02,10.55,9.03,3.7,18.1,7.33,27.2,10.88,6.33,2.47,12.6,5.07,18.83,7.76,9.47,4.1,19,8.07,28.49,12.13,8.45,3.61,16.87,7.3,25.34,10.89,7.16,3.03,14.4,5.88,21.54,8.96,8.44,3.64,16.81,7.43,25.2,11.16,9.95,4.43,19.9,8.84,29.82,13.32,6.31,2.85,12.67,5.61,18.79,8.83,2.36,1.24,4.9,2.18,7.4,3.28Z"/>
      </g>
    </g>
    <g>
      <path class="st4" d="M455.82,217.61c.23-1.91.49-3.72.66-5.54.59-6.29,1.52-12.53,2.92-18.7.17-.76.37-1.57.78-2.21,1.08-1.67,2.06-1.98,4.02-1.46.59.16,1.16.42,1.75.55,2.91.66,4.7,2.67,5.94,5.18.99,2,1.25,4.21.99,6.43-.14,1.21.42,2.39,0,3.6-.13.36.58.79,1.12.76.97-.05,1.33.28,1.2,1.11-.23,1.47-.49,2.94-.68,4.42-.07.51.01,1.04.02,1.49.39.44.83.42,1.27.43,1.41.02,2.81.03,4.22.05,3.43.05,6.81.52,10.15,1.32,2.81.67,5.18,2.08,7.34,3.96,2.61,2.28,4.68,5.01,6.51,7.91,2.63,4.16,5.22,8.34,7.72,12.58,3.8,6.43,7.51,12.91,11.26,19.37.22.38.43.77.65,1.15,1.57,2.71,1.32,5.36-.23,7.98-1.55,2.63-3.74,4.67-6.18,6.41-3.47,2.48-7.32,4.08-11.59,4.72-6.64.99-13.31.92-19.99.79-1.66-.03-3.32-.33-4.96-.6-4.21-.68-8.11-2.29-11.82-4.32-3.86-2.12-7.45-4.67-10.58-7.79-.68-.68-1.3-1.43-1.95-2.14-.65-.71-1.25-1.49-1.97-2.12-2.81-2.46-4.98-5.44-7.01-8.53-1.93-2.93-3.67-5.99-5.47-9.01-.95-1.58-1.9-3.17-2.76-4.8-1.47-2.8-2.87-5.64-4.29-8.46-.12-.23-.14-.51-.26-.75-.32-.64-.12-1.24.26-1.73.37-.47.85-.88,1.34-1.24,5.64-4.09,11.65-7.52,18.13-10.12.41-.16.79-.37,1.45-.69Z"/>
      <path class="st17" d="M570.58,316.48c-1.06-.42-1.52-1.35-1.88-2.36-.33-.91-.73-1.81-.22-2.77.35-.66.13-1.38.24-2.06.07-.46.32-.82.76-.99.44-.18,1.13.03,1.42.43.2.28.45.57.54.89.56,2.06.76,4.12-.09,6.16-.14.34-.39.57-.77.7Z"/>
      <path class="st4" d="M604.94,289.96c-2.68.83-4.95,2.17-7.18,3.55-3.74,2.3-7.45,4.65-11.19,6.95-8.6,5.3-17.19,10.61-25.82,15.85-5.4,3.28-10.88,6.45-16.31,9.69-1.5.9-2.97,1.85-4.44,2.77-1.42-.3-2.45-1.11-3.26-2.17-3.01-3.89-6.1-7.72-8.47-12.06-.29-.54-.63-1.06-.99-1.56-1.82-2.5-3.24-5.22-4.5-8.03-.47-1.04-1-2.05-1.51-3.07-.27-.55-.59-1.08-.82-1.65-.26-.65-.43-1.33-.61-1.9.14-.7.61-.94,1.05-1.24,4.23-2.84,8.45-5.69,12.69-8.52,4.6-3.08,9.19-6.16,13.81-9.2,7.11-4.69,14.25-9.35,21.58-13.69,5.89-3.49,11.87-6.85,18-9.9,2.44-1.21,4.95-2.26,7.54-3.09,2.58-.82,5.18-.87,7.77-.13,3.47.99,6.73,2.53,9.99,4.06,1.18.55,2.26,1.34,3.62,1.53.4.05.76.41,1.13.65,6.06,3.9,11.95,8.04,17.65,12.45,4.8,3.71,9.56,7.45,14.29,11.25,3.35,2.7,6.65,5.47,9.9,8.29,5.18,4.48,10.31,9.03,15.46,13.55,8.12,7.13,16.1,14.42,23.91,21.9,2.66,2.55,5.56,4.85,8.34,7.27,4.25,3.69,8.42,7.46,12.18,11.67.99,1.11,2.07,2.15,3.1,3.23.3.32.59.65.85,1,.34.46.08,1.11-.49,1.21-.41.07-1.51-.98-1.68-.48-.28.68.78,1.61.81,2.13.02.38-.03.73-.35.92-.2.11-.51.09-.76.05-.36-.07-1.31-1.15-1.66-.74-.26.31.36.9.55,1.09.41.43.82.85.72,1.51-.04.23-.22.47-.4.64-.09.09-.34.05-.49.01-.39-.1-.69-.43-.98-.7-.15-.13-1.05-.89-1.08-.34-.01.23.21.5.33.68.41.58.86,1.24,1.05,1.93.14.52.09,1.05-.36,1.45-.44.39-.95.44-1.47.25-.94-.33-1.71-.91-2.27-1.73-.32-.47-.72-.8-1.26-.88-2.27-.33-3.79-1.83-5.08-3.5-1.1-1.43-2.51-2.44-3.86-3.55-1.19-.97-2.58-1.41-4.16-1.37-4.31.12-7.62-1.76-10-5.29-1.96-2.9-4.45-5.14-7.5-6.86-5.89-3.32-11.71-6.76-17.56-10.15-4.71-2.73-9.44-5.43-14.14-8.18-1.67-.97-3.28-2.04-4.92-3.06-11.56-7.19-23.19-14.27-35-21.05-1.9-1.09-3.77-2.24-5.8-3.45Z"/>
      <path class="st5" d="M570.62,316.46c0,.13-1.27.79-1.89,1.11-.85.43-1.7.86-2.56,1.29-1.97,1-3.94,1.98-5.93,2.92-4.6,2.18-9.21,4.34-13.86,6.39-4.98,2.2-10.06,4.13-15.37,5.39-2.82.67-4.89,1.15-8.46,1.66-3.57.5-4.55.51-5.16.49-.22,0-.49-.19-.63-.38-.22-.3,3.19-.77,3.4-1.07.15-.22.34-.4.52-.59,7.26-7.4,14.64-14.68,22.43-21.51,6.2-5.44,12.43-10.86,18.64-16.3,1.17-1.02,2.26-2.13,3.46-3.25.53,2.37.77,4.63,1.06,6.89.54,4.19,1,8.41,2.31,12.46.1.31.2.62.32.94.39,1.07,1.71,3.43,1.71,3.56Z"/>
      <g>
        <path class="st23" d="M570.62,316.46c0,.13-1.27.79-1.89,1.11-.85.43-1.7.86-2.56,1.29-.05-.21-.08-.42-.09-.65-.11-2.01.63-3.77,1.79-5.36.22-.3.46-.6.72-.89.1.31.2.62.32.94.39,1.07,1.71,3.43,1.71,3.56Z"/>
        <path class="st0" d="M547.89,313.38c.83,0,1.68.05,2.53.36,1.82.67,2.86,1.99,3.18,3.84.22,1.28-.27,2.41-1.21,3.3-1.49,1.42-3.27,2.24-5.26,2.79-1.52.41-2.93.32-4.36-.17-2-.68-2.89-2.31-2.33-4.33.89-3.22,2.55-5.48,7.45-5.8Z"/>
      </g>
      <path class="st17" d="M568.59,291.54c-.33-2.16-.62-4.33-1.08-6.47-.46-2.13-1.09-4.23-1.66-6.34-.29-1.07-.97-1.85-1.95-2.36-.63-.33-1.56.06-1.69.75-.11.6-.13,1.21-.2,1.87.13.92.17,1.89.41,2.82,1.09,4.15,2.57,8.18,3.97,12.23.13.37.65.66,1.06.61.36-.04.64-.21.84-.54.48-.82.43-1.7.3-2.56Z"/>
      <path class="st4" d="M579.62,262.69c-1.85,2.34-3.68,4.68-5.53,7.01-1.92,2.4-3.85,4.79-5.79,7.18-1.88,2.32-3.76,4.64-5.65,6.96-1.89,2.32-3.79,4.62-5.67,6.94-1.93,2.39-3.86,4.79-5.75,7.21-1.82,2.34-3.59,4.71-5.31,6.96-.86-.07-1.13-.58-1.43-.97-1.43-1.89-2.83-3.81-4.22-5.72-1.29-1.78-2.5-3.62-3.85-5.34-1.73-2.22-3.32-4.53-4.87-6.88-1.83-2.79-3.73-5.54-5.57-8.32-1.02-1.54-1.97-3.12-2.68-4.83-.13-.32-.3-.64-.42-.97-.43-1.16-.33-2.19.51-3.19,1.19-1.41,2.27-2.91,3.41-4.36,3.27-4.13,6.4-8.38,9.9-12.33,4.08-4.6,8.25-9.13,12.56-13.52,3.32-3.38,6.65-6.78,10.08-10.05,3.18-3.03,6.51-5.9,9.78-8.83,3.08-2.76,6.73-4.41,10.71-5.4.51-.13,1.04-.18,1.56-.24.44-.05.9.03,1.31-.08,1.9-.52,3.83-.32,5.73-.14,4.8.46,8.71,2.5,11.43,6.6,4.01,6.05,6.99,12.57,8.94,19.56.54,1.94.95,3.92,1.33,5.9.83,4.3,1.67,8.61,2.38,12.94.57,3.46.97,6.95,1.46,10.43.56,3.91,1.14,7.81,1.7,11.72.23,1.56.43,3.13.69,4.69.55,3.37,1.14,6.74,1.7,10.12.5,3.03.96,6.06,1.45,9.1.33,2.08.7,4.15,1.02,6.23.27,1.73.55,3.47.73,5.21.58,5.6,1.72,11.09,3.1,16.54.71,2.81.78,3,2.96,4.76,1.23.99,2.54,1.88,3.88,2.72,3.49,2.2,7.03,4.33,10.51,6.55,1.14.72,2.35,1.15,3.66,1.39.77.15,1.53.37,2.28.62.62.2.94.79.9,1.45-.05.82-.52,1.35-1.19,1.55-.5.14-1.08-.01-1.58-.07-.29-.04-1.24-.13-.97.47.26.57.97.69,1.17,1.32.14.47,0,.98-.41,1.27-.51.36-1.15.13-1.68-.07-.35-.13-.7-.26-1.04-.42-.14-.07-.29-.14-.45-.13-.15,0-.31.12-.3.28,0,.17.19.29.3.39.38.36.84.63,1.2,1.01.32.35.29.81.06,1.23-.2.37-.75.6-1.13.46-.51-.2-1.04-.42-1.56-.63-.27-.11-.55-.22-.83-.33-.22-.09-.51-.3-.73-.11-.07.06-.14.14-.17.24-.12.47.64.86.9,1.14.43.46.51.85.28,1.14-.31.4-.74.51-1.17.42-.59-.13-1.2-.29-1.73-.58-1.4-.77-2.89-1.25-4.39-1.76-4.23-1.46-8.46-2.92-12.65-4.5-3.28-1.24-6.49-2.66-9.73-4.01-2.16-.9-3.92-2.3-5.35-4.15-.66-.85-1.15-1.74-1.48-2.76-1.84-5.77-3.77-11.51-5.58-17.28-3.33-10.63-6.21-21.39-9.25-32.11-2.51-8.86-5.08-17.71-8.13-26.4-.36-1.04-.32-2.25-1.35-3.16Z"/>
      <path class="st23" d="M567.51,294.67c-.05.2-.95,1.25-1.4,1.88-.41.57-.87,1.1-1.35,1.62-1.52,1.67-3.04,3.33-4.56,5-.96,1.06-1.93,2.11-2.9,3.17-2.13,2.34-4.28,4.67-6.43,6.99-1.55,1.67-3.25,3.21-4.9,4.79-2.35,2.25-4.74,4.44-7.07,6.72-2.78,2.71-5.93,4.96-9.08,7.18-.85.6-1.84,1.01-2.82,1.4-2.85,1.15-5.78,1.98-8.84,2.45-1.35.21-2.69.4-4.03.49-1.1.08-2.2.1-3.3.02-2.69-.19-5.43-.27-8-1.29-.53-.21-1.05-.42-1.57-.65-2.32-.97-4.55-2.08-6.59-3.58-1.62-1.2-3.29-2.33-4.83-3.65-4.98-4.27-9.09-9.27-12.79-14.64-1.3-1.88-2.74-3.66-4.12-5.48-.21-.28-.45-.55-.65-.83-1.24-1.78-1.33-2.08.51-3.63,4.98-4.17,9.84-8.49,14.78-12.71,4.4-3.76,8.87-7.46,13.28-11.22,1.27-1.08,2.61-2.13,3.65-3.41,1.03-1.28,1.86-2.76,2.32-4.39.07-.24.24-.45.39-.72,1.62-.18,2.56,1.04,3.74,1.76.28.18.58.33.91.41.57-.12,1.04-.42,1.46-.77.18-.14.34-.29.51-.45,2.6-2.36,5.19-4.74,7.78-7.11,2.4-2.19,4.81-4.37,7.2-6.57.25-.23.5-.46.75-.69,2.82-2.59,5.62-5.19,8.44-7.78.23-.21.46-.42.69-.63,1.69-1.55,3.33-3.16,4.94-4.79,2.1-2.11,4.15-4.27,6.23-6.4.73-.75,1.5-1.48,2.27-2.2.31-.29.65-.57,1.23-.51.06,2.87.78,5.64,1.38,8.43.14.63.27,1.26.38,1.89.11.6.21,1.21.28,1.82.24,2.09.56,4.17,1.07,6.22.44,1.78.63,3.63,1.02,5.42.65,2.91,1.37,5.8,2.06,8.7.65,2.71,1.29,5.43,1.94,8.14.5,2.06,1,4.12,1.51,6.17.23.91.47,1.81.71,2.72.6,2.23.79,4.17,1.65,6.51.71,1.93,1.28,3.06,1.67,3.64.21.32.45.45.43.52Z"/>
      <g>
        <path class="st0" d="M554.78,242.9c-1.61,1.52-3.72,2.23-6.16,2.27-1.76.03-3.47-.62-4.95-1.59,2.1-2.11,4.15-4.27,6.23-6.4.73-.75,1.5-1.48,2.27-2.2.31-.29.65-.57,1.23-.51.06,2.87.78,5.64,1.38,8.43Z"/>
        <path class="st0" d="M526.76,314.19c.45-2.55,1.04-5.01,2.47-6.99.2-.64-.13-.99-.25-1.4-.32-1.07.07-1.9.92-2.53.86-.64,1.84-.74,2.69-.08.72.56,1.47.71,2.35.84,2.3.34,4.18,2.45,4.42,4.92.35,3.59-.78,6.74-3.12,9.46-.64.74-1.45,1.25-2.35,1.64-1.45.63-2.9.74-4.27-.13-.77-.49-1.54-.7-2.46-.62-1.09.08-1.83-.59-2.19-1.56-.38-1.01-.25-2.12.74-2.83.35-.25.72-.48,1.07-.71Z"/>
        <path class="st0" d="M515.91,333.13c-.37,1.12-.97,2.22-1.77,3.22-1.1.08-2.2.1-3.3.02-2.69-.19-5.43-.27-8-1.29-.53-.21-1.05-.42-1.57-.65,1.02-2.79,2.9-4.83,5.73-6.06.71-.31,1.55-.35,2.14-.95.21-.66.38-1.34.65-1.97.35-.81,1.04-1.16,1.91-1.15.77,0,1.32.36,1.73,1.01.45.71.58,1.46.48,2.35.36.35.73.71,1.08,1.09,1.2,1.27,1.48,2.75.93,4.39Z"/>
        <path class="st0" d="M499.46,312.02c-.35-1.11-.78-2.18-1-3.28-.23-1.11-.25-2.26-.36-3.36-.25-.57-.81-.69-1.25-.95-.79-.47-1.11-1.47-.8-2.57.25-.89,1.24-1.56,2.24-1.49.52.04,1.02.2,1.54.31.23-.14.45-.28.68-.4,2.2-1.16,4.44-.77,5.85,1.16,2.16,2.97,2.94,6.34,2.51,9.96-.26,2.24-1.9,3.67-4.34,3.8-.83.04-1.51,0-2.07.73-.53.68-1.34.75-2.15.76-1.61.02-2.75-1.81-1.89-3.16.33-.51.68-1,1.04-1.51Z"/>
        <path class="st0" d="M525.59,281.34c2.12-.71,4.19-1.42,6.3-1.34.76-.25.9-.95,1.35-1.35.83-.75,1.81-.88,2.65-.37.91.55,1.41,1.44,1.08,2.44-.3.9-.22,1.65.09,2.52.62,1.76.14,3.25-1.35,4.43-2.95,2.32-6.27,2.98-9.9,2.29-1.35-.26-2.4-1.05-3.24-2.11-.61-.77-1.03-1.68-.83-2.67.14-.68.04-1.19-.39-1.69-.42-.5-.49-1.11-.45-1.74.11-1.64,1.95-2.56,3.3-1.63.49.34.91.79,1.4,1.23Z"/>
        <path class="st0" d="M562.19,294.92c-.36.24-.79.37-1.31.61-.27,2.1-.54,4.27-1.55,6.22.25.35.49.61.65.92.09.17.17.33.23.5-.96,1.06-1.93,2.11-2.9,3.17-.33-.09-.64-.26-.94-.48-.34-.26-.61-.62-.95-.95-.36-.01-.7-.03-1.05-.03-1.83-.03-2.92-1.03-3.47-2.69-.42-1.27-.61-2.52-.31-3.88.34-1.55.73-3.07,1.37-4.52.43-.99,1.09-1.81,1.99-2.41,1.17-.77,2.41-1.04,3.74-.45.4.18.8.36,1.26.57.69-.22,1.18-.44,1.69-.51,1.17-.17,2.14.43,2.52,1.45.32.88-.04,1.85-.99,2.49Z"/>
        <path class="st0" d="M544.49,267.47c-.48-.15-1-.26-1.47-.47-1.08-.49-1.6-1.54-1.34-2.57.3-1.21,1.5-1.95,2.81-1.74.34.06.68.16,1.12.26.76-.65,1.51-1.4,2.35-1.99.86-.6,1.82-1.04,2.81-1.6.12-.53.16-1.15.4-1.69.72-1.59,2.82-1.9,3.92-.64.36.41.56.89.53,1.44-.02.43-.09.85-.14,1.29.19.2.34.43.55.58,1.78,1.28,1.7,4.21.43,5.96-1.27,1.76-2.93,3-4.97,3.71-.49.17-1,.32-1.51.43-2,.46-3.63-.13-4.82-1.82-.25-.35-.44-.75-.68-1.18Z"/>
        <path class="st0" d="M563.76,283.99c-.49-.13-.98-.39-1.42-.86-.98-1.04-1.81-2.11-1.88-3.64-.07-1.65.26-3.12,1.08-4.39.5,2.06,1,4.11,1.51,6.17.23.91.47,1.81.71,2.72Z"/>
        <path class="st0" d="M516.13,277.56c-.81,2.06-1.98,3.89-3.46,5.52-1.21,1.33-2.78,2.11-4.5,2.55-1.82.46-3.58-.85-3.68-2.73-.1-1.76.45-3.46.66-5.19.02-.16.13-.33.21-.48,1.32-2.38,3.22-4.12,5.62-5.29.28.18.58.33.91.41.57-.12,1.04-.42,1.46-.77,1.72.34,2.87,1.9,3.08,3.39.12.87.04,1.73-.29,2.58Z"/>
        <path class="st0" d="M486.54,305.13c-.33.64-.57,1.21-.9,1.72-.96,1.51-2.7,2.12-4.35,1.51-1.26-.46-2.34-1.19-3.09-2.34-.92-1.41-1.63-2.9-1.7-4.63-.03-.83.16-1.56.75-2.17.37-.38.7-.79,1.1-1.13,1.01-.85,2.08-1.14,3.39-.55,1.49.66,2.67,1.66,3.8,2.9.47.05.99.09,1.51.16.83.1,1.46.57,1.99,1.17.83.94.6,2.33-.55,2.86-.54.25-1.17.31-1.95.5Z"/>
        <path class="st11" d="M540.36,255.12c-.44.77-1.14,1.31-1.92,1.74-1.64.9-3.43,1.25-5.26,1.45-.91.1-1.74-.12-2.53-.54-.45-.25-.81-.59-1.05-.98,2.82-2.59,5.62-5.19,8.44-7.78.64.24,1.26.63,1.82,1.16,1.71,1.6,1.57,3.09.5,4.96Z"/>
      </g>
      <path class="st22" d="M435.74,228.2c1.01-1.47,2.38-2.33,3.87-2.88.6.18.72.63.96.99,3.87,5.59,8.31,10.66,13.41,15.16,1.53,1.35,3.27,2.37,5.04,3.33,4.1,2.23,8.48,3.8,12.82,5.48,1.39.54,2.8,1.04,4.2,1.54,1.24.44,3.67,1.11,4.14,1.02.47-.1.61-1.25.72-1.75.68-2.9.93-5.16,1.24-8.14.54-5.16.92-10.33.43-15.5-.32-3.4-.35-6.83-.97-10.21-.2-1.1-.08-2.27-.1-3.4.23-.45.64-.6,1.08-.62.87-.05,1.73-.05,2.45-.06.67.54.75,1.18.9,1.76,1.62,6.11,3.54,12.12,6.19,17.88.45.99,1,1.8,1.82,2.51,1.33,1.15,2.57,2.39,3.84,3.61.7.67,1.38,1.35,2.04,2.05,2.84,3.01,3.5,6.56,2.59,10.51-.51,2.22-1.17,4.4-2.05,6.57,2.23,3.79,4.35,7.63,7.17,11.02.89,1.08,1.09,2.16.46,3.4-.24.47-.41.98-.69,1.42-1.64,2.59-3.1,5.3-5.25,7.56-1.33,1.4-2.53,2.92-3.78,4.39-3.39,3.98-7.51,7.12-11.72,10.15-1.99,1.44-4.01,2.84-6.02,4.26-.43.3-.85.62-1.29.91-1.56,1.02-1.86,1.02-3.15-.3-2.77-2.83-5.29-5.86-7.27-9.32-1.92-3.35-3.96-6.63-5.95-9.94-.27-.45-.53-.91-.76-1.38-1.59-3.24-3.66-6.2-5.44-9.32-.35-.61-.77-1.18-1.2-1.73-.88-1.13-1.53-2.38-1.77-3.78-.39-2.29-1.4-4.33-2.37-6.4-2.37-5.09-4.75-10.18-7.14-15.26-.56-1.19-1.23-2.33-1.82-3.5-1.83-3.6-3.81-7.12-5.89-10.58-.27-.45-.49-.92-.76-1.43Z"/>
      <path class="st21" d="M550.29,242.01c-.46.19-.8.14-1.09-.09-3.98-3.2-8.43-5.69-12.75-8.39-1.79-1.12-3.53-2.3-5.33-3.39-1.27-.77-2.58-1.52-4.06-1.83-.46-.1-.8-.31-1.12-.63-.51-.51-1.13-.78-1.85-.93-.51-.1-.7-.56-.53-1,.54-1.48,1.52-1.93,2.86-1.18,2.07,1.15,4.11,2.37,6.15,3.58,1.59.93,5.72,3.14,5.72,3.14,0,0,6.71-6.81,9.08-9.17.68-.68,1.37-1.36,2.3-1.59.65.26.82.74.84,1.3.05,1.41.1,2.81.11,4.22.01,2.19.09,4.38-.16,6.58-.19,1.65-.02,3.34,0,5.01.02,1.48.06,2.97-.16,4.38Z"/>
      <path class="st10" d="M550.82,242.4c0,.67-.41,1.13-.81,1.6-3.38,3.93-6.82,7.8-10.1,11.81-3.23,3.95-6.86,7.52-10.37,11.21-.48.51-.99,1-1.53,1.45-1.02.85-1.91,1.8-2.73,2.85-1.13,1.45-2.38,2.79-3.51,3.94-.84.24-1.3-.11-1.72-.37-3.25-2.08-6.49-4.19-9.73-6.28-.37-.24-.73-.51-1.13-.67-3.12-1.26-5.83-3.21-8.58-5.09-1.23-.84-2.51-1.61-3.77-2.42-.81-.52-1.64-1.03-2.1-1.94.04-.75.5-1.29.93-1.84,4.26-5.47,8.45-11,13.21-16.06,1.08-1.15,2-2.45,3.02-3.66,1.41-1.68,2.84-3.34,4.28-4.99,1.5-1.72,3.01-3.43,4.54-5.13.47-.52,1-.98,1.53-1.44.19-.16.46-.24.76-.38.89.51,1.83.99,2.71,1.55,8.21,5.24,16.46,10.41,24.78,15.45.14.08.21.28.31.42Z"/>
      <path class="st4" d="M529,254.92c.4,0,4.11-3.94,5.76-6.34.51-.74,1.05-1.41,1.88-1.78.34-.15.68-.11.97.15.29.27.34.62.26.96-.06.25-.19.5-.32.72-.28.45-.56.9-.89,1.3-1.52,1.82-3.06,3.62-4.6,5.43-.34.4-.7.79-1.01,1.21-.08.11-.03.33-.01.49.02.18.52.3.69.15.59-.53,1.2-1.03,1.74-1.6,1.33-1.4,2.62-2.84,3.94-4.26.31-.34.68-.56,1.16-.32.49.25.64.83.3,1.36-.42.67-.83,1.36-1.34,1.95-1.79,2.05-3.45,4.22-5.5,6.03-.4.35-.77.72-1.13,1.11-3.29,3.55-7.01,6.64-10.69,9.77-3.42,2.9-6.8,5.83-10.23,8.72-1.68,1.41-3.39,2.79-5.13,4.12-7.39,5.66-14.77,11.33-22.2,16.94-2.03,1.53-4.17,2.92-6.32,4.29-3.2,2.04-6.7,3.01-10.53,2.67-1.07-.09-2.08-.3-3.04-.78-2.6-1.3-5.11-2.72-7.17-4.85-1.34-1.39-2.78-2.68-4.19-4.01-1.92-1.82-3.65-3.81-5.21-5.94-3.9-5.31-7.97-10.51-11.36-16.17-3.39-5.64-6.77-11.31-9.37-17.38-1.32-3.07-2.22-6.27-2.42-9.65-.17-2.89.5-5.6,1.82-8.13,2.15-4.1,5.26-7.44,8.68-10.51.13-.12,2.23-1.78,2.23-1.78,0,0-.09,1.09.52,1.91.36.49.66,1.04.93,1.58.39.78.74,1.59,1.1,2.39,2.1,4.65,4.7,9.03,7.21,13.47,3.11,5.51,6.25,11,9.39,16.48,2.05,3.58,4.02,7.21,6.4,10.6,1.36,1.94,2.8,3.83,4.22,5.72.26.35.62.62.92.94,1.94,2.15,4.32,2.21,6.75,1.22,2.76-1.12,5.39-2.55,7.86-4.24,2.68-1.83,5.45-3.53,8.16-5.31,1.32-.87,2.67-1.71,3.91-2.67,3.35-2.59,6.97-4.74,10.62-6.84,2.12-1.22,3.72-2.82,5.04-4.87,2.23-3.47,4.37-7.01,6.95-10.24.5-.63.98-1.24,1.73-1.58.34-.16.69-.14.99.08.29.22.54.54.46.89-.16.67-.35,1.36-.66,1.98-.43.86-1,1.65-1.48,2.49-.35.61-.67,1.23-1,1.85-.19.35-.13.7.2.91.31.2.69.2.99-.03.55-.43,1.12-.86,1.62-1.34,3.48-3.36,6.93-6.74,10.41-10.08.69-.67,1.47-1.24,2.23-1.83.3-.23.67-.19.99-.01.33.18.46.76.3,1.18-.26.67-.67,1.22-1.14,1.76-1.57,1.78-3.13,3.56-4.69,5.35-.29.33-.85.8-.89,1.26,0,.06,0,.12.03.17.11.18.54.22.72.14.31-.13.6-.37.83-.62.72-.77,1.41-1.57,2.12-2.35,1.24-1.37,2.47-2.74,3.72-4.1.3-.32.63-.62.99-.86.35-.23.71-.53,1.2-.32.44.2.62,1.02.27,1.65-.39.68-.81,1.36-1.31,1.96-1.7,2.01-3.44,3.99-5.16,5.99-.22.26-.43.57-.52.89-.05.19-.08.57.32.56Z"/>
      <path class="st4" d="M459.56,188.98c-.17-4.22.65-8.07,2.03-11.8.98-2.66,2.47-5.04,4.63-6.93.52-.46,1.07-.94,1.7-1.22,2.32-1.04,4.68-1.94,7.23-2.3,2.99-.42,5.94-.28,8.86.4,5.93,1.38,9.91,5.02,12.07,10.67,1.04,2.72.93,5.5.24,8.28-.81,3.24-1.84,6.4-3.42,9.36-1.4,2.63-2.62,5.36-4.36,7.81-.71,1-1.38,2.03-2.14,2.99-1.58,1.98-3.61,3.21-6.09,3.85-1.68.44-3.27.28-4.92,0-2.47-.41-4.7-1.32-6.79-2.68-3.2-2.08-5.49-4.94-6.91-8.42-1.33-3.26-2.27-6.64-2.1-10.02Z"/>
      <path class="st17" d="M492.14,185.38c-1.55,1.21-1.56,1.22-2.96.7-2.01-.74-3.7-1.98-5.29-3.37-1.39-1.22-2.53-2.67-3.65-4.15-.79-1.05-1.58-2.1-2.39-3.14-.21-.27-.49-.48-.75-.72-.82.59-1.04,1.47-1.41,2.24-1.24,2.52-2.41,5.07-3.66,7.59-.98,1.97-2.12,3.84-3.58,5.5-.29.33-.58.67-1.11.64-.59-.57-.6-1.4-.87-2.13-.25-.66-.56-1.3-1.12-1.75-1.44-1.17-3.57-.81-4.56.82-.7,1.15-1.01,2.43-.7,3.78.16.68.37,1.35.54,2.03.16.64-.12,1.23-.72,1.52-.5.24-1.19-.02-1.54-.66-.68-1.24-1.23-2.53-1.3-3.96-.04-.88-.1-1.76,0-2.63.39-3.57.79-7.14,1.28-10.69.97-6.99,6.57-11.95,13.35-12.96.48-.07.82-.14,1.66-.12,1,.02,2.75.47,2.75.47,0,0,2.21-.55,3.21-.68,3.24-.4,6.32.4,9.09,2.01,2.73,1.59,5.22,3.51,7.21,6.06,2.88,3.7,4.15,7.86,3.91,12.51-.07,1.4-.25,2.79-.38,4.19-.02.17-.04.35-.08.52-.21.86-1.25,1.37-2.1,1.02-1.26-.51-2.2-1.43-3.07-2.43-.57-.66-1.09-1.36-1.76-2.2Z"/>
      <path class="st3" d="M479.68,200.8c.1-.24.3-.43.52-.59,1.08-.79,2.54-.99,3.83-.63.45.13.91.34,1.15.74.14.24.19.52.18.8-.02.47-.2.92-.4,1.35-.13.29-.28.6-.54.78-.18.12-.4.18-.61.21-.91.16-1.91.02-2.75-.37-.77-.37-1.7-1.27-1.4-2.23,0-.01,0-.03.01-.04,0-.01,0-.02.01-.03Z"/>
      <g>
        <path class="st17" d="M477.54,186.52c1.45-.15,3.1.37,4.23,1.11.4.26.56.81.32,1.12-.22.28-.5.51-.88.42-.84-.19-1.68-.41-2.52-.6-.75-.18-1.52-.31-2.26-.53-.18-.06-.34-.36-.42-.58-.09-.28.1-.51.34-.62.37-.17.77-.27,1.19-.31Z"/>
        <path class="st17" d="M489.75,189.77c1.3-.09,2.39.37,3.28,1.31.15.16.25.49.2.7-.1.38-.48.53-.83.44-1.09-.29-2.18-.62-3.26-.97-.36-.12-.56-.45-.43-.82.08-.22.31-.4.51-.54.13-.09.34-.07.52-.11Z"/>
      </g>
      <g>
        <path class="st17" d="M579.16,263.91c-1.58,2.02-3.23,4.07-4.83,6.15-2.25,2.92-4.44,5.88-6.7,8.8-1.12,1.44-2.33,2.8-3.78,4-.24-.25-.41-.43-.62-.66.56-.72,1.07-1.43,1.63-2.1,4-4.77,7.68-9.81,11.46-14.75.95-1.25,2.05-2.39,3.09-3.6-.25-.79-.49-1.53-.71-2.29-.14-.5-.26-1.02-.36-1.53-.08-.42.15-.91.36-.83.22.08.43.26.59.45.11.12.15.32.19.48.71,2.52,1.87,4.91,2.28,7.53.11.69.36,1.35.57,2.02,2.27,7.37,4.53,14.74,6.81,22.11.62,2.01,1.33,3.99,1.95,6,.23.73.56,1.5.09,2.28-.8-.01-1.03-.65-1.22-1.2-.49-1.41-.89-2.84-1.33-4.27-2.62-8.54-5.25-17.09-7.87-25.63-.23-.75-.47-1.51-.73-2.25-.12-.34-.37-.58-.88-.7Z"/>
        <path class="st17" d="M566.02,296.72c.31.25.41.56.27.92-.33.83-.88,1.52-1.49,2.16-1.76,1.84-3.48,3.72-5.31,5.49-3.78,3.67-7.6,7.3-11.43,10.91-3.51,3.31-7.05,6.6-10.6,9.87-1.55,1.43-3.14,2.81-4.73,4.19-1,.87-2.09,1.6-3.27,2.2-.4.2-.82.34-1.27.19-.13-.04-.25-.18-.34-.3-.03-.04.02-.18.07-.24.11-.13.22-.29.37-.36,2.43-1.13,4.39-2.92,6.32-4.7,4-3.69,7.93-7.46,11.87-11.22,3.94-3.75,7.87-7.52,11.81-11.28,2.23-2.12,4.37-4.32,6.35-6.68.39-.46.71-1.02,1.37-1.17Z"/>
        <path class="st17" d="M611.6,256.35c.05-.11.12-.37.28-.56.07-.09.36-.11.46-.04.46.33.57.87.66,1.38.47,2.5.9,5,1.36,7.5.52,2.84,1.08,5.68,1.57,8.53.54,3.2,1.02,6.4,1.52,9.6.54,3.46,1.08,6.92,1.62,10.38.21,1.38.43,2.76.59,4.15.02.18-.23.47-.42.59-.25.15-.53,0-.63-.26-.43-1.06-.64-2.17-.79-3.3-.36-2.69-.77-5.37-1.16-8.06-.24-1.65-.47-3.3-.75-4.94-.57-3.37-1.16-6.73-1.74-10.09-.68-3.88-1.35-7.77-2.04-11.65-.18-1.03-.61-2.02-.53-3.24Z"/>
        <path class="st17" d="M547.69,236.35c-.02-2.28-.02-4.21-.05-6.13-.04-2.63.07-5.26.42-7.87.02-.16.1-.35.22-.46.11-.1.3-.13.47-.16.06,0,.15.08.19.15.08.15.18.32.18.47-.02,1.58.09,3.18-.11,4.74-.41,3.16-.09,6.32-.19,9.47-.03.91.25,1.72.85,2.43.39.46.91.87.88,1.56,0,.15-.1.36-.22.43-.12.07-.36.08-.48,0-.69-.44-1.07-1.16-1.49-1.82-.53-.84-1.21-1.45-2.04-2-2.35-1.54-4.63-3.18-6.94-4.78-.36-.25-.68-.54-.99-.85-.09-.1-.13-.42-.07-.47.19-.14.47-.31.66-.27.33.08.63.29.92.49,2.03,1.39,4.05,2.79,6.08,4.17.43.29.92.49,1.71.91Z"/>
        <g>
          <path class="st17" d="M476.58,191.84c-.02-.21-.86-.33-1.02-.38-.46-.13-1.03-.68-.52-1.13.36-.31,1.03-.33,1.47-.31,1.28.06,3.09.27,3.96,1.33.11.14.19.31.16.49-.03.16-.14.35-.31.4-.04.01-.42,0-.41-.02,0,0-.47,1.08-.88,1.37-.89.63-2.08.22-2.36-.95-.06-.25-.06-.51-.1-.82Z"/>
          <path class="st17" d="M466.58,204.05c.33.04.93.71,1.13.89.86.78,1.63,1.68,2.67,2.22,1.38.72,2.69,1.6,4.02,2.41.25.15.3.41.12.64-.1.13-.28.26-.42.26-.25,0-.52-.05-.75-.15-2.71-1.11-4.97-2.86-6.92-5.03-.11-.13-.22-.28-.27-.44-.07-.24.06-.76.35-.81.02,0,.04,0,.07,0Z"/>
          <path class="st17" d="M491.94,195.15c-.13.59-.77.25-.77.25,0,0-.3.62-.5.87-.28.35-.82.53-1.27.49-.46-.04-.82-.35-.92-.83-.13-.6-.01-1.14-.01-1.14-.19-.07-.37-.16-.54-.26-.17-.09-.37-.19-.48-.35-.14-.2.02-.41.2-.52.17-.1.38-.15.58-.17.33-.03.66,0,.99.03.72.07,1.43.31,2.04.69.24.15.76.63.69.96Z"/>
          <path class="st5" d="M476.9,172.21c0,.08-.01.15-.03.22-.06.2-.26.4-.48.38-.26-.02-.39-.29-.48-.5-.89-1.93-.92-4.15-.75-6.27,0-.13.02-.26.07-.38.05-.12.15-.22.28-.25.16-.03.31.08.39.22.08.14.1.3.12.46.13,1,.26,2.04.41,3.06.07.53.15,1.05.24,1.57.08.48.25,1,.24,1.49Z"/>
          <path class="st17" d="M485.69,201.46c.06.37-.5.92-1.04.86-1.83-.2-3.6-.64-5.3-1.35-.14-.06-.26-.22-.36-.35-.04-.06-.05-.19-.02-.25.08-.13.19-.26.31-.36.05-.04.17-.04.26-.02,1.87.38,3.69,1.02,5.62,1.15.35.02.5.15.53.32Z"/>
          <path class="st17" d="M485.99,193.13c.1.08.34.2.34.3-.05,1.2-.08,2.4-.24,3.59-.1.78-.74,1.14-1.5,1.18-.24.01-.57-.05-.7-.2-.28-.33-.09-.62.27-.79.71-.34.97-.92.96-1.69-.01-.69-.08-1.39.24-2.04.12-.23.3-.41.63-.35Z"/>
        </g>
        <g>
          <path class="st17" d="M493.34,268.95c-1.28-1.46-2.25-3.13-3.26-4.77-1.33-2.16-2.73-4.29-4.09-6.43-.51-.81-3.61-4.13-3.86-4.3-1.03-.73-1.26-.99-1.77-.68-.16.1-.34.22.14.84,1.33,1.03,2.71,2.21,3.32,3.11,1.18,1.74,2.31,3.52,3.44,5.29,1.46,2.29,2.89,4.6,4.35,6.89.33.51.67,1.05,1.29,1.27.14.05.36.01.48-.08.12-.09.24-.3.22-.44-.03-.24-.1-.53-.26-.71Z"/>
          <path class="st17" d="M488.03,254.94c.02.54-.44,1.09-.86,1.04-.46-.06-.99-.59-1-1.01-.02-.42.58-.9,1.07-.86.4.03.78.43.79.84Z"/>
          <path class="st17" d="M494.67,264.78c-.06.32-.08.68-.52.73-.53.06-.94-.33-.97-.89-.01-.28.34-.6.66-.61.42,0,.78.33.83.77Z"/>
        </g>
      </g>
    </g>
    <g>
      <path class="st15" d="M167.52,377.19c-5.11,6.83-9.5,14.21-13.08,21.8-1.91,4.05-3.63,8.25-4.11,12.35-.12,1.03,0,2.28.92,2.32.37.02.79-.19,1.17-.39,6.88-3.62,13.47-8.51,19.35-14.3,2.93-2.88,5.68-5.98,8.21-9.27,1.32-1.71,2.48-3.53,3.83-5.22,1.46-1.83,2.98-3.61,4.37-5.49,2.47-3.35,4.59-7.29,4.59-10.93,0-3.47-1.99-6.11-4.66-7.37-1.13-.53-2.44-.85-3.85-.47-1.69.46-3.26,1.86-4.69,3.25-4.36,4.21-8.39,8.83-12.05,13.73Z"/>
      <path class="st15" d="M195.1,411.9c1.34-1.76,2.64-3.56,3.91-5.38,4.62-6.62,9.06-13.63,11.85-20.99,1-2.65,1.79-5.42,1.55-7.9-.31-3.14-2.23-5.37-4.33-7.13-1.27-1.07-2.78-2.05-4.66-1.72-1.93.34-3.8,1.99-5.3,3.74-4.34,5.06-6.83,11.32-9.15,17.36-3.04,7.88-6.05,15.8-7.98,23.75-1.06,4.36-1.79,8.75-1.67,12.89.02.83.3,1.83,1.11,1.64.36-.08.69-.4,1-.69,4.95-4.83,9.48-10.05,13.67-15.58Z"/>
      <g>
        <path class="st17" d="M174.82,370.33c1.52-2,3-4.04,4.77-5.79.81-.8,1.71-1.55,2.67-1.97,1.4-.62,2.79-.48,4.05-.19,1.27.3,2.51.78,3.36,1.72.89.99,1.3,2.43,1.41,3.95.08,1.09,0,2.25-.27,3.42-.57,2.43-1.99,4.79-3.55,6.95-1.23,1.7-2.57,3.32-3.79,5.03-1.08,1.52-2.07,3.19-3.6,4.26-.87.61-1.81.96-2.73,1.38-5.69,2.55-10.7,7.42-15.96,11.42-.47.36-1.07.73-1.46.5-.49-.3-.15-1.25.23-1.93,2.67-4.86,5.42-9.78,6.9-14.89.53-1.83.9-3.69,1.77-5.45.84-1.7,2.1-3.2,3.3-4.69.51-.63,1.01-1.26,1.51-1.9.47-.6.94-1.21,1.4-1.81ZM161.66,398.48c5.09-4.25,10.3-8.57,15.96-11.14.97-.44,2.07-.91,2.89-1.78.79-.85,1.51-2,2.21-2.95,1.62-2.19,3.11-4.47,4.56-6.77.98-1.56,1.96-3.18,2.33-4.86.65-2.9-.69-5.37-2.72-6.56-.97-.57-2.14-.9-3.41-.59-1.31.32-2.58,1.3-3.65,2.42-1.06,1.12-1.96,2.4-2.93,3.61-2.2,2.75-4.82,5.24-6.42,8.33-1.09,2.11-1.62,4.34-2.32,6.53-1.52,4.71-3.89,9.3-6.49,13.74,0,0,0,.01-.01.02Z"/>
        <path class="st17" d="M210.21,375.69c.88,1.03,1.01,2.27.61,3.82-.17.68-.34,1.36-.57,2.04-1.22,3.5-2.64,6.98-4.37,10.35-1.21,2.35-2.65,4.62-4.63,6.63-4.23,4.3-8.26,8.84-11.99,13.66-.23.29-.47.58-.74.83-.17.16-.38.31-.58.39-.2.08-.45.16-.6.1-.25-.11-.44-.37-.28-.75,1.52-3.46,2.49-6.98,3.61-10.48.98-3.07,1.67-6.14,1.75-9.12.06-2.12.42-4.22,1.14-6.39.3-.9.6-1.81.84-2.72.82-3.12,2.39-6.01,4.17-8.87.89-1.43,2-2.48,3.24-3.46,1.05-.83,2.08-1.02,2.98-.62.84.37,1.58.93,2.36,1.4,1.3.75,2.09,2.05,3.06,3.18ZM199.06,376.77c-1.18,2.14-2.34,4.31-2.94,6.61-.5,1.92-1.19,3.84-1.71,5.76-.27,1.01-.44,2.04-.48,3.01-.16,3.89-1,7.82-2.37,11.8-.39,1.12-.69,2.26-.98,3.39-.08.31-1.29,2.63-1.27,3.07.43-.46,2.1-2.8,2.4-3.18,2.71-3.39,5.62-6.57,8.69-9.59,1.24-1.22,2.18-2.71,3.03-4.19,2.23-3.85,3.84-7.87,5.46-11.9,1.08-2.7.72-4.68-1.04-5.92-1.49-1.05-2.68-2.51-4.51-3.16-2.14.93-3.34,2.56-4.29,4.28Z"/>
      </g>
    </g>
    <g>
      <g>
        <path class="st5" d="M421.05,241.08s-.01-.03-.02-.04c-.11-.25-.34-.43-.57-.59-1-.69-2.12-1.19-3.12-1.89-.99-.7-1.88-1.67-2.1-2.87-.2-1.11.19-2.23.53-3.31,1.33-4.32,1.71-8.87,2.64-13.29.94-4.42,2.55-8.9,5.83-12.01,1.63-1.55,3.81-2.75,6.05-2.49.15.02.32.03.42-.08.07-.07.07-.18.07-.28-.05-.65-.61-1.13-.98-1.66-.37-.54-.48-1.44.12-1.71.46-.2.97.14,1.31.5.86.92,1.4,2.09,1.86,3.26.97,2.48,1.67,5.06,2.07,7.69.49,3.19.6,6.61,2.42,9.27,1.01,1.48,2.48,2.59,3.69,3.91,3.08,3.35,4.51,8.15,3.75,12.64-.26,1.52-.75,3-.88,4.54-.17,2.04.29,4.08.16,6.12-.14,2.1-.99,4.22-2.63,5.55-1.64,1.33-4.11,1.68-5.89.55-.8-.51-1.44-1.29-2.32-1.64-.53-.21-1.1-.25-1.66-.32-2.78-.35-5.46-1.47-7.69-3.17-1.13-.86-2.04-1.7-2.58-3.01-.59-1.46-.78-3.07-.5-4.63.06-.34.14-.71.02-1.03Z"/>
        <path class="st5" d="M387.82,222.03c.4.21.72.29.93.49.81.74,2.08.33,2.79,1.04.68.68.7,1.93,1.86,2.31.22.07.39.47.49.75.87,2.52,1.72,5.05,2.57,7.58.03.09.06.21.03.3-.09.28-.15.68-.35.78-.17.09-.62-.08-.77-.28-.43-.53-.48-1.34-1.24-1.7-.46.86.09,2.17-1.16,2.66.12.49.29.97.32,1.47.02.25-.17.58-.36.77-.24.24-.58.16-.82-.04-3.76-3.18-6.9-6.79-7.89-11.8-.56-2.84-.54-5.72-.17-8.59.38-2.96,1.04-5.85,1.91-8.71.27-.88.4-1.8.59-2.7.12-.56.46-.92.74-.78.44.21.49.62.48,1.02,0,.61.04,1.26-.14,1.84-.67,2.15-.45,4.27.14,6.36.29,1.05.19,2.05.04,3.05-.2,1.33-.34,2.64,0,4.19Z"/>
      </g>
      <path class="st13" d="M203.34,312.39c2.85,4.9,1.07,9.38-1.56,12.01-2.81,2.81-6.04,4.91-9.89,6.04-3.56,1.05-7.2,1.6-10.88,1.99-8.3.88-16.63,1.07-24.96,1.02-4.52-.03-9.04-.13-13.56-.18-5.03-.05-10.07-.11-15.1-.31-3.38-.13-6.77-.45-9.98-1.67-1.75-.66-3.57-.86-5.42-1.02-5.32-.45-10.65-.81-15.97-1.18-4.3-.3-8.58-.83-12.88-1.09-.41-.02-.82-.07-1.22-.15-.57-.12-.87-.52-.93-1.08-.06-.55.12-1,.62-1.3.73-.44,1.51-.59,2.35-.63.71-.04,1.42-.12,2.11-.29.2-.05.42-.49.4-.74-.02-.25-.26-.57-.5-.71-.24-.14-.59-.16-.89-.14-1.02.09-2.04.22-3.06.33-.71.07-1.43.19-2.14.17-.97-.03-1.93-.98-1.85-1.73.07-.73.81-1.59,1.59-1.68.92-.1,1.84-.06,2.77-.1.71-.03,1.47.09,2.1-.31.21-.14.34-.49.4-.76.02-.12-.21-.38-.37-.44-.38-.14-.78-.25-1.18-.26-1.23-.02-2.45.1-3.68.29-1.17.18-2.23-.22-2.85-1.39-.35-.66-.07-1.6.62-1.79.59-.16,1.2-.28,1.81-.3,1.23-.04,2.47.02,3.7-.02.39-.01.78-.18,1.14-.35.15-.07.27-.32.29-.5.04-.31-.07-.6-.39-.74-.87-.38-1.88-.31-2.8-.27-1.1.04-2.21.08-3.31.02-.42-.02-.85-.06-1.22-.24-.9-.44-.96-1.61-.57-2.41,1.1-2.27,3.97-2.58,6.21-2.81,1.28-.13,2.54.2,3.81.22,1.3.03,2.57-.27,3.87-.34,3.81-.2,7.65-.08,11.47-.04,3.92.03,7.84.1,11.75.2,7.84.19,15.67.49,23.51.83,5.08.22,10.17.46,15.25.7,8.66.41,17.33.89,25.98,1.44,8.4.54,17.1.56,25.4,1.75Z"/>
      <path class="st13" d="M259.8,327.9c.85.66,1.76.06,2.49.51.16.1.36.29.37.45.02.28,0,.64-.15.83-.4.5-1.03.66-1.63.77-4.84.95-9.66,1.94-14.52,2.79-4.55.8-9.12,1.51-13.69,2.17-2.85.42-5.71.67-8.57,1.02-3.36.41-6.73.84-10.09,1.26-.2.03-.41.05-.61.07-4.1.35-8.2.67-12.29,1.05-4.19.4-8.38.86-12.57,1.29-.2.02-.41.04-.62.05-4.71.37-9.43.71-14.14,1.14-3.78.35-7.56.81-11.33,1.22-.31.03-.61.07-.92.1-4.1.37-8.19.71-12.29,1.11-4.19.41-8.38.91-12.57,1.28-2.56.22-5.14.29-7.71.4-1.34.06-2.67.05-3.98.42-.49.14-1.02.14-1.53.19-3.48.33-6.96.62-10.43.99-1.73.18-3.48.4-5.18.79-1.72.39-3.46.44-5.19.66-2.65.33-5.28.77-7.91,1.22-1.82.32-3.67.41-5.5.75-2.07.39-4.15.65-6.23.89-2.38.28-5.11.95-7.43-.11-.88-.4-1.46-1.11-1.53-2.15-.06-.81.28-1.48,1.01-1.7,1.38-.42,2.76-.79,4.22-.84.72-.02,1.44-.16,1.99-.7.13-.12.18-.35.21-.54.04-.36-.24-.65-.51-.64-1.43.06-2.87.15-4.29.33-.63.08-1.22.14-1.82-.06-.4-.14-.74-.33-.88-.77-.18-.59,0-1.37.43-1.69.59-.45,1.27-.67,2-.72,1.33-.11,2.67-.21,4-.33.52-.05,1.01-.21,1.35-.63.11-.13.15-.38.12-.55-.03-.17-.16-.38-.31-.47-.57-.33-1.2-.18-1.81-.16-1.44.05-2.87.11-4.31.13-.43,0-.81-.27-.85-.73-.03-.39-.02-.84.15-1.17.29-.57.88-.88,1.49-1.02,1.3-.29,2.62-.53,3.93-.79.4-.08.83-.11,1.18-.29.23-.12.41-.44.5-.71.09-.27-.5-.79-.83-.74-.51.07-1,.19-1.51.25-.71.08-1.43.15-2.15.15-.61,0-1.18-.59-1.22-1.19-.04-.59.28-.95.79-1.18.38-.16.74-.36,1.13-.49,5.36-1.8,10.73-3.56,16.27-4.71,6.23-1.3,12.42-2.8,18.57-4.43,8.04-2.13,16.15-3.99,24.28-5.71,7.63-1.61,15.31-3.01,22.97-4.5,6.75-1.32,13.49-2.73,20.26-3.92,7.28-1.28,14.55-2.62,21.78-4.16,2.21-.47,4.47-.66,6.71-.97,3.05-.42,6.1-.83,9.15-1.26,2.24-.31,4.5-.4,6.74-.78,2.93-.5,5.92-.65,8.88-1.01,1.32-.16,2.67-.34,3.93-.73,3.36-1.06,6.85-1.37,10.29-1.9,3.07-.47,6.17-.13,9.21.43,3,.55,5.59,2.01,7.82,4.11,2.14,2.01,3.07,4.62,3.42,7.42.25,2.03.13,4.11.18,6.16.02.95-.3,1.83-.66,2.68-1.19,2.78-2.85,5.23-5.25,7.13-.94.74-1.89,1.46-2.82,2.26Z"/>
      <path class="st13" d="M389.51,234.55c.86-1.57,2.79-8.1,3.49-9.23.48-.78,1.75.73,2.54,1.46.87.81,1.96.94,3.03.86.7-.05,1.36-.46,2.05-.64,2.4-.63,4.73-.34,6.85.9,2.24,1.31,3.23,3.4,3.06,5.97-.06.91-.34,1.81-.51,2.63.33.75.93.89,1.55.95,2.35.22,4.71.38,7.06.64,4.81.53,9.57,1.34,14.18,2.82,2.04.65,4.04,1.49,5.59,2.91.27.96.15,1.75-.08,2.56-2.05,7.11-4.01,14.24-6.13,21.33-1,3.34-2.23,6.63-3.5,9.88-1.25,3.2-3.32,5.92-5.59,8.45-1.44,1.6-2.82,3.28-4.57,4.58-.57.42-1.01,1.02-1.46,1.58-1.2,1.48-2.79,2.41-4.51,3.14-.58.25-1.27.1-1.67-.42-.31-.4-.6-.84-.75-1.31-.86-2.64-1.82-5.25-2.07-8.04-.02-.28-.21-.55-.32-.8-.93-.1-1.64.4-2.37.73-2.45,1.1-5.03,1.78-7.59,2.54-1.4.42-2.81.62-4.25.68-2.16.1-4.32.1-6.48.15-1.76.04-3.49-.25-5.19-.61-3.52-.74-6.98-1.72-10.37-2.91-1.06-.37-2.08-.91-3.04-1.5-3.25-1.97-6.6-3.8-9.62-6.13-.62-.48-1.27-.66-2.02-.48-5.72,1.38-11.2.4-16.58-1.67-3.76-1.45-7.32-3.27-10.61-5.61-.59-.42-1.21-.79-1.79-1.2-.69-.48-1.37-.85-2.26-.47-.31.13-.54-.22-.65-.52-.26-.73-.11-1.44.3-2.06.4-.6.89-1.13,1.36-1.67,1.33-1.57,2.65-3.15,4.01-4.69,1.22-1.39,2.46-2.77,3.74-4.1,1.79-1.85,3.42-3.85,5.2-5.69,3.13-3.25,6.11-6.69,9.73-9.45.33-.25.64-.52.95-.79,3.41-3.09,7.45-4.6,11.99-5.05,2.45-.24,4.88-.64,7.35-.7,2.78-.07,5.54,0,8.31.26,3.78.37,7.57.48,11.64.71Z"/>
      <path class="st19" d="M348.79,273.4c.93-.42,1.45-.9,1.9-1.48-.12-1.11-.27-2.22-.35-3.34-.3-3.92,1.29-7,4.28-9.41,3.45-2.78,7.1-5.27,10.97-7.43,1.34-.75,2.61-1.63,3.91-2.46,1.07-.69,1.84-1.63,2.29-2.83,1.04-2.79,2.07-5.59,3.13-8.37.62-1.63,1.29-3.25,1.98-4.85.15-.36.45-.7.77-.92.21-.15.63-.17.85-.05.21.11.46.5.41.71-.12.6-.37,1.17-.58,1.74-1.69,4.52-3.38,9.04-5.06,13.51,2.7,7.33,4.63,14.77,6.88,22.28,3.7-.95,6.97-2.43,10.37-3.5,3.53-1.11,6.98-2.46,10.52-3.51,3.44-1.02,6.95-1.79,10.57-2.7,1.45-2.07,2.97-4.27,4.52-6.44,2.46-3.45,5.43-6.45,8.34-9.51,1.42-1.49,2.91-2.91,4.41-4.32.36-.34.84-.58,1.32-.74.22-.07.63.11.79.31.16.2.24.61.15.85-.14.37-.41.71-.7.98-1.48,1.43-3.04,2.78-4.46,4.27-3.41,3.57-6.79,7.17-9.63,11.23-.35.51-.67,1.05-1.07,1.51-1.12,1.3-1.51,2.8-1.68,4.51-.37,3.7-.37,7.39-.3,11.09.11,5.64,1.3,11.01,3.85,16.05.61,1.21.36,2.08-.48,3.06-2.14,2.5-4.18,5.08-6.28,7.62-.66.79-1.35,1.56-2.09,2.27-1.79,1.71-3.61,3.37-5.42,5.05-.99.91-2.1,1.65-3.28,2.3-4.15,2.28-8.41,4.3-12.84,5.99-4.41,1.68-8.74,3.6-13.1,5.42-.28.12-.56.26-.86.35-4.98,1.56-9.22,4.49-13.51,7.31-6.2,4.08-11.96,8.73-17.53,13.61-3.56,3.12-7.06,6.31-10.68,9.35-3.64,3.06-7.64,5.55-12.1,7.3-2.98,1.17-6.07,1.9-9.17,2.63-1.8.42-3.6.84-5.39,1.26-1.8.42-3.6.8-5.45.97-2.14.2-4.28.55-6.38,1-.97.2-1.81.16-2.7-.19-1.05-.41-2.12-.79-3.17-1.2-7.28-2.85-14.53-5.76-21.47-9.38-5.29-2.76-10.69-5.29-15.83-8.32-2.4-1.42-4.69-2.97-6.68-4.95-2.14-2.14-3.8-4.55-4.84-7.42-1.02-2.81-1.82-5.67-2.43-8.59-.79-3.73-1.81-7.37-3.31-10.89-1.48-3.45-3.53-6.49-6.16-9.16-1.85-1.88-3.89-3.36-6.63-3.57-.19-.01-.37-.15-.56-.23-.3-.13-.52-.76-.39-1.07.42-1.01,1.22-1.64,2.11-2.18,2.82-1.7,5.64-3.39,8.46-5.08,5.38-3.23,10.76-6.45,16.14-9.67,2.21-1.32,4.43-2.61,6.62-3.95,2.1-1.29,4.19-2.61,6.27-3.94,9.78-6.27,20.26-10.88,31.61-13.44,2.2-.49,4.46-.7,6.7-1,1.63-.22,3.26-.42,4.89-.56,3.3-.28,6.58.14,9.84.45,9.34.9,18.37,3.29,27.22,6.39,3.71,1.3,7.18,3.06,10.49,5.31Z"/>
      <path class="st13" d="M375.99,337.48c-.37.15-.86.53-1.26.44-.63-.14-1.19.03-1.77-.26-1.74-.89-3.64-2.15-5.52-2.68-2.15-.61-4.22-1.46-6.18-2.52-.99-.54-1.95-1.13-2.87-1.77-.46-.32-.91-.66-1.36-1-.3-.24-.98-.6-1.09-.99-.09-.34.19-.9.28-1.23.14-.5.27-1.01.41-1.51.05-.18.1-.37.02-.54-.06-.15-.21-.24-.34-.33-.77-.51-1.48-1.1-2.12-1.77-.29-.3-.59-.73-.39-1.1.15-.29.55-.38.87-.27.31.11.67-.05.94.14,2.27,1.63,3.06,1.94,5.11,3.14,2.15,1.25,3.89,1.99,6.47,3.43,2.05,1.15,4.52,2.41,6.5,3.67,1.08.68,1.72,1.38,2.52,2.37.54.67.87,1.69.35,2.38-.15.19-.35.33-.57.42Z"/>
      <path class="st13" d="M385.09,351.03c-.24-.84-.77-.86-1.32-.49-.61.41-1.08,1.45-1.39,2.11-.57,1.21-1.17,2.4-1.73,3.62-.31.67-.72,1.23-1.38,1.61-.51.29-1.36.04-1.55-.52-.1-.29-.21-.59-.23-.88-.02-.41-.04-.84.07-1.23,1.01-3.67,2.02-7.34,4.61-10.3,3-3.43,6.45-6.29,10.36-8.67,4.92-2.99,9.88-5.89,15.09-8.36,6.59-3.13,13.08-6.47,19.29-10.33,1.05-.65,2.07-1.33,3.1-2.02,1.76-1.16,2.22-2.88,1.85-4.82-.98-5.14-2.19-10.23-3.5-15.3-.43-1.68-.6-3.44-.92-5.15-.8-4.24-1.61-8.47-2.43-12.7-.95-4.94-2.08-9.85-2.08-14.93,0-6.01,2.19-11.28,5.67-15.99,1.65-2.24,4.06-3.76,7.02-4.04.85-.08,1.55.19,2.32.59,4.08,2.11,6.35,5.75,8.17,9.7.9,1.94,1.46,4.06,1.96,6.15.92,3.79,1.72,7.61,2.51,11.42.42,2.01.75,4.04,1.05,6.07.37,2.54.66,5.09.99,7.64.41,3.26.93,6.51,1.2,9.78.23,2.87.56,5.72.97,8.57.22,1.53.58,3.04.65,4.57.18,3.9.27,7.81.34,11.72.03,1.68-.53,3.24-1.36,4.68-1.84,3.17-4.23,5.78-7.5,7.56-5.15,2.79-10.41,5.37-15.64,8-7.71,3.88-15.61,7.39-23.08,11.75-1.42.83-2.84,1.66-4.27,2.47-.6.34-.91.83-.9,1.49.02,1.34-.09,2.7.13,4,.61,3.57.48,7.18.77,10.76.06.71-.04,1.44-.12,2.15-.08.69-.68,1.26-1.19,1.19-.57-.08-.93-.46-1.07-.97-.52-1.89-1.21-9.04-1.59-10.64-.07-.28-.39-.48-.73-.35-.17.06-.41.2-.44.35-.1.39-.18.81-.14,1.21.29,3.07.37,5.34.74,9.21.08.8.12,1.64.07,2.46-.02.38-.24.77-.45,1.12-.3.49-1.33.53-1.62.06-.67-1.07-.91-3.26-1-4.48-.24-3.17-.39-5.37-.64-8.55-.02-.3-.12-.61-.27-.87-.08-.15-.31-.27-.49-.29-.17-.02-.45.06-.52.18-.2.34-.2.82-.23,1.2-.06.71-.06,1.43-.06,2.14,0,1.77.09,3.54.19,5.31.11,1.94.37,3.93-.03,5.61-.14.57-.91.9-1.44.83-.58-.07-.95-.42-1.06-.96-.15-.7-.17-1.43-.28-2.14-.57-3.67-.72-7.36-.74-11.07,0-.3-.08-.61-.2-.88-.06-.14-.31-.25-.48-.26-.17,0-.45.09-.5.21-.15.37-.3.78-.27,1.16.1,1.8-.02,3.6-.15,5.39-.11,1.47-.07,3-.21,4.48-.07.76.01,1.62-.19,2.36-.19.7-.53,1.22-1.38,1.22-.45,0-.82-.21-1.01-.59-.18-.36-.29-.77-.32-1.17-.53-6.45-1.22-12.9-1.05-19.39.03-1.22.25-2.93.02-3.77Z"/>
      <path class="st13" d="M359.03,330.5c-1.08,2.39-2.48,4.43-3.87,6.47-.29.42-.6.87-1.01,1.16-1.87,1.29-3.29,3.06-4.95,4.42-.86.08-1.25-.46-1.67-.87-3.16-3.09-6.3-6.21-9.47-9.29-1.7-1.64-3.5-3.19-5.19-4.84-1.18-1.15-2.27-2.38-3.36-3.61-3.12-3.55-6.19-7.15-9.34-10.69-3.32-3.73-5.79-7.98-7.87-12.48-2.29-4.96-2.1-9.93-.02-14.94,1.79-4.31,4.15-8.26,6.97-11.96,2.5-3.27,5.01-6.53,7.58-9.74,1.22-1.52,2.63-2.89,3.91-4.37,1.74-2.02,3.44-4.08,5.12-6.07.3-.03.53-.12.68-.05,1.06.54,1.14.72.8,1.6-.15.37-.33.73-.52,1.13.4.76.82,1.47,1.14,2.22.28.65.44,1.34.66,2.02.42.41.96.28,1.45.31,3.02.19,5.48,1.65,7.76,3.46,1.27,1.01,1.79,2.48,1.9,4.08.08,1.12-.08,2.27.51,3.42-.76,1.1-1.49,2.21-2.28,3.28-2.25,3.07-4.52,6.12-6.79,9.17-1.23,1.65-2.47,3.28-3.73,4.91-1.13,1.47-1.46,3.01-1.08,4.9.51,2.59,1.58,4.85,3.08,6.99,4.78,6.83,10.02,13.3,15.24,19.79.58.72,1.16,1.44,1.69,2.2.29.41.64.89.66,1.35.09,2.13,1.13,3.93,1.99,6.02ZM334.89,257.99c-1.03,1.01-2.12,1.93-2.57,3.38,1.59.33,3.03.29,4.26-.82-.21-1.17-.61-2.06-1.69-2.56Z"/>
      <path class="st13" d="M429.95,217.03c-1.21.21-2.2,1-3.47,1.08-.68.04-1.04.72-.68,1.38.44.81.41,1.5.15,2.34-.36,1.17-.53,2.4-.81,3.6-.52,2.22-1.38,4.35-2.42,6.37-.99,1.94-2.09,3.93-3.57,5.55-1.68,1.85-3.66,3.47-6.11,4.15-3.06.85-6.14.59-8.94-1.03-2.49-1.44-4.87-3.06-6.9-5.15-1.07-1.1-5.13-5.14-5.37-6.5-.68-.22-.82.23-2.43-.34-1.76-.63-2.57-2.36-2.99-4.38-.14-.69-.15-1.44-.1-2.15.09-1.42.63-2.58,2.1-3.1.26-.09.47-.34.78-.58-.33-2.02-.58-4.05-.6-6.11-.03-3.51.35-6.99,1.24-10.37,1.01-3.85,3.03-7.15,6.29-9.61,3.63-2.74,7.68-4.31,12.2-4.64,1.74-.13,3.49-.08,5.24-.14,5.08-.17,8.88,2.21,11.85,6.07,2.15,2.8,3.52,5.98,4.32,9.45.97,4.18.68,8.38.65,12.58,0,.49-.28.98-.45,1.5Z"/>
      <path class="st13" d="M345.65,339.82c.42-.97,1.17-.38,1.64-.44,1.27-3.39,2.89-6.58,5.48-9.17.65-.65,1.38-1.22,2.15-1.73,1.19-.79,2.48-.92,3.79-.24,1.09.57,2.23,1.05,3.28,1.69,2.62,1.61,4.64,4.17,7.25,5.81,2.12,1.34,4.2,1.59,6.64,1.95,1.23.18,2.55,1.12,2.58,2.06.01.51.03.76-.17,1.18-.23.49-1.08.73-1.13,1.21-.05.48.75.45.97.97.13.32.03,1.17-.11,1.52-.21.5-1.23.85-1.3,1.36-.07.44.81.48,1.15.95.31.42.27,1.41-.04,1.76-.34.57-1.34.47-1.38,1.07-.04.67.91.84.92,1.52.01.68-.63,1.66-1.22,1.78-.54.11-1.1.21-1.65.19-2.96-.09-5.91-.54-8.81-1.13-2.09-.42-4.34-.9-6.22-1.96-4.32-2.43-7.41-4.66-11.22-7.79-.55-.45-2.06-2.07-2.59-2.57Z"/>
      <path class="st15" d="M410.05,237c-.37,0-.75-.06-1.11-.16-1.45-.42-2.69-1.93-1.7-3.39.71-1.05,2.3-1.69,3.52-1.85,1.05-.14,2.05.22,2.81.94.31.29.59.64.7,1.06.08.31.07.64-.01.95-.17.68-.64,1.27-1.22,1.67-.58.4-1.27.62-1.96.73-.34.05-.69.08-1.03.07Z"/>
      <g>
        <path class="st5" d="M403.05,219.19c-.35,0-.7.02-1.05.03-.59.01-2.54-.15-1.87-1.22.13-.21.35-.35.56-.48,1.19-.67,2.58-.9,3.95-.91.73,0,1.48.05,2.16.32.27.11.54.26.73.48.19.22.31.53.25.82-.07.35-.37.61-.7.74-.33.13-.69.14-1.05.14-1,.02-1.99.05-2.99.07Z"/>
        <path class="st5" d="M418.72,218.26c1.21-.07,2.44.25,3.44.92.38.25.73.56.93.97.13.27.18.63-.02.86-.21.24-.59.27-.91.2-1.67-.37-2.68-.78-4.35-1.03-.57-.08-1.65-.59-.89-1.38.19-.2.46-.29.72-.36.35-.09.71-.15,1.07-.17Z"/>
      </g>
      <path class="st5" d="M433.53,219.41c-1,.65-1.84,1.51-2.38,2.64-.66,1.36-2.07,1.95-3.03,2.75-.62,1.19.02,2.15.09,3.15.01.16-.14.39-.29.48-.29.16-.65.09-.81-.18-.26-.43-.44-.91-.63-1.38-.65-1.62-1.27-3.25-1.95-4.85-.28-.65-.7-1.25-1.05-1.87-.69-1.21-1.69-2-3.02-2.49-2.13-.77-4.11-1.86-5.96-3.19-2.28-1.63-4.32-3.49-6-5.73-1.36-1.81-2.66-3.66-3.99-5.49-.59-.82-1.19-1.64-1.71-2.36-.69-.09-.87.3-1.06.65-1.24,2.26-2.17,4.65-2.87,7.13-.93,3.26-1.89,6.51-3.38,9.58-.36.74-.74,1.47-1.16,2.17-.21.34-.52.63-.81.9-.36.33-1.12.34-1.4-.01-.38-.47-.74-.98-1.06-1.5-.59-.96-1.73-1.32-2.99-.83-.66.26-1.04,1.01-1.82,1-.36-.12-.45-.39-.5-.7-.24-1.42-.69-2.83-.68-4.24.04-3.18.16-6.37.53-9.52.69-5.86,3.91-10.27,8.47-13.79,1.88-1.45,3.93-2.62,6.32-3.09.81-.16,1.55-.44,2.29-.84,2.58-1.4,5.31-1.97,8.29-1.62,2.57.3,5.04.92,7.52,1.57,1.95.51,3.49,1.74,5.09,2.83,1.79,1.22,3.37,2.7,4.83,4.3,3.19,3.47,4.8,7.62,5.08,12.28.13,2.15.16,4.31-.29,6.45-.25,1.2-.19,2.46-.37,3.68-.12.81.69,1.24.71,2.11Z"/>
      <path class="st17" d="M163.04,310.12c.39-.03.6-.08.8-.05.82.12,1.83-.62,2.41.53-.42.96-1.43.52-2.11.87-.35.18-.8.21-1.2.22-4.03.13-7.89,1.23-11.81,1.99-9.67,1.86-19.07,4.82-28.6,7.27-5.46,1.4-10.92,2.76-16.41,4.02-5.29,1.21-10.55,2.57-15.73,4.23-.38.12-.79.19-1.19.21-.16,0-.39-.16-.46-.31-.07-.15-.05-.46.06-.55.3-.26.64-.54,1.01-.65,4.14-1.19,8.25-2.47,12.43-3.48,10.96-2.64,21.89-5.39,32.75-8.43,6.42-1.79,12.91-3.28,19.45-4.55,1.41-.27,2.84-.44,4.22-.82,1.51-.41,3.03-.5,4.39-.51Z"/>
      <g>
        <path class="st17" d="M306.41,310.74c.41.12.87.37.63.81-.42.81-.95,1.58-1.53,2.29-2.36,2.87-5.11,5.32-8.13,7.48-3.18,2.27-6.09,4.85-8.75,7.73-3.75,4.05-6.45,8.73-8.46,13.84-.52,1.32-.86,2.71-1.32,4.06-.04.12-.35.16-.54.2-.05.01-.16-.11-.2-.19-.08-.18-.2-.39-.19-.57.06-.81.08-1.64.27-2.43.21-.89.54-1.77.9-2.61,2.14-5.05,4.97-9.68,8.71-13.7,2.52-2.71,5.37-5.07,8.35-7.26,1.57-1.15,3.08-2.38,4.59-3.62,1.59-1.31,2.99-2.81,4.21-4.47.42-.58.79-1.21,1.46-1.56Z"/>
        <path class="st17" d="M347.95,290.66c.09,0,.22-.04.27,0,2.75,2.11,5.95,3.11,9.25,3.91,2.89.7,5.81,1.21,8.75,1.6.7.09,1.38.34,2.07.54.26.08.47.63.31.76-.15.12-.32.27-.5.3-.3.06-.62.09-.91.05-5.19-.66-10.32-1.61-15.24-3.44-1.05-.39-2.05-.94-3.02-1.51-.42-.25-.77-.67-1.06-1.08-.24-.34-.26-.77.09-1.12Z"/>
        <path class="st17" d="M303.1,336.54c.11.03.25.03.28.08.1.16.25.38.2.51-.18.47-.39.94-.68,1.35-2.78,3.95-3.81,8.34-3.35,13.12.07.7.32,1.43-.13,2.09-.08.12-.39.17-.54.12-.17-.06-.31-.27-.4-.44-.47-.94-.62-1.95-.61-2.99.03-4.74,1.23-9.12,4.05-12.98.29-.4.58-.87,1.17-.87Z"/>
        <path class="st17" d="M371.36,304.38c-.11.21-.19.61-.39.69-1.15.45-2.33.78-3.58.79-2.67.03-5.33.11-8,.14-.71,0-1.43-.07-2.14-.18-1.19-.19-1.86-.63-1.6-.99.45-.61,1.09-.43,1.67-.41,2.15.08,4.3.32,6.44.25,2.14-.07,4.27-.44,6.41-.67.41-.04.82-.03,1.19.37Z"/>
      </g>
      <g>
        <path class="st17" d="M426.39,215.61c-.11-.02-.53-.03-.9-.18-3.35-1.32-6.53-2.98-9.36-5.23-2.2-1.75-3.78-4.05-5.07-6.51-1.47-2.8-2.8-5.68-4.17-8.54-.06-.12.08-.42.21-.51.13-.1.42-.12.56-.05.96.52,1.38,1.49,1.83,2.4.81,1.66,1.5,3.37,2.36,5,.76,1.45,1.61,2.87,2.56,4.19,1.78,2.46,4.21,4.19,6.88,5.56,1.64.84,3.34,1.56,5.01,2.35.28.13.56.27.78.47.13.11.23.35.22.52-.02.34-.28.49-.92.52Z"/>
        <path class="st17" d="M410.36,243.64c-3.62-.29-6.95-1.13-9.76-3.42-.3-.25-.52-.62-.7-.97-.06-.12.04-.42.16-.53.12-.11.41-.19.54-.12.36.18.67.46,1.01.68,1.54,1.02,3.18,1.82,4.98,2.32,3.25.9,6.26.47,9.07-1.4.76-.5,1.42-1.19,2.35-1.38.16-.03.41.09.51.23.1.13.08.37.08.56,0,.09-.06.2-.13.27-2.3,2.2-5.09,3.34-8.11,3.75Z"/>
        <path class="st17" d="M438.37,234.5c-.03.8.19,1.65-.32,2.38-.17.24-.37.53-.73.33-.17-.09-.36-.25-.41-.41-.09-.28-.16-.62-.09-.9.66-2.85-.39-5.21-2.06-7.4-.24-.32-.53-.61-.72-.96-.07-.12.05-.41.17-.53.12-.12.41-.25.52-.19.43.25.92.51,1.21.89,1.5,2,2.64,4.15,2.43,6.78Z"/>
        <path class="st17" d="M400.96,194.91c.04-1.58.07-3.22.12-4.86.02-.52.14-1.03.52-1.4.12-.12.38-.18.54-.14.17.04.36.19.44.35.08.17.1.41.06.6-.57,2.33-.41,4.68-.3,7.03.05,1.02.04,2.05.02,3.07,0,.14-.24.29-.39.41-.17.14-.69-.15-.7-.4-.11-1.53-.2-3.07-.31-4.66Z"/>
        <path class="st17" d="M422.47,224.86c-.05.13-.17.23-.31.28-.26.1-.55.05-.8-.04-.07-.02-.57-.24-.58-.22,0,0-.34,1.09-.97,1.62-.5.42-1.62.46-2.08.03-.71-.43-.82-1.72-.82-1.72,0,0-.52.11-.79.02-.37-.12-.48-.49-.09-.84.66-.59,1.61-.97,2.49-1.07,1.21-.14,2.59.41,3.53,1.17.17.14.37.32.43.54.02.08.01.15-.01.22Z"/>
        <path class="st17" d="M403.47,225.74c-1.46-.13-1.92-2.1-1.92-2.1,0,0-.59.18-.84-.17-.41-.62.3-1.03.7-1.2,1.11-.47,2.34-.74,3.55-.57.64.09,1.32.26,1.86.62.26.17.5.4.61.7.13.36.02.73-.42.78-.41.04-1.09-.15-1.09-.15,0,0-.33.8-.5,1.14-.26.54-.8,1.05-1.94.94Z"/>
        <path class="st17" d="M412.03,235.15c-1.81.04-3.64.08-5.35-.49-.4-.13-1.12-.52-.66-1.02.14-.16.36-.23.58-.23.21,0,.42.04.63.08,2.03.42,4.13.45,6.21.39.32-.01.65-.02.97.02.19.03.4.1.47.27.04.09.03.2,0,.3-.09.28-.35.47-.63.56-.28.09-.58.09-.87.09-.45,0-.9.02-1.35.03Z"/>
        <path class="st17" d="M411.19,230.44c-.35-.25-.26-.76-.14-.85.45-.35,1.26-.5,1.48-.7.37-.35.21-1.1.06-2.79-.15-.98-.24-1.08,0-1.56.08-.17.26-.33.43-.41.35-.15.63.12.7.37.46,1.6.61,3.22.14,4.84-.32,1.09-1.83,1.41-2.68,1.1Z"/>
        <path class="st17" d="M426.33,209.27c.61-.74,1.17-.52,1.67-.15,1.33,1,2.05,2.49,2.91,3.86.16.25.24.56.27.86.02.18-.08.42-.21.54-.1.09-.37.08-.5,0-.25-.16-.5-.36-.66-.61-1.06-1.59-2.11-3.18-3.48-4.5Z"/>
      </g>
      <g>
        <path class="st17" d="M393.03,345.79c.54.14,1.14.23,1.7.45,1.89.73,3.78,1.48,5.65,2.26.66.27,1.25.7,1.6,1.35.09.16.07.39.06.58-.01.22-.54.42-.76.27-2.37-1.65-5.1-2.47-7.79-3.4-.28-.1-.58-.21-.82-.38-.26-.18-.4-.47-.2-.77.1-.15.32-.22.55-.36Z"/>
        <path class="st17" d="M368.39,334.69c-.45.74-1.73-.31-2.2-.55-.77-.41-1.51-.88-2.17-1.45-.21-.18-.35-.49-.44-.77-.09-.28.21-.84.55-.78.09.02.17.07.25.12.56.36,1.31.7,1.8,1.16.32.21.64.42.96.63.11.08.89.49.89.6.29.2.57.72.37,1.05Z"/>
        <path class="st17" d="M422.93,276.73c.23-.61.52-.95.76-.83,1.54.82,2.4,2.15,2.66,3.86.05.32-.11.61-.47.65-.17.02-.45-.03-.53-.15-.83-1.25-1.16-2.79-2.41-3.55Z"/>
      </g>
    </g>
    <g>
      <path class="st9" d="M375.25,387.39c3.33-.18,6.68.45,10.01.69,2.34.17,4.82.45,6.69,1.88,1.47,1.13,3.31,1.93,5.1,2.39,2.69.7,4.14-.96,6.38-2.61,3.23-2.38,7.52-2.87,11.49-2.33,3.97.54,8.25,1.28,12.06,2.5,6.71,2.14,13.15,4.26,20.16,4.9.7.06,1.96-.51,2.55-.13.6.38.28,1.99-.04,2.62-.34.69-.65.62-1.42.63-4.81.07-10.04-.59-14.64-2-4.71-1.45-9.17-3.64-13.94-4.85-4.77-1.21-10.12-1.33-14.33,1.22-1.74,1.05-2.38,2.53-4.16,3.52s-4.45.66-6.86.13c-.94-.21-1.15-1.14-1.84-1.81-2.52-2.45-6.25-3.11-9.75-3.3-7.68-.41-15.45.91-22.56,3.84-5.87,2.42-12.68,6.45-18.96,7.41-1.16.18-1.57-2.13-1.4-3.58.17-1.44,2.58-.34,3.74-.57,7.42-1.46,13.87-5.98,21.1-8.22,3.44-1.07,7.01-2.13,10.61-2.32Z"/>
      <path class="st12" d="M395.11,392.97c-1.16-1.79-6.09-4.18-10.24-4.71-3.46-.44-6.94-.62-10.45-.27-4.32.44-8.51,1.43-12.54,3.02-3.05,1.21-6.06,2.55-9.04,3.94-3.74,1.75-7.66,2.96-11.56,4.25-.5.17-1.11-.09-1.32-.54-.6-1.31-.97-2.55-.73-4.12.78-4.97,1.69-9.92,2.66-14.86.41-2.11.97-4.2,1.69-6.24.79-2.22,1.42-4.49,2.1-6.68.36-.21.61-.41.89-.51,4.11-1.41,7.88-3.52,11.63-5.66,3.71-2.11,7.7-3.35,11.76-4.51,2.2-.63,4.42-.91,6.69-.93,1.36-.01,2.74.15,3.91.72,1.33.65,2.74.84,4.12,1.2.79.21,1.59.4,2.4.56,2.77.57,5.3,1.61,7.29,3.86.98-.53,1.86-1.02,2.75-1.5,4.68-2.53,9.66-4.1,14.97-4.31,5.51-.22,10.79.81,15.84,3.2,4.85,2.29,9.34,5.19,13.96,7.88,1.1.64,1.94,1.48,2.41,2.69.83,2.1,1.72,4.18,2.55,6.29,1.5,3.83,2.91,7.68,3.86,11.69.34,1.45.47,2.8-.03,4.23-.4,1.15-.63,2.37-.87,3.32-.73.62-1.36.64-1.97.62-4.74-.13-9.42-.64-13.9-2.37-1.15-.45-2.31-.86-3.48-1.26-2.62-.9-5.25-1.81-7.89-2.67-3.15-1.02-6.41-1.48-9.71-1.48-3.24,0-6.28.91-9.15,2.4-1.11.58-2.03,1.41-2.83,2.35-.81.95-.33,1.17-3.22,1.34-.6-.12-1.95-.02-2.56-.95Z"/>
      <g>
        <path class="st14" d="M408.94,367.66c6.22-.08,11.99.59,17.72,1.91,5.77,1.33,11.16,3.47,16.22,6.51.35.21.7.42,1.02.67.27.21.31.59.11.8-.17.19-.55.33-.8.29-.39-.06-.77-.27-1.12-.46-1.36-.73-2.68-1.52-4.07-2.2-3.42-1.68-6.95-3.06-10.7-3.84-2.71-.56-5.41-1.14-8.13-1.66-2.73-.52-5.49-.72-8.27-.52-1.23.09-2.46.15-3.69.2-.39.01-.81.02-1.03-.46-.16-.36.23-.8.95-.95.7-.15,1.41-.23,1.78-.29Z"/>
        <path class="st14" d="M375.28,367.94c-.82.59-1.72.83-2.64.89-4.44.28-8.67,1.57-12.87,2.88-4.42,1.37-8.66,3.18-12.62,5.61-.43.27-.84.63-1.39.55-.15-.02-.3-.21-.41-.36-.05-.07-.06-.24-.02-.3.25-.31.48-.68.81-.88,1.5-.89,2.98-1.84,4.56-2.57,5.59-2.61,11.38-4.63,17.46-5.83,2.02-.4,4.02-.79,6.08-.85.57-.02.92.27,1.05.85Z"/>
        <path class="st14" d="M411.08,360.63c6.24-.14,12.27.85,18.01,3.4.47.21.93.44,1.38.67.4.21.53.75.27,1.02-.23.23-.48.36-.82.23-1.53-.59-3.06-1.21-4.61-1.76-3.61-1.27-7.32-1.99-11.16-2.07-2.05-.04-5.81-.06-7.84.2-.14.02-.33-.19-.47-.32-.18-.16,0-.67.27-.74,1-.25,3.94-.58,4.96-.64Z"/>
        <path class="st14" d="M361.67,375.75c.18.03.41.01.58.1.16.08.32.25.39.42.13.32,0,.61-.31.76-.27.14-.56.29-.85.32-2.1.22-5.41,2-7.2,3.04-3.12,1.8-6.23,3.6-9.12,5.77-.31.23-.72.35-1.1.44-.14.03-.35-.16-.49-.28-.06-.05-.08-.22-.04-.29.14-.26.26-.58.48-.75,3.55-2.65,7.26-5.06,11.2-7.08,1.54-.79,4.64-2.39,6.46-2.45Z"/>
        <path class="st14" d="M368.25,362.84c-.4.21-.82.55-1.29.66-4.92,1.14-9.45,3.3-14.03,5.33-.55.25-1.12.47-1.7.65-.14.04-.42-.1-.52-.24-.09-.13-.1-.44,0-.54.27-.29.58-.59.93-.77,4.49-2.26,9.13-4.14,13.91-5.68.57-.19,1.21-.24,1.81-.26.43-.01.77.25.88.85Z"/>
        <path class="st14" d="M444.41,382.97c-.09.58-.38.95-.81.83-.58-.16-1.15-.45-1.65-.79-3.78-2.56-7.88-4.32-12.37-5.19-.39-.07-.74-.32-1.09-.48.03-.71.41-1.02.98-.92,3.54.64,6.96,1.69,10.11,3.45,1.68.94,3.42,1.83,4.83,3.09Z"/>
        <path class="st14" d="M418.54,375.53c-.37-.02-.89,0-1.39-.08-4.16-.69-8.1.06-11.9,1.78-.18.08-.38.19-.57.18-.17,0-.41-.11-.49-.25-.09-.15-.11-.45-.02-.56.25-.3.54-.62.88-.79,2.6-1.27,5.4-1.8,8.25-1.97,1.52-.09,3.06.03,4.58.12.49.03.98.23,1.45.4.12.05.26.31.23.45-.03.18-.18.37-.33.48-.16.11-.38.13-.71.23Z"/>
        <path class="st14" d="M373.74,373.82c2.68-.19,5.01.11,7.34.52.13.02.29.3.29.46,0,.15-.13.42-.27.46-1.1.35-2.27.32-3.36.1-1.85-.36-3.68-.24-5.52-.17-.29.01-.59-.12-.87-.21-.07-.02-.15-.15-.14-.23.02-.18.03-.44.15-.52.82-.55,1.79-.28,2.38-.42Z"/>
        <path class="st14" d="M442.04,370.31c-1.26-.57-2.57-1.14-3.85-1.75-.25-.12-.42-.42-.6-.65-.05-.06-.04-.23,0-.3.11-.15.3-.39.4-.36,1.59.37,3.2.77,4.37,2.02.32.33.13.75-.33,1.05Z"/>
        <path class="st14" d="M378.71,367.89c-.76-.23-.28-1.16-.01-1.22,1.32-.32,3.4.41,4.63.8.06.02.09.16.13.24.11.23.05.43-.2.49-1.48.36-2.5.11-4.55-.31Z"/>
      </g>
      <path class="st17" d="M396.74,386.9c-.14-1.58-.32-2.72-.38-3.83-.06-1.03-.47-5.93-.54-6.96-.02-.31.36-.72.62-.74.72-.07.74.51.76.65.34,1.82.63,7.48.95,9.3.09.5.13,1.2.21,1.62.67-.23.88-.31,1.17-.53,3.67-2.7,7.75-4.07,12.31-4.36,6.49-.42,12.69.77,18.76,2.88,2.43.85,4.83,1.76,7.24,2.64,2.81,1.02,8.03,1.92,11.02,2.24.68.07,1.46.06,2.01.61.05.33.02.69-.3.78-1.01.29-2.03.15-3.05-.01-3.78-.6-9.75-1.89-13.29-3.29-3.16-1.25-6.37-2.35-9.66-3.17-4.31-1.08-8.68-1.6-13.14-1.27-3.34.25-6.43,1.25-9.33,2.93-1.54.89-1.99,1.53-3.67,2.39.05.8.04,1.61.04,2.41,0,.42,0,.85,0,1.27,0,.27.05.54,0,.8-.06.25-.32.57-.59.58-.23.01-.63-.29-.67-.51-.19-1.01-.19-1.83-.24-2.85-.03-.57-.11-1.72-.11-1.72,0,0-1.05-.47-1.46-.68-1.65-.83-3.28-1.73-4.97-2.46-3.61-1.54-7.37-2.55-11.31-2.83-1.33-.09-2.66-.3-3.99-.32-8.38-.13-15.94,2.66-23.15,6.62-2.61,1.44-5.18,2.95-7.78,4.41-.81.45-2.73,1.5-3.56,1.9-.27.13-.58.2-.88.21-.17,0-.42-.11-.51-.26-.08-.14-.07-.47.03-.55.48-.38.97-.77,1.51-1.04,3.22-1.61,7.36-4.16,10.47-5.98,5.09-2.98,10.58-4.93,16.35-6.23,4.11-.92,8.15-.64,12.24-.21,5.5.58,10.64,2.22,15.48,4.88.27.15.83.44,1.42.67Z"/>
    </g>
    <g>
      <path class="st16" d="M606.87,436.58c.97-.76.88-1.6.56-2.37-.5-1.24-1.11-2.44-2-3.46-1.95-2.25-3.89-4.52-5.87-6.75-2.25-2.54-4.52-5.06-6.8-7.57-1.18-1.29-2.36-2.58-3.64-3.77-2.58-2.4-5.65-3.77-9.21-3.64-1.62.06-3.02-.33-4.41-1.06-2.36-1.24-4.78-2.39-7.14-3.65-2.91-1.55-5.97-2.75-9.03-3.94-1.84-.72-3.81-.86-5.74-1.05-1.65-.16-3.27.39-4.65,1.35-2.25,1.55-2.26,4.08-1.36,5.72,1.17,2.12,2.71,3.85,4.74,5.17,4.39,2.86,8.78,5.72,13.15,8.6,5.34,3.52,11.02,6.4,16.91,8.84,5.98,2.48,12.08,4.64,18.36,6.24,1.98.51,4.01.86,6.12,1.31Z"/>
      <path class="st17" d="M582.62,409.27c1.08,2.13,3.03,3.57,4.46,5.44,1.37,1.79,3.02,3.38,4.38,5.19,1.41,1.87,3.25,3.43,4.19,5.65-.6.56-1.02.08-1.42-.14-3.97-2.21-8.15-3.91-12.54-5.11-3.7-1.01-7.47-1.37-11.29-1.18-1.24.06-2.46.22-3.55.88-.13.08-.21.35-.19.51.02.16.19.43.3.43.71.02,1.45.1,2.13-.07,1.52-.37,3.02-.62,4.55-.14.19.06.41.04.61.04,4.63-.07,8.91,1.4,13.11,3.09,3.43,1.38,6.75,3.04,9.88,5.05.33.21.74.32,1.12.44.26.08.85-.55.77-.81-.09-.29-.16-.61-.32-.86-.96-1.58-1.83-3.24-2.95-4.7-1.88-2.44-3.91-4.77-5.91-7.12-1.53-1.8-3.1-3.57-4.68-5.34-.48-.53-.99-1.05-1.55-1.49-.35-.27-.77-.15-1.11.25Z"/>
    </g>
    <g>
      <path class="st16" d="M601.02,382.7c-1.5-.03-3.06.09-4.56-.14-2.66-.41-5.32-.36-7.99-.35-2.77,0-5.55.08-8.32.14-2.9.06-5.7.61-8.44,1.56-1.66.58-3.22,1.35-4.57,2.5-2.57,2.19-2.41,4.55.45,6.58,1.79,1.27,3.94,1.75,6.11,1.89,2.96.19,5.94.3,8.91.39,4.61.14,9.21.49,13.81.82,1.84.13,3.7.05,5.54.09,4.82.11,9.65.05,14.45.42,5.44.41,10.87.26,16.31.12,1.26-.03,2.44-.25,3.48-1.04.69-.53.77-1.14.19-1.85-.86-1.04-1.91-1.87-3.03-2.6-4.9-3.2-9.93-6.2-15.08-8.99-3.1-1.68-6.47-2.59-9.88-3.35-2.79-.62-5.07.15-6.59,2.7-.21.35-.47.66-.8,1.12Z"/>
      <path class="st17" d="M621.22,389.23c-.42.38-.94.26-1.43.27-4.62.15-9.25.23-13.87.48-2.77.15-5.49.76-8.01,2.02-.93.46-1.81,1-2.46,1.82-.24.3-.38.71-.48,1.09-.04.15.09.41.22.51.13.11.38.14.55.1.18-.04.37-.17.51-.32,2.16-2.34,5.05-3.02,8.02-3.48,5.4-.84,10.85-.84,16.29-.85.91,0,1.83.21,2.74.27.4.02.81-.06,1.2-.17.46-.12.67-.97.35-1.3-.29-.29-.58-.59-.91-.82-1.69-1.16-3.36-2.37-5.12-3.44-2.99-1.83-6.22-3.17-9.41-4.59-1.8-.8-3.77-.96-5.71-1.15-.24-.02-.52.27-.76.45-.19.14-.07.74.15.79.39.09.79.22,1.19.23,1.67.04,3.28.44,4.78,1.09,3.77,1.64,7.52,3.32,10.92,5.67.5.34,1.09.61,1.23,1.31Z"/>
    </g>
    <g>
      <path class="st8" d="M283.53,360.3c0,1.52-.22,3.03-.66,4.48-1.58,5.23-5.64,8.71-10.56,10.69-8.36,3.37-19.19-1.22-22.36-9.76-2.55-6.86.35-14.37,6.61-18,3.72-2.15,7.64-3.45,12.04-3.05,3.26.29,6.3,1.27,8.9,3.14,3.94,2.84,6.05,7.68,6.04,12.49Z"/>
      <path class="st17" d="M267.3,351.43c.49-.01.92.07,1.28-.05.68-.21,1.33-.53,1.99-.82,1.04-.45,1.83-.45,1.83,0,0,.92-.75,1.13-1.39,1.42-3.3,1.53-6.71,1.76-10.19.75-.37-.11-.72-.38-1.03-.63-.12-.1-.19-.38-.15-.55.06-.33.36-.55.66-.44,1.65.61,3.36.64,4.99.82.5-.55.43-1.08.27-1.56-.35-1.07-.77-2.11-1.18-3.16-.11-.28-.33-.53-.44-.81-.11-.3-.09-.67.24-.77.24-.07.65.02.82.2.41.44.83.93,1.05,1.48.37.95.57,1.96.86,2.94.11.38.25.75.39,1.16Z"/>
    </g>
    <g>
      <path class="st12" d="M503.36,363.91c-.36,1.19-.76,2.36-1.45,3.38-1.22,1.78-2.49,3.52-3.8,5.23-.94,1.24-2.24,1.72-3.8,1.59-1.46-.13-2.81-.6-4.12-1.2-3.27-1.48-6.55-2.94-9.79-4.51-5.63-2.74-11.23-5.55-16.82-8.36-2.2-1.11-4.36-2.3-6.51-3.49-2.13-1.19-3.28-4.31-2.48-6.63.45-1.31,1.06-2.5,1.83-3.55,1.02-1.38,2.32-2.53,3.91-3.43,1.09-.61,2.24-1.04,3.54-1.03.71.11,1.42.18,2.11.36.79.21,1.57.48,2.32.8,6.8,2.89,13.61,5.75,20.38,8.7,2.16.94,4.21,2.12,6.32,3.19,1.28.64,2.57,1.28,3.88,1.87,1.24.56,2.37,1.25,3.28,2.26.02.02.04.04.06.07,1.19,1.37,1.71,2.87,1.13,4.75Z"/>
      <path class="st18" d="M503.36,363.91c-.36,1.19-.76,2.36-1.45,3.38-1.22,1.78-2.49,3.52-3.8,5.23-.94,1.24-2.24,1.72-3.8,1.59-1.46-.13-2.81-.6-4.12-1.2-3.27-1.48-6.55-2.94-9.79-4.51-5.63-2.74-11.23-5.55-16.82-8.36-2.2-1.11-4.36-2.3-6.51-3.49-2.13-1.19-3.28-4.31-2.48-6.63.45-1.31,1.06-2.5,1.83-3.55.81.07,1.55.14,2.29.15,1.88.01,3.67.43,5.35,1.24,1.21.58,2.45,1.01,3.77,1.3,2.12.46,4.1,1.36,6.02,2.33,1.3.66,2.64,1.17,4.05,1.43,1.44.26,2.8.75,4.04,1.46,2.19,1.26,4.59,1.74,7.04,2.04,2.16.26,4.27.78,6.17,1.84,1.97,1.11,3.98,1.55,6.21,1.1.29-.06.57-.09.85-.1,1.19,1.37,1.71,2.87,1.13,4.75Z"/>
      <path class="st14" d="M501.17,375.7c-1.4-.53-2.82-1.12-4.29-1.59-1.41-.45-2.18-1.46-2.75-2.71-1.03-2.25-.58-4.43.4-6.54,1.2-2.6,3.38-4.07,6.01-4.94.87-.29,1.81-.35,2.71.09,1.55.76,3.41.94,4.59,2.38.6.73.84,1.62.9,2.58.15,2.58-.75,4.87-2.09,6.96-1.26,1.96-3.06,3.29-5.47,3.79Z"/>
      <g>
        <path class="st17" d="M503.41,367.73c-.08-.62,1.09-1.2,1.56-1.24.93-.09,1.83.09,2.74.32,2.28.58,4.55,1.24,6.92,1.47,1.1.11,2.17.59,3.22.98.99.37,1.71,1.1,2.22,2.04.86,1.6.29,3.35-1.39,4.09-1.05.47-2.14.72-3.3.6-3.15-.32-6.01-1.3-8.27-3.66-1.28-1.34-2.42-2.8-3.53-4.29-.07-.09-.14-.19-.16-.31,0,0,0-.02,0-.03ZM505.47,367.95c.26.31.43.57.52.69.96,1.34,2.08,2.56,3.38,3.57,2.3,1.79,4.95,2.42,7.83,2.06.2-.03.4-.09.59-.15,1.06-.33,1.41-1.66.64-2.5-.34-.37-.73-.76-1.18-.96-.74-.34-1.53-.59-2.32-.78-2.39-.57-4.79-1.09-7.2-1.61-.57-.13-1.65-.21-2.27-.31Z"/>
        <path class="st17" d="M501.39,374.32c-.5.78-.81.92-1.36.64-2.13-1.07-3.11-2.92-3.36-5.17-.25-2.24.36-4.28,1.97-5.92,1.7-1.72,3.64-2.99,6.19-2.92.54.02.95.28.99,1.03-.38.07-.76.17-1.16.2-1.37.12-2.57.71-3.67,1.47-2.87,1.98-3.18,4.47-2.53,7.29.23.99.79,1.9,1.77,2.41.45.24.92.45,1.15.96Z"/>
        <path class="st17" d="M490.22,370.32c-.48.05-.84.02-.9-.31-.11-.59-.21-1.22-.16-1.82.23-2.36.88-4.61,2.06-6.69,1.23-2.18,3.18-3.41,5.53-4.06.28-.08.62-.05.91.02.15.03.27.25.37.4.05.07.01.2.02.46-.68.29-1.41.59-2.15.91-1.87.81-3.19,2.18-3.98,4.05-.56,1.32-.98,2.68-1.14,4.12-.11,1-.37,1.98-.56,2.91Z"/>
      </g>
    </g>
    <g>
      <path class="st15" d="M522.43,329.46c2.07-.67,3.9-1.88,5.89-.9.79-.14,1.05-.73,1.52-1.06.79-.56,1.57-1.18,2.45-1.56,1.81-.79,3.6-.77,5.16.68.64.59,1.28,1.17,1.79,1.63.61.22.95,0,1.26-.21,1.74-1.22,3.58-1.38,5.53-.54.17.07.38.08.56.11,3.36-1.34,5.09-1.96,8.65,2.09.61.15,1.12-.27,1.69-.33,2.67-.26,5.04.26,6.63,2.69,1.15,1.76,1.04,3.79-.32,5.39-1.02,1.19-2.22,2.16-3.54,3.02-4.11,2.69-8.63,4.42-13.3,5.85-4.82,1.47-9.76,1.71-14.73,1.48-2.93-.13-5.73-1.04-8.41-2.23-.53-.24-1.02-.58-1.56-.79-3.38-1.31-5.48-3.91-7.14-6.99-.66-1.22-.98-2.55-1.23-3.87-.46-2.37,1.61-5.15,4.03-5.65,1.79-.37,2.73-.16,5.09,1.18Z"/>
      <path class="st12" d="M523.2,338.27c5.5-2.92,10.98-2.99,16.58-.05.86-.37,1.83-.8,2.8-1.22,3.76-1.64,7.52-1.85,11.28,0,1.05.52,2,.49,3.04-.08,1.9-1.03,3.99-1.51,6.13-1.75.38-.04.77-.05,1.15,0,.76.09,1.28.65,1.22,1.38-.05.57-.13,1.17-.34,1.7-.29.72-.67,1.42-1.11,2.05-2.08,2.95-4.19,5.91-6.9,8.29-3.42,3-7.35,5.08-12.04,5.37-3.4.21-6.81.33-10.22.33-2.48,0-4.83-.55-7.12-1.4-3.21-1.2-6.22-2.85-8.76-5.16-2.3-2.09-4.45-4.36-5.52-7.42-.32-.91-.8-1.77-1.26-2.63-.38-.7-.63-1.41-.67-2.21-.04-.92.34-1.46,1.25-1.68,3.24-.79,5.93.4,8.36,2.4.74.61,1.37,1.35,2.12,2.11Z"/>
      <g>
        <path class="st17" d="M538.92,329.43c.21-.35.54-.43.77-.29.32.2.64.48.81.8.91,1.8,1.04,3.73.82,5.69-.09.81-.52,1.48-1.25,1.86-.32.17-.74.16-1.11.19-.23.02-.48-.5-.35-.68.05-.08.09-.18.16-.23,1.79-1.09,1.55-2.78,1.21-4.41-.21-1.02-.7-1.99-1.04-2.94Z"/>
        <path class="st17" d="M555.81,330.28c.01.1.06.21.02.28-.09.17-.18.37-.33.46-1.63.91-2.48,2.37-2.96,4.11-.08.27-.19.55-.36.76-.08.1-.34.1-.51.09-.07,0-.15-.12-.19-.2-.05-.08-.09-.18-.09-.27-.08-2.38,1.52-4.76,3.78-5.62.25-.1.65.14.65.39Z"/>
        <path class="st17" d="M528.51,329.98c.08.03.21.05.23.1.15.35.32.69.4,1.06.34,1.48.98,2.72,2.42,3.43.13.07.24.31.24.48,0,.15-.12.36-.25.44-.15.09-.39.11-.56.06-2.11-.69-3.44-3.1-2.93-5.3.03-.12.29-.18.45-.27Z"/>
        <path class="st17" d="M549.04,334.03c-.04.13-.11.5-.26.85-.05.12-.31.22-.46.2-.15-.02-.3-.17-.42-.29-.06-.06-.07-.18-.06-.27.06-2-.59-3.79-1.67-5.44-.05-.07-.08-.19-.06-.27.05-.17.11-.39.23-.46.14-.08.42-.09.54,0,.3.22.62.47.82.78.87,1.43,1.36,2.98,1.35,4.92Z"/>
        <path class="st17" d="M520.65,334.94c-.52.24-.82.06-.92-.39-.26-1.2-.07-2.33.68-3.32.29-.38.61-.77.98-1.07.19-.15.57-.21.8-.13.33.11.3.5.16.74-.38.67-.91,1.28-1.2,1.98-.29.7-.35,1.48-.5,2.18Z"/>
      </g>
    </g>
  </g>
</svg>