<?xml version="1.0" encoding="utf-8"?>
<!-- Generator: Adobe Illustrator 27.5.0, SVG Export Plug-In . SVG Version: 6.00 Build 0)  -->
<svg version="1.1" xmlns="http://www.w3.org/2000/svg" xmlns:xlink="http://www.w3.org/1999/xlink" x="0px" y="0px"
	 viewBox="0 0 500 500" style="enable-background:new 0 0 500 500;" xml:space="preserve">
<g id="Background_Complete">
	<g>
		<g>
			<path style="fill:#F0F0F0;" d="M44.331,301.425v80.8h46.73v-80.8H44.331z M53.301,375.625h-5.98v-5.99h5.98V375.625z
				 M53.301,364.755h-5.98v-5.99h5.98V364.755z M53.301,353.885h-5.98v-5.99h5.98V353.885z M53.301,343.015h-5.98v-5.99h5.98
				V343.015z M53.301,332.145h-5.98v-5.98h5.98V332.145z M53.301,321.275h-5.98v-5.98h5.98V321.275z M47.321,310.405v-5.98h5.98
				v5.98H47.321z M64.891,375.625h-5.98v-5.99h5.98V375.625z M64.891,364.755h-5.98v-5.99h5.98V364.755z M64.891,353.885h-5.98
				v-5.99h5.98V353.885z M64.891,343.015h-5.98v-5.99h5.98V343.015z M64.891,332.145h-5.98v-5.98h5.98V332.145z M64.891,321.275
				h-5.98v-5.98h5.98V321.275z M58.911,310.405v-5.98h5.98v5.98H58.911z M76.481,375.625h-5.98v-5.99h5.98V375.625z M76.481,364.755
				h-5.98v-5.99h5.98V364.755z M76.481,353.885h-5.98v-5.99h5.98V353.885z M76.481,343.015h-5.98v-5.99h5.98V343.015z
				 M76.481,332.145h-5.98v-5.98h5.98V332.145z M76.481,321.275h-5.98v-5.98h5.98V321.275z M70.501,310.405v-5.98h5.98v5.98H70.501z
				 M88.071,375.625h-5.99v-5.99h5.99V375.625z M88.071,364.755h-5.99v-5.99h5.99V364.755z M88.071,353.885h-5.99v-5.99h5.99
				V353.885z M88.071,343.015h-5.99v-5.99h5.99V343.015z M88.071,332.145h-5.99v-5.98h5.99V332.145z M88.071,321.275h-5.99v-5.98
				h5.99V321.275z M88.071,310.405h-5.99v-5.98h5.99V310.405z"/>
			<path style="fill:#F0F0F0;" d="M53.301,290.135v20.27h5.61v-5.98h5.98v5.98h5.61v-5.98h5.98v5.98h5.6v-20.27H53.301z
				 M70.501,295.025h5.98v5.98h-5.98V295.025z M58.911,295.025h5.98v5.98h-5.98V295.025z"/>
		</g>
		<g>
			<path style="fill:#F0F0F0;" d="M410.711,330.865v51.36h41.86v-51.36H410.711z M429.451,373.055h-15.1v-5.36h15.1V373.055z
				 M429.451,362.675h-15.1v-5.36h15.1V362.675z M429.451,352.295h-15.1v-5.36h15.1V352.295z M429.451,341.915h-15.1v-5.36h15.1
				V341.915z M448.921,373.055h-15.09v-5.36h15.09V373.055z M448.921,362.675h-15.09v-5.36h15.09V362.675z M448.921,352.295h-15.09
				v-5.36h15.09V352.295z M448.921,341.915h-15.09v-5.36h15.09V341.915z"/>
		</g>
		<g>
			<path style="fill:#F0F0F0;" d="M367.021,350.315v31.91h38.03v-31.91H367.021z M374.321,376.855h-4.87v-4.87h4.87V376.855z
				 M374.321,368.005h-4.87v-4.87h4.87V368.005z M374.321,359.155h-4.87v-4.86h4.87V359.155z M383.751,376.855h-4.86v-4.87h4.86
				V376.855z M383.751,368.005h-4.86v-4.87h4.86V368.005z M383.751,359.155h-4.86v-4.86h4.86V359.155z M393.19,376.855h-4.87v-4.87
				h4.87V376.855z M393.19,368.005h-4.87v-4.87h4.87V368.005z M393.19,359.155h-4.87v-4.86h4.87V359.155z M402.621,376.855h-4.87
				v-4.87h4.87V376.855z M402.621,368.005h-4.87v-4.87h4.87V368.005z M402.621,359.155h-4.87v-4.86h4.87V359.155z"/>
		</g>
		<g>
			<path style="fill:#F0F0F0;" d="M162.182,350.315v31.91h38.03v-31.91H162.182z M169.482,376.855h-4.87v-4.87h4.87V376.855z
				 M169.482,368.005h-4.87v-4.87h4.87V368.005z M169.482,359.155h-4.87v-4.86h4.87V359.155z M178.912,376.855h-4.86v-4.87h4.86
				V376.855z M178.912,368.005h-4.86v-4.87h4.86V368.005z M178.912,359.155h-4.86v-4.86h4.86V359.155z M188.352,376.855h-4.87v-4.87
				h4.87V376.855z M188.352,368.005h-4.87v-4.87h4.87V368.005z M188.352,359.155h-4.87v-4.86h4.87V359.155z M197.782,376.855h-4.87
				v-4.87h4.87V376.855z M197.782,368.005h-4.87v-4.87h4.87V368.005z M197.782,359.155h-4.87v-4.86h4.87V359.155z"/>
		</g>
		<g>
			<path style="fill:#F0F0F0;" d="M266.431,326.715v55.51h38.03v-55.51H266.431z M283.161,378.245h-14.3v-13.71h14.3V378.245z
				 M283.161,360.555h-14.3v-13.72h14.3V360.555z M283.161,342.865h-14.3v-13.72h14.3V342.865z M302.021,378.245h-14.3v-13.71h14.3
				V378.245z M302.021,360.555h-14.3v-13.72h14.3V360.555z M302.021,342.865h-14.3v-13.72h14.3V342.865z"/>
		</g>
	</g>
	<g>
		<rect x="416.779" y="398.494" style="fill:#EBEBEB;" width="33.122" height="0.25"/>
		<rect x="322.527" y="401.208" style="fill:#EBEBEB;" width="8.693" height="0.25"/>
		<rect x="396.586" y="389.208" style="fill:#EBEBEB;" width="19.192" height="0.25"/>
		<rect x="52.459" y="390.888" style="fill:#EBEBEB;" width="43.193" height="0.25"/>
		<rect x="104.556" y="390.888" style="fill:#EBEBEB;" width="6.333" height="0.25"/>
		<rect x="131.471" y="395.111" style="fill:#EBEBEB;" width="93.676" height="0.25"/>
		<path style="fill:#EBEBEB;" d="M237.014,337.8H43.915c-3.147,0-5.708-2.561-5.708-5.708V60.66c0-3.147,2.561-5.708,5.708-5.708
			h193.099c3.146,0,5.707,2.561,5.707,5.708v271.432C242.721,335.239,240.16,337.8,237.014,337.8z M43.915,55.203
			c-3.01,0-5.458,2.448-5.458,5.458v271.432c0,3.01,2.448,5.458,5.458,5.458h193.099c3.009,0,5.457-2.448,5.457-5.458V60.66
			c0-3.009-2.448-5.458-5.457-5.458H43.915z"/>
		<path style="fill:#EBEBEB;" d="M453.31,337.8H260.212c-3.147,0-5.707-2.561-5.707-5.708V60.66c0-3.147,2.561-5.708,5.707-5.708
			H453.31c3.148,0,5.708,2.561,5.708,5.708v271.432C459.019,335.239,456.458,337.8,453.31,337.8z M260.212,55.203
			c-3.009,0-5.457,2.448-5.457,5.458v271.432c0,3.01,2.448,5.458,5.457,5.458H453.31c3.01,0,5.458-2.448,5.458-5.458V60.66
			c0-3.009-2.448-5.458-5.458-5.458H260.212z"/>
		<rect y="382.398" style="fill:#EBEBEB;" width="500" height="0.25"/>
	</g>
	<g>
		<path style="fill:#F5F5F5;" d="M63.246,149.083c-4.13-1.154-10.102-5.921-6.967-15.675c3.135-9.753,15.326-5.225,15.326-5.225
			s0-17.416,11.495-16.371c11.495,1.045,19.506,14.63,19.506,14.63s6.966-13.585,18.113-1.045
			c11.146,12.54-6.967,22.641-20.203,23.338C87.281,149.432,72.221,151.59,63.246,149.083z"/>
		<path style="fill:#FAFAFA;" d="M367.285,172.28c-4.219-1.178-10.318-6.049-7.116-16.011c3.202-9.963,15.655-5.337,15.655-5.337
			s0-17.79,11.741-16.723c11.742,1.067,19.925,14.944,19.925,14.944s7.116-13.876,18.502-1.067
			c11.386,12.809-7.116,23.127-20.637,23.839C391.835,172.636,376.452,174.84,367.285,172.28z"/>
		<path style="fill:#F5F5F5;" d="M291.514,97.524c1.265-3.701,3.722-12.406,13.895-7.195c0,0-0.496-10.917,11.91-8.436
			c12.406,2.481,5.21,16.128-6.699,16.872C298.71,99.509,290.397,100.794,291.514,97.524z"/>
	</g>
	<g>
		<g>
			<path style="fill:#F5F5F5;" d="M174.559,88.908l-0.046,0.011c0-0.023,0.011-0.046,0.023-0.069L174.559,88.908z"/>
		</g>
		<g>
			<path style="fill:#F5F5F5;" d="M174.536,88.85c-0.012,0.023-0.023,0.046-0.023,0.069l0.046-0.011L174.536,88.85z M223.694,72.031
				c-0.625,0.185-1.262,0.509-1.898,1.019c0,0,0.822-0.023,2.003,0.023L223.694,72.031z M225.789,71.904
				c-0.474-0.069-0.972-0.081-1.481,0l0.116,1.204c0.428,0.023,0.891,0.058,1.378,0.093L225.789,71.904z M226.461,72.043
				l0.012,1.227c1.181,0.139,2.373,0.347,3.334,0.683C229.806,73.953,228.405,72.564,226.461,72.043z"/>
		</g>
		<g>
			<path style="fill:#F5F5F5;" d="M229.887,106.582c-0.891-0.775-6.586-5.625-11.644-9.931c0.07-0.648-0.011-1.366-0.266-2.084
				c-0.683-1.875-2.384-2.986-3.796-2.465c-0.151,0.058-0.44,0.185-0.845,0.37c-1.065-0.914-1.945-1.667-2.523-2.153
				c17.559-6.864,21.923-10.568,21.344-13.496c-0.046-0.278-0.162-0.544-0.301-0.787c-0.891-1.563-5.139-7.581-15.985-3.634
				l-22.12,8.044c-0.22-0.139-0.475-0.278-0.741-0.405l-3.253-1.285c-0.046-0.278-0.116-0.567-0.22-0.845
				c-0.752-2.083-2.627-3.299-4.19-2.732c-0.301,0.116-1.088,0.474-2.141,0.995l-34.771-13.716c-0.289-0.116-0.59-0.174-0.903-0.174
				l-3.507-0.046c-0.278-0.012-0.382,0.347-0.151,0.486l22.756,14.005l-0.625,13.82c-0.266,0.093-1.192,0.44-2.245,0.984
				l-12.443-5.591c-0.289-0.127-0.602-0.197-0.914-0.197l-1.956-0.035c-0.44,0-0.59,0.59-0.197,0.799l12.952,6.713
				c-0.37,0.324-0.695,0.683-0.926,1.065c-0.532,0.903-0.081,2.072,0.926,2.384c1.678,0.521,5.104,1.389,10.012,1.736h0.012
				l5.429,2.813c0.452,0.231,0.972,0.266,1.447,0.093l0.37-0.139c0.22-0.081,0.278-0.37,0.104-0.533l-2.257-2.095
				c5.961-0.058,13.369-0.961,21.946-3.658c0,0,0,0,0.011,0l8.924,4.132c0.382,0.776,0.961,1.354,1.586,1.667
				c0.486-0.093,0.972-0.174,1.447-0.278l17.779,8.206c0.451,0.208,0.96,0.278,1.458,0.197l0.949-0.15
				c0.567-0.093,0.799-0.776,0.405-1.192C230.593,107.23,230.292,106.929,229.887,106.582z M184.653,76.742
				c0.231-0.37,0.567-0.66,0.972-0.81c1.25-0.451,2.743,0.533,3.345,2.188c0.046,0.127,0.092,0.255,0.127,0.382
				c0.394,1.528-0.139,3.021-1.285,3.438c-1.25,0.451-2.743-0.532-3.345-2.188C184.062,78.641,184.166,77.506,184.653,76.742z
				 M175.474,89.313c-0.023,0.336-0.289,0.695-0.579,0.799c-0.289,0.104-0.498-0.081-0.475-0.417l0.058-0.613
				c0-0.058,0.012-0.116,0.035-0.162c0-0.023,0.011-0.046,0.023-0.069c0.092-0.266,0.301-0.498,0.521-0.579
				c0.058-0.023,0.104-0.023,0.15-0.023c0.208,0,0.347,0.174,0.324,0.451L175.474,89.313z M177.534,88.56
				c-0.035,0.336-0.289,0.706-0.579,0.81c-0.289,0.104-0.509-0.093-0.475-0.428l0.058-0.614c0.023-0.336,0.289-0.694,0.579-0.799
				c0.058-0.023,0.116-0.035,0.162-0.035c0.197,0,0.324,0.185,0.301,0.451L177.534,88.56z M179.583,87.819
				c-0.023,0.336-0.289,0.695-0.579,0.799c-0.289,0.104-0.498-0.081-0.474-0.417l0.058-0.625c0.035-0.336,0.289-0.695,0.579-0.799
				c0.058-0.023,0.104-0.035,0.15-0.035c0.208,0,0.347,0.174,0.324,0.451L179.583,87.819z M174.131,87.588l-1.701-7.292l6.135,3.773
				l0.938,0.567l1.007,0.625L174.131,87.588z M181.689,87.021c-0.023,0.347-0.289,0.706-0.579,0.81
				c-0.289,0.104-0.498-0.093-0.463-0.428l0.046-0.614c0.035-0.336,0.289-0.694,0.579-0.799c0.058-0.023,0.104-0.035,0.151-0.035
				c0.208,0,0.347,0.174,0.324,0.451L181.689,87.021z M197.315,81.361c-0.035,0.347-0.289,0.706-0.579,0.81
				c-0.289,0.104-0.498-0.092-0.475-0.428l0.058-0.613c0.023-0.336,0.289-0.695,0.579-0.799c0.058-0.023,0.104-0.035,0.151-0.035
				c0.208,0,0.336,0.174,0.313,0.451L197.315,81.361z M199.364,80.62c-0.023,0.336-0.289,0.694-0.579,0.799
				c-0.289,0.104-0.498-0.081-0.463-0.417l0.046-0.614c0.035-0.347,0.289-0.706,0.579-0.81c0.058-0.023,0.104-0.023,0.151-0.023
				c0.208,0,0.347,0.174,0.324,0.451L199.364,80.62z M201.424,79.868c-0.035,0.336-0.289,0.694-0.579,0.81
				c-0.289,0.104-0.498-0.093-0.475-0.428l0.058-0.613c0.023-0.336,0.289-0.694,0.579-0.81c0.058-0.023,0.104-0.023,0.151-0.023
				c0.208,0,0.347,0.174,0.324,0.451L201.424,79.868z M203.473,79.115c-0.023,0.347-0.289,0.706-0.579,0.81
				c-0.289,0.104-0.498-0.081-0.463-0.428l0.046-0.613c0.035-0.336,0.289-0.694,0.579-0.799c0.058-0.023,0.104-0.035,0.151-0.035
				c0.208,0,0.347,0.174,0.324,0.451L203.473,79.115z M205.533,78.374c-0.035,0.336-0.289,0.695-0.579,0.799
				c-0.289,0.116-0.498-0.081-0.475-0.417l0.058-0.613c0.023-0.336,0.289-0.706,0.579-0.81c0.058-0.023,0.104-0.023,0.15-0.023
				c0.208,0,0.336,0.174,0.313,0.451L205.533,78.374z M207.733,77.576c-0.035,0.336-0.289,0.694-0.579,0.799
				c-0.289,0.104-0.498-0.081-0.475-0.417l0.058-0.613c0.023-0.347,0.289-0.706,0.579-0.81c0.058-0.023,0.104-0.023,0.151-0.023
				c0.208,0,0.347,0.174,0.324,0.451L207.733,77.576z M209.781,76.823c-0.023,0.336-0.289,0.706-0.579,0.81
				c-0.289,0.104-0.498-0.093-0.463-0.428l0.046-0.613c0.035-0.336,0.289-0.695,0.579-0.799c0.058-0.023,0.116-0.035,0.162-0.035
				c0.208,0,0.336,0.185,0.313,0.451L209.781,76.823z M229.806,73.953c-0.961-0.336-2.153-0.544-3.334-0.683l-0.012-1.227
				C228.405,72.564,229.806,73.953,229.806,73.953z M225.789,71.904l0.012,1.296c-0.486-0.035-0.949-0.07-1.378-0.093l-0.116-1.204
				C224.817,71.823,225.315,71.835,225.789,71.904z M223.694,72.031l0.104,1.042c-1.181-0.046-2.003-0.023-2.003-0.023
				C222.433,72.541,223.069,72.217,223.694,72.031z M214.955,74.346c0.023-0.336,0.289-0.694,0.579-0.799
				c0.058-0.023,0.104-0.035,0.15-0.035c0.208,0,0.347,0.174,0.324,0.451l-0.058,0.614c-0.035,0.347-0.289,0.706-0.579,0.81
				c-0.289,0.104-0.498-0.081-0.474-0.428L214.955,74.346z M212.895,75.099c0.035-0.336,0.289-0.694,0.579-0.81
				c0.058-0.023,0.104-0.023,0.151-0.023c0.208,0,0.347,0.174,0.324,0.451l-0.058,0.613c-0.023,0.336-0.289,0.694-0.579,0.81
				c-0.289,0.104-0.498-0.093-0.463-0.428L212.895,75.099z M210.846,75.851c0.023-0.347,0.289-0.706,0.579-0.81
				c0.058-0.023,0.104-0.023,0.151-0.023c0.208,0,0.347,0.174,0.324,0.451l-0.058,0.614c-0.035,0.336-0.289,0.694-0.579,0.799
				c-0.289,0.104-0.498-0.081-0.475-0.417L210.846,75.851z M216.414,98.214c-1.134,0.417-2.489-0.475-3.032-1.968
				c-0.463-1.296-0.185-2.628,0.625-3.218c0.127-0.104,0.266-0.185,0.428-0.243c1.123-0.405,2.477,0.475,3.021,1.979
				c0.174,0.475,0.243,0.949,0.22,1.389C217.641,97.114,217.178,97.936,216.414,98.214z"/>
		</g>
		<path style="fill:#F5F5F5;" d="M223.799,73.073c-1.181-0.046-2.003-0.023-2.003-0.023c0.637-0.509,1.273-0.833,1.898-1.019
			L223.799,73.073z"/>
		<g>
			<path style="fill:#F5F5F5;" d="M229.806,73.953c-0.961-0.336-2.153-0.544-3.334-0.683l-0.012-1.227
				C228.405,72.564,229.806,73.953,229.806,73.953z"/>
			<path style="fill:#F5F5F5;" d="M225.801,73.201c-0.486-0.035-0.949-0.07-1.378-0.093l-0.116-1.204
				c0.509-0.081,1.007-0.069,1.481,0L225.801,73.201z"/>
		</g>
		<g>
			<path style="fill:#F5F5F5;" d="M178.564,84.069c0.255,0.255,0.544,0.451,0.833,0.59c0.035-0.012,0.069-0.012,0.104-0.023
				L178.564,84.069z"/>
		</g>
	</g>
</g>
<g id="Background_Simple" style="display:none;">
	<g style="display:inline;">
		<path style="fill:#407BFF;" d="M323.364,353.706c-74.252,27-343.588-58.566-231.141-192.878
			c112.447-134.312,131.768,70.123,182.355,66.826c46.99-3.063,34.729-176.149,122.188-121.488
			C484.226,160.828,389.145,329.787,323.364,353.706z"/>
		<path style="opacity:0.9;fill:#FFFFFF;" d="M323.364,353.706c-74.252,27-343.588-58.566-231.141-192.878
			c112.447-134.312,131.768,70.123,182.355,66.826c46.99-3.063,34.729-176.149,122.188-121.488
			C484.226,160.828,389.145,329.787,323.364,353.706z"/>
	</g>
</g>
<g id="Shadow">
	<ellipse id="_x3C_Path_x3E__1_" style="fill:#F5F5F5;" cx="245.178" cy="412.391" rx="193.889" ry="11.323"/>
</g>
<g id="Landmark">
	<g>
		<path style="fill:#407BFF;" d="M451.416,381.994c0,0-18.609-29.99-35.699-75.899h2.226c3.839,0,6.951-3.112,6.951-6.951v-8.596
			h-14.68c-5.173-15.41-9.979-32.23-13.806-50.031h0.308c3.839,0,6.951-3.112,6.951-6.951v-1.558h-8.997
			c-2.581-13.339-4.58-27.17-5.74-41.327c-4.662-56.878-6.531-84.043-7.266-96.992c1.639-0.913,2.76-2.643,2.76-4.652v-7.494h-1.582
			c0.318-0.684,0.508-1.439,0.508-2.243v-3.429h-4.062V53.617c0-0.709-0.575-1.284-1.284-1.284c-0.709,0-1.284,0.575-1.284,1.284
			v22.255h-4.062v3.429c0,0.804,0.19,1.559,0.508,2.243h-1.582v7.494c0,2.009,1.122,3.739,2.76,4.652
			c-0.735,12.949-2.604,40.114-7.266,96.992c-1.16,14.157-3.16,27.987-5.741,41.327h-8.997v1.558c0,3.839,3.112,6.951,6.951,6.951
			h0.308c-3.827,17.801-8.633,34.622-13.806,50.031h-14.68v8.596c0,3.839,3.112,6.951,6.951,6.951h2.226
			c-17.09,45.909-35.699,75.899-35.699,75.899h23.776c-0.001-0.143-0.011-0.284-0.011-0.428c0-27.419,22.228-58.635,49.647-58.635
			c27.419,0,49.647,31.216,49.647,58.635c0,0.143-0.01,0.285-0.011,0.428H451.416z M377.576,136.755h0.856
			c0,0,0.375,44.459,4.948,90.306h-10.752C377.201,181.214,377.576,136.755,377.576,136.755z M362.198,291.26
			c3.196-12.035,5.729-26.24,7.737-41.087h16.135c2.008,14.847,4.542,29.052,7.737,41.087H362.198z"/>
		<path style="fill:#407BFF;" d="M451.416,381.994c0,0-18.609-29.99-35.699-75.899h2.226c3.839,0,6.951-3.112,6.951-6.951v-8.596
			h-14.68c-5.173-15.41-9.979-32.23-13.806-50.031h0.308c3.839,0,6.951-3.112,6.951-6.951v-1.558h-8.997
			c-2.581-13.339-4.58-27.17-5.74-41.327c-4.662-56.878-6.531-84.043-7.266-96.992c1.639-0.913,2.76-2.643,2.76-4.652v-7.494h-1.582
			c0.318-0.684,0.508-1.439,0.508-2.243v-3.429h-4.062V53.617c0-0.709-0.575-1.284-1.284-1.284c-0.709,0-1.284,0.575-1.284,1.284
			v22.255h-4.062v3.429c0,0.804,0.19,1.559,0.508,2.243h-1.582v7.494c0,2.009,1.122,3.739,2.76,4.652
			c-0.735,12.949-2.604,40.114-7.266,96.992c-1.16,14.157-3.16,27.987-5.741,41.327h-8.997v1.558c0,3.839,3.112,6.951,6.951,6.951
			h0.308c-3.827,17.801-8.633,34.622-13.806,50.031h-14.68v8.596c0,3.839,3.112,6.951,6.951,6.951h2.226
			c-17.09,45.909-35.699,75.899-35.699,75.899h23.776c-0.001-0.143-0.011-0.284-0.011-0.428c0-27.419,22.228-58.635,49.647-58.635
			c27.419,0,49.647,31.216,49.647,58.635c0,0.143-0.01,0.285-0.011,0.428H451.416z M377.576,136.755h0.856
			c0,0,0.375,44.459,4.948,90.306h-10.752C377.201,181.214,377.576,136.755,377.576,136.755z M362.198,291.26
			c3.196-12.035,5.729-26.24,7.737-41.087h16.135c2.008,14.847,4.542,29.052,7.737,41.087H362.198z"/>
		<path style="opacity:0.7;fill:#FFFFFF;" d="M451.416,381.994c0,0-18.609-29.99-35.699-75.899h2.226
			c3.839,0,6.951-3.112,6.951-6.951v-8.596h-14.68c-5.173-15.41-9.979-32.23-13.806-50.031h0.308c3.839,0,6.951-3.112,6.951-6.951
			v-1.558h-8.997c-2.581-13.339-4.58-27.17-5.74-41.327c-4.662-56.878-6.531-84.043-7.266-96.992c1.639-0.913,2.76-2.643,2.76-4.652
			v-7.494h-1.582c0.318-0.684,0.508-1.439,0.508-2.243v-3.429h-4.062V53.617c0-0.709-0.575-1.284-1.284-1.284
			c-0.709,0-1.284,0.575-1.284,1.284v22.255h-4.062v3.429c0,0.804,0.19,1.559,0.508,2.243h-1.582v7.494
			c0,2.009,1.122,3.739,2.76,4.652c-0.735,12.949-2.604,40.114-7.266,96.992c-1.16,14.157-3.16,27.987-5.741,41.327h-8.997v1.558
			c0,3.839,3.112,6.951,6.951,6.951h0.308c-3.827,17.801-8.633,34.622-13.806,50.031h-14.68v8.596c0,3.839,3.112,6.951,6.951,6.951
			h2.226c-17.09,45.909-35.699,75.899-35.699,75.899h23.776c-0.001-0.143-0.011-0.284-0.011-0.428
			c0-27.419,22.228-58.635,49.647-58.635c27.419,0,49.647,31.216,49.647,58.635c0,0.143-0.01,0.285-0.011,0.428H451.416z
			 M377.576,136.755h0.856c0,0,0.375,44.459,4.948,90.306h-10.752C377.201,181.214,377.576,136.755,377.576,136.755z
			 M362.198,291.26c3.196-12.035,5.729-26.24,7.737-41.087h16.135c2.008,14.847,4.542,29.052,7.737,41.087H362.198z"/>
	</g>
</g>
<g id="Safety_Fence">
	<g>
		<g>
			<g>
				<path style="fill:#407BFF;" d="M442.361,338.398c0.171-1.366,1.353-0.92,1.353-1.532c0-0.778-0.565-1.453-2.495-1.794
					c0.895-0.815,1.463-2.003,1.463-3.331c0-1.328-0.568-2.516-1.463-3.331c1.93-0.341,2.495-1.016,2.495-1.794
					c0-0.612-1.182-0.166-1.353-1.532c-0.281-2.242,3.136-3.73,3.136-9.396c0-6.884-6.746-16.148-4.441-20.501
					c0.386-0.728,3.221,0,3.221,0v-14.699h-11.826v14.699c0,0,2.836-0.728,3.221,0c2.305,4.353-4.441,13.617-4.441,20.501
					c0,5.666,3.417,7.154,3.136,9.396c-0.171,1.366-1.353,0.92-1.353,1.532c0,0.778,0.565,1.453,2.495,1.794
					c-0.895,0.815-1.463,2.004-1.463,3.331c0,1.328,0.568,2.516,1.463,3.331c-1.93,0.341-2.495,1.016-2.495,1.794
					c0,0.612,1.182,0.166,1.353,1.532c0.281,2.242-3.136,3.73-3.136,9.396c0,6.884,6.746,16.148,4.441,20.501
					c-0.386,0.728-3.221,0-3.221,0v14.699h11.826v-14.699c0,0-2.836,0.728-3.221,0c-2.305-4.353,4.441-13.617,4.441-20.501
					C445.497,342.128,442.08,340.64,442.361,338.398z"/>
				<path style="opacity:0.5;fill:#FFFFFF;" d="M442.361,338.398c0.171-1.366,1.353-0.92,1.353-1.532
					c0-0.778-0.565-1.453-2.495-1.794c0.895-0.815,1.463-2.003,1.463-3.331c0-1.328-0.568-2.516-1.463-3.331
					c1.93-0.341,2.495-1.016,2.495-1.794c0-0.612-1.182-0.166-1.353-1.532c-0.281-2.242,3.136-3.73,3.136-9.396
					c0-6.884-6.746-16.148-4.441-20.501c0.386-0.728,3.221,0,3.221,0v-14.699h-11.826v14.699c0,0,2.836-0.728,3.221,0
					c2.305,4.353-4.441,13.617-4.441,20.501c0,5.666,3.417,7.154,3.136,9.396c-0.171,1.366-1.353,0.92-1.353,1.532
					c0,0.778,0.565,1.453,2.495,1.794c-0.895,0.815-1.463,2.004-1.463,3.331c0,1.328,0.568,2.516,1.463,3.331
					c-1.93,0.341-2.495,1.016-2.495,1.794c0,0.612,1.182,0.166,1.353,1.532c0.281,2.242-3.136,3.73-3.136,9.396
					c0,6.884,6.746,16.148,4.441,20.501c-0.386,0.728-3.221,0-3.221,0v14.699h11.826v-14.699c0,0-2.836,0.728-3.221,0
					c-2.305-4.353,4.441-13.617,4.441-20.501C445.497,342.128,442.08,340.64,442.361,338.398z"/>
			</g>
			<rect x="432.451" y="280.488" style="opacity:0.1;" width="11.826" height="6.275"/>
		</g>
		<g>
			<rect x="38.342" y="265.26" style="fill:#407BFF;" width="420.427" height="15.228"/>
			<rect x="38.342" y="265.26" style="opacity:0.5;fill:#FFFFFF;" width="420.427" height="15.228"/>
		</g>
		<g>
			<g>
				<path style="fill:#407BFF;" d="M61.441,338.398c0.171-1.366,1.353-0.92,1.353-1.532c0-0.778-0.565-1.453-2.495-1.794
					c0.895-0.815,1.463-2.003,1.463-3.331c0-1.328-0.568-2.516-1.463-3.331c1.93-0.341,2.495-1.016,2.495-1.794
					c0-0.612-1.182-0.166-1.353-1.532c-0.281-2.242,3.136-3.73,3.136-9.396c0-6.884-6.746-16.148-4.441-20.501
					c0.386-0.728,3.221,0,3.221,0v-14.699H51.531v14.699c0,0,2.835-0.728,3.221,0c2.305,4.353-4.441,13.617-4.441,20.501
					c0,5.666,3.417,7.154,3.136,9.396c-0.171,1.366-1.353,0.92-1.353,1.532c0,0.778,0.565,1.453,2.495,1.794
					c-0.895,0.815-1.463,2.004-1.463,3.331c0,1.328,0.568,2.516,1.463,3.331c-1.93,0.341-2.495,1.016-2.495,1.794
					c0,0.612,1.182,0.166,1.353,1.532c0.281,2.242-3.136,3.73-3.136,9.396c0,6.884,6.746,16.148,4.441,20.501
					c-0.386,0.728-3.221,0-3.221,0v14.699h11.826v-14.699c0,0-2.836,0.728-3.221,0c-2.305-4.353,4.441-13.617,4.441-20.501
					C64.577,342.128,61.16,340.64,61.441,338.398z"/>
				<path style="opacity:0.5;fill:#FFFFFF;" d="M61.441,338.398c0.171-1.366,1.353-0.92,1.353-1.532
					c0-0.778-0.565-1.453-2.495-1.794c0.895-0.815,1.463-2.003,1.463-3.331c0-1.328-0.568-2.516-1.463-3.331
					c1.93-0.341,2.495-1.016,2.495-1.794c0-0.612-1.182-0.166-1.353-1.532c-0.281-2.242,3.136-3.73,3.136-9.396
					c0-6.884-6.746-16.148-4.441-20.501c0.386-0.728,3.221,0,3.221,0v-14.699H51.531v14.699c0,0,2.835-0.728,3.221,0
					c2.305,4.353-4.441,13.617-4.441,20.501c0,5.666,3.417,7.154,3.136,9.396c-0.171,1.366-1.353,0.92-1.353,1.532
					c0,0.778,0.565,1.453,2.495,1.794c-0.895,0.815-1.463,2.004-1.463,3.331c0,1.328,0.568,2.516,1.463,3.331
					c-1.93,0.341-2.495,1.016-2.495,1.794c0,0.612,1.182,0.166,1.353,1.532c0.281,2.242-3.136,3.73-3.136,9.396
					c0,6.884,6.746,16.148,4.441,20.501c-0.386,0.728-3.221,0-3.221,0v14.699h11.826v-14.699c0,0-2.836,0.728-3.221,0
					c-2.305-4.353,4.441-13.617,4.441-20.501C64.577,342.128,61.16,340.64,61.441,338.398z"/>
			</g>
			<rect x="51.531" y="280.488" style="opacity:0.1;" width="11.826" height="6.275"/>
		</g>
		<g>
			<g>
				<path style="fill:#407BFF;" d="M366.195,338.398c0.171-1.366,1.353-0.92,1.353-1.532c0-0.778-0.565-1.453-2.495-1.794
					c0.895-0.815,1.463-2.003,1.463-3.331c0-1.328-0.568-2.516-1.463-3.331c1.93-0.341,2.495-1.016,2.495-1.794
					c0-0.612-1.182-0.166-1.353-1.532c-0.281-2.242,3.136-3.73,3.136-9.396c0-6.884-6.746-16.148-4.441-20.501
					c0.386-0.728,3.221,0,3.221,0v-14.699h-11.826v14.699c0,0,2.836-0.728,3.221,0c2.305,4.353-4.441,13.617-4.441,20.501
					c0,5.666,3.417,7.154,3.136,9.396c-0.171,1.366-1.353,0.92-1.353,1.532c0,0.778,0.565,1.453,2.495,1.794
					c-0.895,0.815-1.463,2.004-1.463,3.331c0,1.328,0.568,2.516,1.463,3.331c-1.93,0.341-2.495,1.016-2.495,1.794
					c0,0.612,1.182,0.166,1.353,1.532c0.281,2.242-3.136,3.73-3.136,9.396c0,6.884,6.746,16.148,4.441,20.501
					c-0.386,0.728-3.221,0-3.221,0v14.699h11.826v-14.699c0,0-2.836,0.728-3.221,0c-2.305-4.353,4.441-13.617,4.441-20.501
					C369.332,342.128,365.914,340.64,366.195,338.398z"/>
				<path style="opacity:0.5;fill:#FFFFFF;" d="M366.195,338.398c0.171-1.366,1.353-0.92,1.353-1.532
					c0-0.778-0.565-1.453-2.495-1.794c0.895-0.815,1.463-2.003,1.463-3.331c0-1.328-0.568-2.516-1.463-3.331
					c1.93-0.341,2.495-1.016,2.495-1.794c0-0.612-1.182-0.166-1.353-1.532c-0.281-2.242,3.136-3.73,3.136-9.396
					c0-6.884-6.746-16.148-4.441-20.501c0.386-0.728,3.221,0,3.221,0v-14.699h-11.826v14.699c0,0,2.836-0.728,3.221,0
					c2.305,4.353-4.441,13.617-4.441,20.501c0,5.666,3.417,7.154,3.136,9.396c-0.171,1.366-1.353,0.92-1.353,1.532
					c0,0.778,0.565,1.453,2.495,1.794c-0.895,0.815-1.463,2.004-1.463,3.331c0,1.328,0.568,2.516,1.463,3.331
					c-1.93,0.341-2.495,1.016-2.495,1.794c0,0.612,1.182,0.166,1.353,1.532c0.281,2.242-3.136,3.73-3.136,9.396
					c0,6.884,6.746,16.148,4.441,20.501c-0.386,0.728-3.221,0-3.221,0v14.699h11.826v-14.699c0,0-2.836,0.728-3.221,0
					c-2.305-4.353,4.441-13.617,4.441-20.501C369.332,342.128,365.914,340.64,366.195,338.398z"/>
			</g>
			<rect x="356.285" y="280.488" style="opacity:0.1;" width="11.826" height="6.275"/>
		</g>
		<g>
			<g>
				<path style="fill:#407BFF;" d="M289.443,338.398c0.171-1.366,1.353-0.92,1.353-1.532c0-0.778-0.565-1.453-2.495-1.794
					c0.895-0.815,1.463-2.003,1.463-3.331c0-1.328-0.568-2.516-1.463-3.331c1.93-0.341,2.495-1.016,2.495-1.794
					c0-0.612-1.182-0.166-1.353-1.532c-0.281-2.242,3.136-3.73,3.136-9.396c0-6.884-6.746-16.148-4.441-20.501
					c0.386-0.728,3.221,0,3.221,0v-14.699h-11.826v14.699c0,0,2.835-0.728,3.221,0c2.305,4.353-4.441,13.617-4.441,20.501
					c0,5.666,3.417,7.154,3.136,9.396c-0.171,1.366-1.353,0.92-1.353,1.532c0,0.778,0.565,1.453,2.495,1.794
					c-0.895,0.815-1.463,2.004-1.463,3.331c0,1.328,0.568,2.516,1.463,3.331c-1.93,0.341-2.495,1.016-2.495,1.794
					c0,0.612,1.182,0.166,1.353,1.532c0.281,2.242-3.136,3.73-3.136,9.396c0,6.884,6.746,16.148,4.441,20.501
					c-0.386,0.728-3.221,0-3.221,0v14.699h11.826v-14.699c0,0-2.836,0.728-3.221,0c-2.305-4.353,4.441-13.617,4.441-20.501
					C292.579,342.128,289.162,340.64,289.443,338.398z"/>
				<path style="opacity:0.5;fill:#FFFFFF;" d="M289.443,338.398c0.171-1.366,1.353-0.92,1.353-1.532
					c0-0.778-0.565-1.453-2.495-1.794c0.895-0.815,1.463-2.003,1.463-3.331c0-1.328-0.568-2.516-1.463-3.331
					c1.93-0.341,2.495-1.016,2.495-1.794c0-0.612-1.182-0.166-1.353-1.532c-0.281-2.242,3.136-3.73,3.136-9.396
					c0-6.884-6.746-16.148-4.441-20.501c0.386-0.728,3.221,0,3.221,0v-14.699h-11.826v14.699c0,0,2.835-0.728,3.221,0
					c2.305,4.353-4.441,13.617-4.441,20.501c0,5.666,3.417,7.154,3.136,9.396c-0.171,1.366-1.353,0.92-1.353,1.532
					c0,0.778,0.565,1.453,2.495,1.794c-0.895,0.815-1.463,2.004-1.463,3.331c0,1.328,0.568,2.516,1.463,3.331
					c-1.93,0.341-2.495,1.016-2.495,1.794c0,0.612,1.182,0.166,1.353,1.532c0.281,2.242-3.136,3.73-3.136,9.396
					c0,6.884,6.746,16.148,4.441,20.501c-0.386,0.728-3.221,0-3.221,0v14.699h11.826v-14.699c0,0-2.836,0.728-3.221,0
					c-2.305-4.353,4.441-13.617,4.441-20.501C292.579,342.128,289.162,340.64,289.443,338.398z"/>
			</g>
			<rect x="279.533" y="280.488" style="opacity:0.1;" width="11.826" height="6.275"/>
		</g>
		<g>
			<g>
				<path style="fill:#407BFF;" d="M214.101,338.398c0.171-1.366,1.353-0.92,1.353-1.532c0-0.778-0.565-1.453-2.495-1.794
					c0.895-0.815,1.463-2.003,1.463-3.331c0-1.328-0.568-2.516-1.463-3.331c1.93-0.341,2.495-1.016,2.495-1.794
					c0-0.612-1.182-0.166-1.353-1.532c-0.281-2.242,3.136-3.73,3.136-9.396c0-6.884-6.746-16.148-4.441-20.501
					c0.386-0.728,3.221,0,3.221,0v-14.699h-11.826v14.699c0,0,2.836-0.728,3.221,0c2.305,4.353-4.441,13.617-4.441,20.501
					c0,5.666,3.417,7.154,3.136,9.396c-0.171,1.366-1.353,0.92-1.353,1.532c0,0.778,0.565,1.453,2.495,1.794
					c-0.895,0.815-1.463,2.004-1.463,3.331c0,1.328,0.567,2.516,1.463,3.331c-1.93,0.341-2.495,1.016-2.495,1.794
					c0,0.612,1.182,0.166,1.353,1.532c0.281,2.242-3.136,3.73-3.136,9.396c0,6.884,6.746,16.148,4.441,20.501
					c-0.386,0.728-3.221,0-3.221,0v14.699h11.826v-14.699c0,0-2.836,0.728-3.221,0c-2.305-4.353,4.441-13.617,4.441-20.501
					C217.237,342.128,213.82,340.64,214.101,338.398z"/>
				<path style="opacity:0.5;fill:#FFFFFF;" d="M214.101,338.398c0.171-1.366,1.353-0.92,1.353-1.532
					c0-0.778-0.565-1.453-2.495-1.794c0.895-0.815,1.463-2.003,1.463-3.331c0-1.328-0.568-2.516-1.463-3.331
					c1.93-0.341,2.495-1.016,2.495-1.794c0-0.612-1.182-0.166-1.353-1.532c-0.281-2.242,3.136-3.73,3.136-9.396
					c0-6.884-6.746-16.148-4.441-20.501c0.386-0.728,3.221,0,3.221,0v-14.699h-11.826v14.699c0,0,2.836-0.728,3.221,0
					c2.305,4.353-4.441,13.617-4.441,20.501c0,5.666,3.417,7.154,3.136,9.396c-0.171,1.366-1.353,0.92-1.353,1.532
					c0,0.778,0.565,1.453,2.495,1.794c-0.895,0.815-1.463,2.004-1.463,3.331c0,1.328,0.567,2.516,1.463,3.331
					c-1.93,0.341-2.495,1.016-2.495,1.794c0,0.612,1.182,0.166,1.353,1.532c0.281,2.242-3.136,3.73-3.136,9.396
					c0,6.884,6.746,16.148,4.441,20.501c-0.386,0.728-3.221,0-3.221,0v14.699h11.826v-14.699c0,0-2.836,0.728-3.221,0
					c-2.305-4.353,4.441-13.617,4.441-20.501C217.237,342.128,213.82,340.64,214.101,338.398z"/>
			</g>
			<rect x="204.191" y="280.488" style="opacity:0.1;" width="11.826" height="6.275"/>
		</g>
		<g>
			<g>
				<path style="fill:#407BFF;" d="M137.244,338.398c0.171-1.366,1.353-0.92,1.353-1.532c0-0.778-0.565-1.453-2.495-1.794
					c0.895-0.815,1.463-2.003,1.463-3.331c0-1.328-0.568-2.516-1.463-3.331c1.93-0.341,2.495-1.016,2.495-1.794
					c0-0.612-1.182-0.166-1.353-1.532c-0.281-2.242,3.136-3.73,3.136-9.396c0-6.884-6.746-16.148-4.441-20.501
					c0.386-0.728,3.221,0,3.221,0v-14.699h-11.826v14.699c0,0,2.836-0.728,3.221,0c2.305,4.353-4.441,13.617-4.441,20.501
					c0,5.666,3.417,7.154,3.136,9.396c-0.171,1.366-1.353,0.92-1.353,1.532c0,0.778,0.565,1.453,2.495,1.794
					c-0.895,0.815-1.463,2.004-1.463,3.331c0,1.328,0.567,2.516,1.463,3.331c-1.93,0.341-2.495,1.016-2.495,1.794
					c0,0.612,1.182,0.166,1.353,1.532c0.281,2.242-3.136,3.73-3.136,9.396c0,6.884,6.746,16.148,4.441,20.501
					c-0.386,0.728-3.221,0-3.221,0v14.699h11.826v-14.699c0,0-2.836,0.728-3.221,0c-2.305-4.353,4.441-13.617,4.441-20.501
					C140.381,342.128,136.964,340.64,137.244,338.398z"/>
				<path style="opacity:0.5;fill:#FFFFFF;" d="M137.244,338.398c0.171-1.366,1.353-0.92,1.353-1.532
					c0-0.778-0.565-1.453-2.495-1.794c0.895-0.815,1.463-2.003,1.463-3.331c0-1.328-0.568-2.516-1.463-3.331
					c1.93-0.341,2.495-1.016,2.495-1.794c0-0.612-1.182-0.166-1.353-1.532c-0.281-2.242,3.136-3.73,3.136-9.396
					c0-6.884-6.746-16.148-4.441-20.501c0.386-0.728,3.221,0,3.221,0v-14.699h-11.826v14.699c0,0,2.836-0.728,3.221,0
					c2.305,4.353-4.441,13.617-4.441,20.501c0,5.666,3.417,7.154,3.136,9.396c-0.171,1.366-1.353,0.92-1.353,1.532
					c0,0.778,0.565,1.453,2.495,1.794c-0.895,0.815-1.463,2.004-1.463,3.331c0,1.328,0.567,2.516,1.463,3.331
					c-1.93,0.341-2.495,1.016-2.495,1.794c0,0.612,1.182,0.166,1.353,1.532c0.281,2.242-3.136,3.73-3.136,9.396
					c0,6.884,6.746,16.148,4.441,20.501c-0.386,0.728-3.221,0-3.221,0v14.699h11.826v-14.699c0,0-2.836,0.728-3.221,0
					c-2.305-4.353,4.441-13.617,4.441-20.501C140.381,342.128,136.964,340.64,137.244,338.398z"/>
			</g>
			<rect x="127.335" y="280.488" style="opacity:0.1;" width="11.826" height="6.275"/>
		</g>
	</g>
</g>
<g id="Character_2">
	<g>
		<g>
			<g>
				<polygon style="fill:#407BFF;" points="264.551,163.128 278.235,155.797 293.753,156.253 307.666,149.895 316.203,186.154 
					302.289,192.512 286.772,192.056 273.088,199.387 257.799,199.904 249.263,163.645 				"/>
				<path style="fill:#FFFFFF;" d="M255.027,188.128l18.334,1.818l0.438-11.082l12.784-7.038l13.603,3.947l-1.05,8.4l-8.269,8.003
					l1.395,0.041l7.018-6.792l6.746,5.378l2.039-0.932l-7.832-6.244l-0.026,0.033l0.958-7.661l10.005-11.213l-0.56-2.377
					l-10.14,11.364l-13.583-3.941l-0.574-6.9l2.163-6.833l-1.017-0.03l-1.829,5.822l-18.275,3.247l4.458,13.267l-0.37,9.342
					l-16.904-1.676L255.027,188.128z M269.993,166.7l15.405-2.737l0.496,5.958l-12.505,6.885L269.993,166.7z"/>
				<path style="fill:#407BFF;" d="M264.551,163.128l-15.288,0.517l8.537,36.259l15.288-0.517l13.684-7.331l15.518,0.456
					l13.913-6.358l-8.536-36.259l-13.913,6.358l-15.518-0.456L264.551,163.128z M251.769,165.562l13.316-0.45l13.625-7.299
					l15.45,0.454l12.118-5.538l7.602,32.288l-11.998,5.482l-15.585-0.458l-13.743,7.363l-13.184,0.446L251.769,165.562z"/>
				<path style="opacity:0.7;fill:#FFFFFF;" d="M264.551,163.128l-15.288,0.517l8.537,36.259l15.288-0.517l13.684-7.331
					l15.518,0.456l13.913-6.358l-8.536-36.259l-13.913,6.358l-15.518-0.456L264.551,163.128z M251.769,165.562l13.316-0.45
					l13.625-7.299l15.45,0.454l12.118-5.538l7.602,32.288l-11.998,5.482l-15.585-0.458l-13.743,7.363l-13.184,0.446L251.769,165.562
					z"/>
				<g>
					<path style="fill:#407BFF;" d="M272.01,168.628c0.388,1.646,2.724,5.587,4.37,5.199c1.646-0.388,1.979-4.957,1.592-6.603
						c-0.388-1.646-2.036-2.667-3.683-2.279C272.643,165.332,271.622,166.981,272.01,168.628z M273.835,168.198
						c-0.15-0.638,0.245-1.278,0.884-1.428s1.278,0.245,1.428,0.884c0.15,0.638-0.245,1.278-0.884,1.428
						C274.625,169.232,273.985,168.836,273.835,168.198z"/>
					<path style="opacity:0.5;" d="M272.01,168.628c0.388,1.646,2.724,5.587,4.37,5.199c1.646-0.388,1.979-4.957,1.592-6.603
						c-0.388-1.646-2.036-2.667-3.683-2.279C272.643,165.332,271.622,166.981,272.01,168.628z M273.835,168.198
						c-0.15-0.638,0.245-1.278,0.884-1.428s1.278,0.245,1.428,0.884c0.15,0.638-0.245,1.278-0.884,1.428
						C274.625,169.232,273.985,168.836,273.835,168.198z"/>
				</g>
			</g>
			<g>
				<polygon style="opacity:0.2;" points="302.289,192.512 316.203,186.154 307.666,149.895 293.753,156.253 				"/>
				<polygon style="opacity:0.2;" points="273.088,199.387 286.772,192.056 278.235,155.797 264.551,163.128 				"/>
			</g>
		</g>
		<path style="fill:#263238;" d="M322.513,327.622l-5.798-17.81l-14.402-73.574l27.895-2.723c0,0,9.216,46.064,7.577,75.34
			c0,0,2.085,3.772,4.932,12.836L322.513,327.622z"/>
		<path style="fill:#FF8B7B;" d="M325.096,327.622l24.702,75.878l7.93-1.99c-5.513-46.26-12.185-66.309-16.428-79.818
			L325.096,327.622z"/>
		<path style="opacity:0.5;" d="M309.469,272.795l3.193-15.594l3.22-6.868l3.378,6.868c0,0,0.522,24.241-4.465,42.799
			L309.469,272.795z"/>
		<path style="fill:#263238;" d="M284.832,324.873l-0.181-17.068l3.918-74.453l33.646,2.148c0,0-4.75,47.25-16.678,75.116
			c0,0-0.013,5.665-0.489,15.126L284.832,324.873z"/>
		<path style="fill:#FF8B7B;" d="M304.047,325.742c-0.886,17.594-2.376,48.318-9.371,80.165l-7.989-0.392l-0.856-80.643
			L304.047,325.742z"/>
		<g>
			<polygon style="fill:#263238;" points="343.215,318.508 319.465,325.75 321.59,330.875 344.84,324 			"/>
			<polygon style="opacity:0.5;fill:#FFFFFF;" points="343.215,318.508 319.465,325.75 321.59,330.875 344.84,324 			"/>
		</g>
		<g>
			<polygon style="fill:#263238;" points="307.227,323.02 283.215,321.125 283.215,327.097 306.09,328.625 			"/>
			<polygon style="opacity:0.5;fill:#FFFFFF;" points="307.227,323.02 283.215,321.125 283.215,327.097 306.09,328.625 			"/>
		</g>
		<g>
			<path style="fill:#263238;" d="M302.202,131.573c0,0-9.342-2.279-7.464-12.173c0,0,2.195,6.232,9.01,6.049L302.202,131.573z"/>
			<path style="opacity:0.5;" d="M302.202,131.573c0,0-9.342-2.279-7.464-12.173c0,0,2.195,6.232,9.01,6.049L302.202,131.573z"/>
		</g>
		<g>
			<polygon style="fill:#407BFF;" points="298.098,134.105 293.986,134.957 293.988,136.168 295.453,136.402 296.795,138.126 			"/>
			<polygon style="opacity:0.3;" points="298.098,134.105 293.986,134.957 293.988,136.168 295.453,136.402 296.795,138.126 			"/>
		</g>
		<path style="fill:#263238;" d="M297.479,135.467c-0.027-0.701-0.42-1.255-0.878-1.237c-0.458,0.018-0.807,0.6-0.78,1.301
			c0.027,0.701,0.42,1.254,0.878,1.237C297.157,136.75,297.506,136.168,297.479,135.467z"/>
		<path style="fill:#FF5652;" d="M296.956,136.715l-3.864,4.74c0,0,1.552,1.454,4.031,0.881L296.956,136.715z"/>
		<path style="fill:#FF8B7B;" d="M321.389,160.778c0,0-5.651-0.789-5.183-11.223c0,0-5.152-2.583-8.658,0.378
			c-3.506,2.961,2.689,10.4-1.636,13.278C305.911,163.211,309.522,165.837,321.389,160.778z"/>
		<path style="opacity:0.2;" d="M310.524,154.271c0,0-1.286,1.951-3.23,3.609c-0.249-1.364-0.639-2.781-0.801-4.086L310.524,154.271
			z"/>
		<path style="fill:#FF8B7B;" d="M321.675,135.247c-0.744,8.824-0.868,12.583-5.435,17.016c-6.926,4.462-17.561,3.831-19.467-5.046
			c-1.719-7.986-0.216-21.043,8.524-24.413c6.231-2.399,13.227,0.708,15.626,6.939C321.598,131.495,321.855,133.379,321.675,135.247
			z"/>
		<path style="fill:#263238;" d="M298.644,133.769c-0.137,0.002-0.267-0.061-0.35-0.17c-0.576-0.873-1.538-1.414-2.583-1.452
			c-0.223,0.005-0.41-0.169-0.419-0.392c-0.006-0.226,0.168-0.415,0.393-0.429c1.32,0.03,2.544,0.698,3.282,1.793
			c0.137,0.173,0.109,0.424-0.064,0.562c-0.005,0.004-0.011,0.008-0.016,0.012C298.818,133.747,298.732,133.774,298.644,133.769z"/>
		<path style="fill:#263238;" d="M316.206,152.421c0,0-1.607-0.774-3.356,0.56c0,0-1.027-5.211-5.561-10.114
			c0,0-3.789-1.882-6.271-12.634c0,0-9.407-5.856,2.05-13.451l-1.029,4.001c0,0,1.708-1.858,7.668-2.46c0,0-2.267,1.388-1.304,2.369
			c0,0,14.085-3.851,14.164,11.082C322.569,131.774,334.216,140.98,316.206,152.421z"/>
		<path style="fill:#263238;" d="M321.536,132.079c0,0,4.23-4.727,0.718-10.836C322.254,121.242,331.031,128.753,321.536,132.079z"
			/>
		<path style="fill:#407BFF;" d="M307.573,137.822l-13.587-2.865c0,0-0.275,5.62,0.715,5.629c0.99,0.009,1.365-3.908,1.365-3.908
			l10.069,1.893L307.573,137.822z"/>
		<path style="fill:#FF8B7B;" d="M305.848,137.679c-1.384,1.165-2.247,2.833-2.399,4.636c-0.183,2.393,2.079,3.143,4.096,2.105
			c1.828-0.939,4.102-3.313,3.337-5.542C310.116,136.649,307.557,136.273,305.848,137.679z"/>
		<path style="fill:#407BFF;" d="M322.215,161.875c0,0,1.75-3.625-9.375-3c-12.378,0.695-13.25,4.316-13.25,4.316L322.215,161.875z"
			/>
		<path style="fill:#407BFF;" d="M331.465,237.25c0,0-1.5-15.5,0-40s4-36.75-14.5-36.75s-24.75,1.75-27,12s-2.5,64.75-2.5,64.75
			H331.465z"/>
		<path style="opacity:0.7;fill:#FFFFFF;" d="M331.465,237.25c0,0-1.5-15.5,0-40s4-36.75-14.5-36.75s-24.75,1.75-27,12
			s-2.5,64.75-2.5,64.75H331.465z"/>
		<path style="fill:#FF8B7B;" d="M286.715,185.5c0,0-4.654,12.668-5.875,14.5c-1,1.5-2.176,2.928-14.5,0.25c0,0-2.875-6.375-6-5.625
			l-1.25,0.875c0,0-3.375-0.917-3.875,0.667c-0.5,1.583-0.75,8.083,1.625,8.708s7.125,1,7.125,1s13.375,5.75,19.25,4.625
			S296.09,191,296.09,191L286.715,185.5z"/>
		<path style="fill:#407BFF;" d="M282.733,186.035c1.015-5.203,2.98-13.738,5.545-17.535c4.504-6.667,9.781-6.008,11.993-3.667
			c5.679,6.01,0.202,20.581-2.91,27.527L282.733,186.035z"/>
		<path style="opacity:0.5;fill:#FFFFFF;" d="M282.733,186.035c1.015-5.203,2.98-13.738,5.545-17.535
			c4.504-6.667,9.781-6.008,11.993-3.667c5.679,6.01,0.202,20.581-2.91,27.527L282.733,186.035z"/>
		<polygon style="fill:#407BFF;" points="300.09,189.75 298.132,193.833 281.132,186.75 282.049,181.917 		"/>
		<g>
			<path style="fill:#407BFF;" d="M283.387,406.258c-0.98-0.043-1.985-0.267-2.292-0.703c-0.157-0.254-0.137-0.579,0.05-0.812
				c0.141-0.211,0.359-0.358,0.608-0.411c1.333-0.304,4.014,1.388,4.132,1.464c0.066,0.042,0.099,0.122,0.082,0.198
				c-0.019,0.076-0.081,0.134-0.158,0.147C285.007,406.251,284.197,406.29,283.387,406.258z M282.201,404.669
				c-0.121-0.008-0.242,0.003-0.359,0.031c-0.157,0.02-0.296,0.11-0.378,0.245c-0.149,0.226-0.105,0.341-0.055,0.407
				c0.343,0.529,2.331,0.63,3.806,0.513C284.295,405.279,283.272,404.874,282.201,404.669z"/>
			<path style="fill:#407BFF;" d="M285.78,406.137c-0.026,0.006-0.054,0.003-0.078-0.01c-0.924-0.46-2.744-2.253-2.536-3.132
				c0.029-0.213,0.201-0.466,0.717-0.495c0.377-0.023,0.748,0.109,1.026,0.365c0.968,0.87,1.084,3.006,1.091,3.105
				c0.002,0.068-0.033,0.131-0.091,0.165C285.868,406.151,285.822,406.152,285.78,406.137z M283.993,402.859l-0.107-0.014
				c-0.337,0.014-0.365,0.148-0.381,0.195c-0.072,0.533,1.111,1.925,2.063,2.546c-0.054-0.898-0.382-1.758-0.94-2.464
				C284.456,402.96,284.23,402.867,283.993,402.859L283.993,402.859z"/>
			<path style="fill:#263238;" d="M286.663,405.073l8.607,0.38c0.324,0.014,0.596,0.251,0.653,0.571l1.247,7.071
				c0.115,0.626-0.299,1.228-0.926,1.343c-0.08,0.015-0.162,0.021-0.244,0.018c-3.1-0.191-5.852-0.482-9.715-0.648
				c-4.559-0.2-3.426,0.397-8.788,0.236c-3.231-0.1-3.66-3.796-2.283-3.917c6.301-0.512,7.035-2.376,9.552-4.512
				C285.31,405.208,285.986,405.015,286.663,405.073z"/>
		</g>
		<g>
			<path style="fill:#407BFF;" d="M347.151,405.122c-0.947,0.255-1.973,0.345-2.397,0.023c-0.227-0.195-0.306-0.511-0.198-0.789
				c0.071-0.244,0.234-0.45,0.455-0.576c1.178-0.693,4.246,0.11,4.381,0.146c0.076,0.02,0.132,0.086,0.138,0.164
				c0.005,0.078-0.036,0.152-0.106,0.187C348.693,404.625,347.932,404.908,347.151,405.122z M345.54,403.966
				c-0.117,0.029-0.229,0.076-0.333,0.138c-0.144,0.066-0.249,0.194-0.286,0.348c-0.073,0.261,0.003,0.357,0.071,0.404
				c0.487,0.401,2.413-0.105,3.783-0.662C347.72,403.914,346.623,403.837,345.54,403.966z"/>
			<path style="fill:#407BFF;" d="M349.395,404.283c-0.023,0.014-0.051,0.019-0.077,0.014c-1.02-0.159-3.297-1.318-3.365-2.219
				c-0.037-0.212,0.051-0.505,0.534-0.689c0.353-0.136,0.745-0.122,1.088,0.038c1.185,0.536,1.942,2.537,1.978,2.63
				c0.022,0.064,0.008,0.135-0.037,0.185C349.483,404.27,349.439,404.285,349.395,404.283z M346.701,401.699l-0.106,0.018
				c-0.317,0.115-0.303,0.251-0.304,0.301c0.093,0.53,1.641,1.499,2.736,1.803c-0.323-0.84-0.896-1.56-1.641-2.064
				C347.172,401.656,346.928,401.635,346.701,401.699L346.701,401.699z"/>
			<path style="fill:#263238;" d="M349.915,403.001l8.319-2.24c0.313-0.085,0.644,0.059,0.795,0.347l3.326,6.363
				c0.299,0.562,0.086,1.261-0.476,1.56c-0.072,0.038-0.148,0.069-0.227,0.091c-3.013,0.755-5.724,1.309-9.456,2.32
				c-4.405,1.188-3.146,1.414-8.306,2.883c-3.11,0.882-4.637-2.512-3.36-3.043c5.851-2.393,5.988-4.392,7.74-7.189
				C348.666,403.54,349.252,403.151,349.915,403.001z"/>
		</g>
		<path style="fill:#407BFF;" d="M311.13,168.158c0,0-5.719-7.864-11.929-7.106c-0.214,0.026-0.425,0.087-0.627,0.166l-2.387,0.935
			c-0.418,0.164-0.339,0.78,0.108,0.821c2.664,0.248,6.749,1.738,8.168,8.27L311.13,168.158z"/>
		<path style="fill:#407BFF;" d="M287.842,208.68c1.02,2.537,4.908,10.424,14.35,12.149c0.312,0.057,0.556,0.305,0.592,0.621
			l0.664,5.819c0.034,0.295-0.262,0.515-0.533,0.395c-2.924-1.297-15.422-7.295-15.781-15.208c-0.008-0.183,0.002-0.368,0.02-0.55
			l0.314-3.167C287.488,208.535,287.766,208.491,287.842,208.68z"/>
		<g>
			<g>
				<path style="fill:#263238;" d="M310.815,237.785c9.295,1.015,13.887,1.22,23.052,1.018c-1.313-23.973-1.478-47.736-0.496-71.718
					c-9.35,0.016-14.028-0.01-23.358-0.128c-3.975-0.05-7.591,3.043-7.964,6.938c-1.301,18.882-1.094,37.086,0.64,55.934
					C303.151,233.715,306.854,237.352,310.815,237.785z"/>
				<path style="opacity:0.1;fill:#FFFFFF;" d="M310.815,237.785c9.295,1.015,13.887,1.22,23.052,1.018
					c-1.313-23.973-1.478-47.736-0.496-71.718c-9.35,0.016-14.028-0.01-23.358-0.128c-3.975-0.05-7.591,3.043-7.964,6.938
					c-1.301,18.882-1.094,37.086,0.64,55.934C303.151,233.715,306.854,237.352,310.815,237.785z"/>
			</g>
			<g>
				<path style="fill:#263238;" d="M310.65,234.012c9.039,0.915,13.517,1.105,22.456,0.941c-1.085-21.383-1.235-42.611-0.453-64.003
					c-9.096,0.019-13.647-0.016-22.718-0.176c-2.004-0.035-3.79,1.519-3.962,3.481c-1.185,18.81-0.976,37.034,0.64,55.812
					C306.831,232.026,308.653,233.81,310.65,234.012z"/>
				<path style="opacity:0.2;fill:#FFFFFF;" d="M310.65,234.012c9.039,0.915,13.517,1.105,22.456,0.941
					c-1.085-21.383-1.235-42.611-0.453-64.003c-9.096,0.019-13.647-0.016-22.718-0.176c-2.004-0.035-3.79,1.519-3.962,3.481
					c-1.185,18.81-0.976,37.034,0.64,55.812C306.831,232.026,308.653,233.81,310.65,234.012z"/>
			</g>
			<g>
				<path style="fill:#407BFF;" d="M327.606,168.766c0.08-1.271,0.254-2.564,0.257-3.831c0.008-2.71-2.185-3.515-4.925-3.517
					c-2.673-0.002-5.062,0.72-5.537,3.409c-0.228,1.292-0.248,2.62-0.359,3.917c-0.141,1.634-3.127,1.618-2.975-0.017
					c0.186-2.007,0.049-4.373,1.186-6.258c1.678-2.784,4.736-3.59,7.93-3.59c3.133,0.001,5.939,0.758,7.185,3.453
					c0.887,1.917,0.332,4.375,0.216,6.431C330.491,170.398,327.503,170.406,327.606,168.766L327.606,168.766z"/>
			</g>
			<g>
				<path style="fill:#263238;" d="M312.398,198.145c11.428,0.486,23.126,0.402,34.546-0.2c4.482-0.236,8.168,2.977,8.17,7.228
					c0.003,9.577,0.007,14.365,0.019,23.942c0.005,4.251-3.499,8.265-7.718,8.737c-10.6,1.187-22.097,1.353-32.726,0.407
					c-4.27-0.38-8.336-4.298-8.802-8.572c-1.048-9.63-1.366-14.467-1.59-24.141C304.197,201.252,307.914,197.954,312.398,198.145z"
					/>
				<path style="opacity:0.2;fill:#FFFFFF;" d="M312.398,198.145c11.428,0.486,23.126,0.402,34.546-0.2
					c4.482-0.236,8.168,2.977,8.17,7.228c0.003,9.577,0.007,14.365,0.019,23.942c0.005,4.251-3.499,8.265-7.718,8.737
					c-10.6,1.187-22.097,1.353-32.726,0.407c-4.27-0.38-8.336-4.298-8.802-8.572c-1.048-9.63-1.366-14.467-1.59-24.141
					C304.197,201.252,307.914,197.954,312.398,198.145z"/>
			</g>
			<g>
				<g>
					<polygon style="fill:#263238;" points="312.398,198.145 312.398,198.145 312.398,198.145 					"/>
					<polygon style="fill:#263238;" points="307.723,199.357 307.723,199.357 307.723,199.357 					"/>
					<path style="fill:#263238;" d="M320.65,206.307c-0.077-4.36-8.252-8.162-8.252-8.162c11.513,0.173,23.11,0.305,34.546-0.2
						c4.469-0.197,8.168,2.977,8.17,7.228c0,2.617,0.001,3.925,0.002,6.542c0.002,2.986-2.542,5.717-5.656,5.991
						c-9.073,0.797-13.619,0.989-22.725,0.957c-3.126-0.011-5.808-2.587-5.912-5.647
						C320.732,210.333,320.697,208.991,320.65,206.307z"/>
					<path style="fill:#263238;" d="M311.25,198.186c-0.096,0.01-0.144,0.015-0.241,0.025
						C311.106,198.201,311.154,198.196,311.25,198.186z"/>
					<path style="fill:#263238;" d="M308.837,198.787c-0.045,0.019-0.067,0.028-0.112,0.047
						C308.77,198.815,308.792,198.806,308.837,198.787z"/>
					<path style="fill:#263238;" d="M309.912,198.416c-0.008,0.003-0.012,0.004-0.021,0.006
						C309.899,198.42,309.904,198.419,309.912,198.416z"/>
				</g>
				<g style="opacity:0.1;">
					<polygon style="fill:#FFFFFF;" points="312.398,198.145 312.398,198.145 312.398,198.145 					"/>
					<polygon style="fill:#FFFFFF;" points="307.723,199.357 307.723,199.357 307.723,199.357 					"/>
					<path style="fill:#FFFFFF;" d="M320.65,206.307c-0.077-4.36-8.252-8.162-8.252-8.162c11.513,0.173,23.11,0.305,34.546-0.2
						c4.469-0.197,8.168,2.977,8.17,7.228c0,2.617,0.001,3.925,0.002,6.542c0.002,2.986-2.542,5.717-5.656,5.991
						c-9.073,0.797-13.619,0.989-22.725,0.957c-3.126-0.011-5.808-2.587-5.912-5.647
						C320.732,210.333,320.697,208.991,320.65,206.307z"/>
					<path style="fill:#FFFFFF;" d="M311.25,198.186c-0.096,0.01-0.144,0.015-0.241,0.025
						C311.106,198.201,311.154,198.196,311.25,198.186z"/>
					<path style="fill:#FFFFFF;" d="M308.837,198.787c-0.045,0.019-0.067,0.028-0.112,0.047
						C308.77,198.815,308.792,198.806,308.837,198.787z"/>
					<path style="fill:#FFFFFF;" d="M309.912,198.416c-0.008,0.003-0.012,0.004-0.021,0.006
						C309.899,198.42,309.904,198.419,309.912,198.416z"/>
				</g>
			</g>
			<path style="fill:#407BFF;" d="M348.433,217.794c0.045,4.507,0.074,6.759,0.144,11.264c0.014,0.921-0.732,1.754-1.66,1.842
				c-0.928,0.089-1.705-0.603-1.727-1.527c-0.105-4.524-0.148-6.787-0.214-11.313C346.359,217.963,347.051,217.91,348.433,217.794z"
				/>
			<path style="fill:#407BFF;" d="M331.757,218.63c0.151,4.57,0.249,6.854,0.486,11.417c0.049,0.933-0.67,1.712-1.601,1.723
				c-0.93,0.011-1.74-0.751-1.796-1.684c-0.272-4.565-0.383-6.85-0.556-11.423C329.678,218.66,330.371,218.653,331.757,218.63z"/>
			<path style="fill:#263238;" d="M314.062,167.013c2.481,0.023,23.403,0.056,25.887,0.04c3.376-0.021,6.077,2.689,6.02,6.038
				c-0.13,7.546-0.171,11.32-0.203,18.871c-0.014,3.351-2.873,6.235-6.372,6.344c-1.048,0.033-25.797-0.062-26.845-0.103
				c-3.496-0.136-6.349-3.038-6.268-6.383c0.182-7.536,0.394-11.304,1.056-18.818C307.63,169.667,310.69,166.981,314.062,167.013z"
				/>
			<path style="opacity:0.2;fill:#FFFFFF;" d="M314.062,167.013c2.481,0.023,23.403,0.056,25.887,0.04
				c3.376-0.021,6.077,2.689,6.02,6.038c-0.13,7.546-0.171,11.32-0.203,18.871c-0.014,3.351-2.873,6.235-6.372,6.344
				c-1.048,0.033-25.797-0.062-26.845-0.103c-3.496-0.136-6.349-3.038-6.268-6.383c0.182-7.536,0.394-11.304,1.056-18.818
				C307.63,169.667,310.69,166.981,314.062,167.013z"/>
			<g>
				<g>
					<polygon style="fill:#263238;" points="314.062,167.013 314.062,167.013 314.061,167.013 					"/>
					<polygon style="fill:#263238;" points="310.448,168.079 310.448,168.079 310.448,168.079 					"/>
					<path style="fill:#263238;" d="M319.747,173.196c0.22-3.377-5.685-6.183-5.685-6.183s23.403,0.056,25.887,0.04
						c3.376-0.021,6.077,2.689,6.02,6.038c-0.035,2.062-0.052,3.093-0.08,5.155c-0.032,2.353-2.043,4.337-4.478,4.389
						c-7.093,0.152-10.647,0.177-17.741,0.126c-2.435-0.018-4.349-1.991-4.226-4.365
						C319.55,176.316,319.611,175.275,319.747,173.196z"/>
					<path style="fill:#263238;" d="M313.196,167.072c-0.073,0.01-0.11,0.015-0.183,0.026
						C313.086,167.088,313.122,167.083,313.196,167.072z"/>
					<path style="fill:#263238;" d="M311.332,167.604c-0.035,0.016-0.053,0.024-0.088,0.039
						C311.279,167.627,311.297,167.62,311.332,167.604z"/>
					<path style="fill:#263238;" d="M312.171,167.286c-0.007,0.002-0.01,0.003-0.016,0.006
						C312.161,167.289,312.164,167.288,312.171,167.286z"/>
				</g>
				<g style="opacity:0.1;">
					<polygon style="fill:#FFFFFF;" points="314.062,167.013 314.062,167.013 314.061,167.013 					"/>
					<polygon style="fill:#FFFFFF;" points="310.448,168.079 310.448,168.079 310.448,168.079 					"/>
					<path style="fill:#FFFFFF;" d="M319.747,173.196c0.22-3.377-5.685-6.183-5.685-6.183s23.403,0.056,25.887,0.04
						c3.376-0.021,6.077,2.689,6.02,6.038c-0.035,2.062-0.052,3.093-0.08,5.155c-0.032,2.353-2.043,4.337-4.478,4.389
						c-7.093,0.152-10.647,0.177-17.741,0.126c-2.435-0.018-4.349-1.991-4.226-4.365
						C319.55,176.316,319.611,175.275,319.747,173.196z"/>
					<path style="fill:#FFFFFF;" d="M313.196,167.072c-0.073,0.01-0.11,0.015-0.183,0.026
						C313.086,167.088,313.122,167.083,313.196,167.072z"/>
					<path style="fill:#FFFFFF;" d="M311.332,167.604c-0.035,0.016-0.053,0.024-0.088,0.039
						C311.279,167.627,311.297,167.62,311.332,167.604z"/>
					<path style="fill:#FFFFFF;" d="M312.171,167.286c-0.007,0.002-0.01,0.003-0.016,0.006
						C312.161,167.289,312.164,167.288,312.171,167.286z"/>
				</g>
			</g>
			<path style="fill:#407BFF;" d="M340.608,182.653c-0.059,3.533-0.08,5.3-0.106,8.834c-0.005,0.722-0.621,1.331-1.37,1.35
				c-0.749,0.019-1.358-0.559-1.351-1.283c0.03-3.542,0.055-5.312,0.125-8.853C338.987,182.684,339.527,182.675,340.608,182.653z"/>
			<path style="fill:#407BFF;" d="M327.584,182.778c-0.112,3.554-0.152,5.331-0.202,8.887c-0.01,0.727-0.63,1.321-1.379,1.318
				c-0.749-0.003-1.355-0.602-1.344-1.328c0.055-3.555,0.099-5.333,0.222-8.886C325.962,182.775,326.503,182.777,327.584,182.778z"
				/>
			<g>
				<path style="fill:#407BFF;" d="M345.045,222.261c0.016,0.93,0.025,1.396,0.044,2.326c0.009,0.457,0.393,0.798,0.857,0.76
					c0.693-0.058,1.04-0.088,1.733-0.151c0.465-0.042,0.836-0.447,0.829-0.902c-0.012-0.926-0.018-1.39-0.029-2.316
					c-0.005-0.455,0.369-0.858,0.837-0.901c0.058-0.005,0.088-0.008,0.146-0.014c0.467-0.044,0.85,0.288,0.854,0.742
					c0.015,1.643,0.023,2.464,0.04,4.107c0.005,0.454-0.366,0.862-0.829,0.91c-2.146,0.22-3.219,0.316-5.366,0.481
					c-0.463,0.036-0.847-0.309-0.859-0.767c-0.041-1.658-0.06-2.486-0.095-4.144c-0.009-0.458,0.362-0.855,0.83-0.887
					c0.058-0.004,0.088-0.006,0.146-0.01C344.651,221.461,345.037,221.804,345.045,222.261z"/>
				<path style="opacity:0.7;fill:#FFFFFF;" d="M345.045,222.261c0.016,0.93,0.025,1.396,0.044,2.326
					c0.009,0.457,0.393,0.798,0.857,0.76c0.693-0.058,1.04-0.088,1.733-0.151c0.465-0.042,0.836-0.447,0.829-0.902
					c-0.012-0.926-0.018-1.39-0.029-2.316c-0.005-0.455,0.369-0.858,0.837-0.901c0.058-0.005,0.088-0.008,0.146-0.014
					c0.467-0.044,0.85,0.288,0.854,0.742c0.015,1.643,0.023,2.464,0.04,4.107c0.005,0.454-0.366,0.862-0.829,0.91
					c-2.146,0.22-3.219,0.316-5.366,0.481c-0.463,0.036-0.847-0.309-0.859-0.767c-0.041-1.658-0.06-2.486-0.095-4.144
					c-0.009-0.458,0.362-0.855,0.83-0.887c0.058-0.004,0.088-0.006,0.146-0.01C344.651,221.461,345.037,221.804,345.045,222.261z"/>
			</g>
			<g>
				<path style="fill:#407BFF;" d="M328.468,222.907c0.043,0.94,0.066,1.409,0.113,2.349c0.023,0.462,0.42,0.835,0.886,0.832
					c0.695-0.005,1.043-0.009,1.739-0.019c0.466-0.007,0.826-0.388,0.805-0.85c-0.041-0.939-0.061-1.408-0.099-2.348
					c-0.019-0.462,0.347-0.842,0.816-0.852c0.058-0.001,0.088-0.002,0.146-0.003c0.469-0.01,0.862,0.354,0.879,0.815
					c0.062,1.669,0.096,2.503,0.168,4.171c0.02,0.461-0.339,0.846-0.803,0.857c-2.151,0.052-3.228,0.064-5.382,0.06
					c-0.464-0.001-0.863-0.377-0.889-0.839c-0.096-1.67-0.14-2.505-0.222-4.175c-0.023-0.462,0.34-0.834,0.809-0.833
					c0.059,0,0.088,0,0.146,0C328.05,222.072,328.447,222.445,328.468,222.907z"/>
				<path style="opacity:0.7;fill:#FFFFFF;" d="M328.468,222.907c0.043,0.94,0.066,1.409,0.113,2.349
					c0.023,0.462,0.42,0.835,0.886,0.832c0.695-0.005,1.043-0.009,1.739-0.019c0.466-0.007,0.826-0.388,0.805-0.85
					c-0.041-0.939-0.061-1.408-0.099-2.348c-0.019-0.462,0.347-0.842,0.816-0.852c0.058-0.001,0.088-0.002,0.146-0.003
					c0.469-0.01,0.862,0.354,0.879,0.815c0.062,1.669,0.096,2.503,0.168,4.171c0.02,0.461-0.339,0.846-0.803,0.857
					c-2.151,0.052-3.228,0.064-5.382,0.06c-0.464-0.001-0.863-0.377-0.889-0.839c-0.096-1.67-0.14-2.505-0.222-4.175
					c-0.023-0.462,0.34-0.834,0.809-0.833c0.059,0,0.088,0,0.146,0C328.05,222.072,328.447,222.445,328.468,222.907z"/>
			</g>
			<g>
				<path style="fill:#407BFF;" d="M337.848,185.988c-0.011,0.728-0.016,1.092-0.026,1.82c-0.005,0.358,0.291,0.642,0.66,0.634
					c0.551-0.012,0.828-0.018,1.379-0.031c0.369-0.009,0.672-0.306,0.676-0.663c0.008-0.727,0.012-1.09,0.022-1.816
					c0.005-0.357,0.307-0.653,0.676-0.662c0.046-0.001,0.069-0.002,0.115-0.003c0.368-0.009,0.663,0.273,0.659,0.629
					c-0.015,1.29-0.022,1.935-0.033,3.225c-0.003,0.357-0.305,0.654-0.675,0.665c-1.714,0.048-2.572,0.068-4.288,0.101
					c-0.37,0.007-0.666-0.278-0.662-0.636c0.016-1.296,0.026-1.944,0.047-3.24c0.006-0.358,0.31-0.653,0.678-0.659
					c0.046-0.001,0.069-0.001,0.115-0.002C337.559,185.346,337.853,185.63,337.848,185.988z"/>
				<path style="opacity:0.7;fill:#FFFFFF;" d="M337.848,185.988c-0.011,0.728-0.016,1.092-0.026,1.82
					c-0.005,0.358,0.291,0.642,0.66,0.634c0.551-0.012,0.828-0.018,1.379-0.031c0.369-0.009,0.672-0.306,0.676-0.663
					c0.008-0.727,0.012-1.09,0.022-1.816c0.005-0.357,0.307-0.653,0.676-0.662c0.046-0.001,0.069-0.002,0.115-0.003
					c0.368-0.009,0.663,0.273,0.659,0.629c-0.015,1.29-0.022,1.935-0.033,3.225c-0.003,0.357-0.305,0.654-0.675,0.665
					c-1.714,0.048-2.572,0.068-4.288,0.101c-0.37,0.007-0.666-0.278-0.662-0.636c0.016-1.296,0.026-1.944,0.047-3.24
					c0.006-0.358,0.31-0.653,0.678-0.659c0.046-0.001,0.069-0.001,0.115-0.002C337.559,185.346,337.853,185.63,337.848,185.988z"/>
			</g>
			<g>
				<path style="fill:#407BFF;" d="M324.779,186.068c-0.02,0.731-0.029,1.096-0.046,1.827c-0.009,0.359,0.285,0.652,0.654,0.654
					c0.552,0.003,0.828,0.004,1.379,0.005c0.37,0.001,0.675-0.29,0.683-0.65c0.015-0.731,0.024-1.096,0.042-1.827
					c0.009-0.359,0.316-0.65,0.684-0.65c0.046,0,0.069,0,0.115,0c0.368,0,0.66,0.29,0.651,0.649
					c-0.03,1.299-0.044,1.949-0.067,3.249c-0.006,0.359-0.311,0.651-0.681,0.652c-1.716,0.002-2.574-0.001-4.29-0.015
					c-0.37-0.003-0.664-0.297-0.656-0.656c0.028-1.299,0.044-1.949,0.082-3.248c0.01-0.359,0.318-0.647,0.686-0.645
					c0.046,0,0.069,0.001,0.115,0.001C324.498,185.416,324.789,185.709,324.779,186.068z"/>
				<path style="opacity:0.7;fill:#FFFFFF;" d="M324.779,186.068c-0.02,0.731-0.029,1.096-0.046,1.827
					c-0.009,0.359,0.285,0.652,0.654,0.654c0.552,0.003,0.828,0.004,1.379,0.005c0.37,0.001,0.675-0.29,0.683-0.65
					c0.015-0.731,0.024-1.096,0.042-1.827c0.009-0.359,0.316-0.65,0.684-0.65c0.046,0,0.069,0,0.115,0
					c0.368,0,0.66,0.29,0.651,0.649c-0.03,1.299-0.044,1.949-0.067,3.249c-0.006,0.359-0.311,0.651-0.681,0.652
					c-1.716,0.002-2.574-0.001-4.29-0.015c-0.37-0.003-0.664-0.297-0.656-0.656c0.028-1.299,0.044-1.949,0.082-3.248
					c0.01-0.359,0.318-0.647,0.686-0.645c0.046,0,0.069,0.001,0.115,0.001C324.498,185.416,324.789,185.709,324.779,186.068z"/>
			</g>
			<path style="fill:#263238;" d="M314.689,238.259L314.689,238.259c4.304,0.351,7.455-3.084,7.12-7.429
				c-0.753-9.789-0.986-14.701-1.159-24.523c-0.077-4.36-3.751-7.985-8.252-8.162l0,0c-4.5-0.176-8.201,3.107-8.101,7.401
				c0.224,9.674,0.543,14.512,1.59,24.141C306.352,233.962,310.385,237.908,314.689,238.259z"/>
			<path style="fill:#263238;" d="M312.548,198.203L312.548,198.203c3.496,0.136,6.36-2.576,6.417-5.961
				c0.129-7.626,0.286-11.438,0.782-19.047c0.22-3.377-2.314-6.151-5.685-6.183l0,0c-3.372-0.032-6.431,2.654-6.725,5.989
				c-0.662,7.514-0.874,11.281-1.056,18.818C306.199,195.166,309.052,198.068,312.548,198.203z"/>
		</g>
	</g>
</g>
<g id="Character_1">
	<g>
		<g>
			<path style="fill:#FFC3BD;" d="M208.377,166.553l-2.97-5l0.804-5.833l-2.229-8.333l-4.104,1v9.167c0,0,0,5.833,1.167,7
				c1.167,1.167,4.363,6,4.363,6L208.377,166.553z"/>
			<path style="fill:#407BFF;" d="M191.221,179.889c0,0,10.104,2.825,20.156,6.998c1.01,0.419,3.167,0.333,3.167,0.333
				s-8.5-12.667-11.667-18.333l5.833-4.333c0,0,20,21.167,15.333,29.833c-4.667,8.667-31.833-5-31.833-5
				S179.066,178.557,191.221,179.889z"/>
			<path style="opacity:0.1;" d="M210.14,196.202c-5.776-1.436-11.828-3.989-15.215-5.531l-0.798-3.117l4.083-2.602
				C198.21,184.951,204.168,193.352,210.14,196.202z"/>
		</g>
		<g>
			<path style="fill:#407BFF;" d="M163.682,148.154c1.84,7.022,9.616,11.067,17.368,9.035c7.752-2.032,12.544-9.371,10.704-16.393
				c-1.84-7.022-9.616-11.067-17.368-9.035C166.634,133.793,161.842,141.133,163.682,148.154z"/>
			<g>
				
					<ellipse transform="matrix(0.9247 -0.3807 0.3807 0.9247 -42.6649 79.0828)" style="fill:#407BFF;" cx="178.568" cy="147.387" rx="28.333" ry="14.007"/>
				
					<ellipse transform="matrix(0.9247 -0.3807 0.3807 0.9247 -42.6649 79.0828)" style="opacity:0.3;" cx="178.568" cy="147.387" rx="28.333" ry="14.007"/>
			</g>
		</g>
		<path style="fill:#263238;" d="M163.106,162.329c-0.401-2.949,0.302-7.721,3.284-10.592c0.118-1.221,0.288-2.314,0.501-3.305
			c7.906-6.663,16.486-8.033,21.699-8.144c0.758,0.275,1.75,0.535,3.186,0.734c4.91,0.678,4.523,5.528,3.396,8.864
			c-0.983-3.616-2.219-4.136-2.219-4.136c0.952,1.831,1.509,12.748,5.576,18.346c2.483,3.418-0.207,7.373-3.883,9.793
			c0.65-2.942-0.173-5.972-0.173-5.972c0.167,3.676-1.467,6.587-3.01,7.583c-1.26,0.814-2.798,0.744-3.967,0.603
			c-4.84-0.584-8.59,0.691-15.139-0.1c-1.95-0.236-4.817-3.354-5.258-7.07c0,0-2.071,4.5,1.555,6.902
			c-6.163,1.055-6.961-3.35-5.847-8.355C164.016,162.048,163.507,165.278,163.106,162.329z"/>
		<path style="fill:#FFC3BD;" d="M196.883,309.315c2.141,6.771,3.661,11.489,3.661,11.489c0,22.75,11.75,85.75,11.75,85.75l8.5-1
			c0,0-3.5-55.5-5-84.167c-0.248-4.741-0.811-10.312-1.577-16.308L196.883,309.315z"/>
		<path style="fill:#407BFF;" d="M215.217,305.079c-3.867-30.26-12.923-71.359-12.923-71.359l-21.75-2.917c0,0-0.5,22,2,33.5
			c1.691,7.776,8.868,30.871,13.339,45.011L215.217,305.079z"/>
		<path style="opacity:0.7;fill:#FFFFFF;" d="M215.217,305.079c-3.867-30.26-12.923-71.359-12.923-71.359l-21.75-2.917
			c0,0-0.5,22,2,33.5c1.691,7.776,8.868,30.871,13.339,45.011L215.217,305.079z"/>
		<path style="opacity:0.1;" d="M185.419,258.678l5.125-5.375c0,0,6.651,28.204,2.926,48.339
			c-3.166-10.122-6.842-22.107-9.117-30.301L185.419,258.678z"/>
		<path style="fill:#FFC3BD;" d="M187.699,309.315c-0.226,2.959-0.446,5.578-0.655,7.739c-2,20.667-13.333,92-13.333,92l-8.667-1
			c0,0,2.667-71.333,5.667-88.333c0,0-0.49-4.737-1.057-12.031L187.699,309.315z"/>
		<path style="fill:#407BFF;" d="M188.699,309.315c1.939-25.345,4.345-75.595,4.345-75.595h-22.641
			c-6.571,12.133-4.354,53.308-2.749,73.969L188.699,309.315z"/>
		<path style="opacity:0.7;fill:#FFFFFF;" d="M188.699,309.315c1.939-25.345,4.345-75.595,4.345-75.595h-22.641
			c-6.571,12.133-4.354,53.308-2.749,73.969L188.699,309.315z"/>
		<polygon style="fill:#407BFF;" points="216.544,300.553 193.044,306.053 195.044,312.053 217.544,307.053 		"/>
		<polygon style="fill:#407BFF;" points="191.21,306.303 190.544,312.72 165.959,310.387 165.21,303.72 		"/>
		<path style="fill:#407BFF;" d="M162.794,184.803c0.826-2.477,3.508-3.875,6.95-4.642c3.696,3.484,13.251,11.921,17.98,10.776
			c4.509-1.092,3.042-8.02,2.075-11.291c7.173,0.847,11.811,8.188,13.245,19.657c1.5,12,0.75,37,0.75,37h-35.5
			C168.044,216.053,160.544,191.553,162.794,184.803z"/>
		<g>
			<path style="fill:#407BFF;" d="M221.512,406.099c-0.077-0.013-0.139-0.071-0.157-0.147c-0.017-0.077,0.016-0.156,0.083-0.198
				c0.118-0.074,2.806-1.756,4.138-1.447c0.248,0.054,0.465,0.202,0.606,0.414c0.186,0.233,0.205,0.559,0.047,0.812
				c-0.308,0.434-1.314,0.655-2.294,0.694C223.124,406.254,222.313,406.212,221.512,406.099z M222.106,405.824
				c1.475,0.123,3.463,0.03,3.809-0.498c0.05-0.066,0.095-0.18-0.053-0.407c-0.081-0.135-0.22-0.226-0.377-0.246
				c-0.118-0.028-0.238-0.039-0.359-0.032C224.053,404.841,223.029,405.243,222.106,405.824z"/>
			<path style="fill:#407BFF;" d="M221.412,406.092c-0.058-0.035-0.093-0.098-0.09-0.166c0.007-0.099,0.132-2.235,1.103-3.101
				c0.279-0.255,0.65-0.386,1.027-0.361c0.517,0.031,0.688,0.284,0.716,0.498c0.204,0.88-1.623,2.666-2.549,3.122
				c-0.024,0.013-0.051,0.016-0.078,0.01C221.499,406.11,221.453,406.109,221.412,406.092z M223.341,402.824
				c-0.237,0.007-0.463,0.1-0.636,0.261c-0.561,0.703-0.893,1.562-0.95,2.46c0.954-0.617,2.143-2.005,2.073-2.538
				c-0.016-0.047-0.043-0.182-0.38-0.197L223.341,402.824L223.341,402.824z"/>
			<path style="fill:#263238;" d="M220.662,405.027l-8.608,0.346c-0.324,0.013-0.597,0.249-0.655,0.569l-1.275,7.066
				c-0.118,0.626,0.295,1.229,0.92,1.346c0.08,0.015,0.162,0.022,0.244,0.02c3.101-0.179,5.853-0.46,9.717-0.61
				c4.559-0.182,3.424,0.41,8.787,0.271c3.231-0.087,3.675-3.782,2.298-3.908c-6.299-0.537-7.026-2.403-9.534-4.549
				C222.014,405.168,221.34,404.972,220.662,405.027z"/>
		</g>
		<g>
			<path style="fill:#407BFF;" d="M174.255,407.033c-0.075-0.021-0.131-0.085-0.141-0.163c-0.009-0.078,0.032-0.154,0.103-0.188
				c0.125-0.062,2.975-1.452,4.267-1.005c0.241,0.08,0.442,0.25,0.559,0.475c0.161,0.251,0.145,0.577-0.038,0.812
				c-0.352,0.4-1.376,0.513-2.354,0.449C175.842,407.357,175.04,407.229,174.255,407.033z M174.875,406.822
				c1.454,0.277,3.441,0.393,3.84-0.095c0.057-0.06,0.113-0.169-0.01-0.41c-0.067-0.143-0.195-0.248-0.349-0.285
				c-0.114-0.04-0.233-0.064-0.354-0.069C176.915,406.049,175.854,406.341,174.875,406.822z"/>
			<path style="fill:#407BFF;" d="M174.156,407.016c-0.054-0.04-0.082-0.107-0.073-0.174c0.017-0.098,0.365-2.209,1.422-2.968
				c0.304-0.224,0.687-0.315,1.059-0.251c0.511,0.085,0.654,0.355,0.659,0.57c0.11,0.897-1.894,2.481-2.862,2.837
				c-0.025,0.01-0.053,0.011-0.078,0.002C174.241,407.043,174.195,407.037,174.156,407.016z M176.417,403.969
				c-0.236-0.018-0.471,0.05-0.66,0.192c-0.632,0.641-1.051,1.46-1.203,2.347c1.014-0.514,2.341-1.769,2.328-2.306
				c-0.011-0.049-0.024-0.185-0.358-0.236L176.417,403.969L176.417,403.969z"/>
			<path style="fill:#263238;" d="M173.522,405.878l-8.597-0.559c-0.324-0.021-0.619,0.185-0.711,0.497l-2.009,6.893
				c-0.183,0.61,0.164,1.253,0.774,1.436c0.078,0.023,0.159,0.038,0.24,0.045c3.103,0.148,5.869,0.157,9.727,0.414
				c4.553,0.298,3.362,0.767,8.711,1.192c3.223,0.253,4.051-3.375,2.696-3.645c-6.208-1.195-6.735-3.127-9.004-5.525
				C174.852,406.16,174.202,405.895,173.522,405.878z"/>
		</g>
		<path style="fill:#FFC3BD;" d="M174.732,177.64c1.092-3.892,0.276-9.646-0.502-13.152l8.861,7.249
			c-0.465,2.182,0.085,4.632,1.433,6.113c0.066,0.072,1.019,1.571,4.449,1.795c0,0,4.583,9.687-1.75,11.354
			c-6.334,1.667-14.375-8.417-14.375-8.417l-3.105-2.422C169.744,180.162,173.531,180.899,174.732,177.64z"/>
		<g>
			<path style="fill:#407BFF;" d="M188.153,178.699c0,0,4.265,10.417-0.922,11.417s-16.188-10.815-16.188-10.815l-2.813,0.565
				c0,0,9.681,12.063,18.309,12c8.628-0.063,3.742-12.872,3.742-12.872L188.153,178.699z"/>
			<path style="opacity:0.8;fill:#FFFFFF;" d="M188.153,178.699c0,0,4.265,10.417-0.922,11.417s-16.188-10.815-16.188-10.815
				l-2.813,0.565c0,0,9.681,12.063,18.309,12c8.628-0.063,3.742-12.872,3.742-12.872L188.153,178.699z"/>
		</g>
		<path style="opacity:0.2;enable-background:new    ;" d="M177.866,167.48l5.271,4.287c-0.201,0.832-0.329,1.68-0.382,2.535
			c-1.951-0.243-4.933-1.916-5.183-3.957C177.5,169.38,177.6,168.41,177.866,167.48z"/>
		<path style="fill:#FFC3BD;" d="M169.387,157.764c2.737,7.152,3.738,10.238,8.592,12.824c7.305,3.894,15.488-1.026,14.949-8.852
			c-0.487-7.043-4.873-17.549-12.916-18.216c-5.745-0.506-10.812,3.742-11.317,9.487
			C168.553,154.625,168.789,156.253,169.387,157.764z"/>
		<path style="fill:#263238;" d="M169.76,146.257c4.812-3.274,9.687-4.812,13.76-5.49c4.245,0.537,7.839,2.196,8.363,4.915
			c1.192,5.982-5.949,1.112-11.118,1.986c-1.184,0.201-2.268,0.244-3.258,0.18c0.121,2.234-0.866,4.659-1.74,6.101
			c-1.485,2.453-3.925,4.866-1.487,7.99c2.438,3.123,4.868,12.182-1.912,11.292c-6.779-0.891-7.689-11.932-6.33-17.228
			C166.773,153.144,168.029,149.015,169.76,146.257z"/>
		<path style="fill:#FFC3BD;" d="M170.887,164.571c0.829,1.227,2.112,2.074,3.566,2.355c1.93,0.356,2.719-1.41,2.037-3.141
			c-0.612-1.552-2.356-3.616-4.226-3.189c-1.351,0.352-2.162,1.732-1.81,3.084C170.538,164.002,170.685,164.305,170.887,164.571z"/>
		<g>
			<path style="fill:#FFFFFF;" d="M165.949,213.512c-0.081-0.508-0.163-1.013-0.246-1.516c21.882,0.87,34.154-1.232,38.081-2.078
				c0.018,0.508,0.035,1.02,0.05,1.534c-3.542,0.763-12.458,2.268-27.748,2.268C172.976,213.721,169.595,213.656,165.949,213.512z"
				/>
			<path style="fill:#FFFFFF;" d="M203.963,218.337c0.004,0.514,0.008,1.024,0.011,1.531c-2.736,0.476-8.92,1.3-19.019,1.3
				c-5.008,0-10.997-0.21-17.978-0.759c-0.069-0.509-0.139-1.016-0.211-1.523C188.16,220.575,200.206,218.991,203.963,218.337z"/>
			<path style="fill:#FFFFFF;" d="M203.277,201.472c0.046,0.493,0.091,0.996,0.132,1.517c-3.802,0.785-12.611,2.178-27.323,2.178
				c-3.516,0-7.38-0.083-11.581-0.27c-0.087-0.51-0.173-1.016-0.258-1.516C186.152,204.366,198.767,202.395,203.277,201.472z"/>
			<path style="fill:#FFFFFF;" d="M167.809,227.644c-0.047-0.51-0.096-1.019-0.148-1.53c20.784,2.021,32.579,0.727,36.305,0.162
				c-0.004,0.523-0.009,1.034-0.014,1.529c-2.385,0.363-7.383,0.933-15.303,0.933C183.139,228.738,176.222,228.46,167.809,227.644z"
				/>
		</g>
		<g>
			<path style="fill:#ED893E;" d="M186.324,155.807c0.952,1.19,2.064,2.243,3.303,3.13c-0.471,0.632-1.199,1.022-1.985,1.066
				L186.324,155.807z"/>
			<path style="fill:#263238;" d="M177.444,154.24c-0.053,0.004-0.106-0.005-0.155-0.025c-0.152-0.07-0.219-0.25-0.149-0.402
				c0.001-0.002,0.002-0.004,0.003-0.005c0.458-1.061,1.404-1.833,2.536-2.068c0.165-0.018,0.315,0.095,0.342,0.259
				c0.023,0.163-0.088,0.314-0.251,0.341c-0.931,0.209-1.706,0.853-2.082,1.73C177.642,154.165,177.55,154.23,177.444,154.24z"/>
			<path style="fill:#263238;" d="M190.061,150.393c-0.053,0.004-0.106-0.005-0.155-0.025c-0.864-0.394-1.865-0.35-2.692,0.118
				c-0.138,0.095-0.327,0.061-0.422-0.077c-0.001-0.001-0.001-0.002-0.002-0.003c-0.09-0.142-0.051-0.331,0.089-0.425
				c0.998-0.582,2.216-0.647,3.271-0.173c0.157,0.06,0.235,0.235,0.175,0.391C190.282,150.309,190.18,150.385,190.061,150.393
				L190.061,150.393z"/>
			<g>
				<path style="fill:#263238;" d="M181.825,156.141c0.184,0.59,0.649,0.971,1.043,0.852c0.394-0.12,0.551-0.697,0.358-1.294
					c-0.193-0.598-0.65-0.971-1.035-0.853C181.805,154.964,181.64,155.542,181.825,156.141z"/>
				<path style="fill:#263238;" d="M188.537,154.037c0.184,0.59,0.65,0.971,1.035,0.853c0.385-0.119,0.551-0.697,0.366-1.295
					c-0.185-0.599-0.65-0.971-1.035-0.853C188.518,152.861,188.344,153.439,188.537,154.037z"/>
				<path style="fill:#263238;" d="M188.743,152.828l1.297-0.855C190.04,151.973,189.653,153.313,188.743,152.828z"/>
				<path style="fill:#263238;" d="M182.031,154.931l1.296-0.855C183.327,154.076,182.941,155.416,182.031,154.931z"/>
			</g>
			<path style="fill:#263238;" d="M184.474,164.75c-0.422,0.001-0.844-0.035-1.26-0.11c-0.12-0.02-0.201-0.133-0.181-0.253
				c0-0.002,0.001-0.005,0.001-0.007c0.02-0.118,0.132-0.198,0.25-0.18c1.862,0.365,3.787-0.173,5.19-1.45
				c0.083-0.091,0.224-0.098,0.315-0.015c0.091,0.083,0.098,0.224,0.015,0.315C187.635,164.155,186.083,164.765,184.474,164.75z"/>
		</g>
		<g>
			<g>
				<path style="fill:#263238;" d="M194.928,214.836h14.093c0.895,0,1.62-0.725,1.62-1.62v-8.537c0-0.895-0.725-1.62-1.62-1.62
					h-14.093c-0.895,0-1.62,0.725-1.62,1.62v8.537C193.307,214.11,194.033,214.836,194.928,214.836z"/>
				<path style="opacity:0.7;fill:#FFFFFF;" d="M194.928,214.836h14.093c0.895,0,1.62-0.725,1.62-1.62v-8.537
					c0-0.895-0.725-1.62-1.62-1.62h-14.093c-0.895,0-1.62,0.725-1.62,1.62v8.537C193.307,214.11,194.033,214.836,194.928,214.836z"
					/>
			</g>
			<g>
				<path style="fill:#263238;" d="M192.927,203.058h2c-0.895,0-1.62,0.726-1.62,1.62v8.537c0,0.895,0.725,1.62,1.62,1.62h-2
					c-0.895,0-1.62-0.725-1.62-1.62v-8.537C191.307,203.784,192.033,203.058,192.927,203.058z"/>
				<path style="opacity:0.3;fill:#FFFFFF;" d="M192.927,203.058h2c-0.895,0-1.62,0.726-1.62,1.62v8.537
					c0,0.895,0.725,1.62,1.62,1.62h-2c-0.895,0-1.62-0.725-1.62-1.62v-8.537C191.307,203.784,192.033,203.058,192.927,203.058z"/>
			</g>
			<g>
				<g>
					<path style="fill:#263238;" d="M199.386,209.296c0,2.212,1.793,4.004,4.004,4.004c0.412,0,1.942,0,2.354,0
						c2.212,0,4.004-1.793,4.004-4.004s-1.793-4.004-4.004-4.004c-0.412,0-1.942,0-2.354,0
						C201.179,205.292,199.386,207.084,199.386,209.296z"/>
					<path style="opacity:0.4;fill:#FFFFFF;" d="M199.386,209.296c0,2.212,1.793,4.004,4.004,4.004c0.412,0,1.942,0,2.354,0
						c2.212,0,4.004-1.793,4.004-4.004s-1.793-4.004-4.004-4.004c-0.412,0-1.942,0-2.354,0
						C201.179,205.292,199.386,207.084,199.386,209.296z"/>
				</g>
				<g>
					<circle style="fill:#263238;" cx="205.628" cy="209.296" r="3.609"/>
					<g>
						<circle style="opacity:0.2;fill:#FFFFFF;" cx="205.628" cy="209.296" r="3.609"/>
						<circle style="fill:#263238;" cx="205.628" cy="209.296" r="2.891"/>
					</g>
				</g>
			</g>
			<path style="fill:#FFFFFF;" d="M195.156,205.771h1.865c0.313,0,0.567-0.254,0.567-0.567v-0.74c0-0.313-0.254-0.567-0.567-0.567
				h-1.865c-0.313,0-0.567,0.254-0.567,0.567v0.74C194.589,205.517,194.842,205.771,195.156,205.771z"/>
		</g>
		<g>
			<path style="opacity:0.1;" d="M165.959,192.47l1.335-1l1.647,0.341c0,0,0.028,11.658-2.643,23.908l-0.001-0.001
				c-0.87-5.655-1.862-11.084-2.632-15.84L165.959,192.47z"/>
			<path style="opacity:0.1;" d="M167.931,229.042c-0.139-1.694-0.312-3.398-0.51-5.103l8.886-4.189l8.369-2.03
				C184.676,217.72,175.367,225.815,167.931,229.042z"/>
			<path style="fill:#FFC3BD;" d="M182.044,212.72c0,0,4.167-3.669,7.333-4.918c3.167-1.249,7.333-1.082,7.333-1.082l1.5,2.996
				v3.837c0,0-4.833,0.333-7.167,1.667c-2.333,1.333-9,1.333-9,1.333V212.72z"/>
			<path style="fill:#407BFF;" d="M168.544,182.553c0,0-5.333-4-8.667,5.667c-3.333,9.667-7.667,35.833-1.5,38.5
				c6.167,2.667,27.167-8.833,27.167-8.833l-2.367-7.333l-19.467,6.667C163.71,217.22,171.877,186.053,168.544,182.553z"/>
		</g>
		<g>
			<g>
				<path style="fill:#263238;" d="M210.165,205.505c0.63-3.996-5.444-8.192-7.274-11.55c-2.958-5.43-4.363-11.041-10.662-13.647
					c-0.528-0.218-0.296-1.089,0.239-0.868c6.471,2.677,8.103,8.331,11.2,14.061c1.896,3.507,8.09,7.641,7.364,12.243
					C210.943,206.315,210.076,206.073,210.165,205.505L210.165,205.505z"/>
			</g>
			<g style="opacity:0.2;">
				<path style="fill:#FFFFFF;" d="M210.165,205.505c0.63-3.996-5.444-8.192-7.274-11.55c-2.958-5.43-4.363-11.041-10.662-13.647
					c-0.528-0.218-0.296-1.089,0.239-0.868c6.471,2.677,8.103,8.331,11.2,14.061c1.896,3.507,8.09,7.641,7.364,12.243
					C210.943,206.315,210.076,206.073,210.165,205.505L210.165,205.505z"/>
			</g>
		</g>
		<g>
			<g>
				<path style="fill:#263238;" d="M191.915,206.12c-2.48-8.017-10.296-13.268-16.951-17.518c-1.642-1.048-11.977-6.582-6.96-9.125
					c0.515-0.261,0.972,0.515,0.454,0.777c-3.177,1.61,6.761,7.443,8.172,8.34c3.506,2.231,6.887,4.514,9.781,7.525
					c2.637,2.743,5.229,6.069,6.371,9.76C192.954,206.435,192.086,206.672,191.915,206.12L191.915,206.12z"/>
			</g>
			<g style="opacity:0.2;">
				<path style="fill:#FFFFFF;" d="M191.915,206.12c-2.48-8.017-10.296-13.268-16.951-17.518c-1.642-1.048-11.977-6.582-6.96-9.125
					c0.515-0.261,0.972,0.515,0.454,0.777c-3.177,1.61,6.761,7.443,8.172,8.34c3.506,2.231,6.887,4.514,9.781,7.525
					c2.637,2.743,5.229,6.069,6.371,9.76C192.954,206.435,192.086,206.672,191.915,206.12L191.915,206.12z"/>
			</g>
		</g>
	</g>
</g>
<g id="Luggage">
	<g>
		<g>
			<g>
				<path style="fill:#263238;" d="M151.258,414h-1.501c-0.956,0-1.69-0.775-1.64-1.73l0.407-7.77h7.5l-3.053,8.291
					C152.706,413.511,152.013,414,151.258,414z"/>
				<path style="opacity:0.6;fill:#FFFFFF;" d="M151.258,414h-1.501c-0.956,0-1.69-0.775-1.64-1.73l0.407-7.77h7.5l-3.053,8.291
					C152.706,413.511,152.013,414,151.258,414z"/>
			</g>
			<g>
				<path style="fill:#263238;" d="M112.258,414h-1.501c-0.956,0-1.69-0.775-1.64-1.73l0.407-7.77h7.5l-3.053,8.291
					C113.706,413.511,113.013,414,112.258,414z"/>
				<path style="opacity:0.6;fill:#FFFFFF;" d="M112.258,414h-1.501c-0.956,0-1.69-0.775-1.64-1.73l0.407-7.77h7.5l-3.053,8.291
					C113.706,413.511,113.013,414,112.258,414z"/>
			</g>
			<g>
				<path style="fill:#263238;" d="M109.438,414.083c-0.128,2.439-2.209,4.417-4.648,4.417c-2.439,0-4.313-1.977-4.185-4.417
					c0.128-2.439,2.209-4.417,4.648-4.417S109.566,411.644,109.438,414.083z"/>
				<path style="opacity:0.2;fill:#FFFFFF;" d="M109.438,414.083c-0.128,2.439-2.209,4.417-4.648,4.417
					c-2.439,0-4.313-1.977-4.185-4.417c0.128-2.439,2.209-4.417,4.648-4.417S109.566,411.644,109.438,414.083z"/>
				<path style="fill:#263238;" d="M107.463,414.083c-0.071,1.348-1.221,2.441-2.569,2.441c-1.348,0-2.384-1.093-2.313-2.441
					c0.071-1.348,1.221-2.441,2.569-2.441C106.498,411.642,107.534,412.735,107.463,414.083z"/>
			</g>
			<g>
				<path style="fill:#263238;" d="M148.271,414.083c-0.128,2.439-2.209,4.417-4.648,4.417c-2.439,0-4.313-1.977-4.185-4.417
					c0.128-2.439,2.209-4.417,4.648-4.417C146.525,409.667,148.399,411.644,148.271,414.083z"/>
				<path style="opacity:0.2;fill:#FFFFFF;" d="M148.271,414.083c-0.128,2.439-2.209,4.417-4.648,4.417
					c-2.439,0-4.313-1.977-4.185-4.417c0.128-2.439,2.209-4.417,4.648-4.417C146.525,409.667,148.399,411.644,148.271,414.083z"/>
				<path style="fill:#263238;" d="M146.296,414.083c-0.071,1.348-1.221,2.441-2.569,2.441c-1.348,0-2.384-1.093-2.313-2.441
					c0.071-1.348,1.221-2.441,2.569-2.441C145.331,411.642,146.367,412.735,146.296,414.083z"/>
			</g>
		</g>
		<g>
			<g>
				<path style="fill:#263238;" d="M163.222,332.333h-3l4.566-87.13c0.222-4.247-3.052-7.703-7.299-7.703h-10.594
					c-4.248,0-7.884,3.456-8.107,7.703l-4.566,87.13h-3l4.566-87.13c0.309-5.902,5.362-10.703,11.264-10.703h10.594
					c5.902,0,10.452,4.801,10.142,10.703L163.222,332.333z"/>
			</g>
			<g style="opacity:0.6;">
				<path style="fill:#FFFFFF;" d="M163.222,332.333h-3l4.566-87.13c0.222-4.247-3.052-7.703-7.299-7.703h-10.594
					c-4.248,0-7.884,3.456-8.107,7.703l-4.566,87.13h-3l4.566-87.13c0.309-5.902,5.362-10.703,11.264-10.703h10.594
					c5.902,0,10.452,4.801,10.142,10.703L163.222,332.333z"/>
			</g>
		</g>
		<g>
			<path style="fill:#263238;" d="M138.772,259.83l0.767-14.627c0.201-3.84,3.477-6.953,7.317-6.953h10.594
				c3.84,0,6.79,3.113,6.589,6.953l-0.767,14.627c-0.045,0.865,0.619,1.566,1.484,1.566h1.369c0.865,0,1.602-0.701,1.648-1.566
				l0.767-14.627c0.331-6.325-4.528-11.453-10.853-11.453h-10.594c-6.325,0-11.722,5.128-12.053,11.453l-0.767,14.627
				c-0.045,0.865,0.619,1.566,1.484,1.566h1.369C137.989,261.396,138.727,260.695,138.772,259.83z"/>
			<path style="opacity:0.2;fill:#FFFFFF;" d="M138.772,259.83l0.767-14.627c0.201-3.84,3.477-6.953,7.317-6.953h10.594
				c3.84,0,6.79,3.113,6.589,6.953l-0.767,14.627c-0.045,0.865,0.619,1.566,1.484,1.566h1.369c0.865,0,1.602-0.701,1.648-1.566
				l0.767-14.627c0.331-6.325-4.528-11.453-10.853-11.453h-10.594c-6.325,0-11.722,5.128-12.053,11.453l-0.767,14.627
				c-0.045,0.865,0.619,1.566,1.484,1.566h1.369C137.989,261.396,138.727,260.695,138.772,259.83z"/>
		</g>
		<path style="fill:#407BFF;" d="M163.673,307h-15.789l-5.136,98h15.789c5.363,0,9.939-4.348,10.22-9.711l4.118-78.578
			C173.156,311.348,169.036,307,163.673,307z"/>
		<path style="opacity:0.2;" d="M163.673,307h-15.789l-5.136,98h15.789c5.363,0,9.939-4.348,10.22-9.711l4.118-78.578
			C173.156,311.348,169.036,307,163.673,307z"/>
		<path style="fill:#407BFF;" d="M144.245,405h-40.078c-5.363,0-9.483-4.348-9.202-9.711l4.118-78.578
			c0.281-5.363,4.857-9.711,10.22-9.711h40.078c5.363,0,9.483,4.348,9.202,9.711l-4.118,78.578
			C154.184,400.652,149.608,405,144.245,405z"/>
		<g style="opacity:0.2;">
			<g>
				<path d="M109.729,318.692c-1.321,25.206-2.642,50.411-3.963,75.617c-0.095,1.809,2.905,1.813,3,0
					c1.321-25.206,2.642-50.411,3.963-75.617C112.824,316.882,109.824,316.879,109.729,318.692L109.729,318.692z"/>
			</g>
			<g>
				<path d="M121.729,318.692c-1.321,25.206-2.642,50.411-3.963,75.617c-0.095,1.809,2.905,1.813,3,0
					c1.321-25.206,2.642-50.411,3.963-75.617C124.824,316.882,121.824,316.879,121.729,318.692L121.729,318.692z"/>
			</g>
			<g>
				<path d="M133.729,318.692c-1.321,25.206-2.642,50.411-3.963,75.617c-0.095,1.809,2.905,1.813,3,0
					c1.321-25.206,2.642-50.411,3.963-75.617C136.824,316.882,133.824,316.879,133.729,318.692L133.729,318.692z"/>
			</g>
			<g>
				<path d="M145.729,318.692c-1.321,25.206-2.642,50.411-3.963,75.617c-0.095,1.809,2.905,1.813,3,0
					c1.321-25.206,2.642-50.411,3.963-75.617C148.824,316.882,145.824,316.879,145.729,318.692L145.729,318.692z"/>
			</g>
		</g>
		<g>
			<path style="fill:#407BFF;" d="M158.192,324.164l0.391-7.453c0.281-5.363-3.839-9.711-9.202-9.711h-6.623l-0.033,0.622
				c-0.127,2.418,1.731,4.378,4.148,4.378h2.867c2.602,0,4.6,2.109,4.464,4.711l-0.161,3.075
				C153.917,322.204,155.775,324.164,158.192,324.164L158.192,324.164z"/>
			<path style="fill:#407BFF;" d="M117.048,307L117.048,307h-7.745c-5.363,0-9.939,4.348-10.22,9.711l-0.391,7.453h0.5
				c2.761,0,5.117-2.239,5.262-5l0.129-2.453c0.136-2.602,2.356-4.711,4.958-4.711h2.245C114.547,312,116.903,309.761,117.048,307z"
				/>
		</g>
		<g>
			<path style="fill:#407BFF;" d="M150.24,392.378l-0.161,3.075c-0.136,2.602-2.356,4.711-4.958,4.711h-2.867
				c-2.418,0-4.481,1.96-4.607,4.378L137.622,405h6.622c5.363,0,9.939-4.348,10.22-9.711l0.382-7.289l0,0
				C152.429,388,150.366,389.96,150.24,392.378z"/>
			<path style="fill:#407BFF;" d="M104.167,405h7.745l0,0c0.14-2.671-1.912-4.836-4.582-4.836h-2.409
				c-2.602,0-4.6-2.109-4.464-4.711l0.137-2.617c0.14-2.671-1.912-4.836-4.582-4.836h-0.664l-0.382,7.289
				C94.684,400.652,98.804,405,104.167,405z"/>
		</g>
		<g style="opacity:0.7;">
			<path style="fill:#FFFFFF;" d="M158.192,324.164l0.391-7.453c0.281-5.363-3.839-9.711-9.202-9.711h-6.623l-0.033,0.622
				c-0.127,2.418,1.731,4.378,4.148,4.378h2.867c2.602,0,4.6,2.109,4.464,4.711l-0.161,3.075
				C153.917,322.204,155.775,324.164,158.192,324.164L158.192,324.164z"/>
			<path style="fill:#FFFFFF;" d="M117.048,307L117.048,307h-7.745c-5.363,0-9.939,4.348-10.22,9.711l-0.391,7.453h0.5
				c2.761,0,5.117-2.239,5.262-5l0.129-2.453c0.136-2.602,2.356-4.711,4.958-4.711h2.245C114.547,312,116.903,309.761,117.048,307z"
				/>
		</g>
		<g style="opacity:0.7;">
			<path style="fill:#FFFFFF;" d="M150.24,392.378l-0.161,3.075c-0.136,2.602-2.356,4.711-4.958,4.711h-2.867
				c-2.418,0-4.481,1.96-4.607,4.378L137.622,405h6.622c5.363,0,9.939-4.348,10.22-9.711l0.382-7.289l0,0
				C152.429,388,150.366,389.96,150.24,392.378z"/>
			<path style="fill:#FFFFFF;" d="M104.167,405h7.745l0,0c0.14-2.671-1.912-4.836-4.582-4.836h-2.409
				c-2.602,0-4.6-2.109-4.464-4.711l0.137-2.617c0.14-2.671-1.912-4.836-4.582-4.836h-0.664l-0.382,7.289
				C94.684,400.652,98.804,405,104.167,405z"/>
		</g>
	</g>
</g>
</svg>
