<?xml version="1.0" encoding="utf-8"?>
<!-- Generator: Adobe Illustrator 21.0.0, SVG Export Plug-In . SVG Version: 6.00 Build 0)  -->
<svg version="1.1" id="Layer_1" xmlns="http://www.w3.org/2000/svg" xmlns:xlink="http://www.w3.org/1999/xlink" x="0px" y="0px"
	 viewBox="0 0 500 500" style="enable-background:new 0 0 500 500;" xml:space="preserve">
<style type="text/css">
	.st0{fill:url(#SVGID_1_);}
	.st1{fill:#F1E59B;}
	.st2{fill:#61BDAE;}
	.st3{fill:#324153;}
	.st4{fill:#734930;}
	.st5{fill:#E59260;}
	.st6{fill:#AC6E48;}
	.st7{fill:#AA86BD;}
	.st8{fill:#F5C16E;}
	.st9{fill:#D3D6BB;}
	.st10{fill:#E9D8AF;}
	.st11{fill:#43576F;}
	.st12{fill:#ECEDF1;}
	.st13{fill:#F49A5E;}
	.st14{fill:#62BEAF;}
	.st15{fill:#406470;}
</style>
<g>
	<linearGradient id="SVGID_1_" gradientUnits="userSpaceOnUse" x1="250" y1="500.7901" x2="250" y2="-9.094947e-13">
		<stop  offset="0.359" style="stop-color:#F7C253"/>
		<stop  offset="0.497" style="stop-color:#F5C356"/>
		<stop  offset="0.6032" style="stop-color:#F0C460"/>
		<stop  offset="0.6987" style="stop-color:#E6C770"/>
		<stop  offset="0.788" style="stop-color:#D9CB87"/>
		<stop  offset="0.8729" style="stop-color:#C7D0A5"/>
		<stop  offset="0.9535" style="stop-color:#B2D6C9"/>
		<stop  offset="1" style="stop-color:#A4DAE2"/>
	</linearGradient>
	<rect class="st0" width="500" height="500.8"/>
	<polygon class="st1" points="500,154.4 259.3,158.9 500,161.4 	"/>
	<rect x="-0.3" y="409.5" class="st2" width="500.3" height="91.3"/>
	<rect y="299.7" class="st3" width="500" height="109.8"/>
	<g>
		<polygon class="st4" points="0,135.6 62.9,146.2 112.3,115.2 133.6,139.4 202.3,156.9 238.1,183 248.8,232.4 302,284.6 302,323.4 
			221.7,317.5 210,331.1 143.3,331.1 87.1,323.4 0,323.4 		"/>
		<g>
			<polygon class="st5" points="0,323.4 31.9,323.4 0,212 			"/>
			<polygon class="st5" points="96.8,207.2 76.5,198.5 44.5,258.5 63.9,323.4 87.1,323.4 113.3,275.9 			"/>
			<polygon class="st5" points="151,143.9 133.6,139.4 112.3,115.2 98.6,123.8 122.9,275.9 98.6,324.9 136.9,331.1 175.2,253.7 			
				"/>
			<polygon class="st5" points="44.5,223.2 57.1,217.8 84.2,173.3 62.9,146.2 37.8,142 50.3,185.9 			"/>
			<polygon class="st5" points="182.5,212 189.7,248.8 175.2,331.1 210,331.1 221.7,317.5 247.7,319.4 227.5,242 			"/>
			<polygon class="st5" points="248.8,232.4 238.1,183 202.3,156.9 187.8,182.6 220.7,223.2 240.1,239.1 259.5,320.3 302,323.4 
				302,284.6 			"/>
		</g>
		<polygon class="st6" points="220.7,267.7 187.8,202.4 136.9,202.4 105,163.6 84.2,173.3 49.3,192.4 0,198.5 0,323.4 54.7,292.7 
			107,267.2 171.9,260.3 223.6,279.8 		"/>
		<g>
			<g>
				<polygon class="st5" points="0,323.4 31.9,323.4 0,212 				"/>
				<polygon class="st5" points="96.8,207.2 76.5,198.5 44.5,258.5 63.9,323.4 87.1,323.4 113.3,275.9 				"/>
				<polygon class="st5" points="163.9,202.4 136.9,202.4 105,163.6 122.9,275.9 98.6,324.9 136.9,331.1 175.2,253.7 				"/>
				<polygon class="st5" points="84.2,173.3 49.3,192.4 44.5,223.2 57.1,217.8 				"/>
				<polygon class="st5" points="220.7,267.7 197.8,222.3 182.5,212 189.7,248.8 175.2,331.1 210,331.1 221.7,317.5 247.7,319.4 
					235,270.7 				"/>
				<polygon class="st5" points="248.3,273.4 259.5,320.3 302,323.4 302,284.6 				"/>
			</g>
		</g>
		<polygon class="st7" points="0,319.5 0,319.5 0,319.5 		"/>
		<g>
			<g>
				<polygon class="st8" points="0,319.5 27,306.3 0,212 				"/>
				<polygon class="st8" points="76.5,198.5 44.5,258.5 54.7,292.7 107,267.2 111.1,266.8 96.8,207.2 				"/>
				<polygon class="st8" points="136.9,202.4 105,163.6 121.3,265.7 171.9,260.3 175.2,253.7 163.9,202.4 				"/>
				<polygon class="st8" points="84.2,173.3 49.3,192.4 44.5,223.2 57.1,217.8 				"/>
				<polygon class="st8" points="197.8,222.3 182.5,212 189.7,248.8 188,258.6 188.8,258.5 220,266.4 				"/>
			</g>
		</g>
		<path class="st7" d="M248.3,273.6"/>
	</g>
	<g>
		<polygon class="st4" points="500,141.7 459.5,175.7 414.4,175.7 394.7,203.6 358.9,240 372.8,272.4 370.4,287.1 423.7,291.6 
			447.9,280.5 482.6,287.1 500,278.1 		"/>
		<polygon class="st6" points="471.4,220.3 433,200.6 397.7,215.4 364.5,252.8 364.4,252.8 372.8,272.4 370.4,287.1 383.5,282.5 
			414.3,272.5 468.3,260 500,268.6 500,203.4 		"/>
		<g>
			<polygon class="st5" points="381.6,239.2 388.6,270 381.6,287.1 423.7,291.6 406.3,256.1 			"/>
			<polygon class="st5" points="441,212.2 414.4,175.7 394.7,203.6 402.6,233.8 433.4,287.1 447.9,280.5 423.7,219.4 			"/>
			<polygon class="st5" points="442.5,224.9 456.4,252.3 452.8,281.4 482.6,287.1 455.7,224.9 			"/>
			<polygon class="st5" points="459.5,175.7 476.5,239.2 491.9,216.6 491.9,282.3 500,278.1 500,141.7 			"/>
		</g>
		<g>
			<polygon class="st5" points="381.6,239.2 388.6,270 381.6,287.1 423.7,291.6 406.3,256.1 			"/>
			<polygon class="st5" points="441,212.2 433.4,201.8 398.1,216.6 402.6,233.8 433.4,287.1 447.9,280.5 423.7,219.4 			"/>
			<polygon class="st5" points="442.5,224.9 456.4,252.3 452.8,281.4 482.6,287.1 455.7,224.9 			"/>
			<polygon class="st5" points="471.8,221.5 476.5,239.2 491.9,216.6 491.9,282.3 500,278.1 500,204.9 			"/>
		</g>
		<g>
			<polygon class="st8" points="381.6,239.2 388.6,270 383.5,282.5 407,274.2 414.3,272.5 406.3,256.1 			"/>
			<polygon class="st8" points="441,212.2 433.4,201.8 398.1,216.6 402.6,233.8 423.8,270.3 442.2,266 423.7,219.4 			"/>
			<polygon class="st8" points="442.5,224.9 456.4,252.3 455.1,263 468.3,260 471.2,260.8 455.7,224.9 			"/>
			<polygon class="st8" points="471.8,221.5 476.5,239.2 491.9,216.6 491.9,266.4 500,268.6 500,204.9 			"/>
		</g>
	</g>
	<path class="st3" d="M276,321.8c3.3,4,15.4,6.1,15.4,6.1c-13.7-9.6-14.8-26.5-14.8-26.5c4,2.9,11.3,3.4,11.3,3.4
		c-11-8.3-15-24.1-15-24.1c3,2,9.6,3.5,9.6,3.5c-8.4-7.1-8.6-13-8.6-13c1.2,1.5,5.6,3.5,5.6,3.5c-4-4-5.6-12.3-5.6-12.3
		c1.9,1.3,5.6,2.2,5.6,2.2c-9.1-13.2-11.1-30-11.1-30s-2,16.9-11.1,30c0,0,3.7-0.8,5.6-2.2c0,0-1.5,8.3-5.6,12.3c0,0,4.4-2,5.6-3.5
		c0,0-0.1,4.5-5.8,10.4c-10.3-8.9-10.5-16.2-10.5-16.2c1.5,2,7.2,4.6,7.2,4.6c-5.2-5.2-7.2-15.8-7.2-15.8c2.4,1.7,7.2,2.8,7.2,2.8
		c-11.7-16.9-14.3-38.6-14.3-38.6s-2.6,21.7-14.3,38.6c0,0,4.8-1.1,7.2-2.8c0,0-2,10.6-7.2,15.8c0,0,5.6-2.6,7.2-4.6
		c0,0-0.2,6.2-8.1,14c-3.5-4.2-4.9-11.5-4.9-11.5c1.9,1.3,5.6,2.2,5.6,2.2c-9.1-13.2-11.1-30-11.1-30s-2,16.9-11.1,30
		c0,0,3.7-0.8,5.6-2.2c0,0-1.5,8.3-5.6,12.3c0,0,4.4-2,5.6-3.5c0,0-0.2,5.4-7.5,12.1c-9.6-10.9-13.4-25.5-13.4-25.5
		c3.9,2.6,12.4,4.6,12.4,4.6c-10.9-9.1-11.1-16.7-11.1-16.7c1.5,2,7.2,4.6,7.2,4.6c-5.2-5.2-7.2-15.8-7.2-15.8
		c2.4,1.7,7.2,2.8,7.2,2.8c-11.7-16.9-14.3-38.6-14.3-38.6s-2.6,21.7-14.3,38.6c0,0,4.8-1.1,7.2-2.8c0,0-2,10.6-7.2,15.8
		c0,0,5.6-2.6,7.2-4.6c0,0-0.2,7.6-11.1,16.7c0,0,8.5-2,12.4-4.6c0,0-2.2,8.6-7.6,17.6c-7.7-12.9-29.7-13.5-29.7-13.5
		s18.1,2.9,8.8,16.3c0,0,3.8-0.9,5.7-2.2c0,0-1.5,8.4-5.7,12.5c0,0,4.5-2.1,5.7-3.6c0,0-0.2,6-8.8,13.2c0,0,6.7-1.5,9.8-3.6
		c0,0-4.1,16.1-15.3,24.6c0,0,7.4-0.5,11.5-3.4c0,0-0.7,9.5-6.7,18.4c-7.9-12.4-11-29.5-11-29.5c3.1,3,9.8,5.2,9.8,5.2
		c-8.6-10.3-8.8-18.9-8.8-18.9c1.2,2.2,5.7,5.2,5.7,5.2c-4.1-5.9-5.7-17.9-5.7-17.9c1.9,2,5.7,3.2,5.7,3.2
		c-9.3-19.2-2.9-23.2-2.9-23.2s-10.5,4.1-19.7,23.2c0,0,3.8-1.2,5.7-3.2c0,0-1.5,12-5.7,17.9c0,0,4.5-2.9,5.7-5.2
		c0,0-0.2,8.6-8.8,18.9c0,0,6.7-2.2,9.8-5.2c0,0-3.7,20.9-13.7,33.3c-8.6-11.6-9.5-24.6-9.5-24.6c5.2,3.7,14.5,4.3,14.5,4.3
		c-14.1-10.6-19.3-31-19.3-31c3.9,2.6,12.4,4.6,12.4,4.6c-10.8-9.1-11.1-16.7-11.1-16.7c1.5,2,7.2,4.6,7.2,4.6
		c-5.2-5.2-7.2-15.8-7.2-15.8c2.4,1.7,7.2,2.8,7.2,2.8c-11.7-16.9-14.3-38.6-14.3-38.6s-2.6,21.7-14.3,38.6c0,0,4.8-1.1,7.2-2.8
		c0,0-2,10.6-7.2,15.8c0,0,5.6-2.6,7.2-4.6c0,0-0.2,7.6-11.1,16.7c0,0,8.5-2,12.4-4.6c0,0-5.2,20.4-19.3,31c0,0,9.3-0.7,14.5-4.3
		c0,0-1.5,21.7-19.1,34.1c0,0,15.6-2.6,19.9-7.8c0,0-4.9,16.9-22.5,34.2H117c-2.5,7.4-7.2,18.4-15.1,29.6H153
		c-13.9-19.5-17.8-38.7-17.8-38.7c3.3,5.9,15.7,8.9,15.7,8.9c-2.9-3-5.3-6.4-7.2-10h40c-6.9-6.8-11.3-13.5-14-18.5h22
		c-1,1.1-2.1,2.3-3.3,3.4h28.1c-2.7,3.5-5.8,7.2-9.6,10.8h64.7c-5.8-5.7-10.2-11.3-13.5-16.3h35.3C279.8,335,276,321.8,276,321.8z
		 M119,340.3c0,0-0.2,4.9-1.7,11.5c-2.8-2.2-5.2-4.6-7.2-7.1C112.6,344.1,116.4,342.9,119,340.3z M98.8,345
		c3.4,4.2,14.2,6.7,18.3,7.5c-1.1,4.7-2.9,10.3-5.6,15.6C101.8,355.4,98.8,345,98.8,345z M118,375.9c-0.7-0.7-1.3-1.5-2-2.2
		c1.5-1.1,2.8-2.3,3.6-3.7C119.6,370,119.2,372.2,118,375.9z M135.8,340.3c1.2,1.3,2.8,2.2,4.3,2.9c-1.1,1.2-2.3,2.3-3.6,3.4
		C135.9,342.7,135.8,340.3,135.8,340.3z M140,360.5c-1.7-4.7-2.7-9.3-3.3-12.9c2.2-0.5,5.9-1.4,9-2.7c1,0.2,1.6,0.3,1.6,0.3
		c-0.2-0.2-0.4-0.5-0.6-0.7c1.5-0.7,2.9-1.6,3.7-2.6C150.3,341.9,147.9,350.2,140,360.5z M166.5,282.8c-0.5,0.8-1.1,1.6-1.7,2.5
		c-0.7-2.2-1-3.8-1-3.8C164.5,282,165.5,282.4,166.5,282.8z M162.8,300c1.3,0.8,3.1,1.6,4.9,2.2c-0.6,1.7-1.3,3.4-2.2,5.2
		C163.6,303.1,162.8,300,162.8,300z M167.3,325.6c-0.6-2.7-0.8-4.5-0.8-4.5c0.7,0.5,1.5,0.9,2.3,1.3
		C168.4,323.4,167.9,324.4,167.3,325.6z M168.5,299.6c-2.4-2.8-3.6-5.2-4.2-6.9c0.6-0.2,1.2-0.4,1.8-0.6c1.6,1,3.3,1.8,3.3,1.8
		c-0.7-0.7-1.3-1.5-1.9-2.4c1-0.5,2-1,2.9-1.6C170.5,290,170.3,294,168.5,299.6z M171,317.2c-0.1-0.1-0.2-0.2-0.2-0.3
		c0.2-0.2,0.4-0.4,0.6-0.6C171.3,316.2,171.2,316.6,171,317.2z M191.1,316.2c1.8,2.2,5.8,4,9.7,5.3c-1.2,2.2-2.6,4.4-4.4,6.5
		C192.4,321,191.1,316.2,191.1,316.2z M198.1,309.6c2.3-0.5,5.1-1.3,7.1-2.8c0,0-0.3,4.3-2.3,9.8C201,314.4,199.4,312,198.1,309.6z
		 M201.7,336.5c-1.3-1.8-2.4-3.5-3.4-5.1c3-1,6.1-2.4,7.5-4.1C205.8,327.3,204.8,331,201.7,336.5z M197,307.6
		c-4.6-9.3-5.2-17.6-5.2-17.6c4.6,3.2,12.3,4.1,14.1,4.3C204,298.4,201.1,303.5,197,307.6z M206,294.1c-1.9-1.4-3.6-3.1-5.2-4.8
		c2.1-0.6,6-1.7,8.1-3.1C209,286.1,208.1,289.6,206,294.1z M223.7,279.8c-0.8,0.8-1.7,1.6-2.6,2.4c-1.9-3.3-2-5.4-2-5.4
		C219.9,277.8,222.3,279.1,223.7,279.8z M227.8,309.4c-0.5,2.5-1.4,5.7-2.9,9.2c-2.3-5.4-3-10.1-3.1-11.4c0.1,0,0.2-0.1,0.4-0.1
		C223.8,308.2,225.9,308.9,227.8,309.4z M227.6,304.9c0.4-0.2,0.7-0.4,1-0.7c0,0,0,0.6-0.2,1.6C228.1,305.6,227.9,305.3,227.6,304.9
		z M226.3,338.2c-0.9-1.4-1.6-2.8-2.2-4c1.8-0.8,3.4-1.7,4.5-2.8c0.2,0.1,0.3,0.1,0.5,0.2C228.6,332.7,227.8,335.1,226.3,338.2z
		 M223.4,298.8c-3.8-6.6-5.3-12.6-5.3-12.6c3,2,9.6,3.5,9.6,3.5c-3.3-2.8-5.4-5.4-6.6-7.6c0.4-0.1,8.5-2,12.3-4.5
		C233.4,277.6,230.6,288.7,223.4,298.8z M252.1,337.9c-2.2-4.5-3-7.4-3-7.4c1.2,1.4,3.2,2.7,5.5,3.7
		C253.9,335.4,253,336.6,252.1,337.9z M258.8,307.8c-0.9,3.2-2.4,7.3-5,11.2c-2.9-6.9-3.7-12.8-3.8-14.3c0.2,0,0.3,0,0.5-0.1
		C252.9,306.2,256.1,307.2,258.8,307.8z M258.1,302.5c0.7-0.3,1.4-0.7,2-1.1c0,0-0.1,1.1-0.4,2.9
		C259.1,303.7,258.6,303.1,258.1,302.5z M258.4,327.4c-0.6-0.9-1.2-1.9-1.8-2.8c1.7-0.8,3.2-1.7,4-2.8
		C260.6,321.8,260,324,258.4,327.4z M255,298.5c-7-10-9.8-21-9.8-21c3.2,2.1,9.3,3.8,11.5,4.3c-0.7,0.7-1.6,1.5-2.5,2.3
		c0,0,6.6-1.5,9.6-3.5C263.7,280.7,261.3,290.4,255,298.5z"/>
	<path class="st3" d="M436.9,226.1c0,0-1.4,11.4-6.6,24.1c-5.5-6.5-5.6-11.3-5.6-11.3c1.5,2,7.2,4.6,7.2,4.6
		c-5.2-5.2-7.2-15.8-7.2-15.8c2.4,1.7,7.2,2.8,7.2,2.8c-11.7-16.9-14.3-38.6-14.3-38.6s-2.6,21.7-14.3,38.6c0,0,4.8-1.1,7.2-2.8
		c0,0-2,10.6-7.2,15.8c0,0,5.6-2.6,7.2-4.6c0,0-0.2,5.7-7.3,13.2c-12.3-11-16.9-29-16.9-29c3.9,2.6,12.4,4.6,12.4,4.6
		c-10.8-9.1-11.1-16.7-11.1-16.7c1.5,2,7.2,4.6,7.2,4.6c-5.2-5.2-7.2-15.8-7.2-15.8c2.4,1.7,7.2,2.8,7.2,2.8
		c-11.7-16.9-14.3-38.6-14.3-38.6s-2.6,21.7-14.3,38.6c0,0,4.8-1.1,7.2-2.8c0,0-2,10.6-7.2,15.8c0,0,5.6-2.6,7.2-4.6
		c0,0-0.2,7.6-11.1,16.7c0,0,8.5-2,12.4-4.6c0,0-5.2,20.4-19.3,31c0,0,9.3-0.7,14.5-4.3c0,0-1.5,21.7-19.1,34.1
		c0,0,15.6-2.6,19.9-7.8c0,0-4.8,16.8-22.3,34c-8.2-11.5-10.8-20.5-10.8-20.5c4.2,5.2,19.9,7.8,19.9,7.8
		c-17.6-12.4-19.1-34.1-19.1-34.1c5.2,3.7,14.5,4.3,14.5,4.3c-14.1-10.6-19.3-31-19.3-31c3.9,2.6,12.4,4.6,12.4,4.6
		c-10.9-9.1-11.1-16.7-11.1-16.7c1.5,2,7.2,4.6,7.2,4.6c-5.2-5.2-7.2-15.8-7.2-15.8c2.4,1.7,7.2,2.8,7.2,2.8
		c-11.7-16.9-14.3-38.6-14.3-38.6S325,199,313.3,216c0,0,4.8-1.1,7.2-2.8c0,0-2,10.6-7.2,15.8c0,0,5.6-2.6,7.2-4.6
		c0,0-0.2,6.6-9,14.9c-12.4-16.8-15.3-35.1-15.3-35.1s-3.7,23.1-20.3,41.2c0,0,6.8-1.2,10.1-3c0,0-2.8,11.3-10.1,16.9
		c0,0,8-2.8,10.1-4.9c0,0-0.3,8.1-15.7,17.8c0,0,12-2.1,17.5-4.9c0,0-7.4,21.8-27.4,33.1c0,0,13.2-0.7,20.6-4.6
		c0,0-2.2,23.1-27.1,36.3c0,0,22.1-2.8,28.1-8.3c0,0-6.9,18.1-31.8,36.5H342c-24.9-18.4-31.8-36.5-31.8-36.5
		c6,5.6,28.1,8.3,28.1,8.3c-4.8-2.5-8.7-5.5-12-8.5h33.7c-4.7-4.6-8.5-9.2-11.6-13.5h41.6c-0.7,0.6-1.4,1.1-2.1,1.6
		c0,0,3.2-0.5,7.2-1.6h10.2c-3,6.5-9,17.2-20,28h30.4c-2.3,2.8-5.1,5.5-8.4,7.9c0,0,15.6-2.6,19.9-7.8c0,0-4.9,16.9-22.5,34.2H438
		V232.5C437.2,228.6,436.9,226.1,436.9,226.1z M312.4,301.4c-1-3.4-1.2-5.5-1.2-5.5c1,0.5,2.1,1,3.3,1.4
		C313.9,298.5,313.2,299.9,312.4,301.4z M311.6,281.2c-5-7.5-7.2-13.8-7.2-13.8c0,0,0,0,0,0c2.8,1.4,7.3,2.7,11.1,3.5
		C314.7,273.9,313.5,277.5,311.6,281.2z M306.3,254.4c1,1,3.4,2.2,5.6,3.1c-0.8,1.2-1.7,2.4-2.7,3.5
		C306.4,257,306.3,254.4,306.3,254.4z M316.2,268.1c-1.2-1-2.3-1.9-3.2-2.8c1.4-0.5,2.8-1.2,4-2C317,263.3,316.8,265.2,316.2,268.1z
		 M313,255.9c-4.8-5.8-6.7-13.6-6.7-13.6c3.4,1.9,10.1,3,10.1,3c-1.5-1.6-2.9-3.3-4.2-5c2.8-0.8,7-2.2,9.5-3.8
		C321.7,236.6,319.2,246.4,313,255.9z M390.2,276c1.1,1.4,3,2.5,5.1,3.5c-0.9,0.8-1.8,1.6-2.8,2.4C390.9,278.3,390.2,276,390.2,276z
		 M401,296.6c-4.1-5.7-6.8-10.8-8.4-14.5c0.8-0.1,3.4-0.3,6.4-1.1c2.5,0.9,5,1.5,7,2C405.3,286.5,403.8,291.5,401,296.6z
		 M406.4,280.9c-0.7-0.6-1.3-1.2-1.9-1.8c0.8-0.4,1.6-0.8,2.4-1.4C406.9,277.8,406.8,279,406.4,280.9z M407.4,304.6
		c-0.1-0.1-0.1-0.1-0.2-0.2c0.1-0.1,0.3-0.3,0.4-0.4C407.6,304,407.6,304.2,407.4,304.6z M400.3,274.1c-8.4-11.5-9.3-24.4-9.3-24.4
		c3,2.1,7.4,3.3,10.6,3.8c-0.7,0.7-1.5,1.4-2.3,2c0,0,2.6-0.6,5.6-1.6c0.4,0,0.7,0.1,0.7,0.1c-0.1-0.1-0.2-0.1-0.3-0.2
		c2.3-0.8,4.7-1.7,6.4-2.8C411.7,251.1,408.5,263.6,400.3,274.1z M426.1,258.9c-1.9-4.6-2.7-7.9-2.7-7.9c1.4,0.9,3.4,1.8,5.4,2.5
		C428,255.4,427.1,257.1,426.1,258.9z M428.2,278.2c0-0.3,0-0.4,0-0.4c0.1,0,0.1,0.1,0.2,0.1C428.3,278,428.2,278.1,428.2,278.2z
		 M429,265c-0.4-0.7-0.7-1.4-1.1-2.1c0.7-0.3,1.3-0.6,1.8-1C429.7,261.9,429.5,263.1,429,265z M430.3,287.7
		c-0.2-0.6-0.4-1.1-0.5-1.7c0.4-0.2,0.9-0.5,1.2-0.7C431,285.3,430.8,286.2,430.3,287.7z"/>
	<path class="st3" d="M498.8,234.3c0,0-1.5,12.1-7,25.6c-5.8-6.9-5.9-12-5.9-12c1.6,2.1,7.6,4.8,7.6,4.8c-5.5-5.5-7.6-16.8-7.6-16.8
		c2.5,1.8,7.6,3,7.6,3c-12.4-17.9-15.2-41-15.2-41s-2.8,23-15.2,41c0,0,5.1-1.2,7.6-3c0,0-2.1,11.3-7.6,16.8c0,0,6-2.8,7.6-4.8
		c0,0-0.2,6.1-7.7,14c-13-11.7-17.9-30.8-17.9-30.8c4.1,2.8,13.1,4.8,13.1,4.8c-11.5-9.7-11.7-17.7-11.7-17.7
		c1.6,2.1,7.6,4.8,7.6,4.8c-5.5-5.5-7.6-16.8-7.6-16.8c2.5,1.8,7.6,3,7.6,3c-12.4-17.9-15.2-41-15.2-41s-2.8,23-15.2,41
		c0,0,5.1-1.2,7.6-3c0,0-2.1,11.3-7.6,16.8c0,0,6-2.8,7.6-4.8c0,0-0.2,8.1-11.7,17.7c0,0,9-2.1,13.1-4.8c0,0-5.5,21.6-20.5,32.9
		c0,0,9.9-0.7,15.4-4.6c0,0-1.6,23-20.2,36.1c0,0,16.6-2.8,21.1-8.3c0,0-5.1,17.8-23.6,36c-8.7-12.2-11.4-21.7-11.4-21.7
		c4.5,5.5,21.1,8.3,21.1,8.3c-18.6-13.1-20.2-36.1-20.2-36.1c5.5,3.9,15.4,4.6,15.4,4.6c-15-11.3-20.5-32.9-20.5-32.9
		c4.1,2.8,13.1,4.8,13.1,4.8c-11.5-9.7-11.7-17.7-11.7-17.7c1.6,2.1,7.6,4.8,7.6,4.8c-5.5-5.5-7.6-16.8-7.6-16.8
		c2.5,1.8,7.6,3,7.6,3c-12.4-17.9-15.2-41-15.2-41s-2.8,23-15.2,41c0,0,5.1-1.2,7.6-3c0,0-2.1,11.3-7.6,16.8c0,0,6-2.8,7.6-4.8
		c0,0-0.2,7-9.5,15.8c-13.1-17.8-16.2-37.2-16.2-37.2s-3.9,24.5-21.5,43.7c0,0,7.2-1.2,10.8-3.2c0,0-2.9,12-10.8,17.9
		c0,0,8.5-2.9,10.8-5.2c0,0-0.3,8.6-16.6,18.9c0,0,12.7-2.2,18.6-5.2c0,0-7.8,23.1-29,35.1c0,0,14-0.7,21.8-4.9
		c0,0-2.3,24.5-28.7,38.5c0,0,23.5-2.9,29.8-8.8c0,0-7.3,19.1-33.7,38.7h97.2c-26.4-19.5-33.7-38.7-33.7-38.7
		c6.4,5.9,29.8,8.8,29.8,8.8c-5.1-2.7-9.3-5.8-12.7-9h35.7c-5-4.9-9-9.8-12.3-14.3H449c-0.7,0.6-1.5,1.2-2.3,1.7
		c0,0,3.4-0.6,7.6-1.7h10.9c-3.1,6.9-9.5,18.2-21.2,29.7h32.2c-2.4,3-5.4,5.9-8.9,8.4c0,0,16.6-2.8,21.1-8.3c0,0-5.2,17.9-23.8,36.2
		H500V241.1C499.1,237,498.8,234.3,498.8,234.3z M366.8,314.2c-1-3.6-1.3-5.9-1.3-5.9c1.1,0.6,2.3,1.1,3.5,1.5
		C368.4,311.2,367.7,312.6,366.8,314.2z M366,292.7c-5.3-8-7.6-14.6-7.6-14.6c0,0,0,0,0,0c3,1.5,7.8,2.8,11.7,3.7
		C369.3,285,368,288.8,366,292.7z M360.4,264.4c1.1,1.1,3.6,2.3,6,3.3c-0.9,1.3-1.8,2.5-2.8,3.7
		C360.5,267.1,360.4,264.4,360.4,264.4z M370.8,278.9c-1.3-1-2.4-2-3.4-3c1.5-0.6,3-1.3,4.2-2.2
		C371.7,273.8,371.5,275.8,370.8,278.9z M367.5,266c-5.1-6.2-7.1-14.4-7.1-14.4c3.6,2,10.8,3.2,10.8,3.2c-1.6-1.7-3.1-3.5-4.5-5.3
		c3-0.8,7.5-2.3,10.1-4C376.7,245.5,374.1,255.9,367.5,266z M449.3,287.3c1.2,1.4,3.1,2.7,5.4,3.7c-1,0.9-1.9,1.7-3,2.5
		C450,289.7,449.3,287.3,449.3,287.3z M460.8,309.1c-4.3-6.1-7.2-11.5-8.9-15.4c0.8-0.1,3.6-0.4,6.8-1.1c2.6,0.9,5.3,1.6,7.5,2.1
		C465.3,298.4,463.7,303.7,460.8,309.1z M466.5,292.5c-0.7-0.6-1.4-1.3-2-1.9c0.9-0.4,1.7-0.9,2.5-1.4
		C467,289.1,466.9,290.4,466.5,292.5z M467.6,317.6c-0.1-0.1-0.1-0.1-0.2-0.2c0.1-0.2,0.3-0.3,0.4-0.5
		C467.8,317,467.7,317.2,467.6,317.6z M460,285.3c-8.9-12.2-9.9-25.8-9.9-25.8c3.2,2.3,7.9,3.4,11.2,4c-0.7,0.7-1.5,1.4-2.4,2.2
		c0,0,2.7-0.6,5.9-1.7c0.4,0,0.7,0.1,0.7,0.1c-0.1-0.1-0.2-0.1-0.3-0.2c2.4-0.8,5-1.9,6.8-3C472.1,260.8,468.7,274.1,460,285.3z
		 M487.4,269.1c-2-4.9-2.9-8.3-2.9-8.3c1.5,1,3.6,1.9,5.8,2.7C489.4,265.4,488.4,267.3,487.4,269.1z M489.6,289.6c0-0.3,0-0.5,0-0.5
		c0.1,0,0.1,0.1,0.2,0.1C489.7,289.4,489.6,289.5,489.6,289.6z M490.4,275.6c-0.4-0.8-0.8-1.5-1.1-2.2c0.7-0.3,1.4-0.7,1.9-1.1
		C491.2,272.3,490.9,273.6,490.4,275.6z M491.8,299.7c-0.2-0.6-0.4-1.2-0.5-1.8c0.5-0.2,0.9-0.5,1.3-0.8
		C492.6,297.1,492.3,298.1,491.8,299.7z"/>
	<path class="st3" d="M1.1,242.3c0,0,1.4,12.1,7,25.5c5.8-6.9,5.9-11.9,5.9-11.9c-1.6,2.1-7.6,4.8-7.6,4.8
		c5.5-5.5,7.6-16.8,7.6-16.8c-2.5,1.8-7.6,3-7.6,3C18.8,229,21.5,206,21.5,206s2.8,22.9,15.1,40.8c0,0-5-1.1-7.6-3
		c0,0,2.1,11.2,7.6,16.8c0,0-6-2.8-7.6-4.8c0,0,0.2,6,7.7,13.9c13-11.6,17.8-30.7,17.8-30.7c-4.1,2.8-13.1,4.8-13.1,4.8
		c11.5-9.6,11.7-17.7,11.7-17.7c-1.6,2.1-7.6,4.8-7.6,4.8c5.5-5.5,7.6-16.8,7.6-16.8c-2.5,1.8-7.6,3-7.6,3
		c12.4-17.9,15.1-40.8,15.1-40.8s2.8,22.9,15.1,40.8c0,0-5-1.1-7.6-3c0,0,2.1,11.2,7.6,16.8c0,0-6-2.8-7.6-4.8c0,0,0.2,8,11.7,17.7
		c0,0-8.9-2.1-13.1-4.8c0,0,5.5,21.6,20.4,32.8c0,0-9.9-0.7-15.4-4.6c0,0,1.6,22.9,20.2,36c0,0-16.5-2.8-21-8.3
		c0,0,5.1,17.8,23.5,35.9c8.6-12.2,11.4-21.6,11.4-21.6c-4.5,5.5-21,8.3-21,8.3c18.6-13.1,20.2-36,20.2-36
		c-5.5,3.9-15.4,4.6-15.4,4.6c14.9-11.2,20.4-32.8,20.4-32.8c-4.1,2.8-13.1,4.8-13.1,4.8c11.5-9.6,11.7-17.7,11.7-17.7
		c-1.6,2.1-7.6,4.8-7.6,4.8c5.5-5.5,7.6-16.8,7.6-16.8c-2.5,1.8-7.6,3-7.6,3c12.4-17.9,15.1-40.8,15.1-40.8s2.8,22.9,15.1,40.8
		c0,0-5-1.1-7.6-3c0,0,2.1,11.2,7.6,16.8c0,0-6-2.8-7.6-4.8c0,0,0.2,7,9.5,15.7c13.1-17.7,16.2-37.1,16.2-37.1s3.9,24.5,21.5,43.6
		c0,0-7.2-1.2-10.7-3.2c0,0,2.9,12,10.7,17.9c0,0-8.5-2.9-10.7-5.1c0,0,0.3,8.6,16.6,18.9c0,0-12.7-2.2-18.5-5.1c0,0,7.8,23,28.9,35
		c0,0-14-0.7-21.8-4.9c0,0,2.3,24.5,28.6,38.4c0,0-23.4-2.9-29.8-8.8c0,0,7.3,19.1,33.7,38.6h-96.9c26.3-19.5,33.7-38.6,33.7-38.6
		c-6.3,5.9-29.8,8.8-29.8,8.8c5.1-2.7,9.2-5.8,12.7-9H82.4c5-4.9,9-9.8,12.2-14.3H50.7c0.7,0.6,1.5,1.2,2.3,1.7c0,0-3.4-0.6-7.6-1.7
		H34.5c3.1,6.8,9.5,18.1,21.2,29.6H23.6c2.4,3,5.3,5.8,8.9,8.3c0,0-16.5-2.8-21-8.3c0,0,5.2,17.9,23.8,36.1H-0.2V249
		C0.7,244.9,1.1,242.3,1.1,242.3z M132.7,321.9c1-3.6,1.3-5.8,1.3-5.8c-1.1,0.6-2.3,1.1-3.5,1.5
		C131.1,318.9,131.8,320.3,132.7,321.9z M133.5,300.5c5.3-8,7.6-14.6,7.6-14.6c0,0,0,0,0,0c-3,1.5-7.8,2.8-11.7,3.7
		C130.2,292.8,131.5,296.6,133.5,300.5z M139.1,272.2c-1.1,1.1-3.6,2.3-5.9,3.3c0.9,1.3,1.8,2.5,2.8,3.7
		C139,275,139.1,272.2,139.1,272.2z M128.7,286.7c1.3-1,2.4-2,3.4-3c-1.5-0.6-3-1.3-4.2-2.2C127.8,281.6,128,283.6,128.7,286.7z
		 M132,273.8c5.1-6.2,7.1-14.3,7.1-14.3c-3.6,2-10.7,3.2-10.7,3.2c1.6-1.7,3.1-3.5,4.4-5.3c-3-0.8-7.5-2.3-10-4
		C122.8,253.4,125.4,263.7,132,273.8z M50.4,295.1c-1.2,1.4-3.1,2.7-5.4,3.7c0.9,0.9,1.9,1.7,3,2.5
		C49.7,297.4,50.4,295.1,50.4,295.1z M38.9,316.8c4.3-6.1,7.2-11.4,8.9-15.3c-0.8-0.1-3.6-0.4-6.8-1.1c-2.6,0.9-5.3,1.6-7.4,2.1
		C34.5,306.2,36,311.4,38.9,316.8z M33.2,300.3c0.7-0.6,1.4-1.3,2-1.9c-0.9-0.4-1.7-0.9-2.5-1.4C32.8,296.9,32.8,298.2,33.2,300.3z
		 M32.2,325.3c0.1-0.1,0.1-0.1,0.2-0.2c-0.1-0.1-0.3-0.3-0.4-0.5C32,324.7,32,324.9,32.2,325.3z M39.7,293.1
		c8.9-12.2,9.8-25.8,9.8-25.8c-3.2,2.3-7.8,3.4-11.2,4c0.7,0.7,1.5,1.4,2.4,2.2c0,0-2.7-0.6-5.9-1.7c-0.4,0-0.7,0.1-0.7,0.1
		c0.1-0.1,0.2-0.1,0.3-0.2c-2.4-0.8-5-1.8-6.7-3C27.7,268.7,31.1,281.9,39.7,293.1z M12.4,277c2-4.9,2.9-8.3,2.9-8.3
		c-1.5,1-3.6,1.9-5.7,2.7C10.4,273.2,11.4,275.1,12.4,277z M10.2,297.4c0-0.3,0-0.5,0-0.5c-0.1,0-0.1,0.1-0.2,0.1
		C10.1,297.1,10.2,297.2,10.2,297.4z M9.4,283.4c0.4-0.8,0.8-1.5,1.1-2.2c-0.7-0.3-1.4-0.7-1.9-1.1C8.6,280.1,8.9,281.4,9.4,283.4z
		 M8,307.5c0.2-0.6,0.4-1.2,0.5-1.8c-0.5-0.2-0.9-0.5-1.3-0.8C7.3,304.9,7.5,305.9,8,307.5z"/>
	<polygon class="st9" points="500,55.1 149.6,59.6 500,62.1 	"/>
	<polygon class="st10" points="174.7,95.9 7.4,98.1 174.7,99.4 342,98.1 	"/>
	<g>
		<g>
			<path class="st5" d="M338.1,267.7H225.7c-8.3,0-15,6.7-15,15v18.8c0,8.3,6.7,15,15,15h112.3c8.3,0,15-6.7,15-15v-18.8
				C353.1,274.5,346.4,267.7,338.1,267.7z"/>
			<path class="st8" d="M353.1,282.8c0-8.3-6.7-15-15-15H225.7c-8.3,0-15,6.7-15,15v18.8h142.4V282.8z"/>
			<g>
				<g>
					<g>
						<rect x="304.6" y="267.7" class="st11" width="7.4" height="48.9"/>
						<path class="st11" d="M311.7,276.8h-6.9c-3.1,0-5.6,2.5-5.6,5.6v3.9c0,3.1,2.5,5.6,5.6,5.6h6.9c3.1,0,5.6-2.5,5.6-5.6v-3.9
							C317.2,279.3,314.7,276.8,311.7,276.8z M313.5,286.3c0,1-0.8,1.8-1.8,1.8h-6.9c-1,0-1.8-0.8-1.8-1.8v-3.9c0-1,0.8-1.8,1.8-1.8
							h6.9c1,0,1.8,0.8,1.8,1.8V286.3z"/>
					</g>
					<g>
						<rect x="252" y="267.7" class="st11" width="7.4" height="48.9"/>
						<path class="st11" d="M259,276.8h-6.9c-3.1,0-5.6,2.5-5.6,5.6v3.9c0,3.1,2.5,5.6,5.6,5.6h6.9c3.1,0,5.6-2.5,5.6-5.6v-3.9
							C264.6,279.3,262.1,276.8,259,276.8z M260.8,286.3c0,1-0.8,1.8-1.8,1.8h-6.9c-1,0-1.8-0.8-1.8-1.8v-3.9c0-1,0.8-1.8,1.8-1.8
							h6.9c1,0,1.8,0.8,1.8,1.8V286.3z"/>
					</g>
				</g>
			</g>
		</g>
		<path class="st11" d="M370.5,299.7h-181c-5.6,0-10.1,4.5-10.1,10.1c0,5.6,4.5,10.1,10.1,10.1h181c5.6,0,10.1-4.5,10.1-10.1
			C380.6,304.3,376.1,299.7,370.5,299.7z M370.5,316.2h-181c-3.5,0-6.3-2.8-6.3-6.3c0-3.5,2.8-6.3,6.3-6.3h181
			c3.5,0,6.3,2.8,6.3,6.3C376.8,313.3,374,316.2,370.5,316.2z"/>
		<g>
			<g>
				<g>
					<path class="st11" d="M409.6,455.6H91.9c-7.9,0-14.3-6.4-14.3-14.3v-46.6c0-6.3,2.8-12.2,7.6-16.2l3.7-3.1l18.2-33.7
						c5.6-10.5,16.6-17,28.5-17h262.7c13.6,0,23.6,12.8,23.6,23.1l5,36.8l0,52.9C427.4,447.3,419.5,455.6,409.6,455.6z"/>
				</g>
			</g>
		</g>
		<path class="st12" d="M398.3,324.6H135.5c-10.1,0-19.5,4.7-25.6,12.5h308.8C414.8,330.3,407.4,324.6,398.3,324.6z"/>
		<path class="st8" d="M426.9,437.3l0-52.9l-5-36.8c0-2.2-0.5-4.5-1.3-6.8H107.5c-0.1,0.2-0.3,0.5-0.4,0.7l-3.3,6.1l-14.9,27.7
			l-3.7,3.1c-4.8,4-7.6,9.9-7.6,16.2v46.6h349C426.9,440,427,438.7,426.9,437.3z"/>
		<path class="st13" d="M429.4,428.7h-2.5v-25.1h2.5c3.6,0,6.5,2.9,6.5,6.5v12.1C435.9,425.8,433,428.7,429.4,428.7z"/>
		<path class="st12" d="M73.8,428.7h3.8v-37.5h-3.8c-5.3,0-9.7,4.3-9.7,9.7V419C64.1,424.3,68.5,428.7,73.8,428.7z"/>
		<g>
			<g>
				<path class="st14" d="M205,339h-75c-4.1,0-7.8,2.4-9.5,6.1l-9.2,19.9c-3.2,6.9,1.9,14.8,9.5,14.8H205c5.8,0,10.4-4.7,10.4-10.4
					v-19.9C215.5,343.7,210.8,339,205,339z"/>
				<path class="st14" d="M404.7,348.9c-1.5-5.2-4.4-9.8-9.8-9.8h-36.2c-5.4,0-9.8,4.4-9.8,9.8V370c0,5.4,4.4,9.8,9.8,9.8h39.9
					c5.4,0,9.8-4.4,9.8-9.8L404.7,348.9z"/>
				<path class="st14" d="M321.7,339h-78.3c-7.4,0-13.5,6-13.5,13.5v13.8c0,7.4,6,13.5,13.5,13.5h78.3c7.4,0,13.5-6,13.5-13.5v-13.8
					C335.2,345.1,329.1,339,321.7,339z"/>
			</g>
		</g>
		<g>
			<polygon class="st12" points="390.8,340.9 377.5,378.3 380.8,378.3 393.5,340.9 			"/>
			<polygon class="st12" points="377.3,340.9 363.9,378.3 374.3,378.3 386.9,340.9 			"/>
			<polygon class="st12" points="281.3,378.3 284.6,378.3 297.3,340.9 294.6,340.9 			"/>
			<polygon class="st12" points="281.1,340.9 267.8,378.3 278.1,378.3 290.8,340.9 			"/>
			<polygon class="st12" points="151.4,378.3 154.8,378.3 167.4,340.9 164.8,340.9 			"/>
			<polygon class="st12" points="151.2,340.9 137.9,378.3 148.2,378.3 160.9,340.9 			"/>
		</g>
		<g>
			<path class="st15" d="M205,337.2h-75c-4.8,0-9.2,2.8-11.2,7.2l-9.2,19.9c-1.8,3.8-1.5,8.2,0.8,11.8c2.3,3.6,6.2,5.7,10.4,5.7H205
				c6.8,0,12.3-5.5,12.3-12.3v-19.9C217.3,342.7,211.8,337.2,205,337.2z M213.6,369.3c0,4.7-3.8,8.6-8.6,8.6h-84.2
				c-2.9,0-5.6-1.5-7.2-3.9c-1.6-2.5-1.8-5.5-0.6-8.2l9.2-19.9c1.4-3,4.4-5,7.8-5h75c4.7,0,8.6,3.8,8.6,8.6V369.3z"/>
			<path class="st15" d="M406.6,348.5l0-0.2c-2.7-9.2-7.8-11.2-11.6-11.2h-36.2c-6.4,0-11.7,5.2-11.7,11.7V370
				c0,6.4,5.2,11.7,11.7,11.7h39.9c6.4,0,11.7-5.2,11.7-11.7L406.6,348.5z M398.7,377.9h-39.9c-4.4,0-7.9-3.6-7.9-7.9v-21.1
				c0-4.4,3.6-7.9,7.9-7.9h36.2c3.7,0,6.4,2.8,8,8.4l3.7,20.9C406.5,374.4,403,377.9,398.7,377.9z"/>
			<path class="st15" d="M321.7,337.2h-78.3c-8.5,0-15.4,6.9-15.4,15.4v13.8c0,8.5,6.9,15.4,15.4,15.4h78.3
				c8.5,0,15.4-6.9,15.4-15.4v-13.8C337,344.1,330.2,337.2,321.7,337.2z M333.3,366.3c0,6.4-5.2,11.6-11.6,11.6h-78.3
				c-6.4,0-11.6-5.2-11.6-11.6v-13.8c0-6.4,5.2-11.6,11.6-11.6h78.3c6.4,0,11.6,5.2,11.6,11.6V366.3z"/>
		</g>
		<rect x="77.6" y="428.7" class="st5" width="349.3" height="12.7"/>
		<circle class="st11" cx="374.5" cy="448.1" r="25.5"/>
		<circle class="st5" cx="374.5" cy="448.1" r="13.6"/>
		<circle class="st11" cx="140.3" cy="448.1" r="25.5"/>
		<circle class="st5" cx="140.3" cy="448.1" r="13.6"/>
		<path class="st11" d="M407.9,432.6c-2-4.8-10.4-21-33.4-21c-22.9,0-30.2,16-31.9,21H171.9c-1.7-4.8-9-20-31.6-20
			c-22.7,0-31,15.4-33.1,20H87.8v-41.4c0-6.8,7.4-9.5,7.7-9.6l0.7-0.2l21.3-41.4l-3.3-1.7l-20.6,40.1c-2.4,1-9.5,4.8-9.5,12.8v45.2
			l25.9,0l0.4-1.3c0.2-0.8,6.3-18.7,30-18.7c23.6,0,28.2,17.8,28.4,18.6l0.3,1.5h174.9l1.5,0l0.3-1.5c0.2-0.8,4.8-19.5,28.7-19.5
			c24.1,0,30.1,18.8,30.3,19.6l0.4,1.3h21.7v-3.8H407.9z"/>
		<rect x="340.2" y="300.9" class="st11" width="3.8" height="154.7"/>
		<rect x="221" y="300.9" class="st11" width="3.8" height="154.7"/>
		<circle class="st12" cx="140.3" cy="448.1" r="5.9"/>
		<circle class="st12" cx="374.5" cy="448.1" r="5.9"/>
		<path class="st12" d="M421.6,447.2h10.6c3.3,0,5.9-2.6,5.9-5.9l0,0c0-3.3-2.6-5.9-5.9-5.9h-10.6c-3.3,0-5.9,2.6-5.9,5.9l0,0
			C415.7,444.6,418.4,447.2,421.6,447.2z"/>
		<path class="st12" d="M72.3,447.2h10.6c3.3,0,5.9-2.6,5.9-5.9l0,0c0-3.3-2.6-5.9-5.9-5.9H72.3c-3.3,0-5.9,2.6-5.9,5.9l0,0
			C66.4,444.6,69,447.2,72.3,447.2z"/>
		<path class="st11" d="M444.6,474H55.4c-1.6,0-2.9-1.3-2.9-2.9l0,0c0-1.6,1.3-2.9,2.9-2.9h389.2c1.6,0,2.9,1.3,2.9,2.9l0,0
			C447.5,472.7,446.2,474,444.6,474z"/>
	</g>
</g>
</svg>
