<?xml version="1.0" encoding="utf-8"?>
<!-- Generator: Adobe Illustrator 27.7.0, SVG Export Plug-In . SVG Version: 6.00 Build 0)  -->
<svg version="1.1" id="Layer_1" xmlns:xodm="http://www.corel.com/coreldraw/odm/2003"
	 xmlns="http://www.w3.org/2000/svg" xmlns:xlink="http://www.w3.org/1999/xlink" x="0px" y="0px" viewBox="0 0 190.2 47.9"
	 style="enable-background:new 0 0 190.2 47.9;" xml:space="preserve">
<style type="text/css">
	.st0{fill:#A51E32;}
	.st1{fill-rule:evenodd;clip-rule:evenodd;fill:#2D1E28;}
	.st2{fill-rule:evenodd;clip-rule:evenodd;fill:#A51E32;}
</style>
<g id="Layer_x0020_1">
	<g id="_105553318249568">
		<path class="st0" d="M112.2,29.9l12,18h7.7l-12.6-18.1v-0.3l12.1-16.3h-7.5l-11.6,16.5L112.2,29.9L112.2,29.9z M111.5,0h-6.2v47.9
			h6.2V0z"/>
		<path class="st0" d="M9.8,22c4,0,7.4,0.9,10.2,2.7c0-5.5-4.5-7.8-10.1-7.8l0.5-4.4c2.3,0,5.9,0.2,7.4,0.5
			c7.9,1.7,8.4,7.5,8.4,14.4v20.3c-4.7,0.5-8.5,0.7-11.3,0.7C5,48.5,0,46,0,37.8v-5.7c0-4.5,1.6-7.5,4.7-9.1C6.2,22.4,7.9,22,9.8,22
			L9.8,22z M20,42.4V30.9c-2.4-1.4-5.2-2.3-8.2-2.7c-0.3,0-0.9-0.1-1.6-0.1s-1.6,0.3-2.6,1c-1,0.7-1.4,1.9-1.4,3.6v4.5
			c0,4.7,3,5.5,8.9,5.5C16.6,42.8,18.2,42.7,20,42.4L20,42.4z"/>
		<path class="st0" d="M48.6,14.7c2-1,3.9-1.6,6.5-1.6c0.8,0,2.5,0.2,5.2,0.7l-1.5,5.9c-1.2-0.6-2.4-0.9-3.6-0.9s-2.3,0.2-3.3,0.5
			c-2.5,0.9-3.7,2.5-3.7,4.8v23.6h-6.2V12.7h5.9L48.6,14.7L48.6,14.7z"/>
		<path class="st0" d="M79.7,14.7c2-1,3.9-1.6,6.5-1.6c0.8,0,2.5,0.2,5.2,0.7l-1.5,5.9c-1.2-0.6-2.4-0.9-3.6-0.9S84,19.1,83,19.5
			c-2.5,0.9-3.7,2.5-3.7,4.8v23.6h-6.2V12.7H79L79.7,14.7L79.7,14.7z"/>
		<path class="st1" d="M161.8,44.2l0-36.7c-5.7,11.5-15.2,19.9-26.3,22.3l6,8.5C148,36.9,157.1,39.4,161.8,44.2L161.8,44.2z"/>
		<path class="st2" d="M163.9,44.2l0-36.7c5.7,11.5,15.2,19.9,26.3,22.3l-6,8.5C177.3,36.8,169,39,163.9,44.2L163.9,44.2z"/>
	</g>
</g>
</svg>
