<?xml version="1.0" encoding="UTF-8"?>
<!-- Generated by Pixelmator Pro 3.6.17 -->
<svg width="480" height="80" viewBox="0 0 480 80" xmlns="http://www.w3.org/2000/svg">
    <g id="Group">
        <path id="Path" fill="#ffffff" stroke="none" d="M 178.600006 57.100002 L 170.899994 57.100002 L 170.899994 28 C 170.899994 20.699997 167.5 16.300003 160.300003 16.300003 C 153.100006 16.300003 149.300003 21.599998 149.300003 28.5 L 149.300003 57.100002 L 141.699997 57.100002 L 141.699997 28 C 141.699997 20.699997 138.100006 16.300003 131.199997 16.300003 C 124.300003 16.300003 120.100006 21.599998 120.100006 28.5 L 120.100006 57.100002 L 112.400002 57.100002 L 112.400002 10.400002 L 119.800003 10.400002 L 119.800003 15.5 C 122.699997 11.599998 127.100006 9.199997 132.199997 9.199997 C 137.300003 9.199997 143.699997 12.199997 146.600006 17.199997 C 149.5 12.400002 154.5 9.199997 161.199997 9.199997 C 172 9.199997 178.5 16.599998 178.5 28.200001 L 178.5 57.100002 L 178.5 57.100002 Z"/>
        <path id="path1" fill="#ffffff" stroke="none" d="M 197.699997 57.100002 L 190 57.100002 L 190 10.400002 L 197.699997 10.400002 L 197.699997 57.100002 L 197.699997 57.100002 Z"/>
        <path id="path2" fill="#ffffff" stroke="none" d="M 252.799988 54.899998 C 252.799988 69.899994 242.399994 80 227.199997 80 C 212 80 206.199997 74.100006 203.699997 64.600006 L 212.300003 64.600006 C 215.600006 71.600006 223.5 72.600006 227.199997 72.600006 C 240 72.600006 244.600006 63.299999 244.600006 54.899998 L 244.600006 50 C 241 54.5 234.800003 58.299999 227.699997 58.299999 C 213.399994 58.299999 202.800003 47.299999 202.800003 33.799999 C 202.800003 20.300003 213.399994 9.199997 227.699997 9.199997 C 242 9.199997 241.399994 13.099998 244.899994 17.800003 L 244.899994 10.400002 L 252.799988 10.400002 L 252.799988 55 Z M 227.699997 16.400002 C 218.300003 16.400002 211 24.200005 211 33.899998 C 211 43.599998 218.399994 51.200001 227.699997 51.200001 C 237 51.200001 244.600006 43.399998 244.600006 33.899998 C 244.600006 24.400002 236.899994 16.400002 227.699997 16.400002 Z"/>
        <path id="path3" fill="#ffffff" stroke="none" d="M 286.299988 16.900002 C 278.200012 16.400002 271.299988 20.699997 271.299988 30.099998 L 271.299988 57.100002 L 263.600006 57.100002 L 263.600006 10.400002 L 271 10.400002 L 271 15.699997 C 274.5 10.699997 280.899994 8.699997 286.200012 9.300003 L 286.200012 16.900002 L 286.200012 16.900002 Z"/>
        <path id="path4" fill="#ffffff" stroke="none" d="M 361.200012 57.100002 C 350.299988 58.399998 342.799988 51.899998 342.799988 40 L 342.799988 17.699997 L 336.399994 17.699997 L 336.399994 10.300003 L 342.799988 10.300003 L 342.799988 0.300003 L 350.399994 0.300003 L 350.399994 10.300003 L 361 10.300003 L 361 17.699997 L 350.399994 17.699997 L 350.399994 40 C 350.399994 48.299999 355.5 50.299999 361.200012 50 L 361.200012 57.100002 L 361.200012 57.100002 Z"/>
        <path id="path5" fill="#ffffff" stroke="none" d="M 377.700012 57.100002 L 370 57.100002 L 370 10.400002 L 377.700012 10.400002 L 377.700012 57.100002 L 377.700012 57.100002 Z"/>
        <path id="path6" fill="#ffffff" stroke="none" d="M 432.899994 33.899998 C 432.899994 47.299999 422.700012 58.200001 409.399994 58.200001 C 396.100006 58.200001 385.899994 47.299999 385.899994 33.899998 C 385.899994 20.5 396.200012 9.199997 409.399994 9.199997 C 422.600006 9.199997 432.899994 20.300003 432.899994 33.899998 Z M 425.100006 33.899998 C 425.100006 24.200005 418 16.300003 409.299988 16.300003 C 400.600006 16.300003 393.600006 24.200005 393.600006 33.899998 C 393.600006 43.599998 400.700012 51.099998 409.299988 51.099998 C 417.899994 51.099998 425.100006 43.399998 425.100006 33.899998 Z"/>
        <path id="path7" fill="#ffffff" stroke="none" d="M 480 57.100002 L 472.399994 57.100002 L 472.399994 28.700001 C 472.399994 21.5 468.399994 16.300003 461 16.300003 C 453.600006 16.300003 448.799988 21.599998 448.799988 28.5 L 448.799988 57.100002 L 441.100006 57.100002 L 441.100006 10.400002 L 448.5 10.400002 L 448.5 15.5 C 451.700012 11.599998 456.5 9.199997 462.100006 9.199997 C 473.5 9.199997 480.100006 17.400002 480.100006 29 L 480.100006 57.100002 Z"/>
    </g>
    <path id="path8" fill="#ffffff" stroke="none" d="M 48.900002 63.799999 L 41.299999 63.799999 C 38.799999 63.799999 36.5 62.499996 35.099998 60.399998 C 33.799999 58.200001 33.700001 55.599998 34.799999 53.399998 L 42.700001 37.799999 L 36.5 26.399998 L 26.200001 44.899998 C 23.5 49.799999 18.299999 52.899998 12.700001 52.899998 L -0.1 52.899998 L 17.1 21.800003 C 19.200001 18 23.099998 15.699997 27.400002 15.699997 C 31.700001 15.699997 33.5 16.699997 35.799999 18.599998 L 45.299999 1.699997 L 54.5 18.099998 C 56.300003 17 58.300003 16.300003 60.5 16.300003 L 61.400002 16.300003 C 66.300003 16.300003 70.900002 18.900002 73.5 23.099998 L 92.199997 53.799999 L 77.5 52.799999 C 71.900002 52.399998 67 49.299999 64.199997 44.399998 L 53.800003 25.900002 L 47.700001 37.899998 L 55.699997 52.399998 C 57 54.899998 57 57.799999 55.599998 60.200001 C 54.199997 62.600002 51.599998 63.999996 48.799999 63.999996 L 48.799999 63.999996 Z M 45.400002 42.299999 L 38.799999 55.299999 C 38.299999 56.200001 38.400002 57.200001 38.900002 58.100002 C 39.400002 58.999996 40.299999 59.499996 41.299999 59.499996 L 48.900002 59.499996 C 50.099998 59.499996 51.299999 58.899998 51.900002 57.799999 C 52.5 56.700001 52.599998 55.399998 51.900002 54.299999 L 45.299999 42.399998 L 45.299999 42.399998 Z M 56.800003 21.800003 L 68.199997 42.099998 C 70.199997 45.700001 73.900002 48 78 48.299999 L 84.199997 48.700001 L 69.900002 25.200005 C 68.099998 22.300003 65 20.5 61.599998 20.5 L 60.699997 20.5 C 59.300003 20.5 57.900002 20.900002 56.800003 21.699997 L 56.800003 21.699997 Z M 7.4 48.399998 L 12.799999 48.399998 C 16.799999 48.399998 20.6 46.200001 22.5 42.700001 L 33.799999 22.400002 C 32.099998 20.900002 29.900002 20 27.5 20 C 25.099998 20 22.299999 21.5 21 23.800003 L 7.4 48.399998 L 7.4 48.399998 Z M 39.099998 21.900002 C 39.299999 22.199997 39.5 22.5 39.599998 22.800003 L 45.200001 33 L 50.700001 22.199997 C 50.900002 21.800003 51.099998 21.400002 51.400002 21.099998 L 45.400002 10.5 C 45.400002 10.5 39.099998 21.900002 39 21.900002 Z"/>
    <path id="path9" fill="#ffffff" stroke="none" d="M 321.899994 50 C 318.399994 54.799999 313.100006 57.799999 306.399994 57.799999 C 293.299988 57.799999 284.700012 46.799999 284.700012 34.099998 C 284.700012 21.400002 293.600006 10.5 306.399994 10.5 C 319.200012 10.5 318 13.300003 321.399994 17.599998 L 321.399994 11.300003 L 329.100006 11.300003 L 329.299988 56.700001 L 322.100006 56.700001 C 322.100006 56.700001 322.100006 50.099998 322.100006 50.099998 L 322.100006 50.099998 Z M 321.799988 34.099998 C 321.799988 23.900002 315 17.5 306.899994 17.5 C 298.799988 17.5 292.799988 24.200005 292.799988 34.099998 C 292.799988 44 298.700012 50.899998 306.899994 50.899998 C 315.100006 50.899998 321.799988 44.5 321.799988 34.099998 Z"/>
</svg>
