<?xml version="1.0" encoding="UTF-8"?>
<!-- Generated by Pixelmator Pro 3.7 -->
<svg width="92" height="64" viewBox="0 0 92 64" xmlns="http://www.w3.org/2000/svg">
    <path id="path8" fill="#ffffff" stroke="none" d="M 48.900002 63.799999 L 41.299999 63.799999 C 38.799999 63.799999 36.5 62.499996 35.099998 60.399998 C 33.799999 58.200001 33.700001 55.599998 34.799999 53.399998 L 42.700001 37.799999 L 36.5 26.399998 L 26.200001 44.899998 C 23.5 49.799999 18.299999 52.899998 12.700001 52.899998 L -0.1 52.899998 L 17.1 21.800003 C 19.200001 18 23.099998 15.699997 27.400002 15.699997 C 31.700001 15.699997 33.5 16.699997 35.799999 18.599998 L 45.299999 1.699997 L 54.5 18.099998 C 56.300003 17 58.300003 16.300003 60.5 16.300003 L 61.400002 16.300003 C 66.300003 16.300003 70.900002 18.900002 73.5 23.099998 L 92.199997 53.799999 L 77.5 52.799999 C 71.900002 52.399998 67 49.299999 64.199997 44.399998 L 53.800003 25.900002 L 47.700001 37.899998 L 55.699997 52.399998 C 57 54.899998 57 57.799999 55.599998 60.200001 C 54.199997 62.600002 51.599998 63.999996 48.799999 63.999996 L 48.799999 63.999996 Z M 45.400002 42.299999 L 38.799999 55.299999 C 38.299999 56.200001 38.400002 57.200001 38.900002 58.100002 C 39.400002 58.999996 40.299999 59.499996 41.299999 59.499996 L 48.900002 59.499996 C 50.099998 59.499996 51.299999 58.899998 51.900002 57.799999 C 52.5 56.700001 52.599998 55.399998 51.900002 54.299999 L 45.299999 42.399998 L 45.299999 42.399998 Z M 56.800003 21.800003 L 68.199997 42.099998 C 70.199997 45.700001 73.900002 48 78 48.299999 L 84.199997 48.700001 L 69.900002 25.200005 C 68.099998 22.300003 65 20.5 61.599998 20.5 L 60.699997 20.5 C 59.300003 20.5 57.900002 20.900002 56.800003 21.699997 L 56.800003 21.699997 Z M 7.4 48.399998 L 12.799999 48.399998 C 16.799999 48.399998 20.6 46.200001 22.5 42.700001 L 33.799999 22.400002 C 32.099998 20.900002 29.900002 20 27.5 20 C 25.099998 20 22.299999 21.5 21 23.800003 L 7.4 48.399998 L 7.4 48.399998 Z M 39.099998 21.900002 C 39.299999 22.199997 39.5 22.5 39.599998 22.800003 L 45.200001 33 L 50.700001 22.199997 C 50.900002 21.800003 51.099998 21.400002 51.400002 21.099998 L 45.400002 10.5 C 45.400002 10.5 39.099998 21.900002 39 21.900002 Z"/>
</svg>
