<?xml version="1.0" encoding="UTF-8"?>
<svg xmlns="http://www.w3.org/2000/svg" xmlns:xlink="http://www.w3.org/1999/xlink" version="1.1" viewBox="0 0 490.62 417.19">
  <!-- Generator: Adobe Illustrator 29.1.0, SVG Export Plug-In . SVG Version: 2.1.0 Build 142)  -->
  <defs>
    <style>
      .st0 {
        fill: none;
      }

      .st1 {
        isolation: isolate;
      }

      .st2 {
        clip-path: url(#clippath-1);
      }

      .st3 {
        clip-path: url(#clippath-2);
      }

      .st4 {
        mix-blend-mode: color;
      }

      .st5 {
        fill: #0078fc;
      }

      .st6 {
        fill: #9ad3fc;
      }
    </style>
    <clipPath id="clippath-1">
      <rect class="st0" x="92.72" y="77.49" width="300.64" height="219.84" rx="17.51" ry="17.51"/>
    </clipPath>
    <clipPath id="clippath-2">
      <rect class="st0" x="-198.25" y="-360.23" width="1467.3" height="1054.26"/>
    </clipPath>
  </defs>
  <g class="st1">
    <g id="Layer_1">
      <g class="st4">
        <path class="st6" d="M176.48,205.02c-36.47,49.46-29.98,140.82,38.18,156.94,57.21,13.53,111.95-35.3,148.74-70.87,40.05-38.72,77.35-85.26,54.35-136.19-5.2-11.53-15.41-20.56-28.7-24.71-16.2-5.06-40.22-4.2-69.92,21.47-8.22,7.1-18.41,12.1-29.33,14.29-20.92,4.21-55.27,11.19-76.88,16.01-14.75,3.28-27.97,11.55-36.45,23.05Z"/>
      </g>
      <g class="st2">
        <g class="st3">
          <g>
            <path class="st5" d="M92.18,76.89c0,95.77,108.38,104.02,108.38,109.69s-108.38,14.35-108.38,109.55h286.2v-39.32c14.99-171.51-80.56-179.93-179.93-179.93h-106.27Z"/>
            <path class="st6" d="M219.87,236.2h4.12c.4,0,.92-.3,1.14-.67l8.1-16.19c.23-.37.74-.66,1.14-.66h4.75c.41,0,.74-.36.74-.81v-4.34c0-.44-.33-.8-.74-.8h-1.86c-.41,0-.55-.3-.33-.67l.57-1.1c.22-.37.74-.67,1.14-.67h4.12c.4,0,.74-.36.74-.8v-4.35c0-.44-.33-.8-.74-.8h-1.36c-.41,0-.55-.3-.33-.67l5.35-10.6c.22-.37.74-.68,1.14-.69,21.3-.61,30.2-3.23,30.2-5.86s-8.9-5.24-30.2-5.85c-.4,0-.92-.32-1.14-.69l-5.24-10.6c-.22-.37-.08-.67.33-.67h1.36c.41,0,.73-.36.73-.8v-4.35c0-.44-.33-.8-.73-.8h-4.27c-.41,0-.92-.3-1.14-.67l-.57-1.1c-.23-.36-.08-.66.33-.66h1.9c.41,0,.73-.36.73-.8v-4.35c0-.44-.33-.8-.73-.8h-4.76c-.41,0-.92-.3-1.14-.67l-8.1-16.19c-.23-.37-.74-.67-1.14-.67h-4.12c-.41,0-.64.34-.52.77l3.98,42.45c.12.42-.11.79-.51.81-6.62.4-9.22.41-13.57.89-.41.04-.95-.17-1.23-.49l-7.86-8.98c-.28-.32-.83-.59-1.24-.59h-1.44c-.41,0-.67.36-.59.79l2.09,10.46c.08.44-.18.87-.57.98-1.63.47-2.58,2.1-2.58,2.59s.95,2.11,2.58,2.59c.39.11.65.55.57.98l-2.09,10.47c-.08.43.19.79.59.79h1.44c.41,0,.96-.26,1.24-.59l7.86-8.98c.28-.32.83-.54,1.23-.49,3.96.44,6.95.49,13.57.89.4.02.63.39.51.81l-3.98,42.45c-.12.42.11.77.52.77Z"/>
          </g>
        </g>
      </g>
    </g>
  </g>
</svg>