<svg width="40" height="40" viewBox="0 0 40 40" fill="none" xmlns="http://www.w3.org/2000/svg">
<g clip-path="url(#clip0_23122_21659)">
<mask id="mask0_23122_21659" style="mask-type:luminance" maskUnits="userSpaceOnUse" x="0" y="0" width="40" height="40">
<path d="M0 0H40V40H0V0Z" fill="white"/>
</mask>
<g mask="url(#mask0_23122_21659)">
<mask id="mask1_23122_21659" style="mask-type:luminance" maskUnits="userSpaceOnUse" x="8" y="2" width="24" height="36">
<path d="M8.28125 2.5H31.7188V37.5H8.28125V2.5Z" fill="white"/>
</mask>
<g mask="url(#mask1_23122_21659)">
<path fill-rule="evenodd" clip-rule="evenodd" d="M18.9787 19.4978C21.3503 17.2412 20.6271 14.4509 18.48 11.0698C16.3329 7.68885 12.01 6.48651 11.2034 7.25401C10.3967 8.02151 10.2171 13.5079 12.3643 16.889C14.5112 20.2699 16.607 21.7543 18.9787 19.4978Z" fill="url(#paint0_linear_23122_21659)"/>
<path fill-rule="evenodd" clip-rule="evenodd" d="M21.0286 19.811C22.7824 22.5726 25.1275 21.5624 28.0307 18.8001C30.9338 16.0377 32.1383 10.7471 31.5419 9.80787C30.9455 8.86865 26.4114 8.91631 23.5083 11.6787C20.6052 14.441 19.2749 17.0494 21.0286 19.811Z" fill="url(#paint1_linear_23122_21659)"/>
<path fill-rule="evenodd" clip-rule="evenodd" d="M20.0693 18.2914C22.9812 18.6481 24.1268 15.9603 24.6615 11.6161C25.1961 7.27189 22.9957 2.68064 22.0053 2.55939C21.015 2.43799 17.6868 6.35189 17.1523 10.6963C16.6176 15.0405 17.1573 17.9345 20.0693 18.2914Z" fill="url(#paint2_linear_23122_21659)"/>
<path fill-rule="evenodd" clip-rule="evenodd" d="M19.3369 37.5003C25.4437 37.5003 30.3962 35.7286 30.3962 27.6941C30.3962 19.6595 25.4437 13.0664 19.3369 13.0664C13.23 13.0664 8.28125 19.6595 8.28125 27.6941C8.28125 35.7286 13.2298 37.5003 19.3369 37.5003Z" fill="url(#paint3_linear_23122_21659)"/>
<path d="M24.9227 26.0544C25.795 26.0544 26.5022 25.726 26.5022 25.3206C26.5022 24.9153 25.795 24.5869 24.9227 24.5869C24.0503 24.5869 23.343 24.9155 23.343 25.3206C23.343 25.726 24.0502 26.0544 24.9227 26.0544ZM13.2245 25.6086C14.0905 25.7149 14.8325 25.4749 14.8819 25.0727C14.9314 24.6705 14.2695 24.2583 13.4037 24.1521C12.5376 24.046 11.7956 24.286 11.7462 24.6881C11.6969 25.0903 12.3587 25.5025 13.2245 25.6086Z" fill="#EAADCC"/>
<path d="M20.3487 25.0603C19.8733 25.4462 19.3242 25.6036 18.7014 25.5325C18.0785 25.4615 17.6168 25.2032 17.3164 24.7578" stroke="black" stroke-width="0.9375" stroke-linecap="round" stroke-linejoin="round"/>
<path fill-rule="evenodd" clip-rule="evenodd" d="M14.2309 21.2432C14.6668 21.228 15.0677 21.3907 15.3634 21.6661C15.5152 21.8072 15.6377 21.9769 15.7238 22.1654C15.8098 22.354 15.8578 22.5577 15.8648 22.7649C15.8722 22.972 15.8387 23.1785 15.766 23.3726C15.6933 23.5667 15.583 23.7445 15.4413 23.8958C15.2999 24.0475 15.1299 24.1698 14.9412 24.2557C14.7524 24.3416 14.5486 24.3895 14.3413 24.3966C14.134 24.404 13.9273 24.3704 13.733 24.2979C13.5386 24.2253 13.3605 24.1151 13.2088 23.9736C13.057 23.8326 12.9345 23.6629 12.8485 23.4743C12.7624 23.2857 12.7146 23.082 12.7076 22.8749C12.7001 22.6677 12.7336 22.4612 12.8062 22.2671C12.8789 22.0729 12.9892 21.8951 13.1309 21.7438C13.2722 21.592 13.4422 21.4697 13.6309 21.3838C13.8197 21.2979 14.0236 21.2501 14.2309 21.2432Z" fill="black"/>
<path fill-rule="evenodd" clip-rule="evenodd" d="M14.3139 22.5609C14.3092 22.4245 14.2505 22.2957 14.1507 22.2027C14.051 22.1096 13.9184 22.06 13.7821 22.0648C13.6457 22.0695 13.5169 22.1282 13.4238 22.228C13.3308 22.3277 13.2812 22.4603 13.286 22.5966C13.2884 22.6641 13.304 22.7304 13.3321 22.7919C13.3601 22.8533 13.3999 22.9086 13.4494 22.9546C13.4988 23.0006 13.5567 23.0364 13.62 23.06C13.6832 23.0836 13.7505 23.0945 13.818 23.0921C13.9542 23.0874 14.0829 23.0288 14.1759 22.9291C14.2689 22.8295 14.3186 22.6971 14.3139 22.5609Z" fill="white"/>
<path fill-rule="evenodd" clip-rule="evenodd" d="M23.8023 21.6436C24.2382 21.6284 24.639 21.7911 24.9346 22.0664C25.0865 22.2074 25.209 22.3771 25.2951 22.5657C25.3811 22.7542 25.429 22.958 25.436 23.1651C25.4435 23.3722 25.41 23.5788 25.3374 23.7729C25.2647 23.9671 25.1544 24.1449 25.0128 24.2962C24.8714 24.448 24.7014 24.5703 24.5126 24.6563C24.3238 24.7422 24.1199 24.7899 23.9126 24.7968C23.7053 24.8044 23.4986 24.7709 23.3042 24.6983C23.1099 24.6257 22.9319 24.5155 22.7803 24.3739C22.6284 24.2328 22.5059 24.0631 22.4198 23.8746C22.3338 23.686 22.2859 23.4823 22.2789 23.2751C22.2714 23.068 22.3049 22.8615 22.3776 22.6674C22.4502 22.4733 22.5605 22.2955 22.7021 22.1442C22.8435 21.9924 23.0135 21.87 23.2024 21.7841C23.3911 21.6982 23.595 21.6504 23.8023 21.6436Z" fill="black"/>
<path d="M15.6445 22.772C15.6707 23.5214 15.0839 24.1499 14.3335 24.176C13.5835 24.2024 12.9542 23.6159 12.9279 22.8665C12.9017 22.1171 13.4884 21.4887 14.2385 21.4626C14.9887 21.4365 15.6182 22.0226 15.6445 22.772ZM16.085 22.7567C16.0503 21.7643 15.2167 20.9879 14.2231 21.0226C13.2296 21.0571 12.4526 21.8895 12.4875 22.8818C12.5223 23.8742 13.3556 24.6506 14.349 24.616C15.3426 24.5815 16.1198 23.749 16.085 22.7567ZM25.2156 23.1724C25.2418 23.9218 24.6551 24.5504 23.905 24.5765C23.1548 24.6026 22.5253 24.0164 22.499 23.267C22.4728 22.5176 23.0596 21.889 23.8098 21.8629C24.56 21.8368 25.1893 22.4231 25.2156 23.1724ZM25.6562 23.1571C25.6214 22.1648 24.7879 21.3884 23.7943 21.4229C22.8009 21.4576 22.0237 22.2899 22.0585 23.2823C22.0932 24.2746 22.9268 25.051 23.9203 25.0165C24.9139 24.9818 25.6909 24.1495 25.6562 23.1571Z" fill="white" stroke="white" stroke-width="0.46875"/>
<path fill-rule="evenodd" clip-rule="evenodd" d="M23.8851 22.9606C23.8803 22.8244 23.8215 22.6957 23.7218 22.6028C23.6221 22.5099 23.4895 22.4604 23.3533 22.4652C23.2851 22.4664 23.2178 22.4812 23.1554 22.5086C23.0929 22.5361 23.0366 22.5758 22.9897 22.6253C22.9427 22.6748 22.9061 22.7331 22.8819 22.7969C22.8578 22.8607 22.8466 22.9286 22.8489 22.9968C22.8513 23.065 22.8673 23.132 22.8958 23.1939C22.9244 23.2559 22.965 23.3115 23.0153 23.3576C23.0656 23.4037 23.1245 23.4393 23.1887 23.4623C23.2529 23.4854 23.3211 23.4954 23.3892 23.4919C23.5254 23.4872 23.6541 23.4285 23.7471 23.3289C23.8401 23.2293 23.8898 23.0968 23.8851 22.9606Z" fill="white"/>
<path d="M10.9629 28.4395L16.3998 34.0893M15.6651 29.0998L12.212 32.7687M27.641 28.4395L22.2041 34.0893M22.9388 29.0998L26.392 32.7687" stroke="#ECB732" stroke-width="1.71875" stroke-linecap="round"/>
<path d="M21.5429 15.9648L17.9427 19.5602M20.8082 19.5602L17.208 15.9648" stroke="#FFC73B" stroke-width="1.71875" stroke-linecap="round"/>
</g>
</g>
</g>
<defs>
<linearGradient id="paint0_linear_23122_21659" x1="1195.43" y1="-916.785" x2="2175.3" y2="1827.47" gradientUnits="userSpaceOnUse">
<stop stop-color="#52CE63"/>
<stop offset="1" stop-color="#51A256"/>
</linearGradient>
<linearGradient id="paint1_linear_23122_21659" x1="958.061" y1="1194.18" x2="-1789.02" y2="2176.42" gradientUnits="userSpaceOnUse">
<stop stop-color="#52CE63"/>
<stop offset="1" stop-color="#51A256"/>
</linearGradient>
<linearGradient id="paint2_linear_23122_21659" x1="1215.93" y1="148.824" x2="675.233" y2="4562.42" gradientUnits="userSpaceOnUse">
<stop stop-color="#8AE99C"/>
<stop offset="1" stop-color="#52CE63"/>
</linearGradient>
<linearGradient id="paint3_linear_23122_21659" x1="3632.81" y1="2049.48" x2="3048.22" y2="11661.7" gradientUnits="userSpaceOnUse">
<stop stop-color="#FFE56C"/>
<stop offset="1" stop-color="#FFC63A"/>
</linearGradient>
<clipPath id="clip0_23122_21659">
<rect width="40" height="40" fill="white"/>
</clipPath>
</defs>
</svg>
