<svg width="40" height="40" viewBox="0 0 40 40" fill="none" xmlns="http://www.w3.org/2000/svg">
<path d="M37.355 7.68433L20.9275 37.0593C20.8504 37.1975 20.7379 37.3127 20.6016 37.393C20.4653 37.4734 20.3101 37.5161 20.1518 37.5167C19.9936 37.5174 19.8381 37.4759 19.7011 37.3966C19.5642 37.3174 19.4508 37.2031 19.3725 37.0656L2.62002 7.68683C2.53579 7.53942 2.49536 7.37105 2.50346 7.20147C2.51156 7.03189 2.56786 6.86813 2.66576 6.72943C2.76366 6.59072 2.89908 6.48281 3.05615 6.41837C3.21322 6.35392 3.38541 6.33561 3.55252 6.36558L19.9975 9.30558C20.1021 9.32479 20.2092 9.32479 20.3138 9.30558L36.415 6.37058C36.5815 6.34017 36.7532 6.3577 36.91 6.42114C37.0669 6.48457 37.2025 6.5913 37.301 6.72888C37.3996 6.86645 37.457 7.0292 37.4665 7.19815C37.4761 7.36709 37.4374 7.53653 37.355 7.68433Z" fill="url(#paint0_linear_23122_21644)"/>
<path d="M27.8302 2.50972L15.6752 4.89097C15.5782 4.91057 15.4903 4.9616 15.4252 5.03617C15.3602 5.11074 15.3215 5.20469 15.3152 5.30347L14.5677 17.9335C14.5636 18.0028 14.5757 18.0721 14.603 18.1358C14.6304 18.1996 14.6722 18.2562 14.7252 18.301C14.7783 18.3457 14.841 18.3775 14.9085 18.3938C14.976 18.4101 15.0463 18.4104 15.1139 18.3947L18.4977 17.6135C18.5706 17.5966 18.6465 17.5984 18.7186 17.6186C18.7906 17.6388 18.8564 17.6768 18.91 17.729C18.9635 17.7813 19.003 17.8462 19.0249 17.9177C19.0468 17.9893 19.0503 18.0652 19.0352 18.1385L18.0302 23.0622C18.0147 23.138 18.0191 23.2165 18.0431 23.2901C18.0671 23.3637 18.1099 23.4297 18.1671 23.4818C18.2243 23.5338 18.2941 23.5701 18.3696 23.5871C18.4451 23.604 18.5237 23.6011 18.5977 23.5785L20.6877 22.9435C20.7618 22.9208 20.8405 22.9178 20.9162 22.9348C20.9918 22.9518 21.0617 22.9882 21.119 23.0404C21.1762 23.0927 21.2189 23.1589 21.2428 23.2327C21.2667 23.3064 21.271 23.3851 21.2552 23.461L19.6564 31.1947C19.5564 31.6785 20.2002 31.9422 20.4689 31.5285L20.6477 31.251L30.5539 11.4822C30.5911 11.4077 30.6067 11.3243 30.599 11.2414C30.5913 11.1585 30.5605 11.0795 30.5102 11.0131C30.4598 10.9468 30.392 10.8959 30.3142 10.8661C30.2365 10.8364 30.1519 10.829 30.0702 10.8447L26.5864 11.516C26.5114 11.5303 26.434 11.5252 26.3616 11.5011C26.2891 11.477 26.2241 11.4347 26.1727 11.3782C26.1213 11.3218 26.0852 11.2531 26.0679 11.1787C26.0506 11.1044 26.0527 11.0268 26.0739 10.9535L28.3464 3.07097C28.3678 2.9974 28.37 2.91955 28.3526 2.84493C28.3352 2.77031 28.2988 2.70142 28.2471 2.64491C28.1954 2.58839 28.1299 2.54615 28.0571 2.52226C27.9843 2.49836 27.9066 2.49361 27.8314 2.50847" fill="url(#paint1_linear_23122_21644)"/>
<defs>
<linearGradient id="paint0_linear_23122_21644" x1="2.21067" y1="5.31541" x2="22.6546" y2="33.0799" gradientUnits="userSpaceOnUse">
<stop stop-color="#41D1FF"/>
<stop offset="1" stop-color="#BD34FE"/>
</linearGradient>
<linearGradient id="paint1_linear_23122_21644" x1="19.0527" y1="3.1557" x2="22.7509" y2="28.5251" gradientUnits="userSpaceOnUse">
<stop stop-color="#FFEA83"/>
<stop offset="0.083" stop-color="#FFDD35"/>
<stop offset="1" stop-color="#FFA800"/>
</linearGradient>
</defs>
</svg>
