<?xml version="1.0" encoding="UTF-8"?>
<svg id="Layer_1" xmlns="http://www.w3.org/2000/svg" version="1.1" viewBox="0 0 598.44 529.69">
  <!-- Generator: Adobe Illustrator 29.1.0, SVG Export Plug-In . SVG Version: 2.1.0 Build 142)  -->
  <defs>
    <style>
      .st0 {
        fill: #c55440;
      }

      .st1 {
        fill: #fdd7c4;
      }

      .st2 {
        fill: #62647d;
      }

      .st3 {
        fill: #c8ebff;
      }

      .st4 {
        fill: #ed7d67;
      }

      .st5 {
        fill: #212332;
      }

      .st6 {
        fill: #336348;
      }

      .st7 {
        fill: #975440;
      }

      .st8 {
        fill: #0078fc;
      }

      .st9 {
        fill: #005047;
      }
    </style>
  </defs>
  <path class="st3" d="M369.97,90.04c-40.1,2.83-78.53,12.4-114.71,26.12-86.21,32.7-157.09,94.48-191.74,178.67-14.06,34.18-26.44,72.26-13.07,111.9,12.42,36.82,43.5,65.59,79.56,81.32,137.87,60.1,271.35-35.01,340.88-130.01,16-21.86,31.35-44.31,45.47-67.51,16.5-27.11,28.67-58.3,26.24-91.82-6.3-86.96-100.86-113.73-172.64-108.67Z"/>
  <g>
    <path class="st5" d="M352.65,162.09c-2.51-9.57-6.89-18.74-13.15-26.43-3.05-3.75-6.58-7.13-10.53-9.93-2.01-1.43-4.14-2.7-6.35-3.79-2.05-1.01-4.23-2.03-6.5-2.36-1.18-.17-2.34-.13-3.38.27-7.79-1.36-15.87,3.31-20.32,9.69-3.2,4.58-5.01,9.97-6.24,15.38-1.35,5.98-2.19,12.11-3.03,18.18-1.76,12.73-2.8,25.67-1.43,38.49,1.25,11.67,4.36,23.88,11.08,33.67,6.05,8.82,16.03,15.07,27.01,12.72,11.05-2.37,18.79-11.43,24.17-20.8,11.16-19.46,14.37-43.36,8.68-65.07Z"/>
    <path class="st6" d="M390.3,44.89c-2.85-1.68-6.12-2.96-9.19-4.17-2.78-1.1-5.65-2.01-8.6-2.52-.53-.1-1.07-.17-1.61-.24-1.56-.19-3.29-.4-4.85-.17-1.24.19-1.59,1.21-2.42,2.03-2.61,2.57-6.85,3.12-10.21,4.18-2.08.66-4.15,1.38-6.18,2.16-1.62.62-3.91,2.03-5.79,1.71.04-.07.08-.14.12-.21.19-.31-.3-.6-.48-.29-.07.11-.13.22-.19.34-.08-.03-.16-.06-.23-.09-.32-.16-.61.33-.28.48.07.04.15.06.23.1-.84,1.43-1.66,2.89-2.44,4.35-1.42,2.65-2.74,5.34-3.94,8.09-.9,2.07-1.76,4.16-2.51,6.29-.61,1.71-.79,3.33.29,4.89.49.71,1.07,1.26,1.72,1.66,2.36,1.47,5.58,1.02,8.18.01,2.4-.94,4.57-2.36,7.21-1.36,1.92.72,3.52,2.1,5.52,2.67,3.85,1.11,7.88-.4,10.95-2.77,5.09-1.23,11.09-2.27,13.25-7.58.38-.93.69-1.86,1.52-2.49.79-.6,1.74-.67,2.68-.84,1.31-.24,2.48-.68,3.55-1.49,2.34-1.77,3.57-4.55,4.2-7.35.25-1.13.48-2.33.62-3.52.06-.47.1-.93.13-1.38.06-1.17-.24-1.89-1.26-2.48Z"/>
    <path class="st4" d="M464.95,172.4c-3.79.67-7.68,1.07-11.32,2.38-3.4,1.23-6.26,3.36-9.07,5.58-.44-5.73-1.34-11.41-2.69-16.99,2.5-1.23,4.99-2.47,7.47-3.73,2.46-1.26,4.89-2.75,6.12-5.33.65-1.35.96-2.84,1.56-4.21.72-1.67,1.88-2.92,3.42-3.87,2.53-1.56,5.82-2.65,8.75-3.11,1.86-.29,3.89-.19,5.35,1.16,1.33,1.23,1.88,3.16,2.45,4.82,1.21,3.55,2.13,7.26,2.57,10.99.97,8.17-8.15,11.18-14.61,12.32Z"/>
    <path class="st2" d="M444.88,472.1c-5.59,1.47-40,5.22-44.04,5.64-6.37.65-11.99,1.37-14.42-3.85-1.04-2.25-.92-5.07-.62-7.57.05-.42.11-.82.16-1.21.11-.74.25-1.47.42-2.18.69-2.9,1.88-5.59,2.89-8.44,2.1-5.86-.07-11.67-1.64-18.22,4.91-2.36,12.92-5.18,18.27-6.36.92-.2,1.84-.4,2.77-.58.61,1.22,1.1,2.52,1.65,3.59,4.75,9.3,14.49,14.56,24.3,16.89,4.02.95,8.14,1.17,12.21,1.79.89.14,1.79.29,2.67.48.88.19,1.77.44,2.62.78,2.42.94,4.59,2.49,5.69,4.91,3.77,8.33-6.92,12.75-12.94,14.33Z"/>
    <path class="st2" d="M283.95,403.55c-1.01.93-2.11,1.76-2.99,2.59-7.62,7.14-10.85,16.66-9.73,23.4.78,4.68,4.09,12.37,4.77,17.44.05.31.08.62.1.91.06.81.08,1.67.04,2.56-.12,2.88-.85,5.95-2.94,7.74-6.95,5.93-16.82-2.76-20.26-7.95-6.52-9.84-16.7-32.87-18.87-39.98-1.86-6.12-2.53-11.12,1.8-14.9,2.18-1.9,5.55-2.48,8.31-2.88,1.76-.25,3.29-.44,4.8-.54,1.09-.07,2.18-.1,3.34-.08.66.02,1.34.05,2.06.09,6.22.38,11.19-3.31,17.04-6.65,3.63,4.06,8.58,10.96,11.2,15.78.46.83.9,1.66,1.33,2.49Z"/>
    <path class="st0" d="M380.51,195.4c-4.97-.81-9.93-1.69-14.91-2.34-5.68-.75-11.54-.83-16.69,2.02-8.27,4.58-13.7,13.66-16.29,22.5-5.24,17.84.08,36.38,8.12,52.49,1.31,2.62,2.68,5.21,4.12,7.77-1.7,11.48-4.93,22.37-11.48,31.9-.69,1-1.41,1.99-2.17,2.95-.03.04-.07.08-.1.13-7.99,10.09-18.72,21.78-28.52,30.03-5.33,4.5-10.76,8.88-16.18,13.27-4.59,3.72-9.16,7.6-12.81,12.28-6.33,8.1-9.49,16.5-3.62,25.85,2.83,4.51,5.72,6.28,10.16,9.18,4.56,2.99,10,3.02,15.18,1.99,8.92-1.77,23.2-11.42,32.32-19.94,8.26-7.71,15.9-14.32,23.89-21.59,1.07-.97,2.14-1.95,3.22-2.95,1.06-.97,2.12-1.96,3.19-2.97,5.16-4.85,11.34-9.52,15.24-15.49,3.75-5.73,6.09-10.85,6.4-17.52.29-6.25-.04-12.48-.64-18.69,1.66-2.79,1.46-6.9,1.58-10.07.11-2.9.22-5.8.31-8.71.07-2.11.13-4.21.19-6.31,0-.11,0-.21,0-.31.28-10.1.43-20.2.47-30.3.07-18.4-.26-36.79-.96-55.17Z"/>
    <path class="st0" d="M395.33,433.35c-1.43.76-2.96,1.33-4.54,1.69,1.52-.55,3.03-1.11,4.54-1.69ZM417.03,420.43c-.1-3.28-1.15-6.72-1.73-9.96l-1.69-9.39c-2.03-11.3-7.45-37.39-9.51-48.68-1.98-10.86-4.16-21.72-7.68-32.24-.99-2.97-2.15-5.88-3.4-8.73-.53-1.22-1.1-2.44-1.67-3.65-4.92-10.36-11.03-20.21-16.15-30.49,0,0,0-.01-.01-.02-1.99-3.99-3.83-8.05-5.38-12.23-.3-.8-.6-1.62-.88-2.43-6.82-19.91-9.05-40.85-13.3-61.31-1.02-4.92-2.16-9.82-3.5-14.68-.74-2.66-1.41-5.43-2.52-7.98-1.38-3.21-3.64-4.59-7.33-4.65-11.06-.18-22.39,1.08-33.36,2.67-.34,19.32-.64,38.67-.43,58,.11,9.58.99,19.02,4.35,28.12,2.64,7.14,11.84,29.71,19.6,43.81,7.2,13.08,14.73,26.02,19.25,40.35,4.34,13.71,9.49,42.82,12.23,56.9,2.17,11.14,3.8,26.07,15.57,31.22,1.68.74,3.4,1.2,5.11,1.42.38,2.51,1.59,4.7,4.47,5.47,1.98.52,3.4-.3,4.85-1.54,1.85-1.57,3.14-1.43,5.35-1.54.78-.04,1.54-.12,2.2-.58,1.33-.94,1.56-2.31,3.46-2.49,1.08-.1,2.09.29,3.18.01,2.09-.54,3.65-2.52,4.37-4.46.64-1.7.66-3.47.17-5.02,2.48-1.15,4.48-2.63,4.37-5.89Z"/>
    <path class="st0" d="M287.11,396.93c-.67-3.72-2.9-6.6-6.07-8.59-3.56-2.23-8.48-2.69-11.19-6.05-.36-.45-1.08.04-.94.55.05.18.1.35.15.53-3,.93-6.04,2.41-7.31,5.47-1.32,3.18.1,5.65,2.57,7.61,2.11,1.68,3.06,2.75,3.78,5.38.31,1.14.67,2.09,1.68,2.79,1.9,1.33,3.93,1.2,5.69,3.06,1.36,1.44,2.47,3.21,4.38,4,7.54,3.11,7.96-10.72,7.24-14.75Z"/>
    <path class="st4" d="M380.44,57.75c-.3-2.61-.54-5.6-1.81-7.92-.05-.13-.11-.26-.16-.39-.57-1.33-1.29-2.51-2.17-3.49-.92-.82-1.93-1.52-2.85-2-2.15-1.13-4.6-1.77-6.99-2.14-4.81-.74-9.87-.23-14.41,1.57-1.09.43-2.1.95-3.04,1.53-3.5,2.85-6.69,6.48-7.84,10.87-1.19,4.48-.41,9.55,2.51,13.22.8.99,1.72,1.87,2.74,2.6.82.6,1.71,1.11,2.64,1.52.06.12,1.46.48,1.52.6.08.3.14.61.21.9,1.83,7.7,2.67,10.29,11.55,13.38.12.04.24.08.36.12,11.24,3.73,15.4-1.74,16.5-4.33,2.89-6.8,2.23-17.55,1.23-26.04Z"/>
    <path class="st4" d="M363.11,88.75c1.66-7.54,3.11-15.11,5.02-22.64-.12-.02-.23-.05-.35-.08-5.47-1.29-13.06-2.93-18.48-4.03-.51,3.31-1.07,6.63-1.67,9.93-.21,1.14-.42,2.28-.64,3.42-1.74,9.11-2.82,14.55-5.21,23.56,1.68.22,3.36.45,5.03.66,3.05.4,10.22.94,13.27,1.34,1.59-5.22,1.87-6.87,3.02-12.16Z"/>
    <path class="st7" d="M377.15,45.24c-.92-.82-1.93-1.52-2.85-2-2.15-1.13-4.6-1.77-6.99-2.14-4.81-.74-9.87-.23-14.41,1.57-1.09.43-2.1.95-3.04,1.53-3.33,2.71-6.37,6.13-7.66,10.24-1.68,1.75-3.13,3.76-3.5,6.22-.18,1.21-.09,2.45.34,3.61.43,1.17.84,1.54.98,2.86.16,1.54-.2,1.5-.76,2.77-2.15,4.88,3.06,6.66,6.76,4.98,2.88,2.09,6.94,2.25,9.27-.88.64-.85.82-1.7,1.13-2.72.16-.51.36-.99.57-1.47.2-.25.39-.51.57-.79,2.08-3.32,2.23-7.45,4.08-10.88,1.88-3.49,4.74-6.62,8.36-8.34,2.88-1.36,6.14-1.52,9.28-1.12-.57-1.31-1.28-2.47-2.14-3.44Z"/>
    <path class="st8" d="M456.14,170.42c-2.35-6.19-3.38-7.07-5.73-13.26-.18-.47-14.51,3-24.06,7.77-7.08-18.5-12.67-32.2-22.83-49.06-4.73-7.85-6.11-10.41-14.17-14.89-8.98-4.99-67.33-5.72-82.16-.69-14,4.75-22.98,16.28-31.96,27.45-4.79,5.97-9.53,12-13.94,18.24-3.95,5.59-7.6,11.64-9.17,18.33-2.98,12.69,2.71,24.8,10.43,34.3,7.96,9.81,18.49,18.99,30.75,23.12,1.97-.85,3.81-2.04,5.54-3.27,2.81-1.99,5.43-4.23,8.23-6.23.14-.1.29-.02.37.1,0-.04.02-.07.02-.11,0,.08.02.16.02.24,0,0,0,.02,0,.02,0,.06,0,.11.01.17.11,1.43.23,2.85.36,4.27.33,3.58.57,7.23,1.16,10.77.24,1.42.66,2.65,1.47,3.55-.34,1.21-.66,2.43-.95,3.66-.46,1.93-1.65,4.86.27,6.36.79.62,1.83.84,2.76,1.1,1.57.43,3.14.84,4.72,1.24,6.31,1.6,12.71,2.96,19.21,3.54,6.63.59,13.22.11,19.81-.71,2.86-.35,5.72-.7,8.58-1.1.1-.01.19-.03.28-.04.94-.13,1.88-.27,2.82-.42.1-.02.19-.03.28-.04,2.36-.38,4.71-.81,7.05-1.32,2.01-.44,13.68-5.3,14.96-5.78,1.63-.6,2.31-1.36,2.43-3.11.19-2.9.12-5.85.1-8.76-.08-9.04-.73-18.06-1.9-27.02.13-2.73.25-5.31.35-7.61,1.33-1.46,2.04-3.37,2.41-5.4,3.5,7.6,8.88,17.54,13.59,20.29,7.72,4.5,16.63,4.09,23.98-1.44,7.75-5.82,26.87-24.68,27.03-27.1.16-2.44-1.29-4.96-2.12-7.16ZM307.16,209.4c-1.58-5.44-3.53-10.78-5.3-16.15-1.75-5.35-3.65-10.67-5.27-16.06-.98-3.26-1.21-6.31.9-9.29,1.62-2.28,3.88-4.15,5.89-6.06l.26-.26c.05,5.95.28,11.9.69,17.83.24,3.44.29,7.84,2.01,11.1.02.78.03,1.55.06,2.33.16,5.68.47,11.35.88,17-.03-.15-.07-.28-.11-.43Z"/>
    <path class="st5" d="M368.26,244.84c-.1.02-.19.03-.28.04-.94.15-1.88.28-2.82.42-.1.01-.19.03-.28.04v-.04c.19-6.77.28-13.64.27-20.44-.05-39.76-3.34-79.88-9.76-119.25-.18-1.11.64-1.92,1.54-2.06.74-.12,1.56.21,1.72,1.22,1.82,11.16,3.39,22.31,4.68,33.14,4.18,35.23,5.84,71.21,4.93,106.94Z"/>
    <path class="st1" d="M371.83,98.6c-.03,1.94,0,3.93-.18,5.87-.16,1.68-1.18,2.04-2.6,2.22-.94.12-1.87.22-2.81.32-3.45.34-6.92.5-10.39.34-3.86-.18-7.72-.76-11.43-1.95-1.93-.62-3.74-1.47-5.59-2.32-1.04-.48-2.06-.84-3.14-.91-.45-2.79-.55-5.63-.26-8.46.19-1.88.55-3.74,1.07-5.55.48-1.68,1.03-3.81,2.04-5.25.97-1.38,2.08-.85,3.23-.35.76.33,1.52.65,2.28.95,1.84.73,3.7,1.38,5.59,1.94,3.38,1.02,6.83,1.79,10.31,2.29,3.35.49,6.72.74,10.1.74.25,0,1.28-.16,1.47-.01.37.29.25.65.26,1.08.02,1.01.04,2.01.05,3.02.02,2.01.02,4.02-.02,6.04Z"/>
    <path class="st5" d="M393.56,134.61c-.59-6.85-1.64-13.66-3.36-20.29-1.46-5.65-3.27-11.47-7-15.95-3.68-.64-7.49-.67-11.27-.55.03.09.06.19.09.28.25.87.5,1.74.74,2.61.44,1.57.85,3.14,1.25,4.72.82,3.25,1.55,6.52,2.21,9.81.43,2.18.82,4.37,1.18,6.57-1.08,0-1.95.03-2.25.02-4.54-.05-9.08-.06-13.62-.03-7.36.04-14.72.19-22.08.42.1-7.02-.64-14.1-2.97-20.57-.43-1.19-.89-2.42-1.5-3.52-.8-1.45-1.88-2.01-3.39-1.98-2.46.04-1.55.22-4,.34-2.68.12-5.36.25-8.05.37-1,.05-1.63,1.08-1.22,1.99,2.32,5.16,3.65,10.8,4.06,16.57,1.39,19.34-11.06,35.8-21.82,50.07-1.05,1.99.26,4.12.47,6.09.2,1.94,1.51,3.51,2.06,5.24,4.34-.88,7.1-1.83,11.17-3.72,7.62-3.53,13.85-9.51,17.97-17.47,3.95-7.64,5.95-16.4,6.76-25.12.06-.62.11-1.25.16-1.87,6.73-.44,13.55-.05,20.28.02,6.34.07,12.68.14,19.02.2.18,1.38.35,2.76.5,4.15.61,5.66.81,11.38,1.54,17.02.71,5.51,2.1,10.9,5.09,15.55,2.27,3.53,5.1,6.62,7.9,9.73,0-.16.02-.32.02-.48.65-13.41,1.21-26.87.06-40.22Z"/>
    <path class="st5" d="M324.5,222.74l-232.52,113.37c-2.41,1.18-.58,4.93,1.84,3.75l232.52-113.37c2.41-1.18.58-4.93-1.84-3.75Z"/>
    <path class="st5" d="M460.11,137.82l81.3,245.58c.85,2.55,4.81,1.23,3.96-1.32l-81.3-245.58c-.85-2.55-4.81-1.23-3.96,1.32Z"/>
    <path class="st5" d="M475.52,173.57c-2.05-7.15-4.39-14.24-6.79-21.29-1.34-3.96-2.73-7.9-4.15-11.83-.61-1.67-2.53-5.35-2.89-5.26-8.46,1.97-2.06,10.66-.93,14.71,1.89,6.76,2.9,13.77,5.28,20.4.4,1.1.77,2.54,1.57,3.43.89.99,2.44,1.21,3.67,1.43,1,.18,2.9.68,3.84.29.89-.37.6-1.12.38-1.88Z"/>
    <path class="st5" d="M289.62,243.44c.43.93,2.16,1.85,3.02,2.4,1.05.67,2.34,1.57,3.66,1.45,1.2-.11,2.44-.91,3.49-1.45,6.26-3.23,11.76-7.68,17.75-11.35,3.59-2.2,14.19-4.21,9.33-11.41-.2-.3-4.12,1.08-5.7,1.89-3.72,1.91-7.41,3.86-11.09,5.84-6.55,3.54-13.08,7.14-19.46,10.98-.68.41-1.39.76-1,1.64Z"/>
    <path class="st4" d="M475.77,151.53c-.42-1.63-.84-3.25-1.15-4.9-.23-1.22-.55-1.6-1.45-2.28.12-.15.11-.39-.13-.44-4.31-.78-10.43-1.13-12.51,3.75-.88,2.06-.19,4.05.74,5.96.52,1.07,1.19,2.07,1.7,3.15.69,1.44,1.12,2.97,1.52,4.51.72,2.78.83,3.1,2.01,5.73.71,1.58,2.16,1.85,3.81,1.64,4.98-.64,8.91-2.74,9.06-6.95.11-3.23-2.81-7.05-3.61-10.16Z"/>
    <path class="st4" d="M314.57,218.58c-2.04-2.25-1.75-2.33-4.29-3.95-1.53-.97-3.06-1.96-4.54-3-.2-.24-.41-.49-.61-.73-.75-.89-1.51-1.77-2.34-2.59-.64-.62-1.05-1.04-1.93-1.24-.92-.21-1.16.12-1.9.61-3.85,2.61-7.51,5.5-10.98,8.6.79,2.12,2.07,4.05,2.57,6.29.23,1.01.4,2.03.57,3.04,0,3.29.36,6.56,1.12,9.77.49,2.06,1.13,4.09,1.93,6.05.62,1.53,1.25,3.23,2.25,4.55,1.69,2.26,4.49,1.95,5.07-.66.03-.14.05-.27.07-.41,1.07,1.58,3.2,1.47,4.56-.39.34-.47.57-.99.73-1.53.32.83.85,1.6,1.79,1.65,1.05.05,2.25-.86,2.62-1.81.14-.36.2-.75.22-1.14.74.56,1.78.7,2.75.29,1.8-.75,2.55-2.74,2.9-4.51.18-.89-.61-5.6-.6-6.49,2.34-4.6,1.93-8.11-1.97-12.4Z"/>
    <path class="st8" d="M306.54,213.06c-1.17.7-2.34,1.4-3.51,2.09-2.34,1.39-4.69,2.76-7.05,4.12-2.36,1.36-4.72,2.71-7.1,4.04-.54.3-1.09.7-1.66.93-.68.28-.25.31-1.29.09-.75-.16-.84-.19-1.36-.61-.9-.74-1.79-1.49-2.66-2.26-3.5-3.07-6.79-6.37-9.85-9.88-3.13-3.59-6-7.4-8.61-11.38,4.52-5.41,9.31-10.61,14.95-14.87,1.87-1.41,3.84-2.72,5.89-3.85,2.49-1.36,5.55-2.35,7.89-.16,1.78,1.66,2.88,4.17,4.05,6.26,1.3,2.31,2.55,4.65,3.77,7,2.43,4.71,4.71,9.5,6.81,14.37.26.61.68,1.28.82,1.92.26,1.16-.16,1.61-1.1,2.17Z"/>
    <path class="st5" d="M391.35,307.78c-4.27-.49-8.68.28-12.96,1.18-6.72,1.41-13.24,3.5-19.59,6.1-3.54-8.34-7.46-16.5-11.75-24.46,9.33-4.92,19.21-8.53,29.49-10.86,1.42,2.59,2.85,5.17,4.27,7.76.07-2.11.13-4.21.19-6.31,0-.11,0-.21,0-.31-2.85-5.18-5.71-10.37-8.57-15.56-.62-1.13-1.92-.98-2.63-.27-.39.39-.61.96-.44,1.57-1.74.04-3.54.44-5.14.71-3.17.54-6.29,1.39-9.33,2.43-5.97,2.04-11.68,4.79-17.35,7.53-.93.45-1.02,1.34-.67,2.05.04.19.1.38.22.58,7.31,12.1,13.73,24.72,19.18,37.77.45,1.1,1.38,1.48,2.48,1.01,5.97-2.55,12.15-4.57,18.47-6.03,4.99-1.15,10.68-2.52,15.78-1.23-.53-1.22-1.1-2.44-1.67-3.65ZM354.83,273.33c2.56-.91,5.16-1.7,7.81-2.28,2.49-.55,6.14-1.65,8.66-.84l3.56,6.46c-10.24,2.39-20.1,6.08-29.41,10.97-1.52-2.75-3.08-5.47-4.69-8.17,4.61-2.23,9.25-4.41,14.08-6.13Z"/>
    <path class="st5" d="M351.76,345.08c-1.52-4.54-3.49-8.9-5.67-13.16-.06-.27-.2-.53-.38-.74-1.39-2.67-2.86-5.29-4.36-7.89-2.62-4.54-5.29-9.05-7.97-13.55-.69,1-1.41,1.99-2.17,2.95,2.17,3.66,4.34,7.33,6.49,11.01,1.58,2.71,3.14,5.44,4.62,8.22-21.7,21.3-42.9,43.49-66.71,62.47-1.55-2.12-3.04-4.31-4.43-6.55-1.14-1.84-4.06-.15-2.91,1.7,3.57,5.73,7.65,11.1,12.21,16.08,1.47,1.6,3.85-.78,2.38-2.38-1.83-2-3.56-4.06-5.22-6.18,23.67-18.82,44.76-40.82,66.3-62,1.76,3.54,3.34,7.17,4.59,10.92,1.98,5.91,2.74,11.85,3,17.92,1.07-.97,2.14-1.95,3.22-2.95-.38-5.36-1.22-10.64-2.98-15.87Z"/>
    <path class="st5" d="M407.42,425.27c-6.47,2.41-12.94,4.81-19.41,7.22-2.03.76-.85,3.91,1.19,3.15,6.47-2.41,12.94-4.81,19.41-7.22,2.03-.76.85-3.91-1.19-3.15Z"/>
    <path class="st5" d="M449.51,452.08c-.89-.19-1.78-.34-2.67-.48-6.27,3.89-9.81,11.44-17.19,13.58-4.08,1.18-8.6,1.42-12.83,1.72-4.77.34-9.39.1-14.07-.99-5.41-1.26-10.87-3.01-16.36-2.97-.17.71-.31,1.44-.42,2.18-.06.39-.11.8-.16,1.21,6.36-.27,12.67,2.32,18.98,3.45,7.68,1.38,16.19.64,23.82-.89,7.31-1.47,11.22-6.66,16.33-11.51,2.14-2.03,4.58-3.55,7.19-4.52-.85-.33-1.74-.58-2.62-.78Z"/>
    <path class="st5" d="M276.13,450.45c-4.1.94-8.27.94-12.31-1.19-6.36-3.35-9.64-10.1-12.29-16.44-1.62-3.9-3.13-7.85-4.52-11.84-1.33-3.81-2.75-7.71-2.97-11.78-.19-3.54.94-6.68,2.41-9.84,1.07-2.31,2.35-4.88,2.52-7.43,1.09-.07,2.18-.1,3.34-.08-.21,3.56-2.06,7.09-3.52,10.46-3.14,7.28.32,14.82,2.89,21.76,2.49,6.71,4.94,14.56,10.23,19.65,4.26,4.09,9.14,4.42,14.07,3.26.05.31.08.62.1.91.06.81.08,1.67.04,2.56Z"/>
    <path class="st5" d="M390.87,191.97c-12.99,3.33-26.67,4.05-40.01,4.12-15,.08-30.13-.82-44.5-5.39-1.15,3.35-.66,6.73.01,10.15,14.31,4.37,29.4,5.24,44.3,5.16,13.4-.07,27.21-.79,40.3-4.08.18-.67.33-1.35.44-2.04.45-2.73-.09-5.27-.55-7.92Z"/>
    <path class="st5" d="M387.15,60.05c-.53-1-1.58-1.87-2.49-1.92-1.56-.09-3.16.07-4.71.31-.96.15-2.76.71-3.31,1.92-.08.18-.14.39-.17.61-.95.04-1.9.12-2.85.23-.06-.1-.11-.21-.18-.3-.69-1-2.04-1.87-3.23-1.92-2.04-.09-4.11.07-6.13.31-1.12.13-3.13.73-4.06,1.59-3.12-.58-6.25-1.17-9.37-1.75-2.47-.46-3.53,3.33-1.05,3.79,3.41.64,6.82,1.27,10.22,1.91.6,2,1.99,4.86,4.09,5.75,2.71,1.14,5.77.54,7.78-1.5.69-.7,1.37-2.83,1.82-3.92,1.14-.15,2.28-.23,3.43-.26.55,1.61,1.52,4.09,2.89,4.84,2.08,1.14,4.43.54,5.98-1.5,1.23-1.62,2.45-6.07,1.33-8.18Z"/>
    <path class="st6" d="M372.52,38.2c-.95-2.02-2.07-3.96-3.36-5.8-.57-.81-1.18-1.61-1.83-2.38-1.76-2.1-3.94-3.74-7.3-3.48-2.82.21-5.74.94-8.46,1.83-2.85.93-5.6,2.13-8.18,3.61-2.66,1.52-6,3.38-6.29,6.29-.21,2.11.04,4.29.25,6.39.04.4.07.79.11,1.19.19,2.25.43,4.49.73,6.72,0,.02,0,.04,0,.07.65-.28,1.3-.56,1.95-.83,3.68-1.51,7.44-2.88,11.23-4.09,7.49-2.39,15.14-4.15,22.84-5.31-.49-1.42-1.06-2.83-1.7-4.2Z"/>
    <path class="st9" d="M390.3,44.89c-2.85-1.68-6.12-2.96-9.19-4.17-2.78-1.1-5.65-2.01-8.6-2.52-.06-.13-.12-.26-.19-.39-.63-1.31-1.34-2.59-2.12-3.82-.34-.54-.69-1.07-1.06-1.59-1.04-.07-2.08-.12-3.11-.15-6.42-.16-12.98.83-18.61,4.05-3.75,2.14-7.15,5.07-10.09,8.35.04.4.07.79.11,1.19.05.63.11,1.26.17,1.89.15,1.56.33,3.12.53,4.67,0,.06.02.11.02.16-1.42,2.65-2.74,5.34-3.94,8.09-.9,2.07-1.76,4.16-2.51,6.29-.61,1.71-.79,3.33.29,4.89.49.71,1.07,1.26,1.72,1.66,1.17-3.57,3.82-6.64,7.35-8.12,2.98-1.25,6.26-1.16,9.41-1.57,1.86-.24,3.66-.68,5.32-1.58,1.51-.83,2.86-1.92,4.24-2.94,4.48-3.32,9.86-6.58,15.68-5.41,1.77.35,3.47,1.01,5.3.89,1.52-.1,2.98-.58,4.32-1.29,2.26-1.19,4.23-2.9,6.07-4.7.06-.47.1-.93.13-1.38.06-1.17-.24-1.89-1.26-2.48Z"/>
    <path class="st5" d="M372.33,37.81c-12.39-.07-24.75,6.46-34.17,14.58-.2-1.55-.39-3.11-.53-4.67,9.3-7.47,20.82-13.13,32.58-13.73.79,1.23,1.49,2.51,2.12,3.82Z"/>
    <path class="st5" d="M544.35,371.92c-.07-1.92-.11-3.83-.16-5.75-.04-1.48.2-3.28-.27-4.71-.51-1.54-2.3-2.74-3.34-3.93-1.16-1.32-2.22-2.72-3.16-4.2-1.82-2.86-3.85-6.2-4.74-9.44.05.02.11.03,0,0-.11-.03-.06-.01,0,0-.24,1.28-.28,2.56-.16,3.84-.44.13-.86.31-1.26.52-.68-1.12-1.48-2.17-2.45-3.07.03-.05.07-.09,0,0-.06.09-.03.05,0,0,1.19,3.11,1.53,6.93,1.74,10.26.11,1.72.08,3.45-.08,5.17-.14,1.54-.88,3.52-.38,5.05.47,1.42,1.72,2.73,2.56,3.94,1.09,1.57,2.19,3.13,3.26,4.71,2.11,3.09,4.1,6.24,5.74,9.6.12.24.56.14.52-.14-.17-1.36-.4-2.7-.67-4.05.43-.21.85-.44,1.26-.69.65,1.46,1.36,2.89,2.14,4.29.14.25.56.08.51-.19-.68-3.71-.94-7.45-1.07-11.21Z"/>
    <path class="st5" d="M104.39,337.4c1.89-.33,3.79-.64,5.68-.95,1.46-.24,3.29-.25,4.64-.92,1.45-.71,2.36-2.65,3.37-3.84,1.12-1.33,2.35-2.57,3.67-3.7,2.55-2.19,5.54-4.65,8.62-5.97,0,.06-.02.11,0,0,.01-.11,0-.06,0,0-1.31-.06-2.59.08-3.84.37-.2-.41-.44-.8-.72-1.17,1.01-.82,1.91-1.76,2.66-2.85.05.03.1.05,0,0-.1-.05-.06-.02,0,0-2.9,1.61-6.64,2.46-9.91,3.13-1.69.35-3.41.56-5.14.64-1.55.07-3.63-.39-5.07.32-1.33.65-2.43,2.07-3.5,3.07-1.38,1.29-2.76,2.59-4.15,3.87-2.73,2.5-5.54,4.91-8.62,6.99-.22.15-.05.57.22.5,1.32-.35,2.62-.76,3.91-1.22.28.4.57.78.89,1.15-1.35.85-2.66,1.74-3.92,2.7-.22.17,0,.56.27.48,3.57-1.18,7.25-1.95,10.95-2.6Z"/>
    <path class="st5" d="M467.96,169.86c-.62.72-1.03,1.93-1.35,2.5-1.16,2.04-2.92,3.74-5.43,2.86-2.32-.81-3.46-3.18-4.2-5.34-1.46-4.31-2.98-8.98-3.5-13.52-.27-2.33-.02-4.62,1.14-6.69.98-1.74,2.39-3.21,3.82-4.59.88-.85,1.79-1.71,2.89-2.28.22-.12.52-.21.76-.35-.28-.78-.56-1.56-.87-2.33-.57-1.38-1.27-2.68-1.95-4-3.43,2.66-6.61,5.78-8.65,9.65-2.48,4.71-2.41,9.79-1.53,14.92,1.36,7.92,4.35,22.67,15.56,19.93,3.74-.91,6.4-3.91,7.53-7.44-1.33-1.22-2.7-2.37-4.22-3.33Z"/>
    <path class="st5" d="M327.67,226.2c-1.43.4-2.85.78-4.25,1.3-.77.29-1.54.63-2.3.95.06.28.2.56.26.8.33,1.19.33,2.44.3,3.66-.04,1.99-.15,4.02-.76,5.92-.72,2.26-2.23,4-4.12,5.39-3.67,2.71-8.12,4.79-12.27,6.66-2.08.94-4.6,1.72-6.77.57-2.1-1.11-2.29-3.18-1.81-5.2-1.06-.58-2.02-1.33-2.98-2.08-.55-.43-1.11-.84-1.68-1.24-1.4,3.05-1.56,6.62.15,9.67,5.64,10.06,18.47,2.2,25.19-2.21,4.35-2.85,8.12-6.27,9.87-11.29,1.44-4.13,1.55-8.58,1.16-12.91Z"/>
  </g>
</svg>