<?xml version="1.0" encoding="UTF-8"?>
<svg id="Layer_1" xmlns="http://www.w3.org/2000/svg" version="1.1" viewBox="0 0 2601.82 2766.91">
  <!-- Generator: Adobe Illustrator 29.1.0, SVG Export Plug-In . SVG Version: 2.1.0 Build 142)  -->
  <defs>
    <style>
      .st0 {
        fill: #abfde6;
      }

      .st1 {
        fill: #0078fc;
      }
    </style>
  </defs>
  <path class="st0" d="M799.33,1368.54c-119.72,354.08,84.86,907.04,507.22,913.02,354.48,5.01,580.64-370.11,727.64-639.18,160-292.86,289.81-630.08,64.09-911.87-51.08-63.77-126.46-105.37-210.59-112.73-102.62-8.98-239.5,29.18-363.73,227.65-34.38,54.92-83.99,99.58-142.92,128.01-112.89,54.48-298.07,144.4-413.82,203.53-79.03,40.37-140.07,109.29-167.89,191.56Z"/>
  <path class="st1" d="M1373.72,1929.5h-145.28c-48.57,0-92.72-24.72-118.11-66.13-25.39-41.41-27.39-91.97-5.37-135.26l152.58-299.83-120.05-218.39-198.11,355.38c-52.5,94.17-152.09,152.67-259.91,152.67h-245.58l330.99-596.72c39.94-72.01,115.91-116.74,198.25-116.74,59.71,0,116.49,20.04,162.19,55.31l181.46-325.5,176.37,314.17c1.42-.92,2.86-1.83,4.31-2.71,33.53-20.56,72.03-31.42,111.36-31.42h17.18c46.4,0,92.31,12.01,132.77,34.74,40.46,22.72,74.61,55.68,98.75,95.3l358.93,589.01-281.7-19.84c-107.07-7.54-202.36-67.92-254.91-161.52l-200.03-356.3-117.58,231.05,153.58,279.38c25.93,47.18,25.05,103-2.35,149.34-27.4,46.34-75.91,74-129.74,74ZM1306.31,1517.01l-126.74,249.06c-8.85,17.39-8.07,36.9,2.12,53.53,10.2,16.63,27.24,26.17,46.74,26.17h145.28c23.94,0,45.5-12.3,57.68-32.9s12.57-45.42,1.05-66.4l-126.14-229.46ZM1524.21,1121.61l218.63,389.43c38.71,68.95,108.91,113.43,187.79,118.99l119.96,8.45-274.55-450.55c-16.69-27.39-40.3-50.17-68.26-65.88-27.96-15.71-59.7-24.01-91.78-24.01h-17.18c-27.36,0-53.23,8.47-74.61,23.57ZM576.05,1634.23h103.42c77.49,0,149.06-42.04,186.79-109.72l217.63-390.38c-32.76-29.12-75.53-45.92-120.76-45.92-51.94,0-99.85,28.21-125.04,73.63l-262.03,472.39ZM1185.13,1124.43c3.74,5.71,7.27,11.59,10.59,17.62l107.74,195.99,105.49-207.29c3.74-7.36,7.9-14.47,12.44-21.29l-114.35-203.69-121.9,218.66Z"/>
</svg>