<?xml version="1.0" encoding="UTF-8"?>
<!DOCTYPE svg PUBLIC "-//W3C//DTD SVG 1.1//EN" "http://www.w3.org/Graphics/SVG/1.1/DTD/svg11.dtd">
<!-- Creator: CorelDRAW -->
<svg xmlns="http://www.w3.org/2000/svg" xml:space="preserve" width="16.679in" height="6.595in" version="1.1" style="shape-rendering:geometricPrecision; text-rendering:geometricPrecision; image-rendering:optimizeQuality; fill-rule:evenodd; clip-rule:evenodd"
viewBox="0 0 16679 6595"
 xmlns:xlink="http://www.w3.org/1999/xlink"
 xmlns:xodm="http://www.corel.com/coreldraw/odm/2003">
 <defs>
  <style type="text/css">
   <![CDATA[
    .fil0 {fill:#4E78BA}
    .fil1 {fill:white;fill-rule:nonzero;fill-opacity:0.141176}
   ]]>
  </style>
 </defs>
 <g id="Layer_x0020_1">
  <metadata id="CorelCorpID_0Corel-Layer"/>
  <rect class="fil0" x="-0.5" y="2.5" width="16679" height="6595"/>
  <path class="fil1" d="M-0.5 2209.07l150.51 -244.98c71.35,-116.35 155.62,-224.79 250.72,-324.27 -135.18,-256.96 -268.94,-525.12 -401.23,-795.49l0 -841.83 178.39 0c36.05,56.26 71.85,112.67 107.22,169.3 222.59,356.35 366.34,757.29 552.59,1117.92 385.51,-235.42 856.64,-367.92 1355.27,-367.92l202.08 0c1136.94,0 1935.04,333.54 2440.02,1019.48l3747.6 4656.22 -690.96 0 -3520.89 -4374.66c-405.09,-549.9 -1030.7,-802.08 -1975.87,-802.08l-202.07 0c-415.51,0 -804.77,118.96 -1110.07,327.71l-0 0c132.19,237.92 265.09,459.79 398,656.04 230.83,340.52 451.34,714.37 684.56,1110.31 696.6,1182 1464.15,2484.64 2671.6,3082.68l-979 0c-940.97,-730.78 -1590.51,-1832.67 -2190.92,-2851.32 -229.26,-389.17 -445.71,-756.56 -667.9,-1084.48 -107.39,-158.33 -214.06,-331.04 -319.47,-514.06 -12.5,18.23 -24.37,36.56 -35.94,55.42l-644.24 1048.63 0 -1042.61zm0 4000.52l257.42 387.91 -257.42 0 0 -387.91z"/>
 </g>
</svg>
