<svg width="37" height="36" viewBox="0 0 37 36" fill="none" xmlns="http://www.w3.org/2000/svg">
<g clip-path="url(#clip0_780_694)">
<path d="M18.147 2.05226C13.7448 2.05226 9.758 3.8379 6.87152 6.72657C3.98394 9.60865 2.19941 13.5976 2.19941 18.0021C2.19941 22.4032 3.98394 26.3895 6.87152 29.2726C9.758 32.1575 13.7448 33.9464 18.147 33.9464C22.5504 33.9464 26.5394 32.1575 29.4214 29.2726C32.3079 26.3895 34.0886 22.4032 34.0886 18.0021C34.0886 13.5976 32.3079 9.60865 29.4214 6.72657C26.5394 3.8379 22.5504 2.05226 18.147 2.05226ZM18.147 0.119881C28.0205 0.119881 36.0259 8.12639 36.0259 18.0021C36.0259 27.8745 28.0205 35.8799 18.147 35.8799C8.27464 35.8799 0.26593 27.8745 0.26593 18.0021C0.26593 8.12639 8.27464 0.119881 18.147 0.119881Z" fill="#98A4AE"/>
<path d="M9.69058 17.8566C9.69058 16.8145 8.99919 16.2226 8.02035 16.2226H7.4213V19.4916H8.00332C8.91345 19.4916 9.69058 18.997 9.69058 17.8566ZM20.3467 19.0327L15.9334 22.5078L11.9 19.3322C11.3179 20.7304 9.91151 21.7016 8.29186 21.7016H4.83984V14.0116H8.29186C10.1017 14.0116 11.4059 15.1625 11.8989 16.3886L15.9334 13.2163L17.4278 14.3925L13.7301 17.2987L14.4407 17.8549L18.1373 14.9503L19.6339 16.1232L15.9367 19.0327L16.6463 19.59L20.3467 16.6799V14.0116H23.0293V19.457H25.7052V21.7109H20.3467V19.0327ZM29.1034 19.4581H31.7783V21.7109H26.4181V14.0116H29.1034V19.4581Z" fill="#98A4AE"/>
</g>
<defs>
<clipPath id="clip0_780_694">
<rect width="36" height="36" fill="white" transform="translate(0.145935)"/>
</clipPath>
</defs>
</svg>
