<?xml version="1.0" encoding="utf-8"?>
<!-- Generator: Adobe Illustrator 27.7.0, SVG Export Plug-In . SVG Version: 6.00 Build 0)  -->
<svg version="1.1" id="Layer_1" xmlns="http://www.w3.org/2000/svg" xmlns:xlink="http://www.w3.org/1999/xlink" x="0px" y="0px"
	 viewBox="0 0 256 256" style="enable-background:new 0 0 256 256;" xml:space="preserve">
<style type="text/css">
	.st0{fill:#FFFFFF;}
</style>
<g id="SVGRepo_bgCarrier">
</g>
<g id="SVGRepo_tracerCarrier">
</g>
<g id="SVGRepo_iconCarrier">
	<g>
		<path class="st0" d="M128.5,28.9c32.4,0,36.3,0.1,49.1,0.7c11.8,0.5,18.3,2.5,22.6,4.2c5.7,2.2,9.7,4.8,14,9.1s6.9,8.3,9.1,14
			c1.7,4.3,3.6,10.7,4.2,22.6c0.6,12.8,0.7,16.7,0.7,49.1s-0.1,36.3-0.7,49.1c-0.5,11.8-2.5,18.3-4.2,22.6c-2.2,5.7-4.8,9.7-9.1,14
			c-4.3,4.3-8.3,6.9-14,9.1c-4.3,1.7-10.7,3.6-22.6,4.2c-12.8,0.6-16.7,0.7-49.1,0.7s-36.3-0.1-49.1-0.7
			c-11.8-0.5-18.3-2.5-22.6-4.2c-5.7-2.2-9.7-4.8-14-9.1c-4.3-4.3-6.9-8.3-9.1-14c-1.7-4.3-3.6-10.7-4.2-22.6
			c-0.6-12.8-0.7-16.7-0.7-49.1s0.1-36.3,0.7-49.1c0.5-11.8,2.5-18.3,4.2-22.6c2.2-5.7,4.8-9.7,9.1-14s8.3-6.9,14-9.1
			c4.3-1.7,10.7-3.6,22.6-4.2C92.2,29,96.1,28.9,128.5,28.9 M128.5,7c-33,0-37.1,0.1-50.1,0.7c-12.9,0.6-21.8,2.6-29.5,5.6
			c-8,3.1-14.8,7.3-21.5,14s-10.9,13.5-14,21.5c-3,7.7-5.1,16.6-5.6,29.5C7.1,91.4,7,95.5,7,128.5s0.1,37.1,0.7,50.1
			c0.6,12.9,2.6,21.8,5.6,29.5c3.1,8,7.3,14.8,14,21.5s13.5,10.9,21.5,14c7.7,3,16.6,5.1,29.5,5.6c13,0.6,17.1,0.7,50.1,0.7
			s37.1-0.1,50.1-0.7c12.9-0.6,21.8-2.6,29.5-5.6c8-3.1,14.8-7.3,21.5-14c6.8-6.8,10.9-13.5,14-21.5c3-7.7,5.1-16.6,5.6-29.5
			c0.6-13,0.7-17.1,0.7-50.1s-0.1-37.1-0.7-50.1c-0.6-12.9-2.6-21.8-5.6-29.5c-3.1-8-7.3-14.8-14-21.5c-6.8-6.8-13.5-10.9-21.5-14
			c-7.7-3-16.6-5.1-29.5-5.6C165.6,7.1,161.5,7,128.5,7z M128.5,66.1C94,66.1,66.1,94,66.1,128.5s27.9,62.4,62.4,62.4
			s62.4-27.9,62.4-62.4S163,66.1,128.5,66.1z M128.5,169c-22.4,0-40.5-18.1-40.5-40.5S106.1,88,128.5,88s40.5,18.1,40.5,40.5
			S150.9,169,128.5,169z M207.9,63.6c0,8.1-6.5,14.6-14.6,14.6s-14.6-6.5-14.6-14.6s6.5-14.6,14.6-14.6S207.9,55.6,207.9,63.6z"/>
	</g>
</g>
</svg>
