<?xml version="1.0" encoding="utf-8"?>
<!-- Generator: Adobe Illustrator 27.7.0, SVG Export Plug-In . SVG Version: 6.00 Build 0)  -->
<svg version="1.1" xmlns="http://www.w3.org/2000/svg" xmlns:xlink="http://www.w3.org/1999/xlink" x="0px" y="0px"
	 viewBox="0 0 174 231" style="enable-background:new 0 0 174 231;" xml:space="preserve">
<style type="text/css">
	.st0{fill:#FFFFFF;}
	.st1{display:none;}
	.st2{display:inline;}
</style>
<g id="Layer_2">
	<path class="st0" d="M105.3,15c13.7,18,31,38.1,61.5,39.9v37.9c-15.2-0.9-30.6-6.5-43.3-15.7V165c0,56-68.3,80.9-102.8,38.8
		c-20.9-25.2-18.6-68.3,8-90.5c15.4-12.6,34.7-15.9,52.6-10v36.4c-11-4.5-23.7-3.1-31.2,5.9c-11.1,13.3-2.7,33.4,14.4,33.9
		c14.9,1.3,31.8-10.2,31.8-25.4V15H105.3z"/>
</g>
<g id="Layer_3" class="st1">
	<g class="st2">
		<g transform="scale(5.12,5.12)">
			<path class="st0" d="M13.4,1.2C1.5,1.2-8.1,10.8-8.1,22.7c0,10.8,7.9,19.7,18.3,21.2V28.4H4.9v-5.6h5.3V19c0-6.2,3-9,8.2-9
				c2.5,0,3.8,0.2,4.4,0.3v4.9h-3.5c-2.2,0-3,2.1-3,4.4v3.1h6.4l-0.9,5.6h-5.6v15.6c10.5-1.4,18.6-10.4,18.6-21.3
				C34.9,10.8,25.2,1.2,13.4,1.2z"/>
		</g>
	</g>
</g>
</svg>
