<?xml version="1.0" encoding="utf-8"?>
<!-- Generator: Adobe Illustrator 27.7.0, SVG Export Plug-In . SVG Version: 6.00 Build 0)  -->
<svg version="1.1" xmlns="http://www.w3.org/2000/svg" xmlns:xlink="http://www.w3.org/1999/xlink" x="0px" y="0px"
	 viewBox="0 0 231 231" style="enable-background:new 0 0 231 231;" xml:space="preserve">
<style type="text/css">
	.st0{fill:#FFFFFF;}
	.st1{display:none;}
	.st2{display:inline;}
</style>
<g id="Layer_2">
	<path class="st0" d="M152.3,15c13.7,18,31,38.1,61.5,39.9v37.9c-15.2-0.9-30.6-6.5-43.3-15.7V165c0,56-68.3,80.9-102.8,38.8
		c-20.9-25.2-18.6-68.3,8-90.5c15.4-12.6,34.7-15.9,52.6-10v36.4c-11-4.5-23.7-3.1-31.2,5.9c-11.1,13.3-2.7,33.4,14.4,33.9
		c14.9,1.3,31.8-10.2,31.8-25.4V15H152.3z"/>
</g>
<g id="Layer_3" class="st1">
	<g class="st2">
		<g transform="scale(5.12,5.12)">
			<path class="st0" d="M22.6,1.2c-11.9,0-21.5,9.6-21.5,21.5c0,10.8,7.9,19.7,18.3,21.2V28.4H14v-5.6h5.3V19c0-6.2,3-9,8.2-9
				c2.5,0,3.8,0.2,4.4,0.3v4.9h-3.5c-2.2,0-3,2.1-3,4.4v3.1h6.4L31,28.4h-5.6v15.6C36,42.5,44,33.5,44,22.7
				C44,10.8,34.4,1.2,22.6,1.2z"/>
		</g>
	</g>
</g>
</svg>
