<svg width="136" height="40" viewBox="0 0 136 40" fill="none" xmlns="http://www.w3.org/2000/svg">
<path d="M132.07 27.5446V22.0866C132.07 21.8226 132.056 21.4873 132.027 21.0806C131.999 20.6668 131.91 20.253 131.76 19.8392C131.61 19.4254 131.364 19.0794 131.021 18.8011C130.686 18.5229 130.208 18.3837 129.587 18.3837C129.337 18.3837 129.07 18.423 128.785 18.5015C128.499 18.5799 128.232 18.7333 127.982 18.9616C127.732 19.1828 127.525 19.511 127.361 19.9462C127.204 20.3814 127.126 20.9593 127.126 21.6799L125.456 20.888C125.456 19.9748 125.642 19.1186 126.013 18.3195C126.384 17.5204 126.94 16.8748 127.682 16.3825C128.431 15.8902 129.373 15.644 130.508 15.644C131.414 15.644 132.152 15.7974 132.723 16.1042C133.294 16.411 133.736 16.7998 134.05 17.2707C134.371 17.7416 134.599 18.2339 134.735 18.7476C134.87 19.2542 134.952 19.7179 134.981 20.1388C135.01 20.5598 135.024 20.8666 135.024 21.0592V27.5446H132.07ZM124.172 27.5446V12.1338H126.762V20.0532H127.126V27.5446H124.172Z" fill="white"/>
<path d="M117.432 27.8653C115.977 27.8653 114.8 27.5371 113.901 26.8807C113.009 26.2172 112.467 25.2825 112.274 24.0768L115.249 23.6273C115.371 24.1695 115.638 24.594 116.052 24.9008C116.473 25.2076 117.004 25.361 117.646 25.361C118.174 25.361 118.581 25.2611 118.867 25.0614C119.152 24.8544 119.295 24.5691 119.295 24.2052C119.295 23.9769 119.238 23.795 119.123 23.6594C119.009 23.5167 118.752 23.3776 118.353 23.242C117.96 23.1065 117.347 22.9281 116.512 22.7069C115.57 22.4643 114.818 22.1932 114.254 21.8936C113.69 21.5939 113.284 21.2372 113.034 20.8234C112.784 20.4024 112.659 19.8959 112.659 19.3037C112.659 18.5617 112.848 17.9196 113.227 17.3774C113.605 16.828 114.136 16.407 114.821 16.1145C115.513 15.8149 116.327 15.665 117.261 15.665C118.167 15.665 118.97 15.8042 119.669 16.0824C120.368 16.3607 120.932 16.7566 121.36 17.2703C121.795 17.784 122.063 18.3905 122.163 19.0897L119.188 19.6248C119.138 19.1967 118.952 18.8578 118.631 18.6081C118.31 18.3584 117.875 18.2121 117.325 18.1693C116.79 18.1336 116.359 18.205 116.03 18.3833C115.709 18.5617 115.549 18.8185 115.549 19.1539C115.549 19.3536 115.617 19.5213 115.752 19.6569C115.895 19.7924 116.184 19.9315 116.619 20.0742C117.061 20.2169 117.732 20.4024 118.631 20.6307C119.509 20.8591 120.211 21.1266 120.739 21.4334C121.274 21.733 121.663 22.0969 121.906 22.525C122.148 22.9459 122.27 23.4561 122.27 24.0554C122.27 25.2397 121.842 26.1708 120.985 26.8486C120.129 27.5264 118.945 27.8653 117.432 27.8653Z" fill="white"/>
<path d="M104.076 27.8653C103.249 27.8653 102.546 27.7083 101.968 27.3944C101.397 27.0733 100.962 26.6488 100.662 26.1208C100.37 25.5857 100.224 24.9971 100.224 24.355C100.224 23.8199 100.306 23.3312 100.47 22.8889C100.634 22.4465 100.898 22.0577 101.262 21.7223C101.633 21.3799 102.129 21.0945 102.749 20.8662C103.177 20.7092 103.687 20.5701 104.28 20.4488C104.872 20.3275 105.542 20.2134 106.292 20.1063C107.041 19.9922 107.865 19.8673 108.764 19.7318L107.715 20.3097C107.715 19.6248 107.551 19.1218 107.223 18.8007C106.894 18.4797 106.345 18.3191 105.575 18.3191C105.146 18.3191 104.701 18.4226 104.237 18.6295C103.773 18.8364 103.448 19.2038 103.263 19.7318L100.63 18.897C100.923 17.941 101.472 17.1633 102.278 16.564C103.085 15.9647 104.183 15.665 105.575 15.665C106.595 15.665 107.501 15.822 108.293 16.1359C109.085 16.4498 109.684 16.9921 110.091 17.7626C110.319 18.1907 110.455 18.6188 110.497 19.0469C110.54 19.4749 110.562 19.953 110.562 20.4809V27.5442H108.015V25.1684L108.378 25.6607C107.815 26.4383 107.205 27.002 106.548 27.3516C105.899 27.694 105.075 27.8653 104.076 27.8653ZM104.697 25.575C105.232 25.575 105.682 25.4823 106.045 25.2968C106.416 25.1042 106.709 24.8866 106.923 24.644C107.144 24.4014 107.294 24.1981 107.372 24.034C107.522 23.72 107.608 23.3562 107.629 22.9424C107.658 22.5214 107.672 22.1718 107.672 21.8936L108.528 22.1076C107.665 22.2503 106.966 22.3716 106.431 22.4715C105.896 22.5642 105.464 22.6498 105.136 22.7283C104.808 22.8068 104.519 22.8924 104.269 22.9852C103.984 23.0993 103.752 23.2242 103.573 23.3597C103.402 23.4882 103.274 23.6309 103.188 23.7878C103.11 23.9448 103.07 24.1196 103.07 24.3122C103.07 24.5762 103.134 24.8045 103.263 24.9971C103.398 25.1826 103.588 25.3253 103.83 25.4252C104.073 25.5251 104.362 25.575 104.697 25.575Z" fill="white"/>
<path d="M86.0978 27.5446V12.1338H91.0849C91.2062 12.1338 91.456 12.1374 91.8341 12.1445C92.2122 12.1516 92.5761 12.1766 92.9257 12.2194C94.1671 12.3692 95.2195 12.8009 96.0828 13.5143C96.9461 14.2278 97.6024 15.1339 98.0519 16.2326C98.5014 17.3314 98.7261 18.5336 98.7261 19.8392C98.7261 21.1448 98.5014 22.347 98.0519 23.4458C97.6024 24.5445 96.9461 25.4506 96.0828 26.164C95.2195 26.8775 94.1671 27.3092 92.9257 27.459C92.5761 27.5018 92.2122 27.5268 91.8341 27.5339C91.456 27.541 91.2062 27.5446 91.0849 27.5446H86.0978ZM89.0516 24.8049H91.0849C91.2776 24.8049 91.538 24.8013 91.8662 24.7942C92.1944 24.7799 92.4905 24.7478 92.7545 24.6979C93.4251 24.5623 93.9709 24.2484 94.3919 23.7561C94.8199 23.2638 95.1339 22.6716 95.3336 21.9796C95.5405 21.2875 95.644 20.5741 95.644 19.8392C95.644 19.0687 95.537 18.3374 95.3229 17.6453C95.116 16.9532 94.7985 16.3682 94.3704 15.8902C93.9424 15.4122 93.4037 15.1089 92.7545 14.9805C92.4905 14.9234 92.1944 14.8913 91.8662 14.8842C91.538 14.8771 91.2776 14.8735 91.0849 14.8735H89.0516V24.8049Z" fill="white"/>
<path d="M83.1162 27.5451C82.3171 27.6949 81.5323 27.7591 80.7618 27.7377C79.9984 27.7234 79.3134 27.5914 78.707 27.3417C78.1077 27.0849 77.6511 26.6746 77.3371 26.111C77.0518 25.583 76.9019 25.0479 76.8877 24.5057C76.8734 23.9563 76.8663 23.3356 76.8663 22.6436V12.7764H79.7772V22.4723C79.7772 22.9218 79.7808 23.3285 79.7879 23.6924C79.8022 24.0491 79.8771 24.3345 80.0126 24.5485C80.2695 24.9552 80.6797 25.1764 81.2434 25.212C81.807 25.2477 82.4313 25.2192 83.1162 25.1264V27.5451ZM74.8971 18.2344V15.987H83.1162V18.2344H74.8971Z" fill="white"/>
<path d="M67.3414 27.8653C66.5138 27.8653 65.811 27.7083 65.2331 27.3944C64.6623 27.0733 64.2271 26.6488 63.9275 26.1208C63.6349 25.5857 63.4887 24.9971 63.4887 24.355C63.4887 23.8199 63.5707 23.3312 63.7348 22.8889C63.8989 22.4465 64.1629 22.0577 64.5268 21.7223C64.8978 21.3799 65.3936 21.0945 66.0143 20.8662C66.4424 20.7092 66.9525 20.5701 67.5447 20.4488C68.1369 20.3275 68.8075 20.2134 69.5567 20.1063C70.3058 19.9922 71.1299 19.8673 72.0288 19.7318L70.98 20.3097C70.98 19.6248 70.8159 19.1218 70.4878 18.8007C70.1596 18.4797 69.6102 18.3191 68.8397 18.3191C68.4116 18.3191 67.9657 18.4226 67.5019 18.6295C67.0382 18.8364 66.7135 19.2038 66.528 19.7318L63.8954 18.897C64.1879 17.941 64.7372 17.1633 65.5435 16.564C66.3497 15.9647 67.4484 15.665 68.8397 15.665C69.8599 15.665 70.766 15.822 71.558 16.1359C72.3499 16.4498 72.9492 16.9921 73.3559 17.7626C73.5842 18.1907 73.7197 18.6188 73.7626 19.0469C73.8054 19.4749 73.8268 19.953 73.8268 20.4809V27.5442H71.2797V25.1684L71.6436 25.6607C71.0799 26.4383 70.4699 27.002 69.8135 27.3516C69.1643 27.694 68.3402 27.8653 67.3414 27.8653ZM67.9621 25.575C68.4972 25.575 68.9467 25.4823 69.3105 25.2968C69.6815 25.1042 69.9741 24.8866 70.1881 24.644C70.4093 24.4014 70.5591 24.1981 70.6376 24.034C70.7874 23.72 70.873 23.3562 70.8944 22.9424C70.923 22.5214 70.9372 22.1718 70.9372 21.8936L71.7934 22.1076C70.9301 22.2503 70.2309 22.3716 69.6958 22.4715C69.1607 22.5642 68.7291 22.6498 68.4009 22.7283C68.0727 22.8068 67.7837 22.8924 67.534 22.9852C67.2486 23.0993 67.0168 23.2242 66.8384 23.3597C66.6672 23.4882 66.5387 23.6309 66.4531 23.7878C66.3746 23.9448 66.3354 24.1196 66.3354 24.3122C66.3354 24.5762 66.3996 24.8045 66.528 24.9971C66.6636 25.1826 66.8527 25.3253 67.0952 25.4252C67.3378 25.5251 67.6268 25.575 67.9621 25.575Z" fill="white"/>
<path d="M46.144 27.5446V12.1338H48.7553L53.8494 22.3649L58.9435 12.1338H61.5548V27.5446H58.8365V18.3409L54.3631 27.5446H53.3357L48.8623 18.3409V27.5446H46.144Z" fill="white"/>
<g clip-path="url(#clip0_780_1188)">
<path d="M0.518051 29.7006L13.8961 6.45466C14.5926 5.2431 15.8883 4.5 17.2892 4.5C19.8644 4.5 21.7432 6.94737 21.0629 9.42704L17.4998 22.4958L18.7226 23.2147L22.221 17.3265C22.9093 16.1634 24.1726 15.4607 25.525 15.4849C27.6791 15.5172 29.3635 17.3507 29.2258 19.4911L28.6671 28.0206V28.0448C29.3149 27.6167 30.0923 27.3663 30.9264 27.3663C33.1777 27.3663 35.0079 29.1918 35.0079 31.4372C35.0079 33.6826 33.1777 35.5081 30.9264 35.5081C28.6752 35.5081 26.845 33.6826 26.845 31.4372C26.845 31.1165 26.8531 31.106 26.8774 30.9445V30.9122C26.8936 30.8072 26.9098 30.7103 26.926 30.6053L27.7358 25.6701L26.8126 25.0563L21.7108 33.5615C20.9982 34.7488 19.7106 35.4838 18.3177 35.4838C15.7668 35.4838 13.888 33.1172 14.463 30.6456L17.4917 17.698L16.5604 17.3911L7.22328 33.5534C6.53494 34.7488 5.25544 35.4838 3.87067 35.4838C0.898663 35.4838 -0.963902 32.2772 0.518051 29.7006Z" fill="#635BFF"/>
</g>
<defs>
<clipPath id="clip0_780_1188">
<rect width="35" height="31" fill="white" transform="matrix(-1 0 0 1 35 4.5)"/>
</clipPath>
</defs>
</svg>
