<?xml version="1.0" encoding="UTF-8"?>
<svg id="Layer_1" xmlns="http://www.w3.org/2000/svg" version="1.1" viewBox="0 0 725 632.81">
  <!-- Generator: Adobe Illustrator 29.1.0, SVG Export Plug-In . SVG Version: 2.1.0 Build 142)  -->
  <defs>
    <style>
      .st0 {
        fill: #84402d;
      }

      .st1 {
        fill: #663122;
      }

      .st2 {
        fill: #bec2cd;
      }

      .st3 {
        fill: #252f45;
      }

      .st4 {
        fill: #e46b4d;
      }

      .st5 {
        fill: #fd916b;
      }

      .st6 {
        fill: #fad0b7;
      }

      .st7 {
        fill: #e8eaf0;
      }

      .st8 {
        fill: #fff;
      }

      .st9 {
        fill: #4f3228;
      }

      .st10 {
        fill: #f8f8f8;
      }

      .st11 {
        opacity: .6;
      }

      .st12 {
        fill: #ebb798;
      }

      .st13 {
        fill: #374566;
      }

      .st14 {
        fill: #0078fc;
      }

      .st15 {
        fill: #005047;
      }

      .st16 {
        fill: #9ad3fc;
      }
    </style>
  </defs>
  <g class="st11">
    <path class="st16" d="M681.08,478.87s3.42-112.82,0-123.91-535.4-4.13-543.16,7.31c-2.8,4.12,0,111.86,0,111.86,0,0,323.6,28.48,340.54,29.09,16.94.6,202.62-24.36,202.62-24.36Z"/>
  </g>
  <g>
    <path class="st7" d="M680.76,479.17c-.38-.44-.82-.86-1.33-1.26-3.59-2.8-8.38-3.73-12.99-4.27-42-4.92-82.8-6.05-125.2-5.26-46.43.86-92.86,1.3-139.29,1.04-45.42-.25-90.84-1.11-136.24-2.36-22.88-.63-45.75-1.6-68.64-1.98-19.28-.31-38.6.65-56.19,8.86-9.78,4.57-17.99,11.39-26.14,18.17-9.61,7.99-19.27,15.92-28.78,24.02-13.63,11.61-51.98,37.45-31.82,49.55,12.06,7.24,182.07,1.91,269.04,4.8,42.53,1.41,85.08,2.76,127.65,2.37,41.88-.39,84.74-1.48,126.14-7.95,21.13-3.3,38.44-13.59,54.48-26.66,9.77-7.96,61.49-44.92,49.33-59.09Z"/>
    <path class="st10" d="M480.69,519.18c-40.02,0-80.09-.2-110.33-.82-90.21-1.84-263.28-5.95-265.02-5.99l.04-1.58c1.74.04,174.8,4.15,265.02,5.99,90.2,1.84,268.21.02,269.99,0l.02,1.58c-1.19.01-80.31.82-159.72.82Z"/>
    <rect class="st10" x="445.11" y="541.05" width="62.58" height="1.58" transform="translate(-238.89 447.46) rotate(-41.16)"/>
    <path class="st10" d="M382.64,512.11l-1.19-1.05c1.23-1.39,29.1-34.71,29.38-35.05l1.21,1.02c-1.15,1.37-28.17,33.68-29.41,35.08Z"/>
    <rect class="st10" x="274.45" y="537.82" width="54.59" height="1.58" transform="translate(-305.74 428.51) rotate(-50.47)"/>
    <rect class="st10" x="216.56" y="489.83" width="56.05" height="1.58" transform="translate(-286.82 355.91) rotate(-49.28)"/>
    <rect class="st10" x="122.52" y="535.86" width="48.61" height="1.58" transform="translate(-353.17 292.6) rotate(-48.68)"/>
    <rect class="st10" x="573.23" y="493.77" width="54.34" height="1.58" transform="translate(-167.28 620.04) rotate(-48.76)"/>
  </g>
  <path class="st7" d="M173.05,374.91c-.43,0-.79-.35-.79-.78,0-.44.35-.8.78-.8l478.15-4.89h0c.43,0,.79.35.79.78,0,.44-.35.8-.78.8l-478.15,4.89h0Z"/>
  <g>
    <g>
      <path class="st5" d="M456.95,303.29c1.33-.59,2.85-.9,4.22-1.17,2.3-.45,4.86-1.29,7.35-1.59-.54-.99-1.06-1.94-1.47-2.84-1.93-4.2-5.67-13.1-5.67-13.1,0,0-1.47.32-2.34.87-.49-.17-1.09-.16-1.58-.02-1.41.4-2.46,1.78-3.41,2.92-.92.14-1.74.91-1.69,1.98-.12.16-.22.32-.33.48-1.43,1.75-2.56,5.62-2.56,9.48s3.86,2.18,7.47,2.99Z"/>
      <path class="st5" d="M461.37,284.59l-5.3-19.04-11.24,5.84,5.69,21.55s9.49.01,9.41-.85c-.08-.86,1.44-7.5,1.44-7.5Z"/>
    </g>
    <path class="st9" d="M473.42,321.2h-28.11c-1.31,0-2.38-1.06-2.38-2.38v-15.54c0-1.31,1.06-2.38,2.38-2.38h28.11c1.31,0,2.38,1.06,2.38,2.38v15.54c0,1.31-1.06,2.38-2.38,2.38ZM447.69,316.45h23.36v-10.79h-23.36v10.79Z"/>
    <rect class="st6" x="395.77" y="314.22" width="127.19" height="178.43" rx="9.3" ry="9.3"/>
    <path class="st5" d="M463.01,303.06c-.29-.2-.6-.37-.96-.47-.55-.16-1.14-.17-1.72-.17-2.58-.02-5.17.03-7.75.15-1.26.06-2.28.24-2.93,1.2-.71,1.04-.8,2.23-.04,3.29.73,1.02,2,1.67,3.31,2.08,3.06.96,6.57.75,9.47-.51.92-.4,1.83-.96,2.17-1.79.32-.79.07-1.66-.37-2.41-.3-.51-.69-1-1.2-1.36Z"/>
    <path class="st5" d="M462.87,292.47c-1.44-.89-2.84.57-2.61,2,.34,2.09,1.48,3.86,2.45,5.71.96,1.84,1.71,3.78,3.03,5.4,1.13,1.38,3.54.23,3.48-1.44-.14-3.97-2.93-9.56-6.34-11.67Z"/>
    <g>
      <path class="st5" d="M454.28,466.25c-1.65-7.39-2.16-17.12-10.77-19.77-3.06-.94-9.28.14-9.54,3.95-.09.12-.15.27-.13.45,1.2,9.89,18.42,57.15,18.42,57.15,0,0,2.61,3.77,5.37,3.55,1.93-.16,5.65-3.34,5.65-3.34,0,0-3.17-14.36-3.43-15.9-.51-2.94-3.52-16.83-5.58-26.08Z"/>
      <path class="st9" d="M479.84,507.58c-1.5-3.28-6.3-2.73-9.15-2.72-3.25.02-6.5,0-9.75-.06-3.03-.05-6.07-.35-8.97.68-3.21,1.14-1.49,6.66-.75,9.06,1.01,3.28,1.33,4.77,5.2,4.37,4.72-.49,13.06-2.9,20.76-5.39,2.4-.78,3.77-3.53,2.66-5.95Z"/>
    </g>
    <g>
      <path class="st5" d="M343.47,477.16c3.28-6.83,8.89-14.78,3.77-22.19-1.82-2.63-7.38-5.63-9.93-2.8-.15.04-.28.12-.37.27-5.18,8.51-20.9,56.29-20.9,56.29,0,0-.29,4.58,2.03,6.11,1.62,1.07,6.51.87,6.51.87,0,0,6.41-13.24,7.15-14.61,1.42-2.63,7.66-15.4,11.76-23.94Z"/>
      <path class="st9" d="M337.97,525.44c.86-3.51-3.26-6.04-5.5-7.8-2.56-2-5.1-4.03-7.62-6.08-2.34-1.91-4.55-4.03-7.47-5.02-3.23-1.09-5.29,4.31-6.2,6.65-1.24,3.2-1.91,4.57,1.38,6.65,4.01,2.54,12.06,5.81,19.64,8.62,2.37.88,5.14-.44,5.77-3.03Z"/>
    </g>
    <path class="st0" d="M414.66,286.94c-.43-1.12-.93-2.08-1.48-2.95-.06-.48-.12-.97-.19-1.45-1.74-11.53-11.14-24.5-24.11-18.19-.87.42-1.67,1.18-2.32,2.09-8.85-2.03-17.18,2.45-22.44,9.33-.43-2-.99-3.95-1.74-5.83-.54-1.35-2.15-1.99-3.3-.87-9.56,9.29-13.72,17.39-15.39,30.1-1.98,15.09-2.52,33.12-3.43,48.3l-.8,44.11c-1.31,6.66-2.57,13.32-3.78,19.99-1.83,10.03-12.84,56.68-14.6,66.72-.47,2.66-3.56,12.92-2.86,14.35.69,1.43,19.17,9.7,21.52,9.21,2.35-.5,15.9-27.28,18.67-33.86,5.19-12.11,24.18-60.26,27.12-73.15,4.02-17.58,13.95-65.03,14.48-68.64,6.06.54,12.47,10.04,13.31,2.1.83-7.83,1.54-15.67,2.21-23.52.51-6.02,1.36-12.06-.87-17.85Z"/>
    <path class="st0" d="M458.52,423.76c-2.44-21.34-6.43-47.37-9.5-68.63-2.39-16.5-4.22-35.42-7.13-51.83-.56-3.18-7.55-32.7-9.27-32.64-16.85.57-33.91,5.79-49.11,12.68-.31.14-.47.52-.48.84-.38,12.87,5.99,23.21,7.26,36.05.6,6.09,30.3,114.52,32.42,120.95,2.19,6.65,11.66,43.83,13.74,50.5.01.04.04.07.06.11.39,1.5.9,2.96,1.69,3.83,1.78,1.97,3.81.84,6.02.02,3.74-1.39,4.88-1.27,8.62-2.66,3.69-1.37,8.16-2.35,11.56-4.32,1.5-.87,2.41-1.69,2.55-3.52.27-3.54-7.44-52.71-8.43-61.38Z"/>
    <path class="st15" d="M427.33,148.13s7.83,4.15,12.18,20.12c3.13,11.49,7.65,38.77,11.35,50.53,3.7,11.76,6.6,14.93,7.13,23.38.53,8.45,1.58,15.84,3.96,22.7,2.38,6.86,2.64,9.5,1.58,11.88-1.06,2.38-12.67,6.6-12.67,6.6l-23.53-135.21Z"/>
    <path class="st0" d="M427.53,68.82c0-.89-.07-1.78-.2-2.68-.68-4.73-3.02-9.43-6.71-12.4-1.51-1.21-3.86-2.75-5.76-1.3-.53.4-.84.9-1,1.43-.07-.09-.15-.18-.22-.27-1.87-2.39-4.33-4.27-7.46-4.62-2.58-.28-5.22,1.02-5.55,3.81-.09.78-.04,1.72.19,2.61-1.43.16-2.87.32-4.3.41-2.95.17-5.92.4-8.81,1.08-3.22.75-6.38,2.02-9.04,4.01-3.74,2.8-6.66,7.85-7.89,12.31-1.88,6.8.34,13.73,2.47,20.18,2.08,6.29,5.07,12.05,7.51,18.19.48,1.2,2.3.77,1.98-.54-.26-1.04-.56-2.06-.89-3.08.45.11,1.02-.18.98-.72-.08-1.13-.34-2.18-.7-3.21,1.56.53,3.42.6,5.72.02,9.66-2.44,16.11-10.86,23.78-16.56,2.15-1.59,4.38-3.07,6.66-4.47,1.04-.64,2.62-1.32,3.75-2.27,1.15-.97,2.01-2.21,2.8-3.47.78-1.23,1.67-2.49,2.18-3.86.54-1.45.5-3.06.49-4.59Z"/>
    <path class="st5" d="M422.74,108.8c-1.62,11.56-8.17,15.01-13.81,15.54-8.44.79-20.46-4.75-23.14-9.91-1.39-2.74-2.41-5.91-3.12-9.17-.21-.9-.4-1.79-.55-2.69-1.71-9.76-1.16-19.42-1.16-19.42l8.74-16.23s27.19-.95,30.95,4.37c.38.52.71,1.22.98,2.07.17.49.33,1.01.46,1.58.68,2.79,1.09,6.59,1.31,10.67.05.71.08,1.43.1,2.15.02.49.02,1,.03,1.5,0,.36.02.73.03,1.09.1,7.25-.3,14.59-.82,18.43Z"/>
    <path class="st5" d="M381.49,98.17c0,.47-1.01,24.33-3.04,28.03-2.03,3.7-7.35,8.23-7.35,8.23l33.68,42.76,8.37-34.16s-8.37-7.97-8.28-13.13c.04-2.66,1.56-7.35,1.88-7.97.31-.63-25.26-23.75-25.26-23.75Z"/>
    <path class="st9" d="M399.95,94.78c-.02-.08-.09-.26-.13-.34-.17-.4-.47-.64-.9-.71-1.02-.17-1.3,1.07-1.29,1.83,0,.43.14.87.43,1.17.3.31.78.45,1.17.29.46-.19.67-.72.74-1.21.05-.34.06-.7-.03-1.03Z"/>
    <path class="st9" d="M422.64,95.25c-.02-.08-.09-.26-.13-.34-.17-.4-.47-.64-.9-.71-1.02-.17-1.3,1.07-1.29,1.83,0,.43.14.87.43,1.17.3.31.78.45,1.17.29.46-.19.67-.72.74-1.21.05-.34.06-.7-.03-1.03Z"/>
    <path class="st4" d="M414.84,104.86c-.36,0-.69-.25-.77-.62l-1.8-8.2c-.09-.43.18-.85.6-.94.43-.1.85.18.94.6l1.8,8.2c.09.43-.18.85-.6.94-.06.01-.11.02-.17.02Z"/>
    <path class="st4" d="M410.88,112.55c-.43,0-.9-.02-1.4-.07-4.13-.38-5.41-2.59-5.47-2.68-.21-.38-.08-.86.3-1.08.38-.21.86-.08,1.07.29.05.08,1.02,1.59,4.24,1.89,3.33.31,4.73-.69,4.74-.7.35-.26.84-.19,1.11.16.26.34.2.83-.14,1.1-.16.12-1.49,1.09-4.46,1.09Z"/>
    <path class="st0" d="M405.1,87.11c-.16-.6-.78-1.04-1.38-1.31-1.81-.81-3.92-.95-5.82-.39-1.17.34-2.25.95-3.17,1.75-.46.4-1.18,1.04-1.34,1.65-.36,1.4,2.25.32,2.75.16,2.19-.71,4.62.11,6.88-.06.47-.04.95-.11,1.36-.35.41-.23.74-.65.76-1.12,0-.11,0-.22-.04-.33Z"/>
    <path class="st0" d="M423.53,89.27c-1.12.1-2.26.25-3.37.17-.48-.05-.95-.13-1.36-.35-.41-.24-.74-.67-.76-1.12,0-.13.02-.24.03-.33.16-.6.79-1.05,1.39-1.31,1.24-.55,2.6-.79,3.94-.71.05.71.08,1.43.1,2.15.02.49.02,1,.03,1.5Z"/>
    <path class="st0" d="M423.78,73.71c-.42-.04-.84-.04-1.26-.06.08-.38-.02-.8-.4-1.09-1.47-1.1-1.17-3-3-3.96-2.64-1.39-6.86-2.01-9.87-2.28-4.03-.36-8.09.39-12.13.15-2.7-.16-5.44-1.06-7.88.53-1.95,1.27-3.11,3.54-4.26,5.47-1.64,2.75-3.62,5.52-4.58,8.6-1.99,6.37-1.82,15.57.26,22.01-.24.07-.48.11-.72.16.2.48.29,1,.28,1.52,3.14-.63,6.13-2.58,6.49-6.03.3-2.93-2.57-5.55-1.41-8.47.71-1.79,2.25-2.31,4.07-1.97.55.11,1.18.28,1.62-.06.33-.26.42-.71.49-1.13.19-1.16.3-2.38.58-3.52.38-1.55.75-3.33,1.7-4.64.74-1.01,1.77-1.74,2.91-2.24,2.36-1.03,5.01-1.16,7.54-1.34,6.55-.47,13.29,1.18,19.69-.8.49-.15.37-.82-.12-.86Z"/>
    <path class="st8" d="M433.83,274.5c.21,4.75-7.13,10.69-20.68,9.5-3.69-.32-7-.43-10.04-.38-8.14.08-14.35,1.19-20.54,1.76-.29.03-.57.05-.86.06-.51.03-1.01.06-1.5.06-1.03.03-2.03.03-2.99-.03-.27-.02-.54-.03-.81-.05-.36-.02-.71-.03-1.06-.06-.08,0-.14-.02-.22-.02-5.02-.51-8.6-1.74-8.6-1.74,0,0-.51-3.71-1.28-9.38,0-.05-.02-.08-.02-.13-.1-.65-.19-1.35-.29-2.04,0-.05-.02-.08-.02-.13-.08-.54-.14-1.08-.22-1.65-2.69-19.69-7.43-54.37-7.29-54.78.21-.6,4.36-77.84,4.36-77.84l12.7-6.45s12.4,9.74,19.26,13.83c.35.21.7.4,1.01.57,1.06.59,1.93.98,2.53,1.12,4.36,1.01,11.96-8.03,11.96-8.03l5.61,5.04s9.04,18.12,9.36,18.4c.33.3,7.65,53.36,7.65,54.54,0,.87.95,28.68,1.54,45.52v.02c.22,6.26.4,10.99.44,12.27Z"/>
    <path class="st2" d="M406.53,261.16c-1.43,3.67-5.42,5.5-8.69,7.7-4.43,2.99-7.9,7.16-11.89,10.72-2.79,2.49-6.02,4.74-9.53,5.84-.36-.02-.71-.03-1.06-.06-.08,0-.14-.02-.22-.02-5.02-.51-8.6-1.74-8.6-1.74,0,0-.51-3.71-1.28-9.38,0-.05-.02-.08-.02-.13-.1-.65-.19-1.35-.29-2.04,0-.05-.02-.08-.02-.13-.08-.54-.14-1.08-.22-1.65.3-3.52.68-7.05.3-10.55-.52-4.8.1-7.3,3.91-10.36,3.45-2.76,7.33-4.91,11.21-7,4.1-2.23,8.24-4.43,12.38-6.59,2.96-1.54,6.62-3.06,9.45-1.3,1.96,1.22,2.8,3.64,2.98,5.94.19,2.28-.16,4.59.05,6.87.21,2.15.9,4.32,1.44,6.46.63,2.52,1.03,5,.1,7.4Z"/>
    <path class="st15" d="M370.06,133.46s5.18,9.78,6.56,36.9c1.39,27.12-3.37,64.73-4.16,76.02-.79,11.28,1.12,48.5-2.41,53.65-3.53,5.15-5.51,2.77-15.01,2.38-9.5-.4-17.82.99-21.38-.99-3.56-1.98-5.35-1.78-5.35-5.15s8.71-53.65,11.09-67.11.99-79.76,5.35-84.22c4.36-4.47,25.31-11.47,25.31-11.47Z"/>
    <path class="st2" d="M433.83,274.5c.21,4.75-7.13,10.69-20.68,9.5-3.69-.32-7-.43-10.04-.38.68-1.74,2.9-3.28,4.31-4.4,3.69-2.91,7.06-6.26,10.01-9.93,1.65-2.03,3.18-4.2,5.18-5.89,2.01-1.68,4.59-2.88,7.19-2.57,1.31.14,2.5.65,3.6,1.38v.02c.22,6.26.4,10.99.44,12.27Z"/>
    <path class="st15" d="M348.96,142.09s-10.03,4.28-13.71,8.1c-6.93,7.21-17.02,55.98-19.99,70.94-2.97,14.96-3.13,14.96-7.14,20.77-4.01,5.81-5.6,11.87-6.13,16.76-.53,4.89-3.96,5.94-3.7,9.9.26,3.96,18.28,13.2,20.89,12.41,2.61-.79,5.57-10.56,6.86-12.41,1.29-1.85,2.34-5,6.57-8.7,4.22-3.7,18.86-43.28,19.99-48.3,1.13-5.02.98-39.07,0-43.56-.98-4.49-3.64-25.9-3.64-25.9Z"/>
    <path class="st15" d="M409.23,138.7s6.58,12.43,8.8,25.66c11.45,68.16,13.31,131.84,15.81,133.81,5.02,3.96,12.14-3.43,17.68-3.96,5.54-.53,4.67-7.13,3.03-14.86-3.05-14.39-11.61-40.67-12.41-60.97-.79-20.3-9.84-62.2-12.47-68.19-1.16-2.63-20.45-11.49-20.45-11.49Z"/>
    <g>
      <g>
        <g>
          <path class="st5" d="M304.37,488.34c.41-7.56,2.55-17.06-5.02-21.94-2.69-1.73-8.97-2.38-10.25,1.22-.12.09-.21.22-.24.39-1.52,9.84,2.27,60,2.27,60,0,0,1.49,4.34,4.21,4.87,1.9.37,6.35-1.69,6.35-1.69,0,0,.84-14.69,1-16.23.31-2.97,1.17-17.15,1.68-26.62Z"/>
          <path class="st9" d="M317.79,535.04c-.55-3.57-5.33-4.33-8.07-5.09-3.13-.86-6.26-1.76-9.37-2.69-2.9-.87-5.75-1.98-8.82-1.77-3.4.23-1.96,7.05-1.9,9.56.08,3.43.07,4.29,2.55,4.57,4.71.53,13.36.74,21.45.44,2.52-.1,4.58-2.38,4.17-5.01Z"/>
        </g>
        <path class="st5" d="M290.94,525.68s1.67,3.63,5.78,5.01c4.12,1.39,11.82,1.77,12.56,1.45,1.63-.69,1.16-2,1.16-2l-8.7-2.47-4.47-4.43-5.15.26-1.19,2.18Z"/>
      </g>
      <g>
        <g>
          <path class="st5" d="M236.55,481.35c3.08-6.92,8.47-15.03,3.14-22.29-1.89-2.58-7.53-5.42-10.01-2.52-.15.05-.28.13-.37.28-4.94,8.65-19.29,56.86-19.29,56.86,0,0-.16,4.58,2.2,6.05,1.65,1.03,6.53.69,6.53.69,0,0,6.03-13.42,6.73-14.81,1.35-2.67,7.21-15.61,11.07-24.27Z"/>
          <path class="st9" d="M232.43,529.77c.76-3.53-3.43-5.95-5.72-7.64-2.62-1.92-5.22-3.88-7.79-5.86-2.4-1.85-4.66-3.9-7.61-4.8-3.26-.99-4.35,5.89-5.19,8.26-1.15,3.24-1.47,4.03.75,5.18,4.21,2.18,12.22,5.46,19.88,8.06,2.39.81,5.13-.59,5.69-3.19Z"/>
        </g>
        <path class="st5" d="M210.69,511.44s.26,3.99,3.61,6.75c3.35,2.76,10.41,5.87,11.22,5.84,1.77-.06,1.8-1.46,1.8-1.46l-7.25-5.41-2.59-5.74-4.9-1.59-1.89,1.61Z"/>
      </g>
      <path class="st5" d="M346.4,333.47s1.68.51,3.61.71c1.93.2,3.5-.83,3.5-.83,0,0,2.34-.61,2.78-1.45.45-.84.65-2.11.65-2.11h-8.07l-3.12,3.78.64-.11Z"/>
      <path class="st9" d="M342.64,339.95c-.03-.35-.61-8.75,8.33-14.2,2.58-1.58,4.64-1.19,5.91-.59,5.1,2.41,6.66,12.5,6.83,13.65l-3.14.44c-.52-3.67-2.35-9.96-5.04-11.23-.53-.25-1.42-.48-2.91.43-7.28,4.45-6.82,11.17-6.82,11.24l-3.16.26Z"/>
      <path class="st5" d="M296.73,233.33s10.32,27.79,16.73,38.11c3.27,5.26,6.16,10.62,9.27,15.92,2.55,4.36,5.38,8.56,8.44,12.57,3.15,4.13,6.51,8.3,10.31,11.87,2.71,2.54,8.79,8.42,8.79,8.42l3.95-4.71s-6.52-18.09-10.6-26.79c-4.38-9.35-10.65-18.63-13.06-28.75-2.55-10.73-3.6-21.8-6.22-32.52-1.87-7.62-4.25-15.12-7.17-22.4-1.29-3.23-3.29-8.97-7.77-7.37-.08-.5-.78-.86-1.14-.38-3.76,5.06-6.37,12.15-8.75,18-2.26,5.56-2.79,18.02-2.79,18.02Z"/>
      <path class="st5" d="M357.76,322.42c-1.23-3.08-2.66-6.07-4.16-9.03-.19-.38-.39-.77-.58-1.15,0,0-1.15.17-.98,1.11.03.17.18.66.4,1.34-.17-.18-.38-.31-.62-.38-.48-.55-1.24-.63-1.86-.38-.12-.07-.25-.11-.41,0-.3.19-.6.41-.89.62-.86-.11-1.8.48-1.81,1.5-1.93,1.82-3.33,4.12-3.8,6.72-.11.61-.2,1.27-.28,1.95-.15,1.34.06,3.22.59,4.46.29.68,1.84,2.04,1.84,2.04l1.75-2.24s3.21,3.13,3.32,3.28c.3.45.48.92,1.02,1.15.37.16.79.18,1.19.15,1.92-.15,3.1-.91,4.11-2.36.61-.86,1.4-1.09,1.79-2.08.79-1.97.16-4.77-.62-6.71Z"/>
      <path class="st13" d="M324.14,338.55h62.27c3.48,0,6.31,2.83,6.31,6.31v34.84c0,3.48-2.83,6.31-6.31,6.31h-62.27c-3.48,0-6.31-2.83-6.31-6.31v-34.84c0-3.48,2.83-6.31,6.31-6.31Z"/>
      <path class="st9" d="M211.65,332.89c-.2,0-.4-.04-.6-.12-.81-.33-1.2-1.25-.87-2.06.15-.36,14.68-36.05,22.33-52.91,7.65-16.86,16.57-34.53,16.66-34.7.4-.78,1.35-1.09,2.13-.7.78.4,1.09,1.35.7,2.13-.09.18-8.98,17.79-16.6,34.58-7.62,16.8-22.13,52.44-22.28,52.8-.25.61-.84.99-1.47.99Z"/>
      <path class="st14" d="M323.07,385.83c-.08,2.6-.14,5.31-.19,8.22-.02.63-.02,1.28-.03,1.95-.16,11.09-.35,22.19-.57,33.29-.43,22.55-2.8,63.17-3.77,67.48-.51,2.22-4.74,3.85-9.66,4.91-.51.13-1.03.22-1.57.33-.06.02-.13.02-.19.03-.52.1-1.06.19-1.58.29-3.66.59-7.32.87-9.82.9-1.35.02-2.91-.03-4.59-.13-.13,0-.25-.02-.38-.03-.4-.02-.79-.05-1.2-.08-.13-.02-.25-.02-.38-.03-6.26-.46-13.11-1.6-14.27-3.31-1.11-1.66-.98-49.3-.93-62.16v-.92c-4.15,14.51-9.26,26.53-14.63,40.64-1.68,4.4-3.48,8.76-5.37,13.08-.89,2.07-1.81,4.13-2.76,6.16-.55,1.16-1.43,4.07-2.87,4.2-3.28.3-7.41-.79-10.79-1.5-.29-.06-.54-.13-.81-.17-.25-.05-.51-.1-.76-.16-3.72-.76-7.4-1.76-10.96-3.04-3.1-1.12-6.11-2.47-8.98-4.09-.46-.25-.92-.51-1.38-.79-3.6-2.14-6.92-4.69-9.85-7.68-2.3-2.34-.93-6.6-.08-9.34,1.01-3.26,2.49-6.35,3.6-9.58,4.43-12.84,9.19-25.58,14.24-38.2,2.45-6.16,5-12.27,7.62-18.37,3.28-7.63,6.43-15.03,6.89-23.47.33-5.81.17-11.62.21-17.45.08-15.16-.46-27.26,2.09-42.27,2.12-12.53,5.7-25.66,11.58-37.14.84-1.6,1.71-3.18,2.63-4.72.32-.54.89-.46,1.19-.11.25-.76.81-1.31,1.55-1.73.44-.24.95-.43,1.5-.57.74-.22,1.55-.35,2.31-.43.55-.08,1.09-.11,1.58-.13.33-.03.65-.05.92-.06,3.29-.19,6.62-.25,9.95-.27.52-.02,1.06-.02,1.58-.02h6.62c3.26,0,6.51,0,9.77.03h1.58c.43,0,.86.02,1.28.02,2.31.03,4.62.06,6.94.11,1.33.02,2.76,0,4.23.03.52,0,1.05,0,1.58.03h.02c.52.02,1.05.05,1.57.1,2.68.19,5.29.7,7.41,2,.43.27.43.92.08,1.2t.03.06c.21.84.41,1.68.62,2.52,3.42,14.17,5.35,28.62,6.4,43.16.57,7.81.9,12.46,1.12,20.29.4,14.65,0,24.29-.32,36.93Z"/>
      <path class="st12" d="M288.66,108.25s-15.57-23.16-39.82-2.24c-15.55,13.41-8.75,26.26-3.38,33.26,3.24,4.23,5.32,5.68,5.32,5.68l37.88-36.69Z"/>
      <path class="st6" d="M327.19,85.19c-7.36-5.39-17.39-4.11-25.55.11-6.43,2.09-11.69,6.41-16.95,10.6-7.36,5.87-14.57,11.93-21.71,18.06-12.95,11.11-27.55,22.04-38.14,35.51-5.22,6.64-13.67,22.02-2.14,27.11,8.75,3.86,19.87-.88,27.19-7.78,6.69-2.14,13.23-5.02,20-7.09,7.82-2.39,15.53-5.44,22.71-9.37,13.88-7.6,26.08-18.89,33.3-33.11,4.65-9.17,11.71-26.41,1.28-34.04Z"/>
      <path class="st9" d="M315.85,155.93c-.11-.88-.22-1.75-.32-2.63-.53-4.45-.7-8.93-1.55-13.33-1.94-10.03-4.35-14.57-4.35-14.57,0,0-1.02-1.2-1.31-.91-.56-.65-1.16-1.26-1.83-1.8-.31-.25-.72.05-.55.42.67,1.42,1.28,2.8,1.86,4.16-.32-.14-.64-.28-.97-.39-.08-.03-.15-.02-.23-.03-8.17-3.42-12.37,10.88-15.2,15.88-2.91,5.13-4.92,10.4-6.36,16.12-1.44,5.72-3.27,11.91-3.01,17.87.19,4.28,1.87,6.92,5.48,9.09,3.71,2.23,8.27,4.07,12.59,2.48,1.86-.69,3.14-1.89,4.32-3.43.75-.98,1.33-2.07,2.17-2.99,1.4-1.55,3.14-2.35,4.82-3.52,3.56-2.49,5.1-6.42,5.23-10.68.12-3.94-.31-7.85-.79-11.76Z"/>
      <path class="st5" d="M307.94,159.72c-1.45,10.39-7.33,13.49-12.4,13.96-7.58.71-18.37-4.28-20.77-8.91-1.26-2.46-2.17-5.31-2.81-8.24-.19-.81-.35-1.6-.49-2.41-1.53-8.76-1.04-17.43-1.04-17.43l7.85-14.58s24.42-.84,27.79,3.92c.34.47.64,1.09.88,1.87.17.44.3.91.42,1.41.72,2.95,1.11,7.12,1.26,11.52.02.77.03,1.55.05,2.34.08,6.5-.27,13.09-.74,16.54Z"/>
      <path class="st5" d="M270.91,150.19c0,.42-.9,21.84-2.73,25.16-1.82,3.32-6.6,7.39-6.6,7.39l30.24,38.39,7.51-30.67s-7.51-7.16-7.44-11.79c.04-2.39,1.4-6.6,1.68-7.16.28-.56-22.68-21.32-22.68-21.32Z"/>
      <path class="st9" d="M287.48,147.15c-.02-.07-.09-.23-.12-.3-.15-.36-.43-.57-.81-.64-.92-.16-1.16.96-1.15,1.64,0,.38.12.78.39,1.05.27.28.7.41,1.05.26.41-.17.6-.65.67-1.08.05-.31.05-.63-.03-.93Z"/>
      <path class="st9" d="M307.86,147.57c-.02-.07-.09-.23-.12-.3-.15-.36-.43-.57-.81-.64-.92-.16-1.16.96-1.15,1.64,0,.38.12.78.39,1.05.27.28.7.41,1.05.26.41-.17.6-.65.67-1.08.05-.31.05-.63-.03-.93Z"/>
      <path class="st8" d="M300.95,161.58c-.42-.56-1.72-.55-3.68-.83-1.96-.28-4.23-1.35-4.79-.44-.22.36-.27,3.34,4.12,3.97,3.93.56,4.77-2.14,4.35-2.7Z"/>
      <path class="st9" d="M290.14,141.31c-.13-.19-.32-.33-.53-.42-.32-.14-.66-.17-1.01-.19-1.18-.08-2.38-.07-3.53.23-.72.19-1.41.49-2,.93-.31.23-1.54,1.18-.81,1.58.22.12.48.08.72.04,1.68-.27,3.38-.42,5.08-.44.51,0,1.03,0,1.5-.22.46-.21.83-.72.72-1.21-.03-.11-.07-.22-.14-.31Z"/>
      <path class="st9" d="M308.68,143.75c-.79-.05-1.6-.1-2.39-.1-.52,0-1.04,0-1.5-.22-.47-.2-.84-.71-.72-1.21.03-.1.07-.2.13-.3.13-.19.34-.34.54-.42.32-.13.67-.17,1.01-.19.96-.07,1.94-.07,2.88.1.02.77.03,1.55.05,2.34Z"/>
      <path class="st9" d="M311.96,142.67c-1.42-.36-1.96-2.13-2.63-3.54.19.06.36.14.57.18.84.16,1.49-.73,1.2-1.39.18-.2.31-.46.31-.78-.02-2.16-.04-4.38-1.01-6.36-.08-.17-.17-.34-.2-.52-.03-.19.01-.37.05-.56.66-3.74-2.04-7.73-4.85-9.97-2.91-2.33-6.61-3.45-10.24-4.05-13.18-2.19-27.46.84-32.41,16.08-.76,2.33-1.73,4.59-2.14,7-.86,5.08-3.31,9.98-6.62,13.89-3.57,4.23-14.47,2.58-18.35,6.51-2.36,2.4-4.14,5.39-5.35,8.52-1.57,4.06-.84,8.56-3.95,11.87-2.97,3.16-8.01,4.79-10.82,8.13-2.11,2.52-3.65,6.7-3.82,10.43-.04.04-.07.08-.06.14.02.07.04.14.06.21-.02,1.06.04,2.08.26,3,.3,1.26.95,2.5,1.79,3.64.17.57.34,1.14.49,1.72.54,2.09.88,4.3,1.94,6.21,1.58,2.84,4.55,4.66,7.66,5.37,9.34,2.13,17.6-5.24,23.63-11.38,3.98-4.05,6.45-9.18,10.28-13.37,3.23-3.53,6.84-6.79,9.45-10.83,2.18-3.38,3.2-7.39,3.88-11.31.34-1.99.51-4.01.82-6,.33-2.12.91-4.22.37-6.36-.51-2-.7-4.06-.64-6.12.09-3.16,1.34-4.71,3.24-7.04,2.83-3.46,3.26-8.04,7.1-10.87,1.18-.87,2.45-1.48,3.78-1.92.09-.04.17-.09.27-.12,2.35-.8,4.71-1.29,7.06-1.52,1.1,1.86,2.8,3.45,4.91,4.58,3.63,1.93,7.51,1.24,9.75,5.2,1.1,1.95,1.51,3.22,3.91,3.54,1.26.17,1.49-1.89.3-2.2Z"/>
      <path class="st5" d="M252.23,213.08c-1.13-6.21-2.23-13.69-4.87-19.41-.25-.54-1.01-.34-1.19.13-4.06-2.49-7.19,2.73-9.11,5.62-4.35,6.53-8.22,13.38-11.61,20.46-4.77,9.96-8.06,20.58-12.76,30.56-4.43,9.4-12.46,17.21-18.67,25.46-5.78,7.68-15.86,24.05-15.86,24.05l2.91,5.42s7.16-4.51,10.33-6.44c4.45-2.71,8.59-6.11,12.52-9.5,3.82-3.3,7.45-6.84,10.84-10.58,4.13-4.55,8.06-9.2,12.34-13.69,8.39-8.79,24.18-33.87,24.18-33.87,0,0,2.03-12.31.96-18.21Z"/>
      <path class="st14" d="M318.27,275.25c-.13-3.52-.93-6.95-1.41-10.44-.67-4.78-.59-9.58-.46-14.41.22-8.54.51-17.06.7-25.59.16-6.83-2.33-25.37-3.66-26.64-.79-.74-7.02-4.93-11.97-8.2-.73-.49-1.43-.95-2.07-1.38-.81-.54-1.52-1.01-2.14-1.43-1.24-.81-2.01-1.31-2.01-1.31l.33,1.52c.63,3.15,1,6.33.32,9.53-.78,3.63-3.02,6.68-4.02,10.23-.52,1.85-.73,3.8-.86,5.78v.03c-.14,1.96-.21,3.93-.44,5.83-.08-.13-.17-.27-.27-.46-.1-.21-.22-.46-.33-.73v-.02c-.46-1.08-.98-2.63-1.5-4.12-.74-2.07-1.49-4.09-2.11-4.75-2.98-3.21-4.85-6.54-6.54-10.52-1.47-3.52-4.59-7.49-7.3-10.53-.74-.84-1.46-1.6-2.09-2.26-.79-.84-1.47-1.52-1.96-2.01-.51-.49-.79-.76-.79-.76l-1.01.44-11.29,4.85-1.44.63-.76.33-1.52.65-8.55,3.67s4.45,2.03,7.13,10.74c1.28,4.21,1.12,6.18.98,15.85-.06,4.48-5.72,20.43-5.72,20.43,0,0-.67,13.81-1.03,17.45-.41,4.34-1.11,8.77-1.16,13.14-.03,3.01.4,6.03,2.11,8.57,1.65,2.45,3.31,5.86,5.51,8,.21.21.41.4.62.57,1.92,1.57,4.18,2.49,6.59,3.06.52.13,1.06.24,1.6.33.24.05.48.08.71.11.52.1,1.05.16,1.57.22,3.42.4,6.92.43,10.06.89.44.06.87.13,1.3.16.19.03.4.06.59.08.33.05.65.08.98.11.21.02.43.03.63.05,1.82.16,3.66.17,5.51-.06,3.33-.43,6.52-1.44,9.85-1.85.44-.06.9-.11,1.36-.14.06,0,.14-.02.22-.02.1,0,.21-.02.3-.02.35-.02.7-.03,1.06-.03,3.9-.02,8,.65,11.89.25.33-.03.68-.08,1.01-.13.19-.03.36-.06.55-.1.33-.06.67-.13,1-.21,1.39-.35,2.72-.89,4.02-1.71,1.49-.93,2.64-2.14,3.52-3.5,1.9-2.93,2.53-6.64,2.41-10.2Z"/>
      <path class="st5" d="M185.75,299.15c-.16-.33-.32-.66-.49-.97-.09-.16-.23-.2-.36-.19-.42-.51-1.13-.81-1.81-.55-.24-.05-.49-.04-.73.04.53-.49.89-.85,1-.99.6-.75-1.61-2.27-1.61-2.27,0,0-5.52,5.44-8.26,7.96-2.27,2.09-5.93,4.28-7.2,7.15-.11.25-.11.76.35,1.02-1.08.59-2.21,1.2-2.81,2.12-.5.77-.39,1.44-.03,1.89-.66.49-1.25,1.06-1.42,1.79-.22.93.47,1.77,1.42,1.85.41.03.81-.06,1.19-.21.09.7.87,1.09,1.56.97,2.34-.41,4.23-1.72,6.22-2.96,1.02-.63,2.04-1.28,3.11-1.84.16-.09,3.65-1.97,4.91-1.29-.18.28-.36.56-.57.83-.98,1.27-1.81,2.24-2.19,3.82-.23.96.69,1.68,1.58,1.46,3.41-.85,6-6.76,7.14-9.72.94-2.47.7-5.19-.13-7.72.48-.9-.06-1.87-.87-2.18Z"/>
      <path class="st8" d="M277.38,229.77c-.24,20.51-1.22,41.75-1.66,49.59-.08,1.3-.13,2.22-.17,2.72,0,.11-.3,4.45-.62,10.83-.54,11.16-1.12,28.54-.21,40.24,1.3,16.66-2.26,53.96-8.98,78.93-5.94,22.08-24.67,76.78-28.22,87.06-.29-.06-.54-.13-.81-.17-.25-.05-.51-.1-.76-.16,3.39-9.8,22.3-64.98,28.25-87.14,6.67-24.83,10.21-61.86,8.93-78.39-.92-11.81-.33-29.35.22-40.56.3-6.33.6-10.64.62-10.77.03-.49.1-1.36.16-2.6.43-7.73,1.43-29.03,1.66-49.62.17-16-3.23-34.43-5.37-44.34.63.67,1.35,1.43,2.09,2.26,2.14,10.39,5.02,27.27,4.86,42.11Z"/>
      <path class="st8" d="M262.38,289.13c.02.4-.13,1.25-.38,2.55-.7,3.53-2.34,10.33-4.75,20.26-.76,3.12-1.55,6.38-2.33,9.64-1.44,5.99-1.33,15.27-1.22,26.02.19,16.55.43,37.17-4.86,55.79-7.41,26-27.21,74.64-32.83,88.29-.46-.25-.92-.51-1.38-.79,5.72-13.89,25.34-62.11,32.69-87.94,5.23-18.4,4.99-38.88,4.8-55.33-.11-10.86-.22-20.24,1.25-26.4.79-3.28,1.58-6.54,2.34-9.66,2.01-8.3,3.94-16.23,4.72-20.1.24-1.19.36-1.98.36-2.3-.02-.38-.11-1.55-.24-3.28-.13-1.63-.29-3.71-.46-6.05-.51-7.27-1.09-17.23-.93-25.28l.1-4.97c.32-14.4.84-38.52-.62-46.61-.89-4.93-4.21-9.95-7-13.45l1.52-.65c2.83,3.61,6.11,8.68,7.05,13.81,1.47,8.25.95,32.47.63,46.94l-.1,4.96c-.16,7.97.43,17.86.93,25.12.17,2.36.33,4.43.46,6.07.13,1.76.22,2.96.24,3.36Z"/>
      <path class="st8" d="M293.22,388.19c-2.47,23.33-2.5,110-2.5,114.88-.4-.02-.79-.05-1.2-.08-.13-.02-.25-.02-.38-.03,0-5.97.05-91.7,2.52-114.95,2.41-22.55,1.95-64.22.63-97.11-.03-1.27-.1-2.53-.14-3.77-.11-2.44-.22-5.04-.35-7.74-.95-21.09-2.44-49.47-3.33-65.93.52,1.49,1.05,3.04,1.5,4.12v.02c.11.27.24.52.33.73.9,16.8,2.22,41.95,3.09,61.08.11,2.68.24,5.26.33,7.67.05,1.24.11,2.5.14,3.77,1.31,32.94,1.77,74.7-.65,97.35Z"/>
      <path class="st8" d="M308.91,397.66c-1.06,21.86-1.65,82.84-1.82,104.38-.52.1-1.06.19-1.58.29.17-21.27.74-82.75,1.82-104.73,1.28-26.08,2.26-74.24.82-87.39-.4-3.61-.87-10.59-1.38-19.24-.21-3.55-.43-7.38-.63-11.39-1.17-22.06-2.34-49.03-2.71-60.77-.49-15.5-5.91-27.56-7.86-31.44l-.33-1.52s.78.51,2.01,1.31c2.17,4.47,7.27,16.44,7.76,31.6.36,11.77,1.54,38.83,2.71,60.91.21,3.86.41,7.55.6,10.99.52,8.73,1.01,15.76,1.41,19.38,1.44,13.21.46,61.48-.82,87.61Z"/>
      <path class="st4" d="M301.05,155.99c-.38,0-.71-.27-.78-.66l-1-5.84c-.07-.43.21-.84.65-.91.43-.07.84.22.91.65l1,5.84c.07.43-.21.84-.65.91-.04,0-.09.01-.13.01Z"/>
      <path class="st9" d="M252.37,329.94c-.19,0-.39-.03-.58-.11-.81-.32-1.22-1.24-.9-2.05.06-.16,6.35-16.07,21.45-42.78,14.95-26.43,31.73-93.36,31.89-94.03.21-.85,1.07-1.37,1.92-1.15.85.21,1.37,1.07,1.15,1.92-.69,2.77-17.05,68.02-32.21,94.82-14.98,26.49-21.2,42.22-21.26,42.38-.25.62-.84,1.01-1.48,1.01Z"/>
      <path class="st9" d="M254.61,326.92s-41.37,2.61-44.15,3.53c-2.77.92-14.39,30.49-11.75,31.41,2.64.92,43.19,2.77,46.85.26,3.66-2.51,9.04-35.2,9.04-35.2Z"/>
      <path class="st4" d="M291.57,174.42c-.12,0-.24-.03-.36-.09-.02,0-1.81-.92-4.66-2.54-.38-.22-.51-.7-.3-1.08.22-.38.7-.52,1.08-.3,2.82,1.6,4.58,2.5,4.59,2.51.39.2.55.67.35,1.06-.14.28-.42.43-.71.43Z"/>
      <path class="st8" d="M273.92,166.62c-2.44,0-4.36-2.68-4.36-6.11s1.91-6.11,4.36-6.11,4.36,2.68,4.36,6.11-1.91,6.11-4.36,6.11ZM273.92,155.99c-1.5,0-2.77,2.07-2.77,4.52s1.27,4.52,2.77,4.52,2.77-2.07,2.77-4.52-1.27-4.52-2.77-4.52Z"/>
    </g>
    <path class="st8" d="M501.21,484.16c-.44,0-.79-.35-.79-.79v-163.15c0-.44.35-.79.79-.79s.79.35.79.79v163.15c0,.44-.35.79-.79.79Z"/>
    <path class="st9" d="M414.19,500.6c0-4.05-3.28-7.34-7.34-7.34s-7.34,3.28-7.34,7.34,3.28,7.34,7.34,7.34,7.34-3.28,7.34-7.34Z"/>
    <path class="st9" d="M520.95,500.6c0-4.05-3.28-7.34-7.34-7.34s-7.34,3.28-7.34,7.34,3.28,7.34,7.34,7.34,7.34-3.28,7.34-7.34Z"/>
    <path class="st2" d="M396.24,203.75c-1.12.15-2.21.48-3.25.93-5.3,2.28-20.63,16.48-11.27,21.55,2.71,1.47,6.13.97,8.9-.39,2.77-1.36,5.09-3.46,7.55-5.32,2.35-1.77,4.96-3.46,6.19-6.13.97-2.11.89-4.67-.2-6.72-1.1-2.05-3.18-3.53-5.48-3.9-.81-.13-1.62-.12-2.43-.02Z"/>
    <path class="st2" d="M420.85,244.07c-.13-.08-.26-.15-.4-.21-1.52-.7-3.35-.39-4.8.45-2.91,1.69-6.02,5.98-4.11,9.38,1.01,1.8,3.26,2.82,5.29,2.38,1.19-.26,2.25-.95,3.16-1.75,1.56-1.37,2.82-3.2,3.07-5.26.23-1.91-.59-4-2.21-4.99Z"/>
    <path class="st2" d="M417.87,219.44c-1.71-1-3.66-.11-4.44,1.58,0,0,0,0-.01.01.04-.1.03-.08-.05.06-.8.89-1.07,2.34-.4,3.39.65,1.02,2,1.73,3.22,1.31.88-.31,1.71-.73,2.32-1.46,1.27-1.52,1.2-3.82-.63-4.89Z"/>
    <path class="st2" d="M380.66,140.49c-1.71-1-3.66-.11-4.44,1.58,0,0,0,0-.01.01.04-.1.03-.08-.05.06-.8.89-1.07,2.34-.4,3.39.65,1.02,2,1.73,3.22,1.31.88-.31,1.71-.73,2.32-1.46,1.27-1.52,1.2-3.82-.63-4.89Z"/>
    <path class="st4" d="M405.03,124.83s-1.74-.53-3.07-1c-1.33-.47-2.36-.93-2.4-.95-.4-.18-.58-.65-.4-1.05.18-.4.65-.58,1.05-.4,0,0,1.01.45,2.28.9,1.3.46,3.01.98,3.01.98l-.46,1.51Z"/>
  </g>
  <g>
    <g>
      <path class="st16" d="M554.85,134.43l31.2-13.87c-19.06-5.86-38.12-11.72-57.18-17.58-4.89-1.5-9.77-3-14.66-4.51-5.9-1.81-12.19-3.3-18.32-1.69-2.65.69-14.68,6.23-7.68,9.34,0,0,66.64,28.31,66.64,28.31Z"/>
      <path class="st16" d="M554.46,133.48l31.99-11.95c-9.5,17.53-19.01,35.06-28.51,52.59-2.44,4.49-4.87,8.99-7.31,13.48-2.94,5.43-6.39,10.89-11.89,14.04-2.38,1.36-14.84,5.84-12.03-1.29,0,0,27.74-66.87,27.74-66.87Z"/>
      <path class="st16" d="M490.09,141.15l14.57,6.82,95.2-43.18c4.7-1.89,17.67-3.05,19.84,2.08,2.27,5.36-6.82,13.55-12.09,15.68l-93.91,37.82c-4.25,1.71-9.05,1.36-13-.96l-19.84-12.76c-.9-.53-.8-1.86.17-2.25l8.1-3.26c.31-.12.66-.12.96,0Z"/>
    </g>
    <path class="st7" d="M502.55,161.02c-2.75,1.12-5.42.95-5.97-.38-.54-1.33,1.24-3.32,3.99-4.45,2.75-1.12,5.42-.95,5.97.38s-1.24,3.32-3.99,4.45Z"/>
  </g>
  <path class="st15" d="M336.67,253.71c-.07,0-.15-.01-.23-.03-.42-.12-.66-.56-.53-.98.2-.67,19.73-66.88,19.15-82.41-.57-15.22-11.14-21.4-11.25-21.46-.38-.22-.51-.7-.3-1.08.22-.38.7-.51,1.08-.3.47.27,11.44,6.69,12.05,22.78.59,15.79-18.41,80.19-19.21,82.92-.1.34-.42.57-.76.57Z"/>
  <path class="st3" d="M450.88,275.17c-.37,0-.7-.26-.78-.64l-23.34-122.1c-.08-.43.2-.84.63-.93.43-.08.84.2.93.63l23.34,122.1c.08.43-.2.84-.63.93-.05,0-.1.01-.15.01Z"/>
  <path class="st1" d="M397.82,343.06c-.15,0-.3-.04-.43-.13-.37-.24-.47-.73-.23-1.1l11.82-18c.24-.37.73-.47,1.1-.23.37.24.47.73.23,1.1l-11.82,18c-.15.23-.41.36-.66.36Z"/>
</svg>