<svg version="1.2" xmlns="http://www.w3.org/2000/svg" viewBox="0 0 1522 1117" width="1522" height="1117">
	<title>blue_solid_circle-white_bg-svg</title>
	<style>
		.s0 { fill: #4a4af4 } 
		.s1 { fill: #060809 } 
	</style>
	<path id="Layer" class="s0" d="m248.8 1096.7c-123.1-188.1-133.3-428.5-26.4-626.3 106.8-197.8 313.5-321 538.3-321 224.7 0 431.4 123.2 538.3 321 106.8 197.8 96.7 438.2-26.5 626.3h171.3c115.7-235.8 101.5-514.7-37.4-737.6-138.9-223-383-358.4-645.6-358.4-262.7 0-506.7 135.4-645.7 358.4-138.9 222.9-153 501.8-37.3 737.6z"/>
	<path id="Layer" fill-rule="evenodd" class="s1" d="m771 400.8c164.7 0 291.2 73.5 291.2 255.4v440.4h-180.8v-105.1c-10.7 18.9-23.8 36.4-39 51.8-15.2 15.5-32.4 28.8-51.2 39.8-18.7 10.9-38.8 19.3-59.7 25-21 5.6-42.6 8.5-64.3 8.5-144.9 0-233-73.9-233-196.1 0-154.1 156-216.9 356.6-235.3 53.5-4.9 81.9-24.9 81.9-59.7 0-52.2-42.6-78-120-78-81.4 0-171.7 43.7-227.5 94.7l-63.5-133.8c69.6-55.5 197.9-108.1 309.3-108.1zm97.9 401.8c-136.9 0-241.4 20.6-241.4 106.5 0 41.1 32.7 66.2 90.7 66.2 90.6 0 150.7-82.9 150.7-172.7z"/>
</svg>