<?xml version="1.0" encoding="UTF-8"?>
<!DOCTYPE svg PUBLIC "-//W3C//DTD SVG 1.1//EN" "http://www.w3.org/Graphics/SVG/1.1/DTD/svg11.dtd">
<!-- Creator: CorelDRAW -->
<svg xmlns="http://www.w3.org/2000/svg" xml:space="preserve" width="16.679in" height="6.595in" version="1.1" style="shape-rendering:geometricPrecision; text-rendering:geometricPrecision; image-rendering:optimizeQuality; fill-rule:evenodd; clip-rule:evenodd"
viewBox="0 0 16679 6595"
 xmlns:xlink="http://www.w3.org/1999/xlink"
 xmlns:xodm="http://www.corel.com/coreldraw/odm/2003">
 <defs>
  <style type="text/css">
   <![CDATA[
    .fil0 {fill:#A2D2F1}
    .fil1 {fill:white;fill-rule:nonzero;fill-opacity:0.149020}
   ]]>
  </style>
 </defs>
 <g id="Layer_x0020_1">
  <metadata id="CorelCorpID_0Corel-Layer"/>
  <rect class="fil0" x="-0.5" y="2.5" width="16679" height="6595"/>
  <path class="fil1" d="M7660.47 3892.15l856.63 0c322.42,0 630.87,-86.5 896.71,-242.68 266.79,-156.67 492.69,-383.66 648.91,-663.96l1662.96 -2983.01 1159.7 0 792.1 1440.97 733.26 -1440.97 1288.39 0 979.35 1744.5 0 1412.44 -1624.98 -2894.57 -972.96 1911.92 1270.17 2310.69c106.99,194.57 155.9,399.48 155.9,599.09 0,225.72 -62.92,445 -175.35,635.09 -112.06,189.59 -274.13,350.3 -472.61,459.41 -176.03,96.74 -379.26,153.05 -599.95,153.05l-1201.54 0c-189.5,0 -365.21,-45.15 -519.62,-123.72 -190.59,-96.96 -347.49,-245.84 -456.88,-424.28 -108.99,-177.71 -170.37,-384.61 -170.37,-598.23 0,-172.59 39.62,-349.61 125.89,-519.17l1262.1 -2480.19 -993.54 -1807.52 -1638.92 2939.88c-217.15,389.56 -531.54,705.31 -903.14,923.54 -372.51,218.83 -801.15,340.06 -1245.61,340.06l-2029.83 0 2541.6 -4581.99 789.16 0 -2157.56 3889.65zm6040.96 -970.29l-1048.58 2060.57c-34.36,67.55 -50.18,137.59 -50.18,205.45 0,85.41 24.39,168.01 67.64,238.55 42.89,69.95 105.08,128.7 180.97,167.33 59.89,30.47 129.48,48.01 205.91,48.01l1201.54 0c100.33,0 190.76,-24.48 267.29,-66.55 87.85,-48.28 160.03,-120.13 210.3,-205.19 49.96,-84.5 77.97,-182.42 77.97,-283.48 0,-88.67 -21.8,-179.84 -69.4,-266.43l-1043.46 -1898.28z"/>
 </g>
</svg>
