<svg width="81" height="32" viewBox="0 0 81 32" fill="none" xmlns="http://www.w3.org/2000/svg">
<g clip-path="url(#clip0_780_709)">
<path fill-rule="evenodd" clip-rule="evenodd" d="M1.44399 3.74832L1.44336 3.71048V0.68185H4.46559V22.8954L4.46684 22.9647V25.9619H1.44336V22.9333L1.44399 22.8954V3.74832Z" fill="#98A4AE"/>
<path fill-rule="evenodd" clip-rule="evenodd" d="M32.1747 16.7556C32.2523 21.3502 35.095 25.0246 38.5244 24.963C41.9532 24.9015 44.6695 21.127 44.5919 16.5325C44.5137 11.9373 41.671 8.26289 38.2416 8.32509C34.8128 8.38665 32.0965 12.1611 32.1747 16.7556ZM57.1983 11.2005C57.2771 11.3755 57.0899 10.9388 57.0899 10.9388L57.1983 11.2005ZM59.258 30.2219C59.3965 29.9847 59.5895 29.6217 59.8191 29.1683L59.258 30.2219ZM59.4356 9.6153C59.4721 9.71726 59.5145 9.8237 59.5619 9.93592L60.5796 12.4426L59.4356 9.6153ZM46.7722 22.2338C48.6401 23.9396 50.3221 24.8213 52.4729 24.8213C54.6743 24.838 56.6314 23.7549 56.6314 21.6702C56.6314 19.9305 55.0982 18.9128 52.3587 17.7476C50.0374 16.737 48.3099 16.0284 47.407 14.5658C47.5173 15.2012 47.575 15.8579 47.575 16.5299C47.575 22.1723 43.5069 26.747 38.4885 26.747C33.47 26.747 29.4019 22.1723 29.4019 16.5299C29.4019 13.1281 30.8807 10.1148 33.1539 8.25776H27.0049V22.8956L27.0056 22.954V25.9621H24.2745V23.0521C24.2764 23.0008 24.277 22.9488 24.277 22.8956V8.25776H21.8691V6.41545H24.3123C24.6278 2.69875 26.9164 0.596725 30.0849 0.596725C32.1394 0.596725 33.2674 0.812191 33.9189 1.1155V3.63498C33.9087 3.82287 33.9087 3.93765 33.9087 3.93765C33.8804 3.93445 33.8131 3.93316 33.8131 3.93316C32.8243 3.01553 31.8489 2.33259 29.5706 2.33516C27.7558 2.33516 26.5554 3.81838 26.9748 6.41545H37.1964C37.6189 6.34812 38.0498 6.31285 38.4885 6.31285C42.1288 6.31285 45.2697 8.7201 46.7196 12.197C46.7061 12.004 46.6997 11.8026 46.6997 11.5923C46.6997 7.96471 50.19 6.42186 53.8157 6.42956C53.9542 6.42892 54.0901 6.42955 54.2235 6.43276C55.4996 6.41224 57.3176 6.83098 58.4276 7.12467L60.5796 12.4426L63.655 19.9888L64.0161 21.2008L64.4181 19.9888L68.3073 10.3027C69.0249 7.63575 71.865 6.48149 75.002 6.4879C76.5615 6.48085 77.7132 6.67002 79.0945 7.15866V10.0879C77.3939 8.84451 76.1761 8.12182 74.2466 8.12182C72.5505 8.12182 70.5119 8.87722 70.5119 11.3884C70.4792 13.2756 71.6046 13.6205 74.9071 15.2692C77.6215 16.4549 80.1256 17.7637 80.1404 20.7949C80.1404 25.8486 75.1911 26.7239 72.782 26.7316C70.6312 26.7316 68.66 26.1974 67.5635 25.2798V21.9434L67.7398 22.0902C69.6963 23.928 71.4251 24.8803 73.6592 24.8803C75.8613 24.897 77.8177 23.8133 77.8177 21.7285C77.8177 19.9888 76.2845 18.9712 73.5451 17.806C70.9268 16.6659 69.2089 15.9105 68.5067 14.022C67.4391 16.6415 62.4726 28.8092 61.3036 31.4102H58.6257L59.8377 29.1337C60.5091 27.8038 61.4857 25.7171 62.3533 23.7209L57.1983 11.2005C57.1636 11.1242 57.079 10.9318 56.9065 10.5374C56.5109 9.63068 56.1428 8.79321 55.0296 8.37127C54.4332 8.16927 53.7984 8.06346 53.0603 8.06346C51.3642 8.06346 49.1948 8.81886 49.1948 11.33C49.1621 13.2172 50.4177 13.5622 53.7208 15.2102C56.4352 16.3965 58.9393 17.7053 58.954 20.7365C58.954 25.7902 54.0042 26.6649 51.595 26.6732C49.6828 26.6732 47.9117 26.2506 46.7722 25.5119V22.2338Z" fill="#98A4AE"/>
<path fill-rule="evenodd" clip-rule="evenodd" d="M10.1054 6.60418L10.1388 8.81521L10.1369 8.96398L10.1663 8.96334C10.2016 8.871 10.2491 8.79277 10.294 8.73441C11.404 7.5372 12.8032 6.34767 16.1287 6.34767C19.3119 6.34767 21.3722 9.06851 21.4549 10.7813L21.4581 22.8958V22.9561V25.9623H18.7303V22.3501L18.7296 12.0369C18.7296 9.90149 16.8668 8.35736 14.5865 8.35736C12.6909 8.35736 10.258 10.0733 10.1772 11.8105V22.899L10.1785 22.9805V25.9648H7.44934V9.14994L7.45001 6.60418H10.1054Z" fill="#98A4AE"/>
</g>
<defs>
<clipPath id="clip0_780_709">
<rect width="80" height="32" fill="white" transform="translate(0.747314)"/>
</clipPath>
</defs>
</svg>
