<svg width="49" height="32" viewBox="0 0 49 32" fill="none" xmlns="http://www.w3.org/2000/svg">
<g clip-path="url(#clip0_780_688)">
<path d="M14.297 13.5732V21.4094H11.8026V11.5597L16.9524 11.5648C19.1398 11.5648 19.8849 13.1073 19.8849 14.5084V21.4094H17.3949V14.5213C17.3949 13.9344 17.0911 13.5732 16.3583 13.5732L14.297 13.5732ZM31.2591 13.4556C30.4065 13.4556 29.7466 13.8939 29.471 14.4889C29.3077 14.8461 29.2515 15.1199 29.2323 15.5573H33.07C33.0207 14.4889 32.5362 13.4556 31.2591 13.4556ZM29.2323 17.2551C29.2323 18.531 30.0255 19.47 31.4416 19.47C32.5434 19.47 33.091 19.1647 33.728 18.531L35.2687 20.002C34.2822 20.9759 33.2471 21.5673 31.4233 21.5673C29.0354 21.5673 26.7502 20.2653 26.7502 16.4706C26.7502 13.2283 28.7454 11.3928 31.3671 11.3928C34.0246 11.3928 35.5599 13.5417 35.5599 16.3565V17.2551H29.2323ZM24.6445 21.3971C22.6123 21.3971 21.7501 19.9825 21.7501 18.5853V8.8761H24.2407V11.5597H26.1182V13.5732H24.2407V18.4292C24.2407 19.0014 24.5109 19.319 25.105 19.319H26.1182V21.3971H24.6445ZM9.58308 10.1985H7.0715V7.81275H9.58308V10.1985ZM9.5894 21.513C7.70856 21.3322 7.06881 20.1914 7.06881 18.875L7.07153 11.5597H9.58942L9.5894 21.513ZM39.524 21.3025C37.647 21.1215 37.0103 19.9825 37.0103 18.6679V7.4732H39.524V21.3025ZM48.3115 9.09105C46.0335 -2.01534 24.4743 -2.71843 10.578 5.74127V6.67524C24.4602 -0.45903 44.1484 -0.417001 45.9422 9.81246C46.5423 13.195 44.6363 16.7216 41.2322 18.7486V21.4007C45.3295 19.9017 49.5316 15.041 48.3115 9.09105ZM23.0513 28.5229C13.4606 29.4095 3.46655 28.0174 2.06816 20.5232C1.38367 16.8287 3.06667 12.9125 5.29935 10.4798V9.17902C1.2801 12.7035 -0.901251 17.1656 0.354541 22.4379C1.95738 29.1987 10.5348 33.0301 23.6268 31.7577C28.8066 31.2522 35.5864 29.5866 40.2997 26.9997V23.3245C36.0229 25.8712 28.9456 27.9772 23.0513 28.5229Z" fill="#98A4AE"/>
<path d="M42.4296 8.21648C42.4296 8.09459 42.3585 8.05587 42.1957 8.05587H42.0387V8.40081C42.0616 8.40081 42.1756 8.40501 42.1957 8.40501C42.3585 8.40501 42.4296 8.35067 42.4296 8.23659V8.21648ZM42.6746 9.07179H42.4885C42.4716 9.07179 42.4569 9.06127 42.4497 9.04717L42.1957 8.61667C42.1912 8.60797 42.1693 8.59745 42.1606 8.59745H42.0465V9.02435C42.0465 9.04717 42.0309 9.07179 42.0009 9.07179H41.8325C41.8115 9.07179 41.7905 9.04717 41.7905 9.02435V7.94449C41.7905 7.88204 41.8148 7.85593 41.8676 7.84782C41.9271 7.84002 42.0886 7.83461 42.1756 7.83461C42.4849 7.83461 42.6719 7.92588 42.6719 8.21648V8.23659C42.6719 8.41641 42.5824 8.51128 42.4437 8.55781L42.707 9.00303C42.7087 9.01204 42.7148 9.02436 42.7148 9.03485C42.7148 9.05226 42.7043 9.07179 42.6746 9.07179ZM42.2327 7.63976C41.7745 7.63976 41.4041 8.01803 41.4041 8.47346C41.4041 8.92948 41.7745 9.30174 42.2327 9.30174C42.6884 9.30174 43.0625 8.92948 43.0625 8.47346C43.0625 8.01803 42.6884 7.63976 42.2327 7.63976ZM42.2327 9.47346C41.6761 9.47346 41.2321 9.02435 41.2321 8.47346C41.2321 7.92346 41.6761 7.47314 42.2327 7.47314C42.7833 7.47314 43.2357 7.92346 43.2357 8.47346C43.2357 9.02435 42.7833 9.47346 42.2327 9.47346Z" fill="#98A4AE"/>
</g>
<defs>
<clipPath id="clip0_780_688">
<rect width="48.526" height="32" fill="white"/>
</clipPath>
</defs>
</svg>
