<svg width="140" height="18" viewBox="0 0 140 18" fill="none" xmlns="http://www.w3.org/2000/svg">
<g clip-path="url(#clip0_780_692)">
<path d="M60.29 11.7122H69.434L64.604 3.91222L55.724 18.0002H51.686L62.486 1.09822C62.7215 0.760951 63.0343 0.485009 63.3983 0.293518C63.7623 0.102027 64.167 0.000562187 64.5783 -0.00237573C64.9896 -0.00531365 65.3956 0.0903608 65.7623 0.276632C66.1291 0.462904 66.4458 0.734348 66.686 1.06822L77.516 18.0002H73.478L71.576 14.8502H62.324L60.308 11.7122M102.266 14.8502V0.168225H98.834V16.2962C98.8334 16.5203 98.8783 16.7423 98.9659 16.9485C99.0536 17.1548 99.1822 17.3411 99.344 17.4962C99.5064 17.6624 99.7006 17.7943 99.915 17.8839C100.129 17.9736 100.36 18.0193 100.592 18.0182H116.192L118.226 14.8682H102.248M45.524 12.2282C47.1233 12.2282 48.657 11.5929 49.7879 10.4621C50.9187 9.33123 51.554 7.79748 51.554 6.19822C51.554 4.59897 50.9187 3.06521 49.7879 1.93437C48.657 0.803526 47.1233 0.168225 45.524 0.168225H30.524V18.0002H33.95V3.32422H45.314C46.0794 3.32422 46.8135 3.62828 47.3547 4.16951C47.896 4.71074 48.2 5.44481 48.2 6.21022C48.2 6.97564 47.896 7.7097 47.3547 8.25093C46.8135 8.79216 46.0794 9.09622 45.314 9.09622H35.648L45.884 18.0002H50.858L43.982 12.2282H45.524ZM9.45202 18.0002H19.814C22.1379 17.9399 24.3463 16.9744 25.9686 15.3095C27.5909 13.6445 28.4988 11.4118 28.4988 9.08722C28.4988 6.7626 27.5909 4.5299 25.9686 2.86496C24.3463 1.20003 22.1379 0.234523 19.814 0.174225H9.45202C8.26209 0.143349 7.07802 0.351054 5.96965 0.785092C4.86127 1.21913 3.85103 1.87071 2.99849 2.70142C2.14595 3.53212 1.46838 4.52512 1.00574 5.62187C0.543098 6.71861 0.304749 7.89689 0.304749 9.08722C0.304749 10.2776 0.543098 11.4558 1.00574 12.5526C1.46838 13.6493 2.14595 14.6423 2.99849 15.473C3.85103 16.3037 4.86127 16.9553 5.96965 17.3894C7.07802 17.8234 8.26209 18.0311 9.45202 18.0002ZM19.58 14.8622H9.68002C8.18219 14.8139 6.76187 14.1849 5.71941 13.1083C4.67695 12.0317 4.09409 10.5918 4.09409 9.09322C4.09409 7.59461 4.67695 6.15475 5.71941 5.07813C6.76187 4.00151 8.18219 3.37254 9.68002 3.32422H19.58C20.3533 3.29928 21.1236 3.43005 21.8454 3.70874C22.5671 3.98744 23.2254 4.40837 23.7812 4.94654C24.337 5.4847 24.7789 6.12911 25.0808 6.84146C25.3826 7.55381 25.5381 8.31957 25.5381 9.09322C25.5381 9.86688 25.3826 10.6326 25.0808 11.345C24.7789 12.0573 24.337 12.7017 23.7812 13.2399C23.2254 13.7781 22.5671 14.199 21.8454 14.4777C21.1236 14.7564 20.3533 14.8872 19.58 14.8622ZM84.674 18.0002H95.252L97.256 14.8622H84.908C84.1348 14.8872 83.3644 14.7564 82.6427 14.4777C81.921 14.199 81.2627 13.7781 80.7069 13.2399C80.1511 12.7017 79.7091 12.0573 79.4073 11.345C79.1055 10.6326 78.95 9.86688 78.95 9.09322C78.95 8.31957 79.1055 7.55381 79.4073 6.84146C79.7091 6.12911 80.1511 5.4847 80.7069 4.94654C81.2627 4.40837 81.921 3.98744 82.6427 3.70874C83.3644 3.43005 84.1348 3.29928 84.908 3.32422H94.958L96.986 0.174225H84.674C83.4841 0.143349 82.3 0.351054 81.1917 0.785092C80.0833 1.21913 79.073 1.87071 78.2205 2.70142C77.368 3.53212 76.6904 4.52512 76.2277 5.62187C75.7651 6.71861 75.5268 7.89689 75.5268 9.08722C75.5268 10.2776 75.7651 11.4558 76.2277 12.5526C76.6904 13.6493 77.368 14.6423 78.2205 15.473C79.073 16.3037 80.0833 16.9553 81.1917 17.3894C82.3 17.8234 83.4841 18.0311 84.674 18.0002ZM126.596 14.8622C125.339 14.8627 124.116 14.4527 123.113 13.6947C122.11 12.9366 121.382 11.8718 121.04 10.6622H135.692L137.708 7.51822H121.04C121.382 6.30811 122.109 5.2428 123.112 4.48457C124.115 3.72634 125.339 3.31676 126.596 3.31822H136.652L138.662 0.168225H126.362C124.038 0.228523 121.83 1.19403 120.207 2.85896C118.585 4.5239 117.677 6.7566 117.677 9.08122C117.677 11.4058 118.585 13.6385 120.207 15.3035C121.83 16.9684 124.038 17.9339 126.362 17.9942H136.94L138.95 14.8562H126.59" fill="#98A4AE"/>
</g>
<defs>
<clipPath id="clip0_780_692">
<rect width="138.6" height="18" fill="white" transform="translate(0.536011)"/>
</clipPath>
</defs>
</svg>
