<svg width="131" height="20" viewBox="0 0 131 20" fill="none" xmlns="http://www.w3.org/2000/svg">
<g clip-path="url(#clip0_780_700)">
<mask id="mask0_780_700" style="mask-type:luminance" maskUnits="userSpaceOnUse" x="-10" y="-11" width="151" height="42">
<path d="M-9.84479 -10.0026H140.747V30.0005H-9.84479V-10.0026Z" fill="white"/>
</mask>
<g mask="url(#mask0_780_700)">
<path d="M124.134 8.78422V11.5068H126.047V14.208C126.053 14.4494 126.04 14.7097 125.999 14.918C125.923 15.4219 125.444 16.2798 124.086 16.2798C122.736 16.2798 122.266 15.4219 122.184 14.918C122.15 14.7097 122.135 14.4494 122.135 14.208V5.67621C122.135 5.37442 122.156 5.0441 122.22 4.79409C122.312 4.33937 122.715 3.44264 124.076 3.44264C125.504 3.44264 125.86 4.38803 125.942 4.79409C125.996 5.06304 125.999 5.51417 125.999 5.51417V6.55017H130.7V5.93772C130.7 5.93772 130.721 5.29867 130.664 4.70229C130.311 1.20044 127.426 0.0925236 124.117 0.0925236C120.803 0.0925236 117.976 1.21075 117.564 4.70229C117.527 5.02157 117.47 5.5959 117.47 5.93772V13.7861C117.47 14.128 117.481 14.3926 117.545 15.0173C117.851 18.4227 120.803 19.6299 124.104 19.6299C127.426 19.6299 130.357 18.4227 130.669 15.0173C130.724 14.3926 130.73 14.128 130.737 13.7861V8.78422H124.134ZM91.7176 0.594706H86.9963V14.4048C87.0038 14.6455 86.9963 14.9159 86.9549 15.1141C86.8563 15.5777 86.4635 16.4699 85.1609 16.4699C83.8751 16.4699 83.4719 15.5777 83.3809 15.1141C83.3336 14.9159 83.3277 14.6455 83.3336 14.4048V0.594706H78.6139V13.9762C78.6079 14.3212 78.6349 15.0259 78.6553 15.2105C78.9811 18.6974 81.7293 19.8296 85.1609 19.8296C88.5992 19.8296 91.3458 18.6974 91.6775 15.2105C91.7037 15.0259 91.7379 14.3212 91.7176 13.9762V0.594706ZM48.3382 0.594706L45.9831 15.187L43.6294 0.594706H36.0138L35.6099 19.2624H40.2755L40.4018 1.98116L43.6119 19.2624H48.3456L51.5586 1.98116L51.6854 19.2624H56.3628L55.9452 0.594706H48.3382ZM20.1415 0.594706L16.6835 19.2624H21.7262L24.332 1.98116L26.8753 19.2624H31.8829L28.4394 0.594706H20.1415ZM108.217 15.6244L103.821 0.594706H96.8937V19.0678H101.476L101.21 3.55722L105.932 19.0678H112.575V0.594706H107.963L108.217 15.6244ZM65.8285 5.45304C65.7455 5.08438 65.7695 4.6927 65.8124 4.48799C65.9459 3.89041 66.3475 3.23865 67.5043 3.23865C68.5825 3.23865 69.2146 3.91078 69.2146 4.91946V6.06093H73.8169V4.75981C73.8169 0.73757 70.2108 0.105707 67.5999 0.105707C64.3116 0.105707 61.6262 1.18965 61.1358 4.21616C61.0061 5.03979 60.974 5.77089 61.1804 6.70382C61.98 10.4775 68.5496 11.5722 69.5032 13.9587C69.6714 14.4108 69.6233 14.9873 69.5374 15.327C69.3946 15.948 68.9768 16.5727 67.7382 16.5727C66.5766 16.5727 65.8774 15.9049 65.8774 14.8984L65.8759 13.1068H60.9222V14.5309C60.9222 18.6574 64.1544 19.9024 67.6356 19.9024C70.9697 19.9024 73.7234 18.7631 74.1652 15.6748C74.3759 14.0791 74.217 13.0397 74.1323 12.6483C73.3605 8.77775 66.3585 7.6135 65.8285 5.45304ZM5.11777 5.40726C5.0274 5.03092 5.04849 4.63373 5.09883 4.42663C5.22635 3.83192 5.63025 3.16866 6.80744 3.16866C7.89929 3.16866 8.54218 3.84726 8.54218 4.86409V6.01946H13.1985V4.70804C13.1985 0.647202 9.5372 -1.90735e-06 6.89781 -1.90735e-06C3.58198 -1.90735e-06 0.8726 1.10072 0.376891 4.14905C0.241218 4.98586 0.217959 5.72199 0.414037 6.66523C1.22232 10.4818 7.85687 11.5854 8.82216 14.0004C9.0029 14.4494 8.94824 15.0259 8.85859 15.3787C8.70542 16.0063 8.28427 16.6398 7.0354 16.6398C5.86924 16.6398 5.1717 15.9605 5.1717 14.9401L5.16523 13.1437H0.155884V14.5712C0.155884 18.7449 3.43384 20 6.94216 20C10.315 20 13.0848 18.8506 13.5367 15.7265C13.7613 14.1162 13.5928 13.0682 13.517 12.6708C12.7291 8.75282 5.64919 7.59241 5.11777 5.40726Z" fill="#98A4AE"/>
</g>
</g>
<defs>
<clipPath id="clip0_780_700">
<rect width="130.582" height="20" fill="white" transform="translate(0.155884)"/>
</clipPath>
</defs>
</svg>
