<?xml version="1.0" encoding="utf-8"?>
<!-- Generator: Adobe Illustrator 27.7.0, SVG Export Plug-In . SVG Version: 6.00 Build 0)  -->
<svg version="1.1" id="Layer_2" xmlns="http://www.w3.org/2000/svg" xmlns:xlink="http://www.w3.org/1999/xlink" x="0px" y="0px"
	 viewBox="0 0 231 231" style="enable-background:new 0 0 231 231;" xml:space="preserve">
<style type="text/css">
	.st0{fill:#FFFFFF;}
</style>
<g>
	<g transform="scale(5.12,5.12)">
		<path class="st0" d="M22.6,1.2c-11.9,0-21.5,9.6-21.5,21.5c0,10.8,7.9,19.7,18.3,21.2V28.4H14v-5.6h5.3V19c0-6.2,3-9,8.2-9
			c2.5,0,3.8,0.2,4.4,0.3v4.9h-3.5c-2.2,0-3,2.1-3,4.4v3.1h6.4L31,28.4h-5.6v15.6C36,42.5,44,33.5,44,22.7
			C44,10.8,34.4,1.2,22.6,1.2z"/>
	</g>
</g>
</svg>
