<?xml version="1.0" encoding="utf-8"?>
<!-- Generator: Adobe Illustrator 27.7.0, SVG Export Plug-In . SVG Version: 6.00 Build 0)  -->
<svg version="1.1" id="Layer_1" xmlns="http://www.w3.org/2000/svg" xmlns:xlink="http://www.w3.org/1999/xlink" x="0px" y="0px"
	 viewBox="0 0 256 214" style="enable-background:new 0 0 256 214;" xml:space="preserve">
<style type="text/css">
	.st0{fill-rule:evenodd;clip-rule:evenodd;fill:#FFFFFF;}
</style>
<g id="SVGRepo_bgCarrier">
</g>
<g id="SVGRepo_tracerCarrier">
</g>
<g id="SVGRepo_iconCarrier">
	<g id="Page-1">
		<g id="Dribbble-Light-Preview" transform="translate(-60.000000, -7521.000000)">
			<g id="icons" transform="translate(56.000000, 160.000000)">
				<path id="twitter-_x5B__x23_ffffff_x5D_" class="st0" d="M84.5,7573.4c96.6,0,149.4-78.8,149.4-147.1c0-2.2,0-4.5-0.2-6.7
					c10.3-7.3,19.1-16.4,26.2-26.8c-9.6,4.2-19.8,6.9-30.2,8.1c11-6.5,19.2-16.6,23.1-28.6c-10.3,6-21.6,10.3-33.4,12.6
					c-19.9-20.8-53.2-21.8-74.3-2.2c-13.6,12.6-19.4,31.5-15.2,49.4c-42.2-2.1-81.6-21.7-108.2-54c-13.9,23.6-6.8,53.8,16.3,69
					c-8.4-0.2-16.5-2.5-23.8-6.5v0.7c0,24.6,17.6,45.8,42.1,50.7c-7.7,2.1-15.8,2.4-23.7,0.9c6.9,21.1,26.6,35.5,49.1,35.9
					c-18.6,14.4-41.6,22.2-65.2,22.2c-4.2,0-8.3-0.2-12.5-0.7C28,7565.4,56,7573.4,84.5,7573.4"/>
			</g>
		</g>
	</g>
</g>
</svg>
