<?xml version="1.0" encoding="UTF-8"?>
<!-- Generated by Pixelmator Pro 3.6.17 -->
<svg width="92" height="62" viewBox="0 0 92 62" xmlns="http://www.w3.org/2000/svg">
    <path id="Path" fill="#0078fc" stroke="none" d="M 48.959999 61.760002 L 41.400002 61.760002 C 38.869999 61.760002 36.57 60.470001 35.25 58.32 C 33.93 56.160004 33.82 53.529999 34.970001 51.279999 L 42.91 35.669998 L 36.66 24.299999 L 26.349998 42.799999 C 23.620001 47.700001 18.43 50.75 12.82 50.75 L 0.04 50.75 L 17.27 19.690002 C 19.35 15.940002 23.299999 13.610001 27.59 13.610001 C 30.700001 13.610001 33.650002 14.650002 36.029999 16.489998 L 45.48 -0.449997 L 54.66 15.900002 C 56.419998 14.760002 58.5 14.129997 60.690002 14.129997 L 61.580002 14.129997 C 66.470001 14.129997 71.089996 16.720001 73.629997 20.900002 L 92.309998 51.560001 L 77.650002 50.529999 C 72.080002 50.139999 67.120003 46.990002 64.379997 42.119999 L 53.970001 23.57 L 47.849998 35.599998 L 55.84 50.139999 C 57.190002 52.599998 57.139999 55.5 55.720001 57.910004 C 54.290001 60.32 51.77 61.760002 48.970001 61.760002 Z M 45.450001 40.290001 L 38.849998 53.259998 C 38.389999 54.160004 38.43 55.18 38.959999 56.050003 C 39.490002 56.919998 40.380001 57.410004 41.389999 57.410004 L 48.950001 57.410004 C 50.200001 57.410004 51.32 56.769997 51.950001 55.699997 C 52.580002 54.629997 52.599998 53.34 52 52.240002 L 45.43 40.299999 Z M 56.790001 19.709999 L 68.169998 39.98 C 70.190002 43.57 73.839996 45.880001 77.949997 46.169998 L 84.190002 46.610001 L 69.900002 23.16 C 68.139999 20.27 64.949997 18.48 61.57 18.48 L 60.68 18.48 C 59.260002 18.48 57.910004 18.919998 56.800003 19.709999 Z M 7.44 46.389999 L 12.82 46.389999 C 16.85 46.389999 20.58 44.200001 22.540001 40.68 L 33.869999 20.360001 C 32.16 18.84 29.939999 17.970001 27.580002 17.970001 C 24.880001 17.970001 22.379999 19.440002 21.07 21.799999 L 7.43 46.389999 Z M 39.139999 19.860001 C 39.330002 20.16 39.52 20.459999 39.689999 20.779999 L 45.299999 30.98 L 50.790001 20.190002 C 50.990002 19.809998 51.200001 19.43 51.439999 19.080002 L 45.490002 8.479996 L 39.139999 19.860001 Z"/>
</svg>
