<?xml version="1.0" encoding="UTF-8"?>
<!-- Generated by Pixelmator Pro 3.6.17 -->
<svg width="480" height="80" viewBox="0 0 480 80" xmlns="http://www.w3.org/2000/svg">
    <g id="Group">
        <path id="Path" fill="#0078fc" stroke="none" d="M 178.639999 57.150002 L 170.919998 57.150002 L 170.919998 28.02 C 170.919998 20.760002 167.470001 16.309998 160.300003 16.309998 C 153.949997 16.309998 149.320007 21.57 149.320007 28.560001 L 149.320007 57.150002 L 141.699997 57.150002 L 141.699997 28.02 C 141.699997 20.760002 138.070007 16.309998 131.169998 16.309998 C 124.820007 16.309998 120.100006 21.57 120.100006 28.560001 L 120.100006 57.150002 L 112.389999 57.150002 L 112.389999 10.400002 L 119.830002 10.400002 L 119.830002 15.480003 C 122.729996 11.580002 127.089996 9.220001 132.259995 9.220001 C 138.880005 9.220001 143.789993 12.220001 146.690002 17.209999 C 149.589996 12.400002 154.589996 9.220001 161.300003 9.220001 C 172.100006 9.220001 178.630005 16.57 178.630005 28.190002 L 178.630005 57.139999 Z"/>
        <path id="path1" fill="#0078fc" stroke="none" d="M 197.669998 57.150002 L 189.960007 57.150002 L 189.960007 10.400002 L 197.669998 10.400002 L 197.669998 57.139999 Z"/>
        <path id="path2" fill="#0078fc" stroke="none" d="M 252.820007 54.970001 C 252.820007 69.950005 242.470001 80.110001 227.190002 80.110001 C 215.389999 80.110001 206.210007 74.209999 203.690002 64.68 L 212.300003 64.68 C 215.589996 71.669998 223.520004 72.669998 227.190002 72.669998 C 239.949997 72.669998 244.600006 63.410004 244.600006 54.970001 L 244.600006 50.070004 C 241.020004 54.610001 234.830002 58.330002 227.679993 58.330002 C 213.369995 58.330002 202.729996 47.350002 202.729996 33.830002 C 202.729996 20.309998 213.369995 9.230003 227.679993 9.230003 C 235.029999 9.230003 241.410004 13.129997 244.889999 17.849998 L 244.889999 10.410004 L 252.820007 10.410004 L 252.820007 54.970001 Z M 227.679993 16.400002 C 218.300003 16.400002 210.949997 24.209999 210.949997 33.920002 C 210.949997 43.630001 218.300003 51.25 227.679993 51.25 C 237.059998 51.25 244.600006 43.440002 244.600006 33.920002 C 244.600006 24.400002 236.860001 16.400002 227.679993 16.400002 Z"/>
        <path id="path3" fill="#0078fc" stroke="none" d="M 286.279999 16.940002 C 278.200012 16.489998 271.299988 20.75 271.299988 30.100002 L 271.299988 57.150002 L 263.589996 57.150002 L 263.589996 10.400002 L 271.029999 10.400002 L 271.029999 15.660004 C 274.570007 10.669998 280.920013 8.669998 286.279999 9.309998 L 286.279999 16.93 Z"/>
        <path id="path4" fill="#0078fc" stroke="none" d="M 361.179993 57.150002 C 350.290009 58.419998 342.76001 51.980003 342.76001 40.09 L 342.76001 17.760002 L 336.410004 17.760002 L 336.410004 10.410004 L 342.76001 10.410004 L 342.76001 0.43 L 350.380005 0.43 L 350.380005 10.410004 L 361 10.410004 L 361 17.760002 L 350.380005 17.760002 L 350.380005 40.09 C 350.380005 48.350002 355.459991 50.440002 361.179993 50.070004 L 361.179993 57.150002 Z"/>
        <path id="path5" fill="#0078fc" stroke="none" d="M 377.700012 57.150002 L 369.98999 57.150002 L 369.98999 10.400002 L 377.700012 10.400002 L 377.700012 57.139999 Z"/>
        <path id="path6" fill="#0078fc" stroke="none" d="M 432.850006 33.910004 C 432.850006 47.34 422.679993 58.230003 409.339996 58.230003 C 396 58.230003 385.829987 47.34 385.829987 33.910004 C 385.829987 20.480003 396.089996 9.220001 409.339996 9.220001 C 422.589996 9.220001 432.850006 20.290001 432.850006 33.910004 Z M 425.130005 33.910004 C 425.130005 24.199997 418.049988 16.300003 409.339996 16.300003 C 400.630005 16.300003 393.640015 24.199997 393.640015 33.910004 C 393.640015 43.620003 400.720001 51.150002 409.339996 51.150002 C 417.959991 51.150002 425.130005 43.440002 425.130005 33.910004 Z"/>
        <path id="path7" fill="#0078fc" stroke="none" d="M 480.01001 57.150002 L 472.390015 57.150002 L 472.390015 28.740002 C 472.390015 21.57 468.399994 16.309998 460.950012 16.309998 C 453.5 16.309998 448.700012 21.57 448.700012 28.560001 L 448.700012 57.150002 L 440.98999 57.150002 L 440.98999 10.400002 L 448.429993 10.400002 L 448.429993 15.480003 C 451.609985 11.580002 456.420013 9.220001 462.040009 9.220001 C 473.480011 9.220001 480.01001 17.389999 480.01001 29.010002 L 480.01001 57.150002 Z"/>
    </g>
    <path id="path8" fill="#0078fc" stroke="none" d="M 48.93 63.840004 L 41.369999 63.840004 C 38.84 63.840004 36.540001 62.550003 35.220001 60.400002 C 33.900002 58.240005 33.790001 55.610001 34.939999 53.360001 L 42.880001 37.75 L 36.630001 26.380001 L 26.32 44.880001 C 23.59 49.780003 18.4 52.830002 12.790001 52.830002 L 0.01 52.830002 L 17.24 21.770004 C 19.32 18.020004 23.27 15.690002 27.560001 15.690002 C 30.669998 15.690002 33.619999 16.730003 36 18.57 L 45.450001 1.629997 L 54.629997 17.980003 C 56.389999 16.840004 58.470001 16.209999 60.660004 16.209999 L 61.550003 16.209999 C 66.440002 16.209999 71.059998 18.800003 73.599998 22.980003 L 92.279999 53.640003 L 77.620003 52.610001 C 72.050003 52.220001 67.089996 49.070004 64.349998 44.200001 L 53.940002 25.650002 L 47.82 37.68 L 55.809998 52.220001 C 57.160004 54.68 57.110001 57.580002 55.690002 59.990005 C 54.260002 62.400002 51.740002 63.840004 48.939999 63.840004 Z M 45.419998 42.370003 L 38.82 55.34 C 38.360001 56.240005 38.400002 57.260002 38.93 58.130005 C 39.459999 59 40.349998 59.490005 41.360001 59.490005 L 48.919998 59.490005 C 50.169998 59.490005 51.290001 58.849998 51.919998 57.779999 C 52.549999 56.709999 52.57 55.420002 51.970001 54.320004 L 45.400002 42.380001 Z M 56.760002 21.790001 L 68.139999 42.060001 C 70.160004 45.650002 73.809998 47.960003 77.919998 48.25 L 84.160004 48.690002 L 69.870003 25.239998 C 68.110001 22.349998 64.919998 20.559998 61.540001 20.559998 L 60.650002 20.559998 C 59.230003 20.559998 57.879997 21 56.769997 21.790001 Z M 7.41 48.470001 L 12.790001 48.470001 C 16.82 48.470001 20.549999 46.280003 22.509998 42.760002 L 33.84 22.440002 C 32.130001 20.919998 29.91 20.050003 27.549999 20.050003 C 24.849998 20.050003 22.349998 21.520004 21.040001 23.879997 L 7.4 48.470001 Z M 39.110001 21.940002 C 39.299999 22.239998 39.490002 22.540001 39.66 22.860001 L 45.27 33.060001 L 50.759998 22.270004 C 50.959999 21.889999 51.169998 21.510002 51.41 21.160004 L 45.459999 10.559998 L 39.110001 21.940002 Z"/>
    <path id="path9" fill="#0078fc" stroke="none" d="M 321.920013 50.080002 C 318.410004 54.93 313.140015 57.900002 306.390015 57.900002 C 293.26001 57.900002 284.670013 46.93 284.670013 34.160004 C 284.670013 21.389999 293.549988 10.599998 306.390015 10.599998 C 312.859985 10.599998 317.950012 13.389999 321.369995 17.700005 L 321.51001 11.360001 L 329.070007 11.360001 L 329.230011 56.720001 L 322 56.770004 L 321.929993 50.070004 Z M 321.829987 34.170002 C 321.829987 24.010002 314.98999 17.540001 306.950012 17.540001 C 298.910004 17.540001 292.809998 24.279999 292.809998 34.170002 C 292.809998 44.060001 298.730011 50.980003 306.950012 50.980003 C 315.170013 50.980003 321.829987 44.600002 321.829987 34.170002 Z"/>
</svg>
